<svg xmlns="http://www.w3.org/2000/svg" viewBox="0 0 387.2 69"><path d="M72.5 33.7c1.2-.7 2.5-1.5 3.9-2.4 1.5-.9 2.7-2 3.7-3.2 1-1.1 1.5-2.5 1.5-4v-.3c0-3.1-.8-5.3-2.3-6.5-1.5-1.3-3.5-1.9-5.8-1.9-3.8 0-6.6 1.3-8.2 3.9-1.5 2.4-2.2 5.5-2.1 9.3v.9H44.8c0-.2-.1-.4-.1-.6v-1.1l.2-3.9c.3-3.9 1.3-7.4 2.9-10.4 1.7-3.4 4-6.1 7-8.2-1.5-1.4-3.5-2.6-6-3.5C46 .7 42.3.1 37.8.1H0V69h41.2c1 0 1.7 0 2.1-.1h.2v-.1-2.4c.1-2.3.4-4.5 1-6.5.9-2.9 2.2-5.5 3.9-7.8 1.9-2.6 4.2-5 6.8-7.1 2.1-1.8 4.4-3.4 6.9-4.9 0-.1.1-.2.2-.2.5-.3.9-.6 1.4-.9 2.9-1.8 5.9-3.5 8.8-5.3M37.8 17.5c1.3.8 1.9 2 1.9 3.7 0 2.2-.6 3.7-1.9 4.6-1.3.8-3.1 1.1-5.4 1.1H21.3V16.5h11.1c2.3 0 4.1.3 5.4 1M21.3 52.6V39.8h13.3c2.5 0 4.4.5 5.6 1.6 1.2 1 1.8 2.6 1.8 4.6 0 2.6-.8 4.4-2.4 5.3-1.6.9-3.5 1.3-5.8 1.2H21.3M188.8 21h19.9v-7.6h-29v41.2h9.1v-17H206v-7.1h-17.2V21m51.1 3.8h-8.2v15.6c0 3-.4 5.2-1.4 6.5-1 1.4-2.7 2-4.9 2-1.9 0-3.3-.6-4.1-1.8-.8-1.2-1.2-3.1-1.1-5.5V24.8H212v18.4c0 2.5.3 4.6.9 6.4.6 1.8 1.7 3.2 3.3 4.2 1.6 1 3.8 1.6 6.7 1.6 1.8 0 3.5-.4 5.1-1.2 1.6-.8 3-2.1 4.1-3.8h.1v4.2h7.8V24.8m32 5c-.6-1.8-1.7-3.2-3.3-4.2-1.6-1-3.8-1.6-6.7-1.6-1.8 0-3.5.4-5.1 1.2-1.6.8-3 2.1-4 3.8h-.1v-4.1H245v29.8h8.2V38.9c0-3 .5-5.2 1.5-6.5 1-1.4 2.6-2 4.9-2 1.9 0 3.2.6 4 1.8.8 1.2 1.2 3.1 1.1 5.5v16.9h8.2V36.2c0-2.5-.3-4.6-.9-6.4m10.5-3.7c-1.9 1.4-3.4 3.3-4.4 5.7-1 2.3-1.5 4.9-1.5 7.6 0 2.8.5 5.4 1.5 7.8 1 2.4 2.5 4.3 4.5 5.8s4.5 2.3 7.4 2.3c2 0 3.7-.4 5.3-1.1 1.6-.7 2.8-1.9 3.8-3.5h.1v3.8h7.8V13.4h-8.2v15h-.1c-1-1.5-2.2-2.6-3.8-3.3-1.6-.7-3.2-1.1-5-1.1-2.9 0-5.4.7-7.4 2.1m9.6 4c1.8 0 3.2.5 4.2 1.4 1 .9 1.8 2 2.2 3.5.5 1.4.7 2.9.6 4.6 0 1.7-.2 3.3-.6 4.8-.4 1.4-1.2 2.6-2.2 3.5-1 .9-2.5 1.4-4.2 1.4-1.7 0-3.1-.5-4.1-1.4-1.1-.9-1.9-2.1-2.4-3.6s-.7-3-.7-4.6c0-1.7.2-3.2.6-4.7.5-1.4 1.2-2.6 2.3-3.5 1.1-.9 2.5-1.4 4.3-1.4m28.3-5.3h-8.2v29.8h8.2V24.8m0-4.7v-6.8h-8.2v6.8h8.2m32.2 9.7c-.6-1.8-1.7-3.2-3.3-4.2-1.6-1-3.8-1.6-6.7-1.6-1.8 0-3.5.4-5.1 1.2-1.6.8-3 2.1-4 3.8h-.1v-4.1h-7.8v29.8h8.2V38.9c0-3 .5-5.2 1.5-6.5 1-1.4 2.6-2 4.9-2 1.9 0 3.2.6 4 1.8.8 1.2 1.2 3.1 1.1 5.5v16.9h8.2V36.2c0-2.5-.3-4.6-.9-6.4m10.8-3.7c-1.9 1.4-3.4 3.2-4.4 5.4-1 2.2-1.4 4.6-1.4 7.2 0 2.8.4 5.3 1.3 7.6s2.3 4.1 4.1 5.4c1.9 1.3 4.3 2 7.3 2.1 1.8 0 3.5-.4 5.1-1.2 1.6-.8 2.9-1.9 3.8-3.5h.1V53c.1 2.2-.4 4-1.5 5.3-1.1 1.4-2.7 2.1-5 2.1-1.5 0-2.8-.3-3.9-.9-1.1-.6-1.9-1.7-2.2-3.2h-8.1c.2 2.3.9 4.2 2.2 5.6 1.3 1.4 3 2.4 4.9 3.1 2 .7 4 1 6 1 3.4 0 6.1-.5 8.2-1.4 2.1-.9 3.6-2 4.7-3.4s1.8-2.8 2.1-4.3c.4-1.5.5-2.9.5-4.2V24.8h-7.8v3.9h-.1c-1-1.7-2.2-2.9-3.7-3.6-1.5-.8-3.2-1.1-5.2-1.1-2.8 0-5.2.7-7 2.1m3.1 8.3c.5-1.3 1.2-2.3 2.2-3.1 1-.8 2.2-1.2 3.8-1.2 1.8 0 3.2.5 4.2 1.3s1.8 1.9 2.2 3.4c.4 1.4.6 2.9.6 4.6 0 1.4-.2 2.8-.8 4-.5 1.3-1.3 2.3-2.4 3-1 .8-2.3 1.2-3.9 1.2-1.7 0-3-.5-3.9-1.4-1-.9-1.7-2-2.1-3.3-.4-1.3-.6-2.7-.6-4.2 0-1.6.2-3 .7-4.3z" fill="#fff"/><path d="M148 17.3c0-1.8-.3-3.7-1-5.7-.6-2-1.7-3.9-3.2-5.6-1.6-1.8-3.9-3.2-6.8-4.3-2.3-.9-5.2-1.5-8.6-1.7-.4 0-.8 0-1.2-.1H76.4c4.4.2 8.4.9 11.9 2.2 4.2 1.6 7.4 4 9.8 7.1 2.3 3.2 3.5 7.2 3.5 12V21.8c-.1 4.1-1.1 7.6-2.9 10.6-1.8 3.1-4.2 5.7-7.2 7.9-3 2.3-6.2 4.3-9.7 6.2-3.4 1.9-6.8 3.8-10 5.7h30.8V69h24.7c4.1 0 8-.8 11.7-2.5 3.6-1.5 6.6-3.8 8.9-7 2.4-3.1 3.6-6.9 3.6-11.5 0-3.4-.6-6.2-1.7-8.5-1.2-2.3-2.6-4.2-4.4-5.6-1.8-1.4-3.8-2.5-5.9-3.1 2.6-1.4 4.7-3.1 6.2-5.2 1.4-2.1 2.2-4.9 2.3-8.3m-27.5-.9c2.2 0 4 .4 5.3 1 1.3.8 1.9 2 1.9 3.7 0 2.2-.6 3.7-1.9 4.5-1.3.8-3.1 1.2-5.4 1.2h-11.1V16.4h11.2m1.3 36.1h-12.4V39.7h13.3c2.5 0 4.4.6 5.6 1.7 1.2 1 1.9 2.6 1.9 4.6-.1 2.6-.9 4.3-2.5 5.3-1.6.9-3.6 1.3-5.9 1.2z" fill="#3ab8fa"/></svg>