<svg xmlns="http://www.w3.org/2000/svg" viewBox="0 0 500 500"><path d="M156.2 140.1c-6.7 1.6-15.6 7.1-20.2 12.3-15.3 17.4-14.8 42.3 1 58.2 21.1 21.1 56.3 14.3 68.7-13.2 4.5-9.9 4-24.5-1.1-35-4-8.2-13.8-17.4-21.7-20.4-6.5-2.6-20.2-3.6-26.7-1.9z"/><path d="M234 38.7c-44.7 3.6-83.2 18.7-116.5 45.6-10.4 8.4-29.4 28-37.4 38.5-16.9 22.4-28.8 47-35.7 74.2-7.6 30.1-8.4 65.7-2.2 98 12.4 65.5 63.1 126.5 126.7 152.5 22.7 9.3 53.5 15.5 76.7 15.5h6.4V38.5c-6.9-.2-13.2-.2-18 .2zm-41.7 193c-7.9 4.4-15.3 6-26.3 5.9-12.5 0-20.5-2.4-30.7-9-16.4-10.8-24.8-26.7-24.8-46.9 0-16.7 5.1-29.4 16.5-40.8 7.8-7.8 16.5-12.7 26.8-15.1 9-2 22.6-1.2 31.5 1.9 13.5 4.7 25.2 15.1 31.7 28.2 14 28.1 3.5 60.3-24.7 75.8zM432.6 360.8c20.4-32.9 29.8-67.7 29.8-109.8 0-44.8-10.6-81.9-33.1-116-29.1-44-73.2-76.5-121.6-89.5-11.9-3.2-32.8-5.8-50.7-6.8v221l148.4 136.6c5.8-5.5 19.8-23.6 27.2-35.5zM257 425.7l.8-.1c39.9-4.8 80.5-21.8 111-46.5 1.8-1.5 3.6-2.9 4.9-3.8L257 267.9v157.8z"/></svg>