<?xml version="1.0" encoding="utf-8"?>
<!-- Generator: Adobe Illustrator 26.0.1, SVG Export Plug-In . SVG Version: 6.00 Build 0)  -->
<svg version="1.1" id="Слой_1" xmlns="http://www.w3.org/2000/svg" xmlns:xlink="http://www.w3.org/1999/xlink" x="0px" y="0px"
	 viewBox="0 0 554.1 178.4" style="enable-background:new 0 0 554.1 178.4;" xml:space="preserve">
<style type="text/css">
	.st0{fill:#2B379B;}
	.st1{fill:#CC3300;}
	.st2{fill:#FFFFFF;}
</style>
<g transform="matrix( 1, 0, 0, 1, 0,0) ">
	<g>
		<g id="Layer0_0_FILL">
			<path class="st0" d="M280.1,41.5c-1.7-3.3-4.1-5.7-7.2-7.2c-3.1-1.5-6.5-2.3-10.2-2.3c-3.7,0-7,0.9-10,2.6
				c-3,1.7-5.4,4.1-7.2,7.1c-1.7,3-2.6,6.5-2.7,10.4c0.1,4.2,1,7.7,2.7,10.7c1.8,3,4.2,5.3,7.2,6.9c3,1.6,6.3,2.4,10,2.4
				c2.1,0,4.2-0.3,6.3-0.9c2.1-0.6,4.1-1.4,5.9-2.5c1.8-1.1,3.4-2.5,4.6-4.2l-2.8-2.2c-1,1.3-2.3,2.4-3.8,3.3
				c-1.5,0.9-3.2,1.5-5,1.9c-1.8,0.5-3.6,0.7-5.3,0.7c-2.7,0-5.2-0.6-7.5-1.7c-2.3-1.2-4.2-2.8-5.7-4.9c-1.5-2.2-2.4-4.8-2.6-7.9
				H282C282.5,48.9,281.8,44.7,280.1,41.5 M276.5,42.4c1.3,2.3,2,5,2,8.2h-31.6c0.3-3.2,1.2-5.9,2.7-8.2c1.5-2.2,3.4-3.9,5.7-5.1
				c2.3-1.2,4.8-1.8,7.5-1.8c3.2,0,5.9,0.6,8.2,1.8C273.4,38.4,275.2,40.1,276.5,42.4 M336.9,93.3h-13.1l20.8,48.9h13l20.7-48.9
				h-13.1l-6.7,16.2l-7.4,20.3l-7.5-20.5L336.9,93.3 M320.3,96.8c-1.4-1.3-3.2-2.4-5.4-3.3c-2.2-0.8-4.6-1.3-7.1-1.3
				c-1.7,0-3.3,0.1-4.9,0.4c-1.6,0.4-3.2,1.1-4.7,2.1s-2.9,2.5-4.1,4.4l-0.9-5.6l-11.1,0.1V142h12v-25.6c0-3,0.6-5.4,1.7-7.2
				c1.1-1.8,2.6-3.1,4.5-4s3.8-1.2,6-1.2c1.9,0,3.5,0.3,4.8,0.9c1.4,0.5,2.6,1.3,3.8,2.3L320.3,96.8 M317.2,34.5
				c-1.3-0.8-2.7-1.3-4.1-1.8c-1.4-0.4-2.8-0.5-4.3-0.5c-1.7,0-3.4,0.2-5,0.7c-1.6,0.5-3.1,1.3-4.5,2.4c-1.4,1.1-2.5,2.5-3.4,4.2
				l-0.1-6.9h-3.7v39h3.9V48.9c0-2.4,0.6-4.6,1.8-6.5c1.1-1.9,2.6-3.5,4.5-4.7c2-1.2,4.2-1.8,6.6-1.8c1.1,0,2.3,0.1,3.4,0.4
				c1.1,0.3,2.2,0.8,3.2,1.3L317.2,34.5 M348.3,33.7c-2.4-1-4.9-1.4-7.5-1.4c-3.8,0-7.2,0.8-10.2,2.4c-3,1.6-5.4,3.9-7.1,6.9
				c-1.8,3-2.7,6.5-2.7,10.6c0,4.1,0.9,7.7,2.8,10.7c1.8,2.9,4.2,5.2,7.2,6.8c3,1.6,6.3,2.4,10,2.4c2.6,0,5.1-0.5,7.5-1.4
				c2.5-1,4.7-2.4,6.7-4.4l-2.6-2.6c-1.6,1.6-3.4,2.8-5.4,3.6c-2,0.8-4,1.2-6.2,1.2c-3,0-5.7-0.6-8.2-1.9c-2.5-1.2-4.4-3.1-5.9-5.4
				c-1.5-2.4-2.2-5.4-2.2-8.9c0-3.5,0.8-6.5,2.2-8.9c1.5-2.4,3.4-4.2,5.9-5.4c2.5-1.3,5.2-1.9,8.2-1.9c2.1,0,4.2,0.4,6.2,1.1
				s3.9,1.9,5.5,3.5l2.5-2.4C353,36.1,350.8,34.7,348.3,33.7 M225.7,104.2c-2.1,3.8-3.1,8.2-3.1,13.1c0,5.2,1,9.8,3.1,13.6
				c2.1,3.9,5.2,6.9,9.1,9s8.8,3.2,14.4,3.2c2.5,0,5-0.3,7.6-0.9c2.6-0.6,5-1.5,7.2-2.6c2.3-1.2,4.4-2.6,6.1-4.4l-7.7-7.6
				c-0.9,1-2.1,1.8-3.6,2.5c-1.4,0.7-3,1.2-4.7,1.5c-1.6,0.4-3.2,0.6-4.7,0.6c-4.3-0.1-7.6-1-10.1-3c-2.5-1.9-4-4.4-4.4-7.4h37.9
				c0.6-6.7,0-12.3-1.9-16.7c-1.9-4.4-4.8-7.8-8.7-10c-3.9-2.2-8.5-3.3-14-3.3c-5.3,0-9.8,1.1-13.7,3.3
				C230.8,97.4,227.8,100.4,225.7,104.2 M261.3,112h-26.2c0.9-3.1,2.6-5.5,5-7c2.4-1.6,5.3-2.4,8.6-2.4c3.5,0,6.4,0.8,8.6,2.4
				C259.5,106.5,260.9,108.9,261.3,112 M187.1,106.8c0-1.5,0.8-2.7,2.3-3.5c1.5-0.8,3.7-1.2,6.5-1.2c2.3,0,4.5,0.3,6.5,1
				c2,0.7,3.8,1.8,5.6,3.4l6.7-7.9c-2.8-2.4-5.7-4.1-8.7-5.1c-3.1-0.9-6.5-1.4-10.2-1.4c-2.3,0-4.6,0.3-7,0.8
				c-2.4,0.5-4.6,1.4-6.6,2.5c-2,1.2-3.7,2.8-5,4.7c-1.3,1.9-1.9,4.3-1.9,7.1c0.1,3.7,1.1,6.5,3.1,8.6c2.1,2.1,4.6,3.7,7.6,4.6
				c3.1,1,6.2,1.6,9.3,1.8c3.4,0.2,5.9,0.6,7.4,1.5c1.6,0.8,2.3,2,2.3,3.7c0,1.2-0.4,2.2-1.2,3.1c-0.8,0.9-1.9,1.5-3.2,2
				c-1.3,0.5-2.7,0.7-4.3,0.7c-1.8,0-3.8-0.4-6-1c-2.1-0.6-4.2-1.4-6.1-2.4c-1.9-1-3.5-2.1-4.7-3.5l-5.9,8.6
				c2.4,2.5,4.8,4.3,7.2,5.5c2.5,1.3,5,2.1,7.6,2.5c2.5,0.5,5.1,0.7,7.6,0.7c4.6,0,8.5-0.8,11.6-2.2c3.1-1.5,5.4-3.4,7-5.8
				c1.5-2.4,2.3-5,2.3-7.9c0-3.2-0.7-5.8-1.9-7.8s-2.9-3.5-5-4.6c-2.1-1.1-4.3-1.9-6.7-2.3c-2.4-0.5-4.8-0.8-7.1-0.9
				c-3.1-0.2-5.4-0.8-6.9-1.6C187.8,109.6,187.1,108.4,187.1,106.8 M226.9,39.1c2.3,2.3,3.4,5.4,3.5,9.2v23.4h3.9V48.2
				c0-3.2-0.8-6.1-2.1-8.6c-1.4-2.4-3.3-4.3-5.8-5.8c-2.4-1.3-5.3-2-8.5-2c-2,0-4,0.3-5.9,1c-1.9,0.7-3.6,1.8-5.1,3.2
				c-1.5,1.5-2.7,3.3-3.5,5.4c-0.8-2.3-1.9-4.2-3.4-5.6c-1.5-1.4-3.2-2.5-5.2-3.1c-1.9-0.6-3.8-0.9-5.8-0.9c-2.6,0-5,0.5-7.2,1.7
				c-2.3,1.1-4.1,3-5.5,5.6l-0.1-6.5h-3.6v39h3.9V48.5c0-2.5,0.6-4.7,1.6-6.7c1.1-1.9,2.5-3.5,4.3-4.6c1.9-1.1,4.1-1.7,6.6-1.7
				c2.5,0,4.7,0.6,6.5,1.7c1.9,1.1,3.4,2.6,4.4,4.6c1.1,2,1.6,4.2,1.7,6.7v23.1h3.8V48.5c0-2.5,0.6-4.7,1.6-6.7
				c1.1-2,2.5-3.5,4.4-4.7c1.9-1.1,4.1-1.7,6.6-1.7C221.7,35.5,224.7,36.7,226.9,39.1 M396.1,142V93.2h-12V142H396.1 M407.6,103.4
				c-2.3,3.8-3.5,8.6-3.5,14.4c0.1,5.7,1.2,10.5,3.5,14.4c2.3,3.8,5.4,6.6,9.3,8.5c3.9,1.9,8.2,2.9,13,2.9c3.6,0,6.9-0.6,9.9-1.8
				c3.1-1.2,6.1-3.2,8.9-5.9l-8.1-7.9c-1.5,1.5-3.2,2.5-5,3.1c-1.8,0.6-3.7,0.9-5.6,0.9c-2.5,0-4.8-0.6-6.9-1.7
				c-2.1-1.1-3.8-2.6-5-4.8c-1.2-2.1-1.9-4.7-1.9-7.8c0.1-4.3,1.4-7.8,4-10.4c2.6-2.6,5.9-3.9,10-4c1.7,0,3.4,0.3,5.1,0.9
				c1.7,0.6,3.2,1.6,4.6,2.9l7.7-8c-2.6-2.6-5.4-4.5-8.2-5.6c-2.8-1.1-6-1.7-9.3-1.6c-4.8,0-9.1,0.9-13,2.9
				C413.1,96.7,410,99.6,407.6,103.4 M397,71.6V49.3c0-3.4-0.6-6.4-1.8-9c-1.2-2.6-3-4.6-5.5-6.1c-2.4-1.4-5.4-2.2-9.1-2.2
				c-2.7,0-5.4,0.6-7.9,1.8c-2.5,1.2-4.6,3.2-6.2,6V16.2H363v55.4h3.8V50.2c0-2.8,0.6-5.2,1.8-7.4c1.2-2.2,2.8-3.9,4.9-5.2
				c2.1-1.3,4.5-1.9,7.2-1.9c4.4,0,7.5,1.3,9.5,3.7c2,2.4,3,5.7,3,9.8v22.3H397 M444.7,32.6h-3.9v8.6c-1.1-2-2.5-3.7-4.1-5.1
				c-1.7-1.3-3.6-2.3-5.6-3c-2-0.6-4.1-1-6.2-1c-3.7,0-7,0.9-10,2.6c-3,1.6-5.3,3.9-7.1,6.9c-1.8,3-2.7,6.5-2.7,10.5
				c0,4,0.9,7.5,2.7,10.6c1.8,3,4.1,5.3,7.1,7c3,1.7,6.3,2.6,10,2.6c3.2,0,6.2-0.7,9-2.2c2.7-1.5,5.1-3.7,7-6.8v8.2h3.9
				c0-6.5,0-13,0-19.5C444.7,45.6,444.7,39.1,444.7,32.6 M441.1,52.1c0,2.8-0.6,5.4-1.8,7.9c-1.2,2.5-3,4.5-5.4,6.1
				c-2.4,1.6-5.5,2.4-9.1,2.4c-3,0-5.7-0.7-8.1-2.1c-2.4-1.4-4.3-3.3-5.7-5.8c-1.4-2.5-2.1-5.3-2.1-8.6c0-3.3,0.7-6.1,2.1-8.6
				c1.4-2.4,3.3-4.3,5.7-5.7c2.4-1.3,5.1-2,8.1-2c3.6,0.1,6.6,0.9,9.1,2.4c2.4,1.5,4.2,3.6,5.4,6.1
				C440.6,46.8,441.1,49.4,441.1,52.1 M493.6,95.3c-3.9-2.2-8.5-3.3-14-3.3c-5.3,0-9.8,1.1-13.7,3.3c-3.8,2.2-6.8,5.1-8.9,9
				c-2.1,3.8-3.1,8.2-3.2,13.1c0,5.2,1,9.8,3.2,13.6c2.1,3.9,5.2,6.9,9.1,9s8.8,3.2,14.4,3.2c2.5,0,5-0.3,7.5-0.9
				c2.6-0.6,5-1.5,7.2-2.6c2.3-1.2,4.4-2.6,6.1-4.4l-7.7-7.6c-0.9,1-2.2,1.8-3.7,2.5c-1.4,0.7-3,1.2-4.7,1.5
				c-1.6,0.4-3.2,0.6-4.7,0.6c-4.3-0.1-7.6-1-10.1-3c-2.5-1.9-4-4.4-4.4-7.4h37.9c0.6-6.7,0-12.3-1.9-16.7
				C500.3,100.9,497.5,97.5,493.6,95.3 M488.6,105c2.2,1.6,3.6,3.9,4,7h-26.2c0.9-3.1,2.6-5.5,5-7c2.4-1.6,5.3-2.4,8.6-2.4
				C483.5,102.6,486.4,103.4,488.6,105 M514.3,100.1c-1.3,1.9-1.9,4.3-2,7.1c0.1,3.7,1.2,6.5,3.2,8.6c2.1,2.1,4.6,3.7,7.7,4.6
				c3.1,1,6.2,1.6,9.3,1.8c3.4,0.2,5.9,0.6,7.4,1.5c1.6,0.8,2.3,2,2.3,3.7c0,1.2-0.5,2.2-1.2,3.1c-0.8,0.9-1.9,1.5-3.2,2
				c-1.3,0.5-2.7,0.7-4.3,0.7c-1.8,0-3.8-0.4-6-1c-2.1-0.6-4.2-1.4-6.1-2.4c-1.9-1-3.5-2.1-4.7-3.5l-5.9,8.6
				c2.4,2.5,4.8,4.3,7.2,5.5c2.5,1.3,5,2.1,7.6,2.5c2.5,0.5,5.1,0.7,7.7,0.7c4.6,0,8.5-0.8,11.6-2.2c3.1-1.5,5.4-3.4,7-5.8
				c1.5-2.4,2.3-5,2.3-7.9c0-3.2-0.7-5.8-2-7.8c-1.3-2-2.9-3.5-5-4.6c-2.1-1.1-4.3-1.9-6.7-2.3c-2.4-0.5-4.8-0.8-7.2-0.9
				c-3.1-0.2-5.4-0.8-6.8-1.6c-1.5-0.9-2.2-2.1-2.2-3.7c0-1.5,0.8-2.7,2.3-3.5c1.5-0.8,3.7-1.2,6.5-1.2c2.3,0,4.5,0.3,6.5,1
				c2,0.7,3.8,1.8,5.5,3.4l6.7-7.9c-2.8-2.4-5.7-4.1-8.7-5.1c-3.1-0.9-6.5-1.4-10.2-1.4c-2.3,0-4.6,0.3-6.9,0.8
				c-2.4,0.5-4.6,1.4-6.7,2.5C517.3,96.6,515.6,98.2,514.3,100.1 M488.3,39.9c-1.5-2.6-3.5-4.5-6.2-5.9c-2.6-1.3-5.7-2-9.2-2.1
				c-2.8,0-5.4,0.7-7.9,1.9c-2.5,1.2-4.5,3.2-6,5.8v-6.9h-3.8v39h3.8V49.9c0-2.7,0.6-5.1,1.8-7.2c1.2-2.1,2.8-3.8,4.8-5.1
				c2-1.2,4.4-1.9,7.1-1.9c4.3,0,7.7,1.1,10.1,3.4s3.7,5.7,3.8,10.1v22.4h3.8V49.1C490.5,45.5,489.8,42.4,488.3,39.9 M508,20.9
				l-3.8,0.4v11.4h-8.3v3.2h8.3v23.8c-0.1,3.9,0.7,7,2.4,9.2c1.6,2.2,4.5,3.3,8.5,3.4c1.2,0,2.5-0.2,3.7-0.6
				c1.2-0.4,2.4-0.9,3.7-1.4l-1.4-3.1c-1,0.5-2,0.9-3,1.1c-1,0.3-2,0.4-3,0.4c-2,0-3.5-0.4-4.5-1.2c-1.1-0.8-1.8-1.8-2.1-3.1
				c-0.3-1.4-0.5-2.9-0.5-4.7V35.9h13.3v-3.2H508V20.9z"/>
		</g>
	</g>
</g>
<g transform="matrix( 1, 0, 0, 1, 0,0) ">
	<g>
		<g id="Layer0_1_FILL">
			<path class="st1" d="M0,0l117.2,89.2L0,178.4l129.2-89.2L0,0z"/>
			<path class="st0" d="M0,0v178.4l117.2-89.2L0,0z"/>
		</g>
	</g>
</g>
<g transform="matrix( 1, 0, 0, 1, 0,0) ">
	<g>
		<g id="Layer0_2_FILL">
			<path class="st2" d="M6.4,76.6l21.9,16.2L21.2,119l22-15.8l22.8,15l-8.3-26L79,75.2l-27.2-0.1l-9.6-25.5l-8.6,25.9L6.4,76.6z"/>
		</g>
	</g>
</g>
</svg>
