<?xml version="1.0" standalone="no"?>
<!DOCTYPE svg PUBLIC "-//W3C//DTD SVG 20010904//EN"
 "http://www.w3.org/TR/2001/REC-SVG-20010904/DTD/svg10.dtd">
<svg version="1.0" xmlns="http://www.w3.org/2000/svg"
 width="500.000000pt" height="500.000000pt" viewBox="0 0 500.000000 500.000000"
 preserveAspectRatio="xMidYMid meet">
<metadata>
Created by potrace 1.11, written by Peter Selinger 2001-2013
</metadata>
<g transform="translate(0.000000,500.000000) scale(0.100000,-0.100000)"
fill="#000000" stroke="none">
<path d="M1160 2495 c0 -1738 3 -2175 12 -2169 42 25 3106 2130 3121 2143 16
16 -73 80 -1529 1091 -851 591 -1560 1083 -1576 1093 l-28 19 0 -2177z m1185
612 c89 -220 111 -268 129 -271 11 -3 154 -12 316 -21 162 -9 296 -18 298 -19
1 -2 -105 -95 -238 -207 -132 -112 -240 -209 -240 -214 0 -6 40 -156 90 -335
49 -178 88 -326 85 -328 -2 -3 -128 77 -280 178 -152 100 -281 179 -288 176
-7 -3 -133 -86 -282 -184 -148 -99 -271 -179 -272 -178 -1 1 36 139 83 306 46
168 88 320 93 338 l10 33 -240 202 -240 202 303 23 c167 13 310 27 318 31 8 5
64 132 125 284 60 151 113 270 116 264 4 -7 55 -132 114 -280z"/>
</g>
</svg>
