<svg xmlns="http://www.w3.org/2000/svg" xmlns:xlink="http://www.w3.org/1999/xlink" preserveAspectRatio="none" width="554" height="178"><defs><g id="a"><path fill="#A8A8A8" d="m0 178.4 117.15-89.2L0 0v178.4m28.35-85.55L6.4 76.65l27.2-1.2 8.55-25.9 9.6 25.5L79 75.2 57.7 92.25 66 118.2l-22.8-15-22.05 15.85 7.2-26.2m160.45 0q-3.55.8-6.65 2.55-3.05 1.8-4.95 4.7-1.9 2.9-1.95 7.1.15 5.5 3.15 8.65 3.1 3.2 7.65 4.65 4.6 1.5 9.3 1.75 5.15.25 7.4 1.45 2.35 1.2 2.3 3.7-.05 1.8-1.25 3.15-1.25 1.3-3.25 2-1.95.75-4.3.7-2.75-.05-6-.95-3.2-.9-6.1-2.45-2.9-1.45-4.7-3.45l-5.9 8.6q3.55 3.7 7.25 5.55 3.75 1.9 7.6 2.5 3.8.7 7.65.65 6.95-.05 11.65-2.25 4.6-2.2 6.95-5.8 2.3-3.6 2.3-7.95-.05-4.8-1.95-7.8t-5-4.6q-3.1-1.65-6.7-2.3-3.65-.7-7.15-.9-4.65-.3-6.85-1.65-2.2-1.3-2.2-3.65 0-2.3 2.3-3.55 2.25-1.25 6.55-1.25 3.5-.05 6.5.95 2.95 1 5.55 3.4l6.7-7.9q-4.2-3.6-8.7-5.05-4.6-1.4-10.25-1.35-3.4 0-6.95.8M212 32.9q-2.85 1.1-5.05 3.2-2.25 2.2-3.5 5.4-1.2-3.5-3.45-5.6-2.25-2.15-5.15-3.1-2.85-.95-5.85-.95-3.85-.05-7.25 1.7-3.4 1.7-5.5 5.55l-.05-6.5h-3.65v39.05h3.85V48.5q.05-3.75 1.6-6.7 1.6-2.9 4.35-4.55 2.8-1.65 6.55-1.7 3.75.05 6.55 1.7 2.85 1.65 4.4 4.55 1.6 2.95 1.65 6.7v23.15h3.85V48.5q.05-3.75 1.6-6.7 1.6-2.95 4.4-4.65 2.85-1.65 6.55-1.7 5.7.1 9.05 3.6 3.4 3.5 3.45 9.2v23.4h3.9v-23.4q-.05-4.85-2.15-8.6-2.1-3.65-5.75-5.75-3.65-2-8.5-2.05-3.05 0-5.9 1.05m108.35 63.85q-2.05-2-5.4-3.3-3.3-1.25-7.1-1.3-2.5-.05-4.9.4-2.45.55-4.7 2.05-2.25 1.5-4.1 4.4l-.95-5.6-11.1.05V142h12.05v-25.6q.05-4.5 1.7-7.2 1.7-2.7 4.45-3.95t5.95-1.2q2.9 0 4.85.85 2.05.75 3.8 2.3l5.45-10.45M262.3 95.3q-5.8-3.35-14-3.35-7.9.05-13.7 3.3-5.75 3.25-8.95 8.95-3.1 5.7-3.15 13.15 0 7.8 3.15 13.65 3.2 5.8 9.15 9t14.4 3.25q3.7 0 7.55-.85 3.85-.9 7.25-2.6 3.5-1.75 6.1-4.45l-7.7-7.55q-1.4 1.45-3.65 2.45-2.15 1-4.65 1.55-2.45.55-4.7.55-6.4-.1-10.1-2.95-3.75-2.85-4.4-7.4h37.95q.9-10.05-1.9-16.7-2.85-6.65-8.65-10M235.1 112q1.4-4.7 5-7.05 3.65-2.35 8.6-2.35 5.25 0 8.6 2.35 3.35 2.35 4 7.05h-26.2m45.05-70.5q-2.55-4.9-7.2-7.2-4.6-2.3-10.2-2.3-5.55.05-10 2.6-4.45 2.6-7.15 7.1-2.6 4.55-2.7 10.45.1 6.25 2.7 10.7 2.7 4.5 7.15 6.95 4.45 2.4 10 2.45 3.15 0 6.3-.85t5.9-2.55q2.75-1.65 4.65-4.15l-2.75-2.2q-1.55 1.95-3.85 3.3-2.25 1.3-4.95 1.95-2.7.7-5.3.7-4.05 0-7.5-1.7-3.45-1.75-5.7-4.95-2.25-3.25-2.65-7.85h35.15q.65-7.6-1.9-12.45m-17.4-5.95q4.75 0 8.25 1.75 3.55 1.7 5.5 5.05 2 3.4 2.05 8.2H246.9q.45-4.8 2.7-8.15 2.25-3.35 5.65-5.1 3.45-1.75 7.5-1.75m33.15 4-.15-6.95h-3.65v39.05h3.85V48.9q.05-3.6 1.75-6.55 1.65-2.9 4.55-4.65 2.95-1.75 6.6-1.85 1.7 0 3.4.45t3.25 1.35l1.7-3.15q-1.95-1.15-4.05-1.75-2.1-.55-4.3-.5-2.55 0-5.05.7-2.45.75-4.55 2.35-2.1 1.65-3.35 4.25M396.15 93.2h-12V142h12V93.2m-17.85.1h-13.1l-6.7 16.25-7.4 20.3-7.45-20.5-6.75-16.05h-13.1l20.8 48.9h13l20.7-48.9m-29.95-59.6q-3.65-1.45-7.55-1.45-5.7 0-10.2 2.4-4.55 2.4-7.15 6.85-2.65 4.45-2.7 10.65.05 6.15 2.75 10.65 2.7 4.4 7.25 6.8 4.5 2.4 10.05 2.45 3.9 0 7.55-1.45 3.7-1.45 6.65-4.4l-2.6-2.6q-2.4 2.4-5.45 3.6-3 1.2-6.15 1.2-4.45 0-8.15-1.9-3.7-1.85-5.9-5.45-2.2-3.65-2.25-8.9.05-5.25 2.25-8.95 2.2-3.6 5.9-5.45 3.7-1.9 8.15-1.9 3.15 0 6.2 1.15 3.05 1.15 5.5 3.5l2.5-2.45q-2.95-2.9-6.65-4.35m20.25 9.15q1.75-3.25 4.85-5.15 3.15-1.9 7.25-1.9 6.55.05 9.55 3.7 3.05 3.65 3.05 9.8v22.35h3.75V49.3q0-5.15-1.8-9-1.8-3.85-5.45-6.05-3.6-2.15-9.1-2.2-4.1 0-7.85 1.85t-6.2 5.95v-23.6h-3.7v55.4h3.85v-21.4q.05-4.15 1.8-7.4m70.7 50.8q-4.25-1.7-9.35-1.65-7.15 0-13 2.85-5.8 2.8-9.3 8.55-3.45 5.7-3.55 14.35.1 8.6 3.55 14.35 3.5 5.7 9.3 8.55 5.85 2.85 13 2.85 5.35.05 9.9-1.8 4.65-1.8 8.85-5.9l-8.1-7.9q-2.25 2.2-5 3.15-2.75.95-5.65.9-3.8 0-6.9-1.65-3.15-1.6-5-4.75-1.85-3.2-1.9-7.8.1-6.45 3.95-10.4 3.85-3.9 10.05-4 2.55 0 5.05.95t4.65 2.9l7.65-8q-3.95-3.9-8.2-5.55M414.9 34.7q-4.45 2.45-7.1 6.95-2.65 4.5-2.7 10.5.05 6 2.7 10.55 2.65 4.5 7.1 7 4.5 2.55 10 2.6 4.8 0 8.95-2.15 4.1-2.2 7-6.75v8.25h3.85V32.6h-3.85v8.6q-1.65-3.05-4.15-5.1-2.55-2-5.6-3-3-.95-6.2-.95-5.5.05-10 2.55m-3.8 8.85q2.15-3.65 5.7-5.65 3.65-2 8.1-2.05 5.4.1 9.05 2.45 3.6 2.3 5.45 6.05 1.75 3.7 1.75 7.8 0 4.2-1.75 7.9-1.85 3.75-5.45 6.05-3.65 2.35-9.05 2.45-4.45-.05-8.1-2.05-3.55-2.05-5.7-5.75-2.1-3.7-2.15-8.6.05-4.9 2.15-8.6M504.15 122q.9-10.05-1.9-16.7-2.85-6.65-8.65-10-5.8-3.35-14-3.35-7.9.05-13.7 3.3-5.75 3.25-8.95 8.95-3.1 5.7-3.15 13.15 0 7.8 3.15 13.65 3.2 5.8 9.15 9t14.4 3.25q3.7 0 7.55-.85 3.85-.9 7.25-2.6 3.5-1.75 6.1-4.45l-7.7-7.55q-1.4 1.45-3.65 2.45-2.15 1-4.65 1.55-2.45.55-4.7.55-6.4-.1-10.1-2.95-3.75-2.85-4.4-7.4h37.95m-15.55-17.05q3.35 2.35 4 7.05h-26.2q1.4-4.7 5-7.05 3.65-2.35 8.6-2.35 5.25 0 8.6 2.35m37.35-12.1q-3.55.8-6.65 2.55-3.05 1.8-4.95 4.7-1.9 2.9-1.95 7.1.15 5.5 3.15 8.65 3.1 3.2 7.65 4.65 4.6 1.5 9.3 1.75 5.15.25 7.4 1.45 2.35 1.2 2.3 3.7-.05 1.8-1.25 3.15-1.25 1.3-3.25 2-1.95.75-4.3.7-2.75-.05-6-.95-3.2-.9-6.1-2.45-2.9-1.45-4.7-3.45l-5.9 8.6q3.55 3.7 7.25 5.55 3.75 1.9 7.6 2.5 3.8.7 7.65.65 6.95-.05 11.65-2.25 4.6-2.2 6.95-5.8 2.3-3.6 2.3-7.95-.05-4.8-1.95-7.8t-5-4.6q-3.1-1.65-6.7-2.3-3.65-.7-7.15-.9-4.65-.3-6.85-1.65-2.2-1.3-2.2-3.65 0-2.3 2.3-3.55 2.25-1.25 6.55-1.25 3.5-.05 6.5.95 2.95 1 5.55 3.4l6.7-7.9q-4.2-3.6-8.7-5.05-4.6-1.4-10.25-1.35-3.4 0-6.95.8m-30.05-57h8.3v23.8q-.1 5.85 2.4 9.2 2.45 3.3 8.55 3.4 1.85 0 3.7-.55 1.8-.55 3.65-1.45l-1.35-3.15q-1.5.75-3.05 1.15-1.55.45-2.95.45-3 0-4.55-1.2-1.6-1.15-2.15-3.15-.5-2.05-.5-4.7v-23.8h13.3V32.6h-13.3V20.85l-3.75.4V32.6h-8.3v3.25m-5.35 13.25q-.05-5.4-2.25-9.25-2.2-3.85-6.15-5.9-3.95-2-9.2-2.05-4.15.05-7.9 1.85-3.7 1.85-6 5.8V32.6h-3.8v39.05h3.85v-21.7q.05-4.1 1.75-7.25 1.75-3.2 4.8-5.05 3.05-1.85 7.1-1.95 6.45-.05 10.15 3.4 3.7 3.45 3.8 10.1v22.45h3.85V49.1Z"/><path fill="#797979" d="M129.15 89.2 0 0l117.15 89.2L0 178.4l129.15-89.2Z"/></g></defs><use xlink:href="#a"/></svg>