<svg version="1.1" id="Слой_1" xmlns="http://www.w3.org/2000/svg" x="0" y="0" viewBox="0 0 88 21.5" style="enable-background:new 0 0 88 21.5" xml:space="preserve"><style>.st0{fill:#63666a}</style><path class="st0" d="M36.3 14.6c-1.4 1.7-3.4 2.8-5.6 2.8-3.8 0-6.8-2.7-6.8-6.2 0-1.7.7-3.3 2-4.5 1.2-1.2 2.9-1.8 4.6-1.7 2.2 0 4.3 1 5.6 2.8l-2.5 1.8c-.7-1.1-1.8-1.8-3.1-1.8-1.9 0-3.5 1.6-3.5 3.5.1 2 1.7 3.5 3.6 3.5 1.3 0 2.5-.6 3.2-1.7l2.5 1.5zM37.7 0h3.1v17.1h-3.1zM49.1 14.7c2 0 3.7-1.6 3.8-3.6-.1-2-1.8-3.6-3.8-3.6s-3.7 1.6-3.8 3.6c.1 2 1.7 3.6 3.8 3.6m0-9.8c1.7-.1 3.4.5 4.7 1.7 1.3 1.2 2 2.8 2.1 4.5-.1 1.7-.8 3.4-2.1 4.5-1.3 1.2-3 1.8-4.7 1.7-3.8 0-6.8-2.7-6.8-6.2s3-6.2 6.8-6.2M55.3 5.1H59l3 6.4 3.2-6.4h3.4L62 17.8zM77.5 9.4c-.5-1.2-1.6-1.9-2.9-1.9-1.3 0-2.5.7-3.1 1.9h6zm2 6.3c-1.3 1.1-2.9 1.6-4.6 1.6-3.8 0-6.8-2.7-6.8-6.2 0-1.7.7-3.3 1.9-4.5 1.2-1.2 2.9-1.8 4.6-1.7 1.7-.1 3.3.6 4.5 1.8s1.8 2.8 1.7 4.5v.8h-9.6c.5 1.6 2 2.7 3.7 2.7 1 0 2-.4 2.8-1.2l1.8 2.2zm2.8-5.3c0-2.9 2.2-5.2 5.7-5.2V8c-.7 0-1.5.3-2 .8s-.7 1.3-.6 2v6.3h-3.1v-6.7z"/><path d="M9.7 5.6c0-2-1.2-3.7-3-4.5s-3.9-.4-5.3 1S-.4 5.6.3 7.4s2.5 3 4.5 3h4.9V5.6zm1.4 0c0-2 1.2-3.7 3-4.5s3.9-.4 5.3 1 1.8 3.5 1.1 5.3-2.5 3-4.5 3h-4.9V5.6zm0 11c0 2 1.2 3.7 3 4.5 1.8.8 3.9.4 5.3-1s1.8-3.5 1.1-5.3-2.5-3-4.5-3h-4.9v4.8zm-6.3 3.5c1.9 0 3.5-1.5 3.5-3.5v-3.5H4.8c-1.9 0-3.5 1.5-3.5 3.5s1.6 3.5 3.5 3.5zm4.9-3.5c0 2-1.2 3.7-3 4.5-1.8.8-3.9.4-5.3-1S-.4 16.6.3 14.8s2.5-3 4.5-3h4.9v4.8z" style="fill:#43b02a"/></svg>