<?xml version="1.0" encoding="utf-8"?>
<!-- Generator: Adobe Illustrator 22.1.0, SVG Export Plug-In . SVG Version: 6.00 Build 0)  -->
<svg version="1.1" id="Capa_1" xmlns="http://www.w3.org/2000/svg" xmlns:xlink="http://www.w3.org/1999/xlink" x="0px" y="0px"
	 viewBox="0 0 32 32" style="enable-background:new 0 0 32 32;" xml:space="preserve">
<g>
	<g>
		<path d="M28.3,27.7c0.7,0,1.3-0.2,1.7-0.7l-8.5-8.5c-0.2,0.1-0.4,0.3-0.6,0.4c-0.6,0.5-1.1,0.8-1.5,1.1c-0.4,0.3-0.9,0.5-1.6,0.8
			c-0.7,0.3-1.3,0.4-1.8,0.4h0h0c-0.6,0-1.2-0.1-1.8-0.4c-0.7-0.3-1.2-0.5-1.6-0.8c-0.4-0.3-0.9-0.6-1.5-1.1
			c-0.2-0.1-0.4-0.3-0.6-0.4L2,27.1c0.5,0.4,1.1,0.7,1.7,0.7H28.3z"/>
		<path d="M2.8,13.3c-0.6-0.4-1.2-0.9-1.7-1.4v12.9l7.5-7.5C7,16.2,5.1,14.9,2.8,13.3z"/>
		<path d="M29.3,13.3c-2.3,1.5-4.2,2.9-5.8,4l7.5,7.5V11.8C30.5,12.4,29.9,12.9,29.3,13.3z"/>
		<path d="M28.3,4.3H3.7c-0.9,0-1.5,0.3-2,0.9C1.3,5.7,1.1,6.4,1.1,7.3C1.1,8,1.4,8.8,2,9.6c0.6,0.8,1.3,1.5,1.9,1.9
			c0.4,0.3,1.5,1.1,3.4,2.4c1,0.7,1.9,1.3,2.7,1.9c0.7,0.5,1.2,0.8,1.7,1.2c0.1,0,0.1,0.1,0.2,0.2c0.1,0.1,0.3,0.2,0.5,0.3
			c0.4,0.3,0.7,0.5,0.9,0.6c0.2,0.2,0.5,0.3,0.9,0.5c0.3,0.2,0.7,0.3,1,0.4c0.3,0.1,0.6,0.1,0.8,0.1h0h0c0.3,0,0.5-0.1,0.8-0.1
			c0.3-0.1,0.6-0.2,1-0.4c0.3-0.2,0.6-0.4,0.9-0.5c0.2-0.2,0.5-0.4,0.9-0.6c0.2-0.1,0.3-0.2,0.5-0.3c0.1-0.1,0.2-0.1,0.2-0.2
			c0.4-0.3,0.9-0.6,1.7-1.2c1.4-1,3.4-2.4,6.1-4.2c0.8-0.6,1.5-1.2,2-2c0.5-0.8,0.8-1.6,0.8-2.5c0-0.7-0.3-1.4-0.8-1.9
			C29.6,4.5,29,4.3,28.3,4.3z"/>
	</g>
</g>
</svg>
