<?xml version="1.0" encoding="utf-8"?>
<!-- Generator: Adobe Illustrator 22.1.0, SVG Export Plug-In . SVG Version: 6.00 Build 0)  -->
<svg version="1.1" id="Слой_1" xmlns="http://www.w3.org/2000/svg" xmlns:xlink="http://www.w3.org/1999/xlink" x="0px" y="0px"
	 viewBox="0 0 551.1 166.8" style="enable-background:new 0 0 551.1 166.8;" xml:space="preserve">
<style type="text/css">
	.st0{fill:#D05533;}
	.st1{fill:url(#SVGID_1_);}
	.st2{fill:#FFFFFF;}
	.st3{fill:#66CCFF;}
	.st4{fill:#000066;}
	.st5{fill:#F0993C;}
	.st6{fill:url(#SVGID_2_);}
	.st7{fill:none;stroke:#000066;stroke-width:1.7;stroke-linecap:round;stroke-linejoin:round;}
</style>
<g transform="matrix( 1, 0, 0, 1, 0,0) ">
	<g>
		<g id="Layer0_0_FILL">
			<path class="st0" d="M83.8,83.8v16.3l47.8,30.6L83.8,83.8z"/>
			
				<linearGradient id="SVGID_1_" gradientUnits="userSpaceOnUse" x1="37.7493" y1="166.9108" x2="56.3743" y2="9.6857" gradientTransform="matrix(1 0 0 -1 0 176.7)">
				<stop  offset="0" style="stop-color:#2FDFDD"/>
				<stop  offset="0.5765" style="stop-color:#2180DD"/>
				<stop  offset="1" style="stop-color:#001F78"/>
			</linearGradient>
			<path class="st1" d="M83.8,0C60.3,0,40.5,8.1,24.3,24.3C10.4,38.2,2.5,54.7,0.5,73.9C0.2,77.1,0,80.4,0,83.8
				c0,3.3,0.2,6.5,0.5,9.6c2,18.8,9.9,35.1,23.8,49.1c16.2,16.2,36,24.3,59.5,24.3v-14.4v-52.3V83.8V0 M71.9,40.2
				c4.4,4.4,6.5,9.7,6.5,15.8c0,6-2.2,11.3-6.5,15.7c-4.4,4.4-9.6,6.6-15.7,6.6c-6.1,0-11.4-2.2-15.9-6.6c-4.2-4.4-6.3-9.7-6.3-15.7
				c0-0.5,0.1-1,0.1-1.4c0.2-4.7,1.7-8.9,4.7-12.6c0.4-0.6,0.9-1.2,1.4-1.8c4.5-4.3,9.8-6.5,15.9-6.5C62.2,33.7,67.5,35.9,71.9,40.2
				z"/>
			<path class="st2" d="M78.4,56.1c0-6.1-2.2-11.4-6.5-15.8c-4.4-4.3-9.6-6.5-15.7-6.5c-6.1,0-11.4,2.2-15.9,6.5
				c-0.5,0.6-1,1.2-1.4,1.8c-3,3.7-4.5,7.9-4.7,12.6c-0.1,0.4-0.1,0.9-0.1,1.4c0,6,2.1,11.3,6.3,15.7c4.5,4.4,9.8,6.6,15.9,6.6
				c6.1,0,11.3-2.2,15.7-6.6C76.2,67.3,78.4,62.1,78.4,56.1 M67.8,44.3c3.3,3.3,5,7.3,5,11.8c0,4.5-1.7,8.4-5,11.6
				c-3.3,3.3-7.1,4.9-11.5,4.9c-4.6,0-8.6-1.6-11.9-4.9c-3.1-3.2-4.7-7.1-4.7-11.6c0-0.4,0-0.7,0.1-1.1c0.1-3.5,1.3-6.6,3.6-9.3
				c0.3-0.5,0.7-1,1.1-1.5c3.3-3.1,7.3-4.7,11.9-4.7C60.7,39.6,64.5,41.1,67.8,44.3z"/>
			<path class="st3" d="M72.8,56.1c0-4.5-1.7-8.5-5-11.8c-3.3-3.1-7.1-4.7-11.5-4.7c-4.6,0-8.6,1.6-11.9,4.7c-0.4,0.5-0.7,1-1.1,1.5
				c-2.3,2.7-3.4,5.8-3.6,9.3c-0.1,0.3-0.1,0.7-0.1,1.1c0,4.5,1.6,8.4,4.7,11.6c3.3,3.3,7.3,4.9,11.9,4.9c4.4,0,8.3-1.6,11.5-4.9
				C71.1,64.4,72.8,60.6,72.8,56.1 M63.9,48.1c2.3,2.2,3.4,4.8,3.4,7.9c0,3.1-1.1,5.7-3.4,7.9c-2.2,2.2-4.8,3.3-7.9,3.3
				c-3.1,0-5.7-1.1-7.9-3.3c-2.2-2.2-3.3-4.8-3.3-7.9c0-0.2,0-0.4,0-0.6c0.1-2.1,0.8-4.1,2.1-5.8c0.4-0.5,0.8-1.1,1.3-1.6
				c2.2-2.2,4.8-3.3,7.9-3.3C59.1,44.8,61.7,45.9,63.9,48.1z"/>
			<path class="st4" d="M67.3,56c0-3-1.1-5.7-3.4-7.9c-2.2-2.2-4.8-3.3-7.9-3.3c-3.1,0-5.7,1.1-7.9,3.3c-0.4,0.5-0.9,1-1.3,1.6
				c-1.2,1.7-1.9,3.6-2.1,5.8c0,0.2,0,0.4,0,0.6c0,3.1,1.1,5.7,3.3,7.9c2.2,2.2,4.8,3.3,7.9,3.3c3.1,0,5.7-1.1,7.9-3.3
				C66.1,61.7,67.3,59,67.3,56 M357.6,53v89.1h15.5V53H357.6 M332.1,16.2h-15.6v102c0,7.5,2.3,13.4,6.9,17.6
				c4.4,4.3,9.9,6.4,16.6,6.4h7.5v-6.8c-5,0-8.8-1.4-11.5-4.2c-2.6-2.9-3.8-6.9-3.8-12.1V16.2 M357.6,17.6v15.9
				c10.4-2.2,15.6-7.5,15.5-15.9H357.6 M287.2,26.3c-0.7-0.2-1.3-0.4-1.8-0.6c-2.9-0.8-5.7-1.4-8.5-2c-2.9-0.4-5.9-0.7-9-0.9
				c-3.1-0.3-6.3-0.4-9.8-0.4c-5.3,0-10.3,0.6-15,1.8c-4.7,1.2-8.7,2.8-12.1,4.9c-3.3,2.1-5.9,4.8-8,7.8c-1.9,3.1-2.9,6.6-2.9,10.7
				c0,4.2,1.1,7.9,3.2,11.1c1.2,1.9,2.6,3.7,4.3,5.3c1.1,1.5,2.4,2.9,3.8,4.2c3.2,2.9,6.8,5.5,10.8,7.7l25,13
				c2.8,1.4,5.3,2.9,7.6,4.8c2.7,2,5,4.4,6.7,7.4c1.8,2.8,2.6,6.3,2.6,10.4c0,7-2.1,12.5-6.3,16.6c-4.1,4.3-10.2,6.4-18.2,6.4
				c-7.2,0-14-1.2-20.5-3.5c-6.5-2.4-13.3-6.9-20.4-13.4v13.5c6.2,4.5,12.5,7.7,18.8,9.5c6.3,1.8,13.4,2.8,21.4,2.8
				c6.4,0,12.2-0.9,17.3-2.6c5.2-1.5,9.6-3.7,13.4-6.8c3.7-3.1,6.7-6.7,8.8-10.8c2.1-4.2,3.2-8.9,3.2-14c0-6.5-1.2-11.9-3.6-16.2
				c-2.5-4.3-5.6-7.8-9.4-10.6c-3.8-2.9-8-5.4-12.6-7.6c-3-1.4-6-2.7-8.8-4.1l-12.8-6.6c-0.7-0.4-1.3-0.6-2-0.8
				c-3.7-1.8-7-4-10.1-6.8c-1.1-1.1-2.1-2.3-2.9-3.6c-1.1-1.9-1.7-4.1-1.7-6.7c0-4.8,2-8.8,5.9-12c3.8-3.1,10-4.6,18.4-4.6
				c5.8,0,11.3,0.8,16.6,2.5c2.8,0.8,5.7,1.9,8.6,3.2c1,0.5,2,1,3.1,1.5V27C289.2,26.7,288.2,26.4,287.2,26.3 M460.1,69.5V58
				c-5.3-2.2-10.4-3.7-15.4-4.6c-5-0.9-9.6-1.4-13.8-1.4c-7.3,0-13.7,1.1-19.2,3.4c-5.3,2.2-9.7,5.3-13.3,9.3
				c-3.7,4.1-6.3,8.9-8,14.5c-1.7,5.5-2.5,11.7-2.5,18.4c0,6.7,0.8,12.8,2.5,18.3c1.6,5.6,4.3,10.4,8,14.5c3.6,4,8,7.1,13.3,9.4
				c5.5,2.3,11.9,3.4,19.2,3.4c4.9,0,10-0.6,15.2-1.8c5.2-1.1,10.3-3.3,15.1-6.5v-11.7c-5.3,4.6-10.7,7.8-16.1,9.5
				c-5.4,1.8-10.2,2.7-14.2,2.7c-5.7,0-10.4-1.1-14.2-3.5c-3.5-2.4-6.3-5.3-8.3-8.9c-1.9-3.7-3.3-7.8-4-12.3c-0.6-4.4-1-8.8-1-13.1
				c0-4.3,0.3-8.7,1-13.1c0.8-4.5,2.1-8.6,4-12.3c2-3.7,4.8-6.7,8.3-9c3.7-2.3,8.5-3.4,14.2-3.4c4,0,8.4,0.6,13,1.7
				C448.7,62.8,454.1,65.5,460.1,69.5 M544.3,66c-2.6-4.3-6.2-7.7-11-10.2c-4.8-2.6-11.2-3.8-19.2-3.8c-7.5,0-14,1.1-19.4,3.4
				c-5.4,2.2-9.8,5.3-13.3,9.3c-3.4,4.1-6,8.9-7.6,14.5c-1.7,5.5-2.5,11.7-2.5,18.4c0,6.7,0.8,12.8,2.5,18.3
				c1.7,5.6,4.3,10.4,7.9,14.5c3.6,4,8,7.1,13.2,9.4c5.4,2.3,11.8,3.4,19.2,3.4c5.6,0,11.3-0.7,17.1-2.2c5.7-1.4,10.8-3.4,15.5-6.1
				v-11.7c-6.2,4.6-11.9,7.8-17.1,9.5c-5.1,1.8-10.2,2.7-15.5,2.7c-5.6,0-10.2-1.1-13.9-3.3c-3.5-2.2-6.3-5-8.2-8.4
				c-1.9-3.3-3.3-7.1-4.1-11.2c-0.7-4.1-1-8.1-1-12.1h64c0-6.8-0.4-13.1-1.3-19C548.9,75.5,547,70.4,544.3,66 M525.5,62.6
				c3,1.7,5.2,4.1,6.7,7.1c1.5,3,2.5,6.5,2.8,10.5c0.5,3.9,0.7,8,0.8,12.3h-48.7c0-4.2,0.5-8.2,1.4-12.2c1-3.9,2.6-7.3,4.8-10.3
				c2-3,4.8-5.4,8.2-7.4c3.3-1.8,7.3-2.8,12.1-2.8C518.5,59.9,522.5,60.8,525.5,62.6z"/>
			<path class="st5" d="M132.5,131.6l-1-0.9l-47.8-30.6v52.3C102.4,150.5,118.7,143.6,132.5,131.6z"/>
			
				<linearGradient id="SVGID_2_" gradientUnits="userSpaceOnUse" x1="82.7875" y1="105.925" x2="165.7875" y2="105.925" gradientTransform="matrix(1 0 0 -1 0 176.7)">
				<stop  offset="0" style="stop-color:#FCEB43"/>
				<stop  offset="1" style="stop-color:#F18750"/>
			</linearGradient>
			<path class="st6" d="M131.5,130.7l1,0.9l10.9,10c15.6-16.3,23.4-35.5,23.4-57.8c0-23.4-8.1-43.3-24.3-59.5
				C126.2,8.1,106.6,0,83.8,0v83.8L131.5,130.7z"/>
		</g>
	</g>
	<g>
		<path id="Layer0_0_1_STROKES" class="st7" d="M471.4,97.6c0-6.7,0.8-12.9,2.5-18.4c1.6-5.5,4.2-10.4,7.6-14.5
			c3.5-4,7.9-7.1,13.3-9.3c5.4-2.3,11.9-3.4,19.4-3.4c8,0,14.4,1.3,19.2,3.8c4.8,2.5,8.4,5.9,11,10.2c2.7,4.4,4.5,9.5,5.5,15.4
			c0.9,5.9,1.3,12.2,1.3,19h-64c0,4,0.3,8,1,12.1c0.8,4.1,2.2,7.8,4.1,11.2c1.9,3.4,4.6,6.2,8.2,8.4c3.7,2.2,8.3,3.3,13.9,3.3
			c5.3,0,10.4-0.9,15.5-2.7c5.2-1.7,10.9-4.9,17.1-9.5v11.7c-4.7,2.7-9.8,4.8-15.5,6.1c-5.8,1.5-11.5,2.2-17.1,2.2
			c-7.4,0-13.8-1.1-19.2-3.4c-5.2-2.3-9.6-5.4-13.2-9.4c-3.6-4-6.2-8.9-7.9-14.5C472.2,110.4,471.4,104.3,471.4,97.6z M535.8,92.5
			c0-4.2-0.3-8.3-0.8-12.3c-0.4-4-1.3-7.5-2.8-10.5c-1.4-3.1-3.7-5.4-6.7-7.1c-3-1.8-7-2.8-12.1-2.8c-4.8,0-8.8,0.9-12.1,2.8
			c-3.4,1.9-6.1,4.4-8.2,7.4c-2.1,3-3.7,6.4-4.8,10.3c-0.9,3.9-1.4,8-1.4,12.2H535.8z M387.9,97.6c0-6.7,0.8-12.9,2.5-18.4
			c1.6-5.5,4.3-10.4,8-14.5c3.6-4,8-7.1,13.3-9.3c5.5-2.3,11.9-3.4,19.2-3.4c4.2,0,8.8,0.5,13.8,1.4c4.9,0.9,10.1,2.4,15.4,4.6v11.5
			c-6-4-11.3-6.7-16.1-7.9c-4.7-1.1-9-1.7-13-1.7c-5.7,0-10.4,1.2-14.2,3.4c-3.5,2.3-6.3,5.3-8.3,9c-1.9,3.7-3.3,7.8-4,12.3
			c-0.6,4.4-1,8.7-1,13.1c0,4.3,0.3,8.7,1,13.1c0.8,4.5,2.1,8.5,4,12.3c2,3.5,4.8,6.5,8.3,8.9c3.7,2.3,8.5,3.5,14.2,3.5
			c4,0,8.8-0.9,14.2-2.7c5.4-1.7,10.8-4.9,16.1-9.5v11.7c-4.8,3.2-9.9,5.4-15.1,6.5c-5.2,1.2-10.3,1.8-15.2,1.8
			c-7.3,0-13.7-1.1-19.2-3.4c-5.3-2.3-9.7-5.4-13.3-9.4c-3.7-4-6.3-8.9-8-14.5C388.8,110.4,387.9,104.3,387.9,97.6z M259.8,134.3
			c8,0,14.1-2.1,18.2-6.4c4.2-4.1,6.3-9.6,6.3-16.6c0-4.1-0.9-7.6-2.6-10.4c-1.7-3-4-5.4-6.7-7.4c-2.3-1.8-4.9-3.4-7.6-4.8l-25-13
			c-4-2.2-7.6-4.8-10.8-7.7c-1.4-1.3-2.7-2.7-3.8-4.2c-1.6-1.6-3-3.3-4.3-5.3c-2.1-3.2-3.2-6.9-3.2-11.1c0-4.1,1-7.6,2.9-10.7
			c2-3.1,4.7-5.7,8-7.8c3.4-2,7.4-3.6,12.1-4.9c4.6-1.2,9.6-1.8,15-1.8c3.4,0,6.7,0.1,9.8,0.4c3.1,0.3,6.1,0.6,9,0.9
			c2.8,0.6,5.7,1.2,8.5,2c0.5,0.2,1.1,0.4,1.8,0.6c1,0.2,2,0.4,3.1,0.8v9.8c-1-0.5-2.1-1-3.1-1.5c-2.9-1.3-5.8-2.4-8.6-3.2
			c-5.3-1.7-10.8-2.5-16.6-2.5c-8.4,0-14.6,1.5-18.4,4.6c-3.9,3.2-5.9,7.2-5.9,12c0,2.6,0.6,4.8,1.7,6.7c0.9,1.3,1.9,2.4,2.9,3.6
			c3.1,2.7,6.5,5,10.1,6.8c0.7,0.2,1.3,0.4,2,0.8l12.8,6.6c2.8,1.3,5.8,2.7,8.8,4.1c4.6,2.1,8.8,4.6,12.6,7.6
			c3.8,2.8,6.9,6.4,9.4,10.6c2.4,4.3,3.6,9.7,3.6,16.2c0,5.1-1.1,9.8-3.2,14c-2.1,4.1-5.1,7.7-8.8,10.8c-3.8,3-8.2,5.3-13.4,6.8
			c-5.1,1.7-10.9,2.6-17.3,2.6c-7.9,0-15-0.9-21.4-2.8c-6.3-1.8-12.6-5-18.8-9.5v-13.5c7.1,6.5,13.9,11,20.4,13.4
			C245.8,133.1,252.6,134.3,259.8,134.3z M357.6,17.6h15.5c0.1,8.5-5.1,13.8-15.5,15.9V17.6z M332.1,119c0,5.2,1.3,9.3,3.8,12.1
			c2.7,2.8,6.5,4.2,11.5,4.2v6.8H340c-6.7,0-12.3-2.1-16.6-6.4c-4.6-4.2-6.9-10.1-6.9-17.6v-102h15.6V119z M357.6,53h15.5v89.1
			h-15.5V53z"/>
	</g>
</g>
</svg>
