<?xml version="1.0" standalone="no"?>
<!DOCTYPE svg PUBLIC "-//W3C//DTD SVG 20010904//EN"
 "http://www.w3.org/TR/2001/REC-SVG-20010904/DTD/svg10.dtd">
<svg version="1.0" xmlns="http://www.w3.org/2000/svg"
 width="661.000000pt" height="661.000000pt" viewBox="0 0 661.000000 661.000000"
 preserveAspectRatio="xMidYMid meet">
<metadata>
Created by potrace 1.11, written by Peter Selinger 2001-2013
</metadata>
<g transform="translate(0.000000,661.000000) scale(0.100000,-0.100000)"
fill="#000000" stroke="none">
<path d="M3170 6183 c-917 -40 -1767 -521 -2275 -1288 -251 -379 -402 -789
-461 -1254 -22 -169 -22 -513 0 -682 100 -785 483 -1461 1101 -1942 542 -422
1240 -639 1922 -597 282 17 501 59 760 145 771 259 1395 826 1723 1570 235
531 305 1147 194 1710 -113 575 -384 1085 -794 1495 -437 438 -1004 723 -1620
815 -108 16 -373 36 -445 33 -22 -1 -69 -3 -105 -5z m375 -1079 c201 -32 427
-128 585 -248 109 -82 260 -239 328 -341 85 -127 169 -318 197 -444 l7 -34
-38 9 c-47 11 -209 12 -245 2 -25 -7 -27 -4 -57 75 -95 250 -275 453 -510 575
-183 95 -333 128 -544 119 -286 -11 -523 -117 -723 -321 -122 -126 -207 -268
-268 -448 -5 -15 -10 -15 -53 -2 -54 16 -173 19 -222 5 -39 -12 -40 -6 -11 92
104 349 361 658 685 824 280 144 557 187 869 137z m-1299 -1237 c60 -30 118
-92 148 -156 21 -45 21 -56 21 -551 0 -495 0 -506 -21 -551 -67 -144 -227
-219 -377 -175 -108 31 -196 126 -219 236 -11 58 -12 59 -54 69 -49 13 -97 50
-122 95 -15 27 -17 69 -20 302 -2 186 0 285 8 315 17 61 83 126 137 135 39 6
41 8 47 47 17 102 81 188 179 237 57 29 68 31 142 28 61 -4 92 -11 131 -31z
m2382 3 c96 -49 161 -135 178 -237 6 -38 9 -41 45 -47 43 -7 101 -52 127 -100
15 -27 17 -67 17 -326 0 -260 -2 -299 -17 -326 -25 -45 -73 -82 -123 -95 -41
-10 -44 -14 -51 -53 -16 -99 -88 -194 -180 -235 -43 -19 -53 -30 -76 -81 -121
-256 -367 -475 -657 -585 l-98 -37 -24 -57 c-32 -79 -116 -161 -193 -190 -177
-66 -365 9 -448 177 -30 59 -33 76 -33 152 0 76 3 93 33 152 36 74 95 132 170
169 40 20 63 24 147 24 120 0 167 -18 248 -94 l53 -50 76 33 c206 89 343 207
442 378 l27 46 -41 54 c-71 93 -71 94 -68 639 3 481 3 484 26 534 38 82 115
149 202 176 14 4 55 8 91 8 54 1 76 -4 127 -29z"/>
</g>
</svg>
