<?xml version="1.0" encoding="iso-8859-1"?>
<!-- Generator: Adobe Illustrator 19.0.0, SVG Export Plug-In . SVG Version: 6.00 Build 0)  -->
<svg version="1.1" id="Layer_1" xmlns="http://www.w3.org/2000/svg" xmlns:xlink="http://www.w3.org/1999/xlink" x="0px" y="0px"
	 viewBox="0 0 512 512" style="enable-background:new 0 0 512 512;" xml:space="preserve">
<path style="fill:#4CDBC4;" d="M488.533,404.267H144c-11.733,0-21.333-9.6-21.333-21.333v-166.4c0-11.733,9.6-21.333,21.333-21.333
	h344.533c11.733,0,21.333,9.6,21.333,21.333v166.4C509.867,394.667,500.267,404.267,488.533,404.267z"/>
<path style="fill:#F2F2F2;" d="M440.533,225.067H192c0,21.333-18.133,39.467-39.467,39.467v70.4
	c21.333,0,39.467,18.133,39.467,39.467h248.533c0-21.333,18.133-39.467,39.467-39.467v-70.4
	C458.667,264.533,440.533,246.4,440.533,225.067z"/>
<ellipse style="fill:#4CDBC4;" cx="316.8" cy="299.733" rx="38.4" ry="56.533"/>
<path style="fill:#F2F2F2;" d="M312.533,331.733c-9.6-1.067-17.067-4.267-21.333-9.6l7.467-10.667c3.2,3.2,8.533,6.4,14.933,7.467
	v-13.867c-9.6-2.133-19.2-5.333-19.2-18.133c0-9.6,7.467-17.067,19.2-18.133v-8.533h8.533v8.533c7.467,1.067,13.867,3.2,19.2,8.533
	l-7.467,9.6c-3.2-3.2-7.467-5.333-11.733-6.4v12.8c9.6,2.133,20.267,6.4,20.267,18.133c0,10.667-6.4,18.133-20.267,19.2v8.533H313.6
	v-7.467H312.533z M312.533,291.2v-10.667c-4.267,1.067-6.4,3.2-6.4,5.333C307.2,289.067,309.333,290.133,312.533,291.2z
	 M322.133,307.2V320c4.267-1.067,6.4-3.2,6.4-6.4C328.533,310.4,325.333,308.267,322.133,307.2z"/>
<g>
	<circle style="fill:#4CDBC4;" cx="244.267" cy="299.733" r="13.867"/>
	<circle style="fill:#4CDBC4;" cx="389.333" cy="299.733" r="13.867"/>
</g>
<path style="fill:#3DC9AE;" d="M491.733,238.933L473.6,195.2h-11.733l19.2,48c4.267,10.667-1.067,23.467-11.733,27.733
	l-317.867,131.2c-7.467,3.2-16,1.067-22.4-3.2c4.267,3.2,8.533,5.333,14.933,5.333h30.933l299.733-123.733
	c7.467-3.2,13.867-9.6,17.067-17.067C494.933,254.933,494.933,246.4,491.733,238.933z"/>
<path style="fill:#4CDBC4;" d="M470.4,270.933l-317.867,131.2c-10.667,4.267-23.467-1.067-27.733-11.733l-64-153.6
	c-4.267-10.667,1.067-23.467,11.733-27.733L390.4,77.867c10.667-4.267,23.467,1.067,27.733,11.733l64,153.6
	C486.4,253.867,481.067,265.6,470.4,270.933z"/>
<path style="fill:#F2F2F2;" d="M357.333,122.667l-229.333,96c8.533,20.267-1.067,43.733-21.333,51.2l26.667,65.067
	c20.267-8.533,43.733,1.067,51.2,21.333l229.333-94.933c-8.533-20.267,1.067-43.733,21.333-51.2l-26.667-65.067
	C388.267,152.533,365.867,142.933,357.333,122.667z"/>
<ellipse transform="matrix(-0.3827 -0.9239 0.9239 -0.3827 152.9802 582.3276)" style="fill:#4CDBC4;" cx="271.038" cy="240.055" rx="56.535" ry="38.401"/>
<path style="fill:#F2F2F2;" d="M279.467,269.867c-9.6,3.2-17.067,2.133-23.467,0l3.2-11.733c4.267,2.133,10.667,3.2,16,2.133
	l-5.333-12.8c-9.6,1.067-20.267,2.133-25.6-9.6c-3.2-8.533,0-18.133,10.667-24.533l-3.2-7.467l7.467-3.2l3.2,8.533
	c7.467-2.133,13.867-2.133,20.267,0l-3.2,11.733c-4.267-1.067-8.533-2.133-12.8-1.067L272,233.6c9.6-1.067,21.333-2.133,25.6,9.6
	c4.267,9.6,1.067,19.2-10.667,25.6l3.2,7.467l-7.467,1.067L279.467,269.867z M264.533,233.6l-4.267-10.667
	c-3.2,2.133-4.267,5.333-3.2,7.467C258.133,233.6,260.267,233.6,264.533,233.6z M278.4,245.333l4.267,11.733
	c4.267-2.133,5.333-6.4,4.267-8.533C285.867,244.267,282.667,244.267,278.4,245.333z"/>
<g>
	<circle style="fill:#4CDBC4;" cx="203.733" cy="267.733" r="13.867"/>
	<circle style="fill:#4CDBC4;" cx="338.133" cy="212.267" r="13.867"/>
</g>
<path style="fill:#3DC9AE;" d="M407.467,116.267L374.4,83.2l-10.667,4.267l35.2,35.2c8.533,8.533,8.533,21.333,0,29.867
	l-243.2,245.333c-4.267,4.267-9.6,6.4-14.933,6.4c3.2,0,7.467,0,10.667-1.067L176,393.6l230.4-230.4
	C419.2,149.333,419.2,129.067,407.467,116.267z"/>
<path style="fill:#4CDBC4;" d="M400,153.6L155.733,397.867c-8.533,8.533-21.333,8.533-29.867,0L8.533,280.533
	C0,272,0,259.2,8.533,250.667L251.733,6.4c8.533-8.533,21.333-8.533,29.867,0l117.333,117.333
	C407.467,132.267,407.467,146.133,400,153.6z"/>
<path style="fill:#F2F2F2;" d="M238.933,60.8l-176,176c14.933,14.933,14.933,40.533,0,55.467l50.133,50.133
	c14.933-14.933,40.533-14.933,55.467,0l176-176c-14.933-14.933-14.933-40.533,0-55.467L294.4,60.8
	C279.467,76.8,253.867,76.8,238.933,60.8z"/>
<ellipse transform="matrix(-0.7071 -0.7071 0.7071 -0.7071 204.916 488.4753)" style="fill:#4CDBC4;" cx="203.625" cy="201.798" rx="56.533" ry="38.4"/>
<path style="fill:#F2F2F2;" d="M224,226.133c-7.467,6.4-14.933,8.533-22.4,8.533l-2.133-11.733c5.333,0,10.667-1.067,16-4.267
	l-9.6-9.6c-8.533,5.333-18.133,9.6-26.667,1.067c-6.4-6.4-7.467-17.067,1.067-26.667l-6.4-6.4l6.4-6.4l6.4,6.4
	c5.333-4.267,11.733-7.467,19.2-7.467L208,181.333c-4.267,0-8.533,2.133-12.8,4.267l8.533,8.533
	c8.533-5.333,18.133-9.6,27.733-1.067c7.467,7.467,8.533,17.067,0,27.733l5.333,5.333l-6.4,6.4L224,226.133z M195.2,198.4
	l-7.467-7.467c-2.133,3.2-2.133,6.4,0,8.533C188.8,200.533,192,200.533,195.2,198.4z M213.333,203.733l8.533,8.533
	c2.133-4.267,2.133-7.467,0-9.6C219.733,200.533,216.533,201.6,213.333,203.733z"/>
<g>
	<circle style="fill:#4CDBC4;" cx="152.533" cy="252.8" r="13.867"/>
	<circle style="fill:#4CDBC4;" cx="254.933" cy="150.4" r="13.867"/>
</g>
<path style="fill:#F8B64C;" d="M200.533,467.2c0,24.533-44.8,44.8-99.2,44.8s-99.2-20.267-99.2-44.8v-23.467h198.4V467.2z"/>
<ellipse style="fill:#FFD15C;" cx="101.333" cy="443.733" rx="99.2" ry="44.8"/>
<ellipse style="fill:#F8B64C;" cx="101.333" cy="443.733" rx="78.933" ry="34.133"/>
<path style="fill:#FFD15C;" d="M97.067,461.867c-11.733,0-21.333-2.133-27.733-5.333l9.6-6.4C83.2,452.267,89.6,454.4,97.067,454.4
	v-8.533c-11.733-1.067-24.533-3.2-24.533-10.667c0-5.333,9.6-9.6,24.533-10.667V419.2h10.667v5.333c9.6,0,17.067,2.133,23.467,4.267
	l-9.6,5.333c-4.267-2.133-9.6-3.2-14.933-3.2v7.467c11.733,1.067,25.6,3.2,25.6,10.667c0,6.4-8.533,10.667-25.6,11.733v4.267H96
	v-3.2H97.067z M97.067,438.4V432c-5.333,0-8.533,1.067-8.533,3.2C88.533,437.333,91.733,438.4,97.067,438.4z M107.733,448v7.467
	c6.4,0,8.533-2.133,8.533-4.267C116.267,450.133,113.067,449.067,107.733,448z"/>
<path style="fill:#F8B64C;" d="M200.533,432c0,24.533-44.8,44.8-99.2,44.8s-99.2-20.267-99.2-44.8v-23.467h198.4V432z"/>
<ellipse style="fill:#FFD15C;" cx="101.333" cy="409.6" rx="99.2" ry="44.8"/>
<ellipse style="fill:#F8B64C;" cx="101.333" cy="409.6" rx="78.933" ry="34.133"/>
<path style="fill:#FFD15C;" d="M97.067,427.733c-11.733,0-21.333-2.133-27.733-5.333l9.6-6.4c4.267,2.133,10.667,4.267,18.133,4.267
	v-8.533c-11.733-1.067-24.533-3.2-24.533-10.667c0-5.333,9.6-9.6,24.533-10.667v-5.333h10.667v5.333
	c9.6,0,17.067,2.133,23.467,4.267L121.6,400c-4.267-2.133-9.6-3.2-14.933-3.2v8.533c11.733,1.067,25.6,3.2,25.6,10.667
	c0,6.4-8.533,10.667-25.6,11.733V432H96v-4.267H97.067z M97.067,404.267v-6.4c-5.333,0-8.533,1.067-8.533,3.2
	C88.533,402.133,91.733,403.2,97.067,404.267z M107.733,413.867v7.467c6.4,0,8.533-2.133,8.533-4.267
	C116.267,414.933,113.067,413.867,107.733,413.867z"/>
<path style="fill:#F8B64C;" d="M200.533,397.867c0,24.533-44.8,44.8-99.2,44.8s-99.2-20.267-99.2-44.8V374.4h198.4V397.867z"/>
<ellipse style="fill:#FFD15C;" cx="101.333" cy="374.4" rx="99.2" ry="44.8"/>
<ellipse style="fill:#F8B64C;" cx="101.333" cy="374.4" rx="78.933" ry="34.133"/>
<path style="fill:#FFD15C;" d="M97.067,392.533c-11.733,0-21.333-2.133-27.733-5.333l9.6-6.4c4.267,2.133,10.667,4.267,18.133,4.267
	v-8.533c-11.733-1.067-24.533-3.2-24.533-10.667c0-5.333,9.6-9.6,24.533-10.667V352h10.667v5.333c9.6,0,17.067,2.133,23.467,4.267
	l-9.6,5.333c-4.267-2.133-9.6-3.2-14.933-3.2v7.467c11.733,1.067,25.6,3.2,25.6,10.667c0,6.4-8.533,10.667-25.6,11.733v4.267H96
	v-5.333H97.067z M97.067,369.067v-6.4c-5.333,0-8.533,1.067-8.533,3.2S91.733,369.067,97.067,369.067z M107.733,378.667v7.467
	c6.4,0,8.533-2.133,8.533-4.267C116.267,380.8,113.067,379.733,107.733,378.667z"/>
<path style="fill:#F8B64C;" d="M200.533,362.667c0,24.533-44.8,44.8-99.2,44.8s-99.2-19.2-99.2-44.8V339.2h198.4L200.533,362.667
	L200.533,362.667z"/>
<ellipse style="fill:#FFD15C;" cx="101.333" cy="340.267" rx="99.2" ry="44.8"/>
<ellipse style="fill:#F8B64C;" cx="101.333" cy="340.267" rx="78.933" ry="34.133"/>
<path style="fill:#FFD15C;" d="M97.067,358.4c-11.733,0-21.333-2.133-27.733-5.333l9.6-6.4c4.267,2.133,10.667,4.267,18.133,4.267
	V342.4c-11.733-1.067-24.533-3.2-24.533-10.667c0-5.333,9.6-9.6,24.533-10.667v-5.333h10.667v5.333c9.6,0,17.067,2.133,23.467,4.267
	l-9.6,5.333c-4.267-2.133-9.6-3.2-14.933-3.2v7.467c11.733,1.067,25.6,3.2,25.6,10.667c0,6.4-8.533,10.667-25.6,11.733v5.333H96
	V358.4H97.067z M97.067,334.933v-6.4c-5.333,0-8.533,1.067-8.533,3.2S91.733,333.867,97.067,334.933z M107.733,344.533V352
	c6.4,0,8.533-2.133,8.533-4.267C116.267,345.6,113.067,345.6,107.733,344.533z"/>
<path style="fill:#F8B64C;" d="M200.533,328.533c0,24.533-44.8,44.8-99.2,44.8s-99.2-20.267-99.2-44.8v-23.467h198.4V328.533z"/>
<ellipse style="fill:#FFD15C;" cx="101.333" cy="305.067" rx="99.2" ry="44.8"/>
<ellipse style="fill:#F8B64C;" cx="101.333" cy="305.067" rx="78.933" ry="34.133"/>
<path style="fill:#FFD15C;" d="M97.067,323.2c-11.733,0-21.333-2.133-27.733-5.333l9.6-6.4c4.267,2.133,10.667,4.267,18.133,4.267
	V307.2c-11.733-1.067-24.533-3.2-24.533-10.667c0-5.333,9.6-9.6,24.533-10.667v-5.333h10.667v5.333c9.6,0,17.067,2.133,23.467,4.267
	l-9.6,5.333c-4.267-2.133-9.6-3.2-14.933-3.2v7.467c11.733,1.067,25.6,3.2,25.6,10.667c0,6.4-8.533,10.667-25.6,11.733v4.267H96
	v-3.2H97.067z M97.067,300.8v-6.4c-5.333,0-8.533,1.067-8.533,3.2C88.533,298.667,91.733,299.733,97.067,300.8z M107.733,309.333
	v7.467c6.4,0,8.533-2.133,8.533-4.267C116.267,311.467,113.067,310.4,107.733,309.333z"/>
<g>
</g>
<g>
</g>
<g>
</g>
<g>
</g>
<g>
</g>
<g>
</g>
<g>
</g>
<g>
</g>
<g>
</g>
<g>
</g>
<g>
</g>
<g>
</g>
<g>
</g>
<g>
</g>
<g>
</g>
</svg>
