<?xml version="1.0" encoding="utf-8"?>
<!-- Generator: Adobe Illustrator 22.1.0, SVG Export Plug-In . SVG Version: 6.00 Build 0)  -->
<svg version="1.1" id="Layer_1" xmlns="http://www.w3.org/2000/svg" xmlns:xlink="http://www.w3.org/1999/xlink" x="0px" y="0px"
	 viewBox="0 0 512 512" style="enable-background:new 0 0 512 512;" xml:space="preserve">
<path d="M322.6,472.8c4,10.3-1.1,21.9-11.4,25.9c-23.1,9-46.4,13.4-71.2,13.4c-30.4,0-60.1-7.2-88.3-21.3
	c-26.4-13.2-50.2-31.8-70.9-55.3C39.6,388.8,16,327.7,16,268V111c0-7.9,4.6-15,11.8-18.2l203-91c5.2-2.3,11.1-2.3,16.3,0l205,91
	c7.2,3.2,11.9,10.4,11.9,18.3v157c0,10.4-1.4,20.2-2.7,29.6l-0.4,3.1c-1.5,10.9-11.7,18.6-22.6,17c-10.9-1.5-18.6-11.6-17-22.6
	l0.5-3.2c1.2-8.5,2.3-16.5,2.3-24V124L239,41.9L56,124v144c0,106.8,87.7,204,184,204c19.8,0,38.3-3.5,56.8-10.6
	C307,457.4,318.6,462.5,322.6,472.8z M496,453.5c0,15.6-6.1,30.3-17.1,41.4c-11.1,11.1-25.7,17.1-41.4,17.1
	c-15.6,0-30.3-6.1-41.3-17.1L294,394.3c-13.8,6-29.3,9.1-40.4,9.2c-0.1,0-0.1,0-0.2,0c-31.6,0-59.9-14.8-79.7-41.6
	c-16.4-22.2-25.7-52-25.7-81.8c0-11.5,2.1-23.2,6.4-35.9c2.2-6.5,7.7-11.5,14.4-13c6.7-1.6,13.8,0.5,18.7,5.4l48.9,49l25.5-5.8l6-26
	L220,204.6c-4.8-4.9-6.8-12-5.2-18.7c1.6-6.7,6.5-12.1,13-14.3c12.1-4.1,23.1-6,34.8-6c0.1,0,0.2,0,0.2,0c35.9,0,71.1,13.8,94.3,37
	c18.9,18.9,28.9,42.6,28.9,68.5c0,12.1-3.8,27.1-9.8,40.2L478.7,412c0,0,0.1,0.1,0.1,0.1C489.9,423.2,496,437.9,496,453.5z
	 M456,453.5c0-4.9-1.9-9.5-5.4-13L337.2,329.1c-7.1-6.9-8-18-2.2-26c6.3-8.6,10.9-24,11-32c0-15.2-5.7-28.7-17.2-40.1
	c-12.6-12.6-30.9-21.2-50.8-24.2l26.3,26.9c4.8,4.9,6.7,11.9,5.2,18.5L298.2,301c-1.7,7.5-7.6,13.3-15.1,15l-48.5,11
	c-6.7,1.5-13.7-0.5-18.6-5.4l-27-27c2.2,16.3,8.1,31.6,16.9,43.5c8.5,11.6,23.7,25.3,47.5,25.3c0,0,0.1,0,0.1,0
	c8.6,0,23.9-4.2,32.2-10.1c3.5-2.5,7.6-3.7,11.6-3.7c5.1,0,10.2,1.9,14,5.7l112.8,111.1c0,0,0.1,0.1,0.1,0.1
	c3.5,3.5,8.1,5.4,13.1,5.4s9.6-1.9,13.1-5.4C454.1,463.1,456,458.4,456,453.5z"/>
</svg>
