<svg width="192" height="84" viewBox="0 0 192 84" fill="none" xmlns="http://www.w3.org/2000/svg">
<path d="M92.063 40.8353C93.627 39.9875 95.2755 38.9985 97.0085 37.8682C98.7922 36.841 100.379 35.5303 101.7 33.9927C102.901 32.6362 103.573 30.9245 103.603 29.1484V28.7851C103.603 25.0308 102.563 22.4027 100.623 20.9131C98.5246 19.3165 95.882 18.5184 93.2043 18.6726C88.3475 18.6726 84.8983 20.2712 82.8694 23.3353C80.8642 26.7662 79.9395 30.6773 80.2064 34.5983V35.6882H56.7468C56.7247 35.4465 56.7247 35.2033 56.7468 34.9616C56.7083 34.4981 56.7083 34.0324 56.7468 33.5688L57.0004 28.9062C57.3122 24.5119 58.5638 20.2253 60.6779 16.311C62.7266 12.313 65.8022 8.87562 69.6179 6.31967C67.4062 4.43218 64.8184 2.99047 62.0094 2.08091C57.4931 0.561642 52.719 -0.136663 47.9336 0.0220809H0V83.5257H52.1817C53.0713 83.5453 53.9611 83.5049 54.8447 83.4046H55.0349V83.2834C55.0349 82.2783 55.0349 81.2852 55.0349 80.3163C55.1035 77.6468 55.5514 74.9986 56.3664 72.4443C57.4217 69.0614 59.096 65.8837 61.3119 63.0585C63.7925 59.8348 66.7139 56.9429 69.9983 54.4599C72.7578 52.2786 75.6824 50.2951 78.7481 48.5256C78.7481 48.4045 78.8115 48.3439 78.9383 48.3439L80.7136 47.254C84.4841 45.074 88.2461 42.9143 91.9996 40.7747L92.063 40.8353ZM47.8702 21.1553C48.687 21.6036 49.3568 22.2603 49.8048 23.0518C50.2527 23.8432 50.461 24.7382 50.4064 25.6363C50.4064 28.2643 49.6075 30.0931 47.997 31.1467C45.9043 32.1755 43.5633 32.656 41.2128 32.5394H27.0102V19.8837H41.1494C43.4646 19.7799 45.7714 20.2163 47.8702 21.1553ZM27.0102 63.664V48.1017H43.8758C47.046 48.1017 49.4131 48.7476 50.977 50.0394C51.7649 50.7621 52.3775 51.6407 52.7718 52.6136C53.1662 53.5865 53.3327 54.63 53.2596 55.671C53.2596 58.8197 52.224 60.9795 50.1528 62.1502C47.897 63.3001 45.3494 63.8244 42.7979 63.664H27.0102Z" fill="#15357A"/>
<path d="M187.677 20.8539C187.622 18.5246 187.195 16.217 186.409 14.0113C185.552 11.4981 184.147 9.18663 182.287 7.22933C179.894 4.88496 176.964 3.10242 173.728 2.02171C170.234 0.78221 166.548 0.106886 162.822 0.0234375C162.353 0.0234375 161.846 0.0234375 161.301 0.0234375H96.8819C102.026 0.159428 107.117 1.05828 111.972 2.6878C116.889 4.36182 121.186 7.37156 124.336 11.347C127.393 15.6187 128.947 20.7085 128.774 25.8799V26.6065C128.734 31.0986 127.467 35.5029 125.097 39.3834C122.741 43.1336 119.614 46.3885 115.903 48.9509C112.033 51.7642 107.918 54.256 103.603 56.399C99.249 58.6677 95.022 60.9687 90.9219 63.3021H129.979V83.527H161.364C166.453 83.547 171.488 82.5357 176.137 80.5599C180.661 78.8066 184.573 75.8678 187.423 72.0824C190.528 68.0329 192.134 63.1118 191.988 58.0945C192.103 54.5509 191.365 51.0294 189.833 47.8003C188.499 45.2207 186.595 42.9481 184.253 41.1394C182.017 39.4518 179.483 38.1598 176.771 37.3245C179.865 35.8326 182.556 33.6772 184.633 31.0269C186.74 28.0246 187.804 24.4658 187.677 20.8539V20.8539ZM152.931 19.8245C155.246 19.7207 157.553 20.1571 159.652 21.0961C160.469 21.5445 161.139 22.2011 161.587 22.9926C162.035 23.784 162.243 24.679 162.188 25.5771C162.188 28.2415 161.385 30.0581 159.779 31.0269C157.713 32.1346 155.361 32.6596 152.995 32.5408H138.729V19.8245H152.868H152.931ZM154.453 63.6049H138.729V47.982H155.594C158.764 47.982 161.132 48.6481 162.696 49.9803C163.517 50.6942 164.155 51.5787 164.562 52.5656C164.969 53.5525 165.133 54.6153 165.041 55.6723C164.953 58.7848 163.926 60.9163 161.935 62.091C159.651 63.2883 157.049 63.8149 154.453 63.6049V63.6049Z" fill="#3AB8FA"/>
</svg>
