<svg width="32" height="32" viewBox="0 0 33 16" fill="none" xmlns="http://www.w3.org/2000/svg">
<path d="M7.98914 0.00401601H0V15.1914H8.69718C8.84544 15.195 8.99375 15.1876 9.14102 15.1694H9.17272V15.1473C9.17272 14.9645 9.17272 14.7839 9.17272 14.6077C9.18415 14.1222 9.25881 13.6405 9.39464 13.1759C9.57052 12.5607 9.84959 11.9827 10.2189 11.4689C10.6324 10.8826 11.1193 10.3566 11.6667 9.90499C12.1266 9.50826 12.6141 9.14751 13.125 8.82568C13.125 8.80366 13.1356 8.79265 13.1567 8.79265L13.4526 8.5944C14.081 8.19793 14.7081 7.80512 15.3337 7.41598C15.5943 7.26179 15.8691 7.08191 16.1579 6.87633C16.4552 6.68951 16.7197 6.45113 16.9399 6.17148C17.1416 5.92919 17.2573 5.62201 17.2675 5.30142V5.23534C17.2675 4.55252 17.0942 4.07454 16.7709 3.80361C16.4212 3.51323 15.9807 3.36806 15.5344 3.39612C14.725 3.39612 14.1501 3.68687 13.8119 4.24414C13.4777 4.86815 13.3236 5.57949 13.3681 6.29262V6.49086H9.45805C9.45436 6.44689 9.45436 6.40267 9.45805 6.3587C9.45163 6.2744 9.45163 6.1897 9.45805 6.1054L9.50032 5.25737C9.55228 4.45815 9.76088 3.67852 10.1132 2.9666C10.4547 2.23944 10.9673 1.61427 11.6033 1.1494C11.2347 0.806112 10.8033 0.543898 10.3352 0.378469C9.58243 0.10215 8.78672 -0.0248559 7.98914 0.00401601ZM4.50182 3.61639H6.8584C7.24428 3.5975 7.62876 3.67688 7.97858 3.84766C8.1147 3.9292 8.22635 4.04864 8.30101 4.19258C8.37567 4.33653 8.41039 4.4993 8.40128 4.66265C8.40128 5.14063 8.26813 5.47323 7.99971 5.66486C7.65091 5.85197 7.26074 5.93938 6.86897 5.91817H4.50182V3.61639ZM8.49639 9.10102C8.6277 9.23245 8.72981 9.39225 8.79553 9.5692C8.86126 9.74614 8.889 9.93594 8.87683 10.1253C8.87683 10.6979 8.70422 11.0908 8.35901 11.3037C7.98303 11.5128 7.55842 11.6082 7.13316 11.579H4.50182V8.74859H7.31281C7.8412 8.74859 8.23572 8.86607 8.49639 9.10102Z" fill="#15357A"/>
<path d="M30.3842 1.31474C29.9853 0.888349 29.497 0.564146 28.9576 0.36759C28.3753 0.142153 27.761 0.0193278 27.14 0.00415039C27.0618 0.00415039 26.9772 0.00415039 26.8863 0.00415039H16.1496C17.007 0.0288839 17.8555 0.192364 18.6647 0.488736C19.4842 0.793201 20.2004 1.3406 20.7254 2.06364C21.2349 2.84058 21.4939 3.76629 21.4651 4.70684V4.839C21.4585 5.65601 21.2472 6.45704 20.8522 7.16281C20.4597 7.8449 19.9384 8.43688 19.3199 8.90291C18.6749 9.41461 17.989 9.86781 17.2698 10.2576C16.5441 10.6702 15.8396 11.0887 15.1562 11.5131H21.6659V15.1915H26.8969C27.745 15.1951 28.5843 15.0112 29.3592 14.6519C30.1131 14.333 30.7652 13.7985 31.2402 13.11C31.7578 12.3735 32.0254 11.4785 32.0011 10.5659C32.0201 9.92143 31.8972 9.28095 31.6418 8.69366C31.4195 8.22449 31.1023 7.81116 30.7118 7.48219C30.3392 7.17526 29.9169 6.94028 29.4648 6.78836C29.9806 6.517 30.4291 6.12499 30.7752 5.64297C31.1263 5.09691 31.3037 4.44965 31.2825 3.79273C31.2734 3.36908 31.2021 2.94938 31.0711 2.54823C30.9283 2.09112 30.6942 1.67072 30.3842 1.31474V1.31474ZM26.601 3.83679C26.7371 3.91832 26.8488 4.03776 26.9234 4.1817C26.9981 4.32565 27.0328 4.48842 27.0237 4.65177C27.0237 5.13636 26.8899 5.46676 26.6222 5.64297C26.2778 5.84443 25.8857 5.93991 25.4914 5.9183H23.1243V3.60551H25.4808C25.8667 3.58662 26.2512 3.66601 26.601 3.83679V3.83679ZM23.1243 8.7267H25.9353C26.4636 8.7267 26.8582 8.84785 27.1188 9.09014C27.2557 9.21999 27.3621 9.38086 27.4299 9.56035C27.4977 9.73984 27.525 9.93315 27.5098 10.1254C27.495 10.6915 27.3238 11.0791 26.992 11.2928C26.6126 11.5144 26.1787 11.614 25.745 11.5791H23.1243V8.7267Z" fill="#3AB8FA"/>
</svg>
