<svg width="384" height="168" viewBox="0 0 384 168" fill="none" xmlns="http://www.w3.org/2000/svg">
<path d="M184.126 81.6706C187.254 79.9751 190.551 77.997 194.017 75.7363C197.584 73.6819 200.758 71.0606 203.401 67.9854C205.803 65.2724 207.147 61.8491 207.205 58.2968V57.5702C207.205 50.0615 205.125 44.8055 201.245 41.8262C197.049 38.633 191.764 37.0367 186.409 37.3453C176.695 37.3453 169.797 40.5425 165.739 46.6705C161.728 53.5324 159.879 61.3546 160.413 69.1965V71.3764H113.494C113.449 70.8929 113.449 70.4067 113.494 69.9232C113.417 68.9961 113.417 68.0647 113.494 67.1377L114.001 57.8124C114.624 49.0239 117.128 40.4506 121.356 32.6221C125.453 24.6259 131.604 17.7512 139.236 12.6393C134.812 8.86437 129.637 5.98095 124.019 4.16182C114.986 1.12328 105.438 -0.273327 95.8673 0.0441618H0V167.051H104.363C106.143 167.091 107.922 167.01 109.689 166.809H110.07V166.567C110.07 164.557 110.07 162.57 110.07 160.633C110.207 155.294 111.103 149.997 112.733 144.889C114.843 138.123 118.192 131.767 122.624 126.117C127.585 119.67 133.428 113.886 139.997 108.92C145.516 104.557 151.365 100.59 157.496 97.0512C157.496 96.809 157.623 96.6879 157.877 96.6879L161.427 94.508C168.968 90.1481 176.492 85.8286 183.999 81.5495L184.126 81.6706ZM95.7405 42.3107C97.3739 43.2073 98.7137 44.5206 99.6095 46.1035C100.505 47.6864 100.922 49.4763 100.813 51.2726C100.813 56.5287 99.215 60.1861 95.9941 62.2934C91.8085 64.3509 87.1267 65.3121 82.4256 65.0789H54.0204V39.7674H82.2987C86.9291 39.5597 91.5427 40.4327 95.7405 42.3107ZM54.0204 127.328V96.2035H87.7515C94.0919 96.2035 98.8261 97.4953 101.954 100.079C103.53 101.524 104.755 103.281 105.544 105.227C106.332 107.173 106.665 109.26 106.519 111.342C106.519 117.639 104.448 121.959 100.306 124.3C95.7939 126.6 90.6987 127.649 85.5958 127.328H54.0204Z" fill="#15357A"/>
<path d="M375.354 41.7059C375.245 37.0473 374.39 32.432 372.818 28.0207C371.104 22.9941 368.295 18.3713 364.575 14.4567C359.789 9.76797 353.929 6.20289 347.456 4.04147C340.468 1.56247 333.097 0.211819 325.645 0.0449219C324.707 0.0449219 323.692 0.0449219 322.602 0.0449219H193.764C204.053 0.316903 214.234 2.11461 223.945 5.37365C233.778 8.72168 242.373 14.7412 248.672 22.692C254.786 31.2355 257.895 41.4151 257.549 51.7578V53.2111C257.469 62.1953 254.934 71.0038 250.194 78.7648C245.483 86.2653 239.228 92.775 231.807 97.8998C224.067 103.527 215.836 108.51 207.206 112.796C198.498 117.333 190.045 121.936 181.844 126.602H259.958V167.052H322.729C332.906 167.092 342.976 165.069 352.275 161.118C361.322 157.611 369.147 151.734 374.847 144.163C381.057 136.064 384.269 126.222 383.977 116.187C384.206 109.1 382.731 102.057 379.666 95.5987C376.999 90.4395 373.191 85.8943 368.506 82.2769C364.035 78.9017 358.967 76.3177 353.543 74.6471C359.731 71.6632 365.113 67.3524 369.267 62.0519C373.48 56.0472 375.609 48.9297 375.354 41.7059V41.7059ZM305.863 39.6471C310.493 39.4394 315.107 40.3123 319.305 42.1903C320.938 43.087 322.278 44.4003 323.174 45.9832C324.07 47.5661 324.486 49.356 324.377 51.1523C324.377 56.481 322.771 60.1142 319.558 62.0519C315.427 64.2673 310.722 65.3172 305.99 65.0796H277.458V39.6471H305.736H305.863ZM308.906 127.208H277.458V95.962H311.189C317.529 95.962 322.264 97.2942 325.392 99.9586C327.034 101.386 328.311 103.155 329.124 105.129C329.938 107.103 330.266 109.229 330.083 111.343C329.906 117.568 327.852 121.831 323.87 124.18C319.303 126.575 314.098 127.628 308.906 127.208V127.208Z" fill="#3AB8FA"/>
</svg>
