<?xml version="1.0" encoding="iso-8859-1"?>
<!-- Generator: Adobe Illustrator 19.0.0, SVG Export Plug-In . SVG Version: 6.00 Build 0)  -->
<svg version="1.1" id="Capa_1" xmlns="http://www.w3.org/2000/svg" xmlns:xlink="http://www.w3.org/1999/xlink" x="0px" y="0px"
	 viewBox="0 0 512 512" style="enable-background:new 0 0 512 512;" xml:space="preserve">
<path style="fill:#E8EAE9;" d="M381.867,23.467v268.8c0,12.8-10.667,23.467-23.467,23.467H23.467
	C10.667,315.733,0,305.067,0,292.267v-268.8C0,10.667,10.667,0,23.467,0h333.867C371.2,0,381.867,10.667,381.867,23.467z"/>
<path style="fill:#F3705A;" d="M179.2,70.4c-55.467,0-99.2,44.8-99.2,99.2c0,55.467,44.8,99.2,99.2,99.2
	c55.467,0,99.2-44.8,99.2-99.2h-99.2V70.4z"/>
<path style="fill:#66C6B9;" d="M202.667,46.933v99.2h99.2C302.933,91.733,258.133,46.933,202.667,46.933z"/>
<path style="fill:#E8EAE9;" d="M199.467,341.333v-33.067h-18.133v33.067c-12.8,4.267-22.4,16-22.4,30.933c0,17.067,13.867,32,32,32
	c17.067,0,32-13.867,32-32C222.933,357.333,213.333,344.533,199.467,341.333z M190.933,385.067c-7.467,0-13.867-6.4-13.867-13.867
	s6.4-13.867,13.867-13.867c7.467,0,13.867,6.4,13.867,13.867C204.8,379.733,198.4,385.067,190.933,385.067z"/>
<path style="fill:#F7B64C;" d="M121.6,180.267c0,0-1.067,3.2,0,4.267c0,1.067,3.2,7.467,5.333,8.533s4.267,0,3.2-4.267
	C129.067,185.6,124.8,177.067,121.6,180.267z"/>
<path style="fill:#FFD15C;" d="M166.4,205.867l-23.467,5.333l0,0c0,0-3.2-6.4-5.333-8.533c-2.133-3.2-7.467-9.6-9.6-14.933
	c-2.133-4.267-4.267-8.533-4.267-8.533s-2.133,2.133-2.133,4.267c0,0-3.2-5.333-1.067-7.467c2.133-3.2,7.467-1.067,8.533-2.133
	c1.067-1.067,1.067-2.133,2.133-2.133c1.067,0,2.133-2.133,4.267-3.2c2.133-1.067,4.267-1.067,5.333-2.133
	c2.133-1.067,2.133-2.133,3.2-1.067c1.067,0,0-5.333-1.067-8.533c-1.067-4.267-3.2-8.533-1.067-10.667s4.267,0,5.333,3.2
	c1.067,3.2,3.2,7.467,4.267,9.6s1.067,2.133,1.067,4.267c0,1.067,2.133,6.4,3.2,9.6c1.067,2.133,4.267,18.133,6.4,23.467
	C164.267,199.467,166.4,205.867,166.4,205.867z"/>
<g>
	<path style="fill:#344A5E;" d="M309.333,308.267l-22.4-21.333c0,0-6.4-4.267-18.133-4.267s-22.4,0-26.667-3.2
		c-4.267-3.2-10.667-10.667-17.067-11.733c-6.4-1.067-7.467-4.267-19.2-11.733c-11.733-7.467-14.933-26.667-19.2-30.933
		s-11.733-12.8-11.733-12.8l-9.6-13.867c0,0-21.333-9.6-32,17.067c0,0,4.267,9.6,7.467,14.933c2.133,5.333,7.467,13.867,9.6,22.4
		c2.133,8.533,5.333,19.2,11.733,27.733c6.4,8.533,23.467,32,34.133,39.467c10.667,7.467,69.333,49.067,69.333,49.067
		L309.333,308.267z"/>
	<path style="fill:#344A5E;" d="M451.2,512H512c-1.067-13.867-6.4-29.867-6.4-38.4c-1.067-13.867-5.333-44.8-4.267-59.733
		c1.067-16-7.467-38.4-7.467-38.4l-41.6-19.2l-14.933,64c0,0,1.067,1.067,2.133,22.4C440.533,460.8,450.133,504.533,451.2,512z"/>
</g>
<path style="fill:#415A6B;" d="M423.467,512c0-7.467,1.067-19.2,4.267-27.733c3.2-9.6,25.6-43.733,29.867-53.333
	c5.333-9.6,34.133-40.533,36.267-52.267c2.133-11.733-24.533-32-35.2-38.4c-9.6-6.4-19.2-18.133-28.8-23.467
	c-10.667-6.4-14.933-11.733-14.933-11.733c-52.267-25.6-66.133-12.8-72.533-9.6c-7.467,3.2-13.867,1.067-28.8-5.333
	c-16-6.4-26.667-3.2-26.667-3.2c6.4,23.467-21.333,83.2-21.333,83.2s-1.067,21.333-4.267,45.867c-2.133,19.2-3.2,71.467-4.267,96
	H423.467z"/>
<path style="fill:#FFD15C;" d="M364.8,182.4c0,0-6.4,8.533-10.667,13.867c-4.267,4.267-8.533,7.467-8.533,11.733
	c-1.067,4.267,2.133,9.6,1.067,11.733c-2.133,2.133-12.8,6.4-8.533,13.867c0,0-5.333,7.467-2.133,11.733c0,0-3.2,1.067-1.067,5.333
	c0,0,1.067,4.267-1.067,8.533c-2.133,5.333-3.2,13.867,4.267,17.067c7.467,2.133,12.8,2.133,12.8,2.133v11.733L412.8,291.2
	l5.333-9.6C412.8,233.6,402.133,194.133,364.8,182.4z"/>
<path style="fill:#415A6B;" d="M352,229.333l4.267,5.333c0,0,12.8-9.6,20.267-3.2c7.467,5.333,6.4,35.2,2.133,44.8
	c0,0,29.867,7.467,38.4,4.267c8.533-3.2,36.267-30.933,40.533-59.733c4.267-28.8-17.067-52.267-40.533-55.467
	c-37.333-4.267-51.2,2.133-55.467,7.467c-4.267,5.333-1.067,13.867,6.4,14.933l0,0c0,0-11.733,8.533-11.733,20.267
	C357.333,220.8,356.267,225.067,352,229.333z"/>
<ellipse transform="matrix(0.4776 -0.8786 0.8786 0.4776 -16.7216 451.6854)" style="fill:#FFD15C;" cx="371.459" cy="239.904" rx="16" ry="8.533"/>
<path style="fill:#F7B64C;" d="M350.933,286.933c9.6-5.333,17.067-13.867,17.067-13.867c-6.4,4.267-16,5.333-16,5.333
	L350.933,286.933z"/>
<path style="fill:#E8EAE9;" d="M342.4,295.467c0,0,10.667-3.2,25.6-1.067c14.933,2.133,46.933,10.667,46.933,10.667
	s-1.067-5.333-1.067-10.667c-1.067-4.267-1.067-5.333-5.333-7.467C403.2,285.867,368,276.267,355.2,281.6
	S342.4,295.467,342.4,295.467z"/>
<path style="fill:#F7B64C;" d="M141.867,154.667c0,1.067,0,1.067,1.067,2.133c1.067,3.2,2.133,9.6,1.067,8.533
	c2.133,1.067,3.2,4.267,3.2,1.067C146.133,164.267,144,157.867,141.867,154.667z"/>
</svg>
