<svg xmlns="http://www.w3.org/2000/svg" viewBox="0 0 329.7 101.6"><g><path d="M51 92.8c11.4-1.1 21.3-5.3 29.7-12.6l-.6-.5L51 61v31.8z" fill="#f0993c"/><linearGradient id="a" gradientUnits="userSpaceOnUse" x1="22.987" y1="95.614" x2="34.337" y2="-.137" gradientTransform="matrix(1 0 0 -1 0 101.6)"><stop offset="0" stop-color="#2fdfdd"/><stop offset=".577" stop-color="#2180dd"/><stop offset="1" stop-color="#001f78"/></linearGradient><path d="M51 61V0C36.8 0 24.7 4.9 14.8 14.8 4.9 24.7 0 36.8 0 51c0 13.9 4.9 25.8 14.8 35.7 9.9 9.9 22 14.8 36.2 14.8V61m-7.2-17.3c-2.7 2.7-5.8 4-9.6 4-3.7 0-7-1.3-9.7-4-2.6-2.7-3.8-5.9-3.8-9.6 0-.3 0-.6.1-.9.1-2.8 1.1-5.4 2.9-7.7.3-.4.6-.8.9-1.1 2.7-2.6 6-4 9.7-4 3.7 0 6.9 1.3 9.6 4 2.7 2.7 4 5.9 4 9.6-.1 3.8-1.5 7-4.1 9.7z" fill="url(#a)"/><path d="M34.2 47.7c3.7 0 6.9-1.3 9.6-4 2.7-2.7 4-5.9 4-9.6 0-3.7-1.3-7-4-9.6-2.7-2.6-5.8-4-9.6-4-3.7 0-7 1.3-9.7 4-.3.3-.6.7-.9 1.1-1.8 2.3-2.8 4.8-2.9 7.7-.1.3-.1.6-.1.9 0 3.7 1.3 6.9 3.8 9.6 2.8 2.6 6.1 3.9 9.8 3.9M41.3 27c2 2 3 4.4 3 7.2 0 2.7-1 5.1-3 7.1s-4.3 3-7 3c-2.8 0-5.2-1-7.2-3-1.9-2-2.8-4.3-2.8-7.1v-.6c.1-2.1.8-4 2.2-5.7l.6-.9c2-1.9 4.4-2.9 7.2-2.9 2.7 0 5 .9 7 2.9z" fill="#fff"/><path d="M44.3 34.1c0-2.8-1-5.2-3-7.2-2-1.9-4.3-2.9-7-2.9-2.8 0-5.2 1-7.2 2.9-.2.3-.5.6-.6.9-1.4 1.7-2.1 3.6-2.2 5.7v.6c0 2.7 1 5.1 2.8 7.1 2 2 4.4 3 7.2 3 2.7 0 5-1 7-3s3-4.3 3-7.1m-5.4-4.8c1.4 1.3 2.1 2.9 2.1 4.8s-.7 3.5-2.1 4.8c-1.3 1.3-2.9 2-4.8 2s-3.5-.7-4.8-2c-1.3-1.3-2-2.9-2-4.8v-.3c.1-1.3.5-2.5 1.2-3.5.2-.3.5-.7.8-1 1.3-1.3 2.9-2 4.8-2s3.5.7 4.8 2z" fill="#6cf"/><path d="M41 34.1c0-1.9-.7-3.5-2.1-4.8-1.3-1.3-2.9-2-4.8-2s-3.5.7-4.8 2c-.3.3-.5.6-.8 1-.8 1-1.2 2.2-1.2 3.5v.3c0 1.9.7 3.5 2 4.8 1.3 1.3 2.9 2 4.8 2s3.5-.7 4.8-2c1.4-1.3 2.1-2.9 2.1-4.8m100.2-12.3c-.5-.9-.8-2-.8-3.3 0-2.3.9-4.3 2.9-5.8 1.9-1.5 4.8-2.2 8.9-2.2 2.8 0 5.5.4 8.1 1.2 1.4.4 2.7.9 4.1 1.5.5.2 1 .5 1.5.8V9.2c-.5-.1-1-.2-1.5-.4l-.9-.3c-1.4-.4-2.8-.7-4.1-1-1.4-.2-2.9-.4-4.4-.5h-4.7c-2.6 0-5 .3-7.2.9-2.3.6-4.2 1.4-5.8 2.4-1.6 1-2.9 2.3-3.9 3.8-.9 1.5-1.4 3.2-1.4 5.2s.5 3.8 1.6 5.4c.6.9 1.2 1.8 2 2.5.5.7 1.2 1.4 1.9 2.1 1.5 1.4 3.3 2.6 5.2 3.8l12.2 6.3c1.3.7 2.6 1.4 3.7 2.3 1.3 1 2.4 2.2 3.2 3.6.9 1.4 1.3 3.1 1.3 5.1 0 3.4-1 6-3.1 8-2 2.1-5 3.1-8.9 3.1-3.5 0-6.8-.6-9.9-1.7-3.1-1.2-6.4-3.3-9.9-6.5v6.6c3 2.2 6.1 3.7 9.1 4.6 3 .9 6.5 1.3 10.4 1.3 3.1 0 5.9-.4 8.4-1.2 2.5-.7 4.7-1.8 6.5-3.3 1.8-1.5 3.2-3.2 4.2-5.2s1.6-4.3 1.6-6.8c0-3.2-.6-5.8-1.8-7.8-1.2-2.1-2.7-3.8-4.6-5.2-1.9-1.4-3.9-2.6-6.1-3.7-1.5-.7-2.9-1.3-4.2-2l-6.2-3.2c-.3-.2-.6-.3-1-.4-1.8-.8-3.4-1.9-4.9-3.2-.6-.8-1.1-1.4-1.5-2m45-17.8h-7.6v49.5c0 3.6 1.1 6.5 3.3 8.6 2.1 2.1 4.8 3.1 8.1 3.1h3.6v-3.3c-2.4 0-4.2-.7-5.6-2.1-1.3-1.4-1.9-3.4-1.9-5.9V4m20.1.7h-7.6v7.7c5.1-1 7.6-3.6 7.6-7.7m0 17.2h-7.6v43.2h7.6V21.9m28-.5c-3.6 0-6.7.5-9.3 1.7-2.6 1.1-4.7 2.6-6.5 4.5-1.8 2-3.1 4.3-3.9 7-.8 2.7-1.3 5.7-1.2 9 0 3.2.4 6.2 1.2 8.9.8 2.7 2.1 5 3.9 7 1.7 1.9 3.9 3.4 6.5 4.5s5.7 1.6 9.3 1.6c2.4 0 4.9-.3 7.4-.8 2.5-.6 5-1.6 7.3-3.2V56c-2.6 2.2-5.2 3.8-7.8 4.6-2.6.9-4.9 1.3-6.9 1.3-2.8 0-5.1-.6-6.9-1.7-1.7-1.1-3.1-2.6-4-4.3-.9-1.8-1.6-3.8-2-6-.3-2.1-.5-4.2-.5-6.3 0-2.1.2-4.2.5-6.3.4-2.2 1-4.2 2-6 1-1.8 2.3-3.2 4-4.4 1.8-1.1 4.1-1.7 6.9-1.7 2 0 4.1.3 6.4.8 2.3.6 4.9 1.9 7.8 3.8v-5.6c-2.6-1.1-5-1.8-7.4-2.2-2.5-.4-4.8-.6-6.8-.6m56.3 40.2V56c-3 2.2-5.8 3.8-8.3 4.6-2.5.9-5 1.3-7.6 1.3-2.7 0-4.9-.5-6.7-1.6-1.7-1.1-3-2.4-4-4.1-.9-1.6-1.6-3.4-2-5.4-.3-2-.5-3.9-.5-5.8h31.1c0-3.3-.2-6.4-.6-9.2-.4-2.8-1.3-5.3-2.6-7.4-1.3-2.1-3-3.8-5.4-5-2.3-1.2-5.4-1.9-9.4-1.9-3.6 0-6.8.5-9.4 1.7s-4.8 2.6-6.5 4.5c-1.7 2-2.9 4.3-3.7 7-.8 2.7-1.2 5.7-1.2 9 0 3.2.4 6.2 1.2 8.9.8 2.7 2.1 5 3.8 7 1.7 1.9 3.9 3.4 6.4 4.5 2.6 1.1 5.7 1.6 9.2 1.6 2.7 0 5.5-.3 8.3-1 3.1-.8 5.6-1.8 7.9-3.1M283.4 30c.7 1.4 1.2 3.1 1.4 5 .2 1.9.4 3.9.4 6h-23.6c0-2 .2-4 .7-5.9.5-1.9 1.3-3.6 2.3-5 1-1.4 2.3-2.6 4-3.5 1.6-.9 3.5-1.3 5.8-1.3 2.5 0 4.4.5 5.9 1.3 1.3.8 2.3 1.9 3.1 3.4z" fill="#006"/><path d="M51 51v10l29.1 18.7L51 51z" fill="#d05533"/><linearGradient id="b" gradientUnits="userSpaceOnUse" x1="50.45" y1="58.5" x2="101" y2="58.5" gradientTransform="matrix(1 0 0 -1 0 101.6)"><stop offset="0" stop-color="#fceb43"/><stop offset="1" stop-color="#f18750"/></linearGradient><path d="M86.8 14.8C76.9 4.9 64.9 0 51 0v51l29.1 28.6.6.5 6.6 6.1c9.5-9.9 14.2-21.6 14.2-35.1.1-14.3-4.9-26.4-14.7-36.3z" fill="url(#b)"/><path d="M225.4 83.9c-.8-.9-1.9-1.3-3.3-1.3-.9 0-1.8.2-2.5.6-.7.5-1.3 1.1-1.8 1.9-.4.8-.6 1.7-.6 2.7 0 1.6.5 2.9 1.4 3.8 1 .9 2.3 1.4 3.9 1.4.7 0 1.5-.1 2.2-.4.7-.2 1.3-.5 1.8-.9l-.7-1.8c-.9.7-2 1.1-3.1 1.1-.9 0-1.6-.3-2.1-.8s-.8-1.3-.8-2.3h6.9v-.4c-.1-1.4-.5-2.7-1.3-3.6m-4.8 1.1c.4-.4.9-.6 1.6-.6s1.2.2 1.6.6c.4.4.6 1 .7 1.8h-4.7c0-.9.3-1.4.8-1.8m23.8-2.1c0-1.3-.4-2.3-1.3-3.1-.9-.7-2.1-1.1-3.6-1.1h-6.1v14.2h2.5V87h3.6c1.5 0 2.7-.4 3.6-1.1.9-.8 1.3-1.8 1.3-3m-2.4 0c0 .7-.2 1.2-.7 1.6-.5.4-1.2.5-2.1.6h-3.3v-4.3h3.3c.9 0 1.6.2 2.1.6.5.2.7.7.7 1.5m10.4 2.2v-2.3c-.3-.1-.6-.1-1-.1-.7 0-1.3.2-1.9.5-.6.3-1 .8-1.2 1.5l-.2-1.8h-2.4c.1.8.1 1.8.1 2.8v7.2h2.5v-5.4c0-.8.2-1.5.7-1.9.5-.5 1.1-.8 1.9-.8.7 0 1.1.1 1.5.3m10 0c-.4-.8-1-1.4-1.8-1.8-.8-.4-1.6-.6-2.6-.6s-1.9.2-2.7.6c-.8.4-1.4 1-1.8 1.8-.4.8-.6 1.7-.6 2.8s.2 2 .6 2.8c.4.8 1 1.4 1.8 1.8.8.4 1.7.7 2.7.7 1 0 1.9-.2 2.6-.7.8-.4 1.4-1 1.8-1.8.4-.8.6-1.7.6-2.8s-.2-2.1-.6-2.8m-6.4.3c.5-.6 1.1-.8 2-.8s1.5.3 1.9.8c.5.6.7 1.4.7 2.5s-.2 1.9-.7 2.4c-.4.6-1.1.8-1.9.8-.8 0-1.5-.3-1.9-.8-.5-.5-.7-1.4-.7-2.4-.1-1.1.1-1.9.6-2.5m20-2.2c-.7.5-1.3 1.1-1.8 1.9-.4.8-.6 1.7-.6 2.7 0 1.6.5 2.9 1.4 3.8 1 .9 2.3 1.4 3.9 1.4.7 0 1.4-.1 2.1-.4.7-.2 1.3-.5 1.8-.9l-.7-1.8c-.9.7-2 1.1-3.1 1.1-.9 0-1.6-.3-2.1-.8s-.8-1.3-.8-2.3h7v-.4c0-1.6-.4-2.8-1.2-3.7s-1.9-1.3-3.3-1.3c-1 .1-1.8.3-2.6.7m2.6 1.2c.7 0 1.2.2 1.6.6.4.4.6 1 .6 1.8h-4.7c.1-.8.4-1.3.8-1.7.5-.5 1-.7 1.7-.7m-6.2 1.2l.7-1.8c-.4-.4-.9-.7-1.6-.9-.7-.2-1.4-.3-2.1-.3-1 0-2 .2-2.8.6-.8.5-1.4 1.1-1.9 1.9-.4.8-.6 1.7-.6 2.8 0 1.1.2 2 .6 2.8.4.8 1 1.4 1.8 1.8.8.4 1.7.7 2.8.7.7 0 1.5-.1 2.2-.4.7-.2 1.2-.5 1.6-.9l-.7-1.8c-.4.4-.9.6-1.4.8-.5.2-1 .3-1.4.3-.9 0-1.6-.3-2.1-.8-.5-.6-.8-1.4-.8-2.4s.2-1.9.8-2.5 1.2-.8 2.1-.8c.5 0 .9.1 1.4.3.5 0 .9.3 1.4.6m-135-6.9h-1.5l-3.9 2.4v2.3l2.9-1.8v9.2h-3.1v2.1h8.8v-2.1h-3.1V78.7m14.7 7.1c0-2.4-.5-4.2-1.4-5.4-.9-1.2-2.1-1.8-3.8-1.8s-3 .6-3.9 1.9c-.9 1.2-1.4 3-1.4 5.4 0 2.4.4 4.2 1.4 5.4.9 1.3 2.2 1.9 3.9 1.9s3-.6 3.8-1.9c1-1.3 1.4-3.1 1.4-5.5m-3.1-3.9c.4.8.6 2.1.6 3.9 0 1.8-.2 3.2-.6 4.1-.4.8-1.1 1.2-2 1.2-.9 0-1.6-.4-2-1.2-.4-.9-.7-2.2-.7-4.1 0-1.8.2-3.1.7-3.9.4-.8 1.1-1.2 2-1.2.9-.1 1.5.3 2 1.2m14.7 3.9c0-2.4-.5-4.2-1.4-5.4-.9-1.2-2.1-1.8-3.8-1.8s-3 .6-3.9 1.9c-.9 1.2-1.4 3-1.4 5.4 0 2.4.4 4.2 1.4 5.4.9 1.3 2.2 1.9 3.9 1.9s3-.6 3.8-1.9c.9-1.3 1.4-3.1 1.4-5.5m-3.2-3.9c.4.8.6 2.1.6 3.9 0 1.8-.2 3.2-.6 4.1-.4.8-1.1 1.2-2 1.2-.9 0-1.6-.4-2-1.2-.4-.9-.7-2.2-.7-4.1 0-1.8.2-3.1.7-3.9.4-.8 1.1-1.2 2-1.2.9-.1 1.5.3 2 1.2m11.5 1c0-1.4-.3-2.5-1-3.2-.6-.7-1.5-1.1-2.6-1.1s-2 .4-2.6 1.1c-.6.8-.9 1.8-.9 3.2 0 1.4.3 2.5.9 3.2.6.7 1.5 1.1 2.6 1.1s2-.4 2.6-1.1c.7-.7 1-1.8 1-3.2m-2.5-2.1c.2.4.4 1.1.4 2.1s-.1 1.7-.4 2.1c-.2.4-.6.7-1.1.7-.5 0-.9-.2-1.1-.7-.2-.4-.3-1.1-.3-2.1 0-.9.1-1.6.3-2.1.2-.4.6-.7 1.1-.7s.9.3 1.1.7m9 3.6c-1.1 0-2 .4-2.6 1.1-.6.7-.9 1.8-.9 3.2 0 1.4.3 2.5.9 3.3.6.7 1.5 1.1 2.6 1.1s2-.4 2.7-1.1c.6-.8.9-1.9.9-3.2 0-1.4-.3-2.5-.9-3.2-.6-.8-1.5-1.2-2.7-1.2m-1.4 4.4c0-1 .1-1.7.4-2.1.2-.4.6-.7 1.1-.6.5 0 .9.2 1.2.6.2.4.3 1.1.3 2.1 0 .9-.1 1.6-.3 2.1-.2.4-.6.6-1.2.6-.5 0-.9-.2-1.1-.6-.3-.5-.4-1.2-.4-2.1m1.6-10.1h-2.2l-8.2 14.2h2.2l8.2-14.2m19.7 0h-9.3v14.2h2.6v-6.2h6.3v-2.1h-6.3v-3.9h6.8v-2m10.5 4.5c-.7.5-1.3 1.1-1.8 1.9-.4.8-.6 1.7-.6 2.7 0 1.6.5 2.9 1.4 3.8 1 .9 2.3 1.4 3.9 1.4.7 0 1.4-.1 2.1-.4.7-.2 1.3-.5 1.8-.9l-.7-1.8c-.9.7-2 1.1-3.1 1.1-.9 0-1.6-.3-2.1-.8s-.8-1.3-.8-2.3h6.9v-.4c0-1.6-.4-2.8-1.2-3.7s-1.9-1.3-3.3-1.3c-.9.1-1.7.3-2.5.7m2.6 1.2c.7 0 1.2.2 1.6.6.4.4.6 1 .6 1.8h-4.7c.1-.8.4-1.3.8-1.7.5-.5 1-.7 1.7-.7m-9.4.2l-.2-1.8h-2.3c.1.8.1 1.8.1 2.8v7.2h2.5v-5.4c0-.8.2-1.5.6-1.9.5-.5 1.1-.8 2-.8.5 0 .9.1 1.3.2v-2.3c-.3-.1-.6-.1-1-.1-.7 0-1.3.2-1.8.5-.5.5-.9 1-1.2 1.6m89.3 1l.8-1.7c-.5-.4-1.1-.7-1.8-1-.7-.2-1.4-.3-2.1-.3-.8 0-1.6.1-2.2.4-.6.3-1.1.6-1.5 1.1-.3.5-.5 1-.5 1.6 0 1.5.9 2.4 2.8 2.8l1.7.4c.5.1.9.3 1.1.4s.4.4.4.8-.2.6-.5.8c-.3.2-.8.3-1.4.3-1.4 0-2.6-.4-3.7-1.2l-.7 1.8c1.1.8 2.5 1.2 4.4 1.2 1.3 0 2.3-.3 3.1-.8.8-.6 1.1-1.3 1.1-2.2 0-.7-.2-1.4-.7-1.9-.5-.5-1.2-.8-2.2-1.1l-1.7-.3c-.5-.1-.8-.3-1-.4s-.3-.4-.3-.7c0-.4.2-.7.5-.9.3-.2.7-.3 1.3-.3 1.1 0 2.1.4 3.1 1.2m14.6-2.7h-2.5V93h2.5V82.9m-5.1 2.7l.8-1.7c-.5-.4-1.1-.7-1.8-1-.7-.2-1.4-.3-2.1-.3-.8 0-1.6.1-2.2.4-.6.3-1.1.6-1.5 1.1-.3.5-.5 1-.5 1.6 0 1.5.9 2.4 2.8 2.8l1.7.4c.5.1.9.3 1.1.4s.4.4.4.8-.2.6-.5.8c-.3.2-.8.3-1.4.3-1.4 0-2.6-.4-3.7-1.2l-.7 1.8c1.1.8 2.5 1.2 4.4 1.2 1.3 0 2.3-.3 3.1-.8.8-.6 1.1-1.3 1.1-2.2 0-.7-.2-1.4-.7-1.9-.5-.5-1.2-.8-2.2-1.1l-1.7-.3c-.5-.1-.8-.3-1-.4s-.3-.4-.3-.7c0-.4.2-.7.5-.9.3-.2.7-.3 1.3-.3 1.1 0 2.1.4 3.1 1.2m5.1-4.9v-2.4h-2.8v2.4h2.8m7.2 3.9c.6 0 1.1.2 1.4.6.3.4.4.9.4 1.8v6.1h2.5v-6.2c0-2.8-1.2-4.1-3.6-4.1-.8 0-1.4.2-2 .5-.6.3-1.1.8-1.5 1.4l-.1-1.6h-2.4c.1.8.1 1.8.1 2.8v7.2h2.5v-5.7c0-.8.2-1.4.7-1.9.6-.7 1.2-.9 2-.9m12.5-1.5c-.6-.3-1.2-.4-2-.4-.9 0-1.6.2-2.4.6-.7.4-1.2 1-1.6 1.8-.4.8-.6 1.6-.6 2.6s.2 1.8.6 2.6c.4.8.9 1.4 1.6 1.8.7.4 1.5.6 2.4.6.7 0 1.4-.2 2-.5.6-.3 1-.8 1.4-1.3v2c0 1.8-.9 2.6-2.7 2.6-1.2 0-2.4-.3-3.6-.9l-.4 1.9c1.2.7 2.5 1 4.1 1 1.7 0 2.9-.4 3.8-1.2.9-.8 1.3-2 1.3-3.6v-9.8h-2.5v1.5c-.4-.6-.8-1-1.4-1.3m-1.3 1.5c.8 0 1.5.3 1.9.8.5.6.7 1.3.7 2.3 0 .9-.2 1.7-.7 2.2-.5.5-1.1.8-1.9.8-.8 0-1.5-.3-2-.8-.5-.6-.8-1.3-.8-2.2 0-1 .2-1.7.8-2.3.5-.6 1.1-.8 2-.8z" fill="#036"/></g><path d="M253.8 43.5c0-3.3.4-6.2 1.2-9 .8-2.7 2-5 3.7-7 1.7-1.9 3.8-3.4 6.5-4.5s5.8-1.7 9.4-1.7c3.9 0 7 .6 9.4 1.9 2.3 1.2 4.1 2.8 5.4 5 1.3 2.1 2.2 4.6 2.6 7.4.4 2.8.6 5.9.6 9.2h-31.1c0 1.9.2 3.9.5 5.8.4 2 1.1 3.8 2 5.4.9 1.7 2.2 3 4 4.1 1.8 1.1 4 1.6 6.7 1.6 2.6 0 5.1-.4 7.6-1.3 2.5-.8 5.3-2.4 8.3-4.6v5.7c-2.3 1.3-4.8 2.3-7.5 3-2.8.7-5.6 1-8.3 1-3.6 0-6.6-.6-9.2-1.6-2.6-1.1-4.7-2.6-6.4-4.5-1.7-2-3-4.3-3.8-7-1.1-2.6-1.6-5.6-1.6-8.9zm-40.5 0c0-3.3.4-6.2 1.2-9 .8-2.7 2.1-5 3.9-7 1.7-1.9 3.9-3.4 6.5-4.5s5.7-1.7 9.3-1.7c2 0 4.3.2 6.7.7 2.4.4 4.9 1.2 7.4 2.2v5.6c-2.9-2-5.5-3.2-7.8-3.8-2.3-.6-4.4-.8-6.4-.8-2.8 0-5.1.6-6.9 1.7-1.7 1.1-3.1 2.6-4 4.4-.9 1.8-1.6 3.8-2 6-.3 2.1-.5 4.2-.5 6.3 0 2.1.2 4.2.5 6.3.4 2.2 1 4.2 2 6 1 1.7 2.3 3.2 4 4.3 1.8 1.1 4.1 1.7 6.9 1.7 2 0 4.3-.4 6.9-1.3 2.6-.8 5.2-2.4 7.8-4.6v5.7c-2.3 1.6-4.8 2.6-7.3 3.2-2.5.6-5 .8-7.4.8-3.6 0-6.7-.6-9.3-1.6-2.6-1.1-4.7-2.6-6.5-4.5-1.8-2-3.1-4.3-3.9-7-.6-2.8-1.1-5.8-1.1-9.1zm71.8-2.5c0-2.1-.1-4-.4-6-.2-1.9-.7-3.6-1.4-5-.7-1.5-1.8-2.7-3.2-3.5-1.4-.9-3.4-1.3-5.9-1.3-2.3 0-4.2.5-5.8 1.3-1.6.9-3 2.1-4 3.5-1 1.5-1.8 3.2-2.3 5-.5 1.9-.7 3.9-.7 5.9h23.7zm-86.5-19.1h7.6v43.2h-7.6V21.9zm0-17.2h7.6c0 4.1-2.5 6.7-7.6 7.7V4.7zm-12.4 49.2c0 2.5.6 4.5 1.9 5.9 1.3 1.4 3.1 2.1 5.6 2.1v3.3h-3.6c-3.3 0-6-1-8.1-3.1-2.2-2.1-3.3-4.9-3.3-8.6V4h7.6v49.9zm-35.1 7.5c3.9 0 6.9-1 8.9-3.1 2-2 3.1-4.7 3.1-8 0-2-.4-3.7-1.3-5.1-.8-1.4-1.9-2.6-3.2-3.6-1.1-.9-2.4-1.6-3.7-2.3L142.6 33c-1.9-1.1-3.7-2.4-5.2-3.8-.7-.6-1.3-1.3-1.9-2.1-.8-.8-1.5-1.6-2-2.5-1-1.6-1.6-3.4-1.6-5.4 0-2 .5-3.7 1.4-5.2 1-1.5 2.2-2.8 3.9-3.8 1.6-1 3.6-1.8 5.8-2.4 2.3-.6 4.7-.9 7.2-.9 1.7 0 3.2.1 4.8.2 1.5.1 2.9.3 4.4.5 1.4.3 2.8.6 4.1 1l.9.3c.5.1 1 .2 1.5.4V14c-.5-.3-1-.5-1.5-.8-1.4-.6-2.8-1.2-4.1-1.5-2.6-.8-5.3-1.2-8.1-1.2-4.1 0-7.1.8-8.9 2.2-1.9 1.5-2.9 3.5-2.9 5.8 0 1.3.3 2.4.8 3.3.4.6.9 1.2 1.4 1.7 1.5 1.3 3.2 2.4 4.9 3.2.3.1.7.2 1 .4l6.2 3.2c1.4.6 2.8 1.3 4.2 2 2.2 1 4.3 2.2 6.1 3.7 1.8 1.4 3.3 3.1 4.6 5.2 1.2 2.1 1.8 4.7 1.8 7.8 0 2.5-.5 4.8-1.6 6.8s-2.4 3.8-4.2 5.2c-1.8 1.5-4 2.6-6.5 3.3-2.5.8-5.3 1.2-8.4 1.2-3.9 0-7.3-.4-10.4-1.3-3.1-.9-6.1-2.4-9.1-4.6V53c3.5 3.2 6.8 5.3 9.9 6.5 3.3 1.3 6.6 1.9 10 1.9z" fill="none" stroke="#006" stroke-width="1.7" stroke-linecap="round" stroke-linejoin="round"/></svg>