<?xml version="1.0" encoding="utf-8"?><svg xmlns="http://www.w3.org/2000/svg" xmlns:xlink="http://www.w3.org/1999/xlink"><symbol viewBox="0 0 200 200" id="arrow-top" xmlns="http://www.w3.org/2000/svg"><path d="M101 44l80.6 80.6c2.7 2.7 4 6.2 4 9.7s-1.3 7-4 9.7c-5.4 5.4-14.1 5.4-19.5 0L101 82.9 39.9 144c-5.4 5.4-14.1 5.4-19.5 0s-5.4-14.1 0-19.5L101 44z"/></symbol><symbol viewBox="0 0 32 32" id="phone" xmlns="http://www.w3.org/2000/svg"><path d="M23 19c-2 2-2 4-4 4s-4-2-6-4-4-4-4-6 2-2 4-4-4-8-6-8-6 6-6 6c0 4 4.1 12.1 8 16s12 8 16 8c0 0 6-4 6-6s-6-8-8-6z"/></symbol></svg>