<?xml version="1.0" encoding="utf-8"?><svg xmlns="http://www.w3.org/2000/svg" xmlns:xlink="http://www.w3.org/1999/xlink"><symbol viewBox="0 0 47.9 35.5" id="american-express" xmlns="http://www.w3.org/2000/svg"><path d="M34.6 12l-.9 2.1h1.7zM4.1 12l-.9 2.1H5zm20.2.3c-.2-.1-.4-.1-.6-.1h-1.6v1.2h1.6c.2 0 .5 0 .6-.1.2-.1.3-.3.3-.5 0-.3-.1-.5-.3-.5zm5.5 9.2c-.2-.1-.4-.1-.6-.1h-1.6v1.2h1.6c.2 0 .5 0 .6-.1.2-.1.3-.3.3-.5 0-.3-.1-.4-.3-.5zm-6.2-.1h-1.7v1.4h1.7c.5 0 .8-.2.8-.7 0-.5-.4-.7-.8-.7z"/><path d="M47.3 22.2s-.1 0 0 0c.2-.2.4-.5.4-.8v-1.1c0-.5-.4-.9-.9-.9h-2.6c-.8 0-1.4.2-1.8.6-.1-.3-.4-.6-.8-.6H39c-.7 0-1.3.2-1.7.5-.2-.3-.4-.5-.8-.5h-4.3c-.3 0-.6.2-.8.5-.1 0-.1-.1-.2-.1-.6-.3-1.3-.4-2-.4h-3c-.3 0-.6.2-.8.5-.5-.3-1.1-.5-2-.5h-4.1c-.2 0-.5.1-.7.3l-1 1-.9-1c-.2-.2-.4-.3-.7-.3h-5.2c-.5 0-.9.4-.9.9v5.4c0 .5.4.9.9.9h5.1c.2 0 .5-.1.6-.3l1-1.1.9 1c.2.2.4.3.7.3h2.5c.5 0 .9-.4.9-.9v-.9h.7c.9 0 1.5-.2 2-.4v1.4c0 .5.4.9.9.9h1.3c.5 0 .9-.4.9-.9v-1.1h1v1.1c0 .5.4.9.9.9h1.3c.1 0 .3 0 .4-.1.1.1.2.1.4.1h4.3c.1 0 .3 0 .4-.1.1.1.2.1.4.1h2.5c.8 0 1.4-.2 1.9-.5.1.3.4.5.8.5H45c1.8 0 2.9-1 2.9-2.6 0-.8-.2-1.4-.6-1.8zm-23.8 1.6h-1.6v1.8h-2.5l-1.6-1.8-1.6 1.8h-5.1v-5.4h5.2l1.6 1.8 1.6-1.8h4.1c1 0 2.2.3 2.2 1.8-.1 1.5-1.2 1.8-2.3 1.8zm7.1-.6c.3.1.5.3.6.5.2.3.2.5.2 1v1.1h-1.3V25c0-.3 0-.8-.2-1.1-.2-.2-.5-.2-.9-.2h-1.4v2h-1.3v-5.4h3c.6 0 1.1 0 1.5.3.4.2.7.6.7 1.2 0 .8-.6 1.2-.9 1.4zm5.9-1.8h-3v1h2.9v1.1h-2.9v1.1h3v1.1h-4.3v-5.4h4.3v1.1zm3.3 4.2h-2.5v-1.2h2.5c.2 0 .4 0 .5-.1.1-.1.2-.2.2-.4s-.1-.3-.2-.4c-.1-.1-.2-.1-.5-.1-1.2 0-2.7 0-2.7-1.7 0-.8.5-1.6 1.8-1.6h2.6v1.1h-2.4c-.2 0-.4 0-.5.1-.1.1-.2.2-.2.4s.1.3.3.4c.1 0 .3.1.5.1h.7c.7 0 1.2.1 1.5.4.3.3.4.6.4 1.1 0 1.4-.7 1.9-2 1.9zm5.2 0h-2.5v-1.2H45c.2 0 .4 0 .5-.1.1-.1.2-.2.2-.4s-.1-.3-.2-.4c-.1-.1-.2-.1-.5-.1-1.2 0-2.7 0-2.7-1.7 0-.8.5-1.6 1.8-1.6h2.6v1.1h-2.4c-.2 0-.4 0-.5.1-.1.1-.2.2-.2.4s.1.3.3.4c.1 0 .3.1.5.1h.7c.7 0 1.2.1 1.5.4.2.3.4.6.4 1.1 0 1.4-.7 1.9-2 1.9zm-1.8-15.4h-1.3c-.5 0-.9.4-.9.9v.6l-.6-1c-.2-.3-.4-.4-.8-.4h-2c-.5 0-.9.4-.9.9v.8l-.5-1.1c-.1-.3-.5-.5-.8-.5h-1.9c-.2 0-.4.1-.5.2-.1-.1-.3-.2-.5-.2h-1.2c-1.1 0-1.8.3-2.4.8-.1-.4-.4-.8-.9-.8h-1.3c-.4 0-.6.2-.8.5-.1 0-.1-.1-.2-.1-.6-.3-1.2-.4-2-.4h-3c-.2 0-.3.1-.4.1-.1-.1-.3-.1-.4-.1h-4.3c-.2 0-.3.1-.5.2-.1-.1-.3-.2-.5-.2h-2.1c-.4 0-.7.2-.8.5l-.7 1.6-.8-1.8c-.1-.3-.5-.5-.8-.5H7.3c-.5 0-.9.4-.9.9v.8l-.5-1.1c-.1-.3-.5-.5-.8-.5H3.2c-.4 0-.7.2-.8.5L.1 16.2c-.1.1-.1.4 0 .7.2.2.4.4.7.4h1.4c.4 0 .7-.2.8-.5l.3-.7h1.5l.3.6c.1.3.5.5.8.5h2.6c.5 0 .9-.4.9-.9l.2.4c.1.3.5.5.8.5h1.1c.4 0 .7-.2.8-.5l.2-.4c0 .5.4.9.9.9h1.3c.2 0 .3-.1.5-.2.1.1.3.2.5.2H20c.2 0 .3-.1.4-.1.1.1.3.1.4.1h1.3c.5 0 .9-.4.9-.9v-1.1h.7v1.1c0 .5.4.9.9.9h1.3c.1 0 .3 0 .4-.1.1.1.3.1.4.1H28c.4 0 .8-.3.9-.7.7.6 1.8.7 2.3.7h1.5c.4 0 .7-.2.8-.6l.3-.6h1.5l.3.7c.1.3.5.5.8.5H39c.5 0 .9-.4.9-.9v-.8l.8 1.3c.2.3.4.4.8.4h1.8c.5 0 .9-.4.9-.9V11c-.1-.4-.5-.8-1-.8zm-28.5 6.2h-1.3v-4.2l-1.9 4.2h-1.1l-1.9-4.2v4.2H5.9l-.5-1.2H2.8l-.5 1.2H.9L3.2 11h1.9l2.2 5.1V11h2.1l1.7 3.6 1.5-3.6h2.1v5.4zm5.3-4.2h-3v1h2.9v1.1H17v1.1h3v1.1h-4.3V11H20v1.2zm5.1 1.7c.3.1.5.3.6.5.2.3.2.5.2 1v1.1h-1.3v-.7c0-.3 0-.8-.2-1-.2-.2-.5-.2-.9-.2h-1.4v2h-1.3V11h3c.7 0 1.1 0 1.6.3.4.2.6.6.6 1.2 0 .8-.6 1.3-.9 1.4zm3 2.5h-1.3V11h1.3v5.4zm15.1 0h-1.8l-2.4-4v4h-2.6l-.5-1.2h-2.7l-.5 1.2h-1.5c-.6 0-1.4-.1-1.9-.6s-.7-1.1-.7-2c0-.8.1-1.5.7-2.1.4-.4 1.1-.6 1.9-.6h1.2v1.1h-1.2c-.5 0-.7.1-1 .3-.2.2-.4.7-.4 1.2 0 .6.1 1 .4 1.3.2.2.6.3.9.3h.6l1.8-4.2h1.9l2.2 5.1V11h2l2.3 3.7V11h1.3v5.4zm-11.4-3.3l-.6 1.3h-.3c0-.1-.1-.3-.1-.6 0-.4.1-.6.1-.6s.1-.1.4-.1h.5z"/><path d="M18.7 23l1.9 2.2v-4.3zm-3.1-1.6h-3.2v1h2.8v1.1h-2.8v1h3.1L17 23z"/></symbol><symbol viewBox="0 0 512 361" id="apple-pay" xmlns="http://www.w3.org/2000/svg"><path d="M93.6 119.1c-6 7.1-15.6 12.7-25.2 11.9-1.2-9.6 3.5-19.8 9-26.1 6-7.3 16.5-12.5 25-12.9 1 10-2.9 19.8-8.8 27.1m8.7 13.8c-13.9-.8-25.8 7.9-32.4 7.9-6.7 0-16.8-7.5-27.8-7.3-14.3.2-27.6 8.3-34.9 21.2-15 25.8-3.9 64 10.6 85 7.1 10.4 15.6 21.8 26.8 21.4 10.6-.4 14.8-6.9 27.6-6.9 12.9 0 16.6 6.9 27.8 6.7 11.6-.2 18.9-10.4 26-20.8 8.1-11.8 11.4-23.3 11.6-23.9-.2-.2-22.4-8.7-22.6-34.3-.2-21.4 17.5-31.6 18.3-32.2-10-14.8-25.6-16.4-31-16.8m80.3-29v155.9h24.2v-53.3h33.5c30.6 0 52.1-21 52.1-51.4s-21.1-51.2-51.3-51.2h-58.5zm24.2 20.4h27.9c21 0 33 11.2 33 30.9s-12 31-33.1 31h-27.8v-61.9zM336.6 261c15.2 0 29.3-7.7 35.7-19.9h.5v18.7h22.4v-77.6c0-22.5-18-37-45.7-37-25.7 0-44.7 14.7-45.4 34.9h21.8c1.8-9.6 10.7-15.9 22.9-15.9 14.8 0 23.1 6.9 23.1 19.6v8.6l-30.2 1.8c-28.1 1.7-43.3 13.2-43.3 33.2 0 20.2 15.7 33.6 38.2 33.6zm6.5-18.5c-12.9 0-21.1-6.2-21.1-15.7 0-9.8 7.9-15.5 23-16.4l26.9-1.7v8.8c0 14.6-12.4 25-28.8 25zm82 59.7c23.6 0 34.7-9 44.4-36.3L512 146.7h-24.6l-28.5 92.1h-.5l-28.5-92.1h-25.3l41 113.5-2.2 6.9c-3.7 11.7-9.7 16.2-20.4 16.2-1.9 0-5.6-.2-7.1-.4v18.7c1.4.4 7.4.6 9.2.6z"/></symbol><symbol viewBox="0 0 200 200" id="arrow-top" xmlns="http://www.w3.org/2000/svg"><path d="M101 44l80.6 80.6c2.7 2.7 4 6.2 4 9.7s-1.3 7-4 9.7c-5.4 5.4-14.1 5.4-19.5 0L101 82.9 39.9 144c-5.4 5.4-14.1 5.4-19.5 0s-5.4-14.1 0-19.5L101 44z"/></symbol><symbol viewBox="0 0 512 512" id="bank-check" xmlns="http://www.w3.org/2000/svg"><path d="M97.28 269.454v38.533H76.268c-7.068 0-12.8 5.731-12.8 12.8 0 7.069 5.732 12.8 12.8 12.8H97.28v9.494c0 7.069 5.732 12.8 12.8 12.8 7.068 0 12.8-5.731 12.8-12.8v-10.46c24.818-3.843 41.244-18.936 41.244-39.329v-8.174c0-20.393-16.426-35.488-41.244-39.331v-38.533h21.012c7.068 0 12.8-5.731 12.8-12.8 0-7.069-5.732-12.8-12.8-12.8H122.88v-9.494c0-7.069-5.732-12.8-12.8-12.8-7.068 0-12.8 5.731-12.8 12.8v10.523c-24.517 4.027-41.244 19.615-41.244 40.01v7.432c0 20.391 16.426 35.487 41.244 39.329zm25.6 2.417c8.85 2.134 15.644 6.597 15.644 13.245v8.174c0 6.647-6.794 11.11-15.644 13.244v-34.663zm-41.244-49.178c0-6.87 6.879-11.572 15.644-13.853v34.528c-8.85-2.134-15.644-6.597-15.644-13.244v-7.431z"/><path d="M499.2 115.2H12.8C5.732 115.2 0 120.931 0 128v256c0 7.069 5.732 12.8 12.8 12.8h486.4c7.068 0 12.8-5.731 12.8-12.8V128c0-7.069-5.732-12.8-12.8-12.8zm-12.8 256H25.6V140.8h460.8v230.4z"/><path d="M218.24 215.68h131.84c7.068 0 12.8-5.731 12.8-12.8 0-7.069-5.732-12.8-12.8-12.8H218.24c-7.068 0-12.8 5.731-12.8 12.8 0 7.069 5.732 12.8 12.8 12.8zm0 51.2H438.4c7.068 0 12.8-5.731 12.8-12.8 0-7.069-5.732-12.8-12.8-12.8H218.24c-7.068 0-12.8 5.731-12.8 12.8 0 7.069 5.732 12.8 12.8 12.8zm220.16 25.6h-74.24c-7.068 0-12.8 5.731-12.8 12.8 0 7.069 5.732 12.8 12.8 12.8h74.24c7.068 0 12.8-5.731 12.8-12.8 0-7.069-5.732-12.8-12.8-12.8z"/></symbol><symbol viewBox="0 0 480 480" id="bar-chart" xmlns="http://www.w3.org/2000/svg"><path d="M442.4 148c-4-.8-8.8 1.6-9.6 5.6v.8l-8 41.6L259.2 32c-3.2-3.2-8-3.2-11.2 0s-3.2 8 0 11.2L412.8 208l-41.6 8c-4 .8-7.2 4.8-6.4 9.6.8 4 4 6.4 8 6.4h1.6l56.8-11.2c.8 0 .8-.8 1.6-.8 1.6-.8 3.2-2.4 4-4v-1.6l11.2-56.8c.8-4-1.6-8.8-5.6-9.6z"/><path d="M472 440h-8V296c0-4.8-3.2-8-8-8h-96c-4.8 0-8 3.2-8 8v144h-56V168c0-4.8-3.2-8-8-8h-96c-4.8 0-8 3.2-8 8v272h-56V32c0-4.8-3.2-8-8-8H24c-4.8 0-8 3.2-8 8v408H8c-4.8 0-8 3.2-8 8s3.2 8 8 8h464c4.8 0 8-3.2 8-8s-3.2-8-8-8zm-360 0H32V40h80v400zm168 0h-80V176h80v264zm168 0h-80V304h80v136z"/></symbol><symbol viewBox="0 0 424.038 424.038" id="bars" xmlns="http://www.w3.org/2000/svg"><path d="M352.4 34.019c-32.4 0-58 26-58 58.4s26 58 58 58 58.4-26 58.4-58.4-26-58-58.4-58zm0 103.6c-25.2 0-45.6-20.4-45.6-45.6s20.8-45.2 45.6-45.2c25.2 0 45.6 20.4 45.6 45.6 0 25.2-20.4 45.2-45.6 45.2z"/><path d="M370.8 101.219c-.4-1.2-.4-2-1.2-3.2-.4-.8-.8-2-1.6-2.8-.8-.8-1.2-1.6-2-2.4s-1.6-1.6-2.8-2c-.8-.8-2-1.2-2.8-1.6-1.2-.4-2-1.2-3.2-1.6-1.2-.4-2.4-.8-3.2-1.2-.4 0-1.2-.4-1.6-.8-.4-.4-1.2-.4-1.6-.8-.4-.4-1.2-.4-1.6-.8l-1.2-1.2c-.4-.4-.8-.8-.8-1.6-.4-.4-.4-1.2-.4-1.6v-2c0-.4.4-1.2.4-1.6.4-.4.4-1.2.8-1.6l1.2-1.2c.4-.4 1.2-.8 2-.8.8-.4 1.2-.4 2-.4h2.4c.8 0 1.2 0 2 .4.8 0 1.6.4 2 .4.4 0 1.2.4 1.6.4.8 0 1.2.4 1.6.4l2 .8.4-2.4.8-6.4v-1.6l-1.6-.4c-.4 0-1.2-.4-1.6-.4-.4 0-.8-.4-1.6-.4-.4 0-1.2-.4-2-.4s-1.2-.4-2-.4h-.4v-7.6h-9.6v8h-.4c-1.2.4-2.4.8-3.6 1.6-1.2.4-2 1.2-2.8 2s-1.6 1.6-2.4 2.8c-.8.8-1.2 2-1.6 3.2l-1.2 3.6c-.4 1.2-.4 2.8-.4 4s0 2 .4 3.2c.4 1.2.4 2 1.2 3.2.4.8 1.2 2 1.6 2.8.8.8 1.2 1.6 2 2.4.8.8 1.6 1.6 2.8 2 .8.8 2 1.2 2.8 1.6 1.2.4 2.4 1.2 3.2 1.6 1.2.4 2.4.8 3.2 1.2.4 0 1.2.4 1.6.8.4.4 1.2.4 1.6.8.4.4.8.8 1.2.8l1.2 1.2c.4.4.4.8.8 1.6 0 .4.4 1.2.4 2v2c0 .4-.4 1.2-.8 1.6l-1.2 1.2c-.4.4-.8.8-1.6 1.2-.4.4-1.2.4-1.6.8-.4 0-1.2.4-2 .4h-5.2c-.8 0-1.6-.4-2-.4-.8 0-1.6-.4-2.4-.8-.8-.4-1.6-.4-2.4-.8-.4 0-.8-.4-1.2-.4-.4 0-.8-.4-1.2-.4l-2.4-1.2-.4 2.8-.8 7.2v1.2l1.2.4c1.6-.4 2.4 0 3.6.4.8.4 2 .8 2.8.8.8.4 2 .4 3.2.8 1.2.4 2 .4 3.2.4h.8v8h9.6v-8.4h.4c1.2-.4 2.4-.8 3.6-1.6 1.2-.4 2-1.2 3.2-2 .8-.8 1.6-1.6 2.4-2.8.8-.8 1.2-2 2-3.2l1.2-3.6c.4-1.2.4-2.4.4-4 0-1.2 0-2-.4-3.2zm-46.4 56.8c-2-2.8-6.4-3.2-9.2-1.2l-64.8 51.6-83.6-34.8c-2-.8-4.4-.4-6 .8l-89.6 64c-2.8 2-3.6 6-1.6 8.8 1.2 2 3.2 2.8 5.2 2.8 1.2 0 2.4-.4 3.6-1.2l86.8-62 84 34.8c2 .8 4.8.4 6.4-.8l67.6-53.6c2.8-2 3.2-6.4 1.2-9.2z"/><path d="M418 377.219h-29.6v-185.2c0-3.6-2.8-6.4-6.4-6.4h-58.8c-3.6 0-6.4 2.8-6.4 6.4v185.2h-21.6v-121.2c0-3.6-2.8-6.4-6.4-6.4h-59.2c-3.6 0-6.4 2.8-6.4 6.4v121.2h-21.6v-130.8c0-3.6-2.8-6.4-6.4-6.4h-58.8c-3.6 0-6.4 2.8-6.4 6.4v130.8h-21.6v-93.2c0-3.6-2.8-6.4-6.4-6.4H42.8c-3.6 0-6.4 2.8-6.4 6.4v93.2h-30c-3.6 0-6.4 2.8-6.4 6.4 0 3.6 2.8 6.4 6.4 6.4h411.2c3.6 0 6.4-2.8 6.4-6.4.4-3.6-2.4-6.4-6-6.4zm-322.8 0h-46v-86.8h46v86.8zm93.6 0h-46v-124.4h46v124.4zm93.2 0h-46v-114.8h46v114.8zm93.6 0h-46v-178.8h46v178.8z"/></symbol><symbol viewBox="0 0 512 512" id="bill" xmlns="http://www.w3.org/2000/svg"><path d="M474.994 246.001h-74.012v-236a10.002 10.002 0 00-17.071-7.072l-28.329 28.328L327.255 2.93c-3.905-3.905-10.237-3.905-14.143 0l-28.328 28.328L256.459 2.93c-3.905-3.905-10.237-3.905-14.143 0l-28.328 28.328L185.659 2.93c-3.905-3.905-10.237-3.905-14.142 0l-28.328 28.328L114.863 2.93c-3.905-3.905-10.237-3.905-14.143 0L72.392 31.258 44.065 2.93C40.184-.951 33.907-.971 29.992 2.875a9.968 9.968 0 00-2.984 7.389v449.738c0 28.672 23.326 51.998 51.998 51.998h353.99c28.672 0 51.998-23.326 51.998-51.998V256c0-5.523-4.477-9.999-10-9.999zM79.006 492c-17.645 0-31.999-14.355-31.999-31.999V34.156L65.321 52.47c3.905 3.905 10.237 3.905 14.143 0l28.328-28.328L136.12 52.47c3.905 3.905 10.237 3.905 14.143 0l28.328-28.328L206.92 52.47c3.905 3.905 10.237 3.905 14.142 0l28.328-28.328 28.328 28.328c3.905 3.905 10.237 3.905 14.143 0l28.328-28.328 28.328 28.328c3.906 3.905 10.238 3.905 14.142 0l18.329-18.328V256c0 .091.011.18.014.271v203.73c0 12.062 4.14 23.168 11.057 31.999H79.006zm385.988-31.999c0 17.644-14.355 31.999-31.999 31.999s-31.999-14.355-31.999-31.999V266h63.998v194.001z"/><path d="M213.995 158.855c-9.925 0-17.999-6.914-17.999-15.411 0-8.498 8.075-15.412 17.999-15.412 9.925 0 17.999 6.914 17.999 15.412 0 5.523 4.477 10 10 10s10-4.477 10-10c0-16.301-11.884-30.055-27.999-34.157v-6.774c0-5.523-4.477-10-10-10s-10 4.477-10 10v6.774c-16.116 4.102-27.999 17.857-27.999 34.157 0 19.525 17.047 35.41 37.999 35.41 9.925 0 17.999 6.914 17.999 15.412s-8.074 15.411-17.999 15.411c-9.925 0-17.999-6.914-17.999-15.411 0-5.523-4.477-10-10-10s-10 4.477-10 10c0 16.301 11.884 30.055 27.999 34.157v8.16c0 5.523 4.477 10 10 10s10-4.477 10-10v-8.16c16.116-4.102 27.999-17.856 27.999-34.157 0-19.525-17.047-35.411-37.999-35.411zm100.466.001h-19.49c-5.523 0-10 4.477-10 10s4.477 10 10 10h19.49c5.523 0 10-4.477 10-10s-4.477-10-10-10zm-181.441 0h-19.49c-5.523 0-10 4.477-10 10s4.477 10 10 10h19.49c5.523 0 10-4.477 10-10s-4.477-10-10-10zm186.5 111.151H161.097c-5.523 0-10 4.477-10 10s4.477 10 10 10H319.52c5.523 0 10-4.477 10-10-.001-5.523-4.477-10-10-10zm-203.982 2.93a10.076 10.076 0 00-7.07-2.93c-2.63 0-5.21 1.07-7.07 2.93a10.076 10.076 0 00-2.93 7.07c0 2.63 1.07 5.21 2.93 7.07 1.86 1.86 4.44 2.93 7.07 2.93s5.21-1.07 7.07-2.93c1.86-1.86 2.93-4.44 2.93-7.07s-1.07-5.21-2.93-7.07zm203.982 63.068H161.097c-5.523 0-10 4.477-10 10s4.477 10 10 10H319.52c5.523 0 10-4.477 10-10-.001-5.523-4.477-10-10-10zm-203.982 2.93a10.076 10.076 0 00-7.07-2.93c-2.63 0-5.21 1.07-7.07 2.93a10.076 10.076 0 00-2.93 7.07c0 2.63 1.07 5.21 2.93 7.07 1.86 1.86 4.44 2.93 7.07 2.93s5.21-1.07 7.07-2.93c1.86-1.86 2.93-4.44 2.93-7.07s-1.07-5.21-2.93-7.07zm203.982 63.068H161.097c-5.523 0-10 4.477-10 10s4.477 10 10 10H319.52c5.523 0 10-4.477 10-10s-4.477-10-10-10zm-203.982 2.93a10.076 10.076 0 00-7.07-2.93c-2.63 0-5.21 1.07-7.07 2.93-1.86 1.86-2.93 4.44-2.93 7.07s1.07 5.21 2.93 7.07c1.86 1.86 4.44 2.93 7.07 2.93s5.21-1.07 7.07-2.93c1.86-1.86 2.93-4.44 2.93-7.07s-1.07-5.21-2.93-7.07z"/></symbol><symbol viewBox="0 0 496 496" id="calculations" xmlns="http://www.w3.org/2000/svg"><path d="M472 160h-8V64H80V0H40C17.945 0 0 17.945 0 40v304c0 22.055 17.945 40 40 40h216v88c0 13.23 10.77 24 24 24h192c13.23 0 24-10.77 24-24V184c0-13.23-10.77-24-24-24zM16 40c0-13.23 10.77-24 24-24h24v288H40c-9 0-17.313 2.992-24 8.016zm24 328c-13.23 0-24-10.77-24-24s10.77-24 24-24h40V80h368v80H282.48c-13.433-37.977-49.726-64-90.48-64-52.938 0-96 43.063-96 96s43.062 96 96 96c23.84 0 46.559-8.953 64-24.55V368zm216-184h-56v-71.55c30.152 3.046 56.281 23.07 66.93 51.472C260.36 168.207 256 175.594 256 184zm-72 87.594c-40.367-4.028-72-38.188-72-79.594s31.633-75.566 72-79.594zM200 200h56v39.824c-13.473 17.992-33.824 29.45-56 31.688zm280 272c0 4.406-3.594 8-8 8H280c-4.406 0-8-3.594-8-8V184c0-4.406 3.594-8 8-8h192c4.406 0 8 3.594 8 8zm0 0"/><path d="M288 272h176v-80H288zm16-64h144v48H304zm112 256h48v-48h-48zm16-32h16v16h-16zm-80 32h48v-48h-48zm16-32h16v16h-16zm-80 32h48v-48h-48zm16-32h16v16h-16zm112-32h48v-48h-48zm16-32h16v16h-16zm-80 32h48v-48h-48zm16-32h16v16h-16zm-80 32h48v-48h-48zm16-32h16v16h-16zm112-32h48v-48h-48zm16-32h16v16h-16zm-80 32h48v-48h-48zm16-32h16v16h-16zm-80 32h48v-48h-48zm16-32h16v16h-16zm16-208h112v16H320zm-16 32h128v16H304zm0 0"/></symbol><symbol viewBox="0 0 485.211 485.211" id="camera" xmlns="http://www.w3.org/2000/svg"><path d="M318.423 257.771c0 41.873-33.943 75.812-75.816 75.812-41.875 0-75.812-33.939-75.812-75.812 0-41.878 33.937-75.817 75.812-75.817 41.872.001 75.816 33.94 75.816 75.817zm166.788-121.304v242.606c0 16.76-13.563 30.322-30.322 30.322H30.327C13.562 409.396 0 395.833 0 379.073V136.467c0-16.762 13.564-30.326 30.327-30.326h30.324c0-16.762 13.579-30.325 30.327-30.325h30.327c16.746 0 30.324 13.562 30.324 30.325h303.26c16.758 0 30.322 13.564 30.322 30.326zM348.745 257.771c0-58.521-47.618-106.144-106.139-106.144S136.465 199.25 136.465 257.771c0 58.516 47.621 106.134 106.141 106.134s106.139-47.618 106.139-106.134zm75.817-121.304h-60.653v30.327h60.653v-30.327z"/></symbol><symbol viewBox="0 0 496 496" id="cloud-system" xmlns="http://www.w3.org/2000/svg"><path d="M48 160h32v16H48zm0 0"/><path d="M472 128c13.23 0 24-10.77 24-24V24c0-13.23-10.77-24-24-24H360c-13.23 0-24 10.77-24 24v80c0 13.23 10.77 24 24 24h24v16h-16v16h40v80h-33.016c-6.382-6.23-14.242-11-23.039-13.625.04-.809.055-1.59.055-2.375 0-35.29-28.71-64-64-64-21.895 0-42.246 11.39-53.902 29.61A63.666 63.666 0 00208 184c-26.55 0-50.457 16.734-59.809 41.281-6.078 1.305-11.742 3.64-16.886 6.719H72v-24h32c13.23 0 24-10.77 24-24V24c0-13.23-10.77-24-24-24H24C10.77 0 0 10.77 0 24v160c0 13.23 10.77 24 24 24h32v40h58.29a55.69 55.69 0 00-7.778 16H72v88H40c-13.23 0-24 10.77-24 24v72H0v24c0 13.23 10.77 24 24 24h128c13.23 0 24-10.77 24-24v-24h-16v-72c0-13.23-10.77-24-24-24H88v-72h16c0 30.871 25.129 56 56 56h176c28.152 0 51.457-20.91 55.36-48H424v64h-56v144h128V352h-56v-80h-48.672c-.832-5.633-2.558-10.992-4.976-16H424v-96h40v-16h-16v-16zm-360 0H16V48h96zM24 16h80c4.414 0 8 3.586 8 8v8H16v-8c0-4.414 3.586-8 8-8zm-8 168v-40h96v40c0 4.414-3.586 8-8 8H24c-4.414 0-8-3.586-8-8zm144 288c0 4.414-3.586 8-8 8H24c-4.414 0-8-3.586-8-8v-8h144zm-16-96v72H32v-72c0-4.414 3.586-8 8-8h96c4.414 0 8 3.586 8 8zm240 104v-48h96v48zm96-64h-96v-48h96zm-144-96H160c-22.055 0-40-17.945-40-40 0-20.223 15.137-37.281 35.2-39.68l5.25-.632 1.48-5.079C167.848 214.23 186.8 200 208 200c8.832 0 17.504 2.48 25.105 7.16l7.637 4.711 3.809-8.137C252.426 186.88 269.48 176 288 176c26.473 0 48 21.527 48 48 0 2.207-.2 4.559-.633 7.398l-1.207 7.915 7.91 1.199C361.414 243.465 376 260.442 376 280c0 22.055-17.945 40-40 40zm24-304h112c4.414 0 8 3.586 8 8v56H352V24c0-4.414 3.586-8 8-8zm-8 88v-8h128v8c0 4.414-3.586 8-8 8H360c-4.414 0-8-3.586-8-8zm80 40h-32v-16h32zm0 0"/><path d="M400 384h16v16h-16zm48 64h16v16h-16zm-16-64h32v16h-32zm-32 64h32v16h-32zm0 0"/></symbol><symbol viewBox="0 0 612 612" id="cloud-up-arrow" xmlns="http://www.w3.org/2000/svg"><path d="M494.7 255c-17.85-86.7-94.35-153-188.7-153-73.95 0-137.7 40.8-168.3 102C58.65 214.2 0 277.95 0 357c0 84.15 68.85 153 153 153h331.5c71.4 0 127.5-56.1 127.5-127.5 0-66.3-53.55-122.4-117.3-127.5zM357 331.5v102H255v-102h-76.5L306 204l127.5 127.5H357z"/></symbol><symbol id="clover" viewBox="0 0 35 35" xml:space="preserve" xmlns="http://www.w3.org/2000/svg"><style>.alst0{fill:#fff}</style><path class="alst0" d="M16.4 9.5C16.4 5.4 13.1 2 9 2 4.9 2 1.5 5.3 1.5 9.4s3.3 7.5 7.4 7.5h7.6l-.1-7.4zm2.2 0C18.5 5.4 21.9 2 26 2c4.1 0 7.5 3.3 7.5 7.4 0 4.1-3.3 7.5-7.4 7.5h-7.6V9.5zm0 17.1c0 4.1 3.3 7.5 7.4 7.5 4.1 0 7.5-3.3 7.5-7.4 0-4.1-3.3-7.5-7.4-7.5h-7.6v7.4zm-2.2 0c0 4.1-3.3 7.5-7.4 7.5s-7.5-3.3-7.5-7.4 3.3-7.5 7.4-7.5h7.6l-.1 7.4zm-7.5 5.3c3 0 5.4-2.4 5.4-5.3v-5.3H9c-3 0-5.4 2.4-5.4 5.3s2.4 5.3 5.3 5.3c0 0 .1 0 0 0z" id="alclover-symbol-2"/></symbol><symbol viewBox="0 0 504.1 504.1" id="colored-shield" xmlns="http://www.w3.org/2000/svg"><path d="M456.9 78.8c.4 0-199.7-76.8-204.8-78.8-4 1.6-205.2 78.8-204.8 78.8v144.9c0 100.4 28.8 231.6 204.8 280.4 175.7-48.8 204.4-182.4 204.4-280.4.4-49.6.4-144.9.4-144.9z" fill="#f3f3f3"/><path d="M47.3 223.7c0 100.4 28.8 231.6 204.8 280.4V0C244.6 2.8 47.3 78.8 47.3 78.8v144.9z" fill="#e7e7e7"/><path d="M417.1 105.9c.4 0-161.1-65-165.4-66.6-3.5 1.2-165.8 63.8-165.4 63.4v121.7c0 84.3 16.5 199.3 165.4 240.2 148.5-41 165.4-157.9 165.4-240.2.4-41.7.4-118.5 0-118.5z" fill="#3fb286"/><path d="M252.1 39.4c-3.5 1.2-165.8 63.8-165.4 63.4v121.7c0 84.3 16.5 199.3 165.4 240.2V39.4z" fill="#389b6e"/><path d="M175.3 216.8h153.4c7.2 0 13.1 5.9 13.1 13.1v101.2c0 7.2-5.9 13.1-13.1 13.1H175.3c-7.2 0-13.1-5.9-13.1-13.1V229.9c.1-7.2 6-13.1 13.1-13.1z" fill="#ecc45c"/><path d="M175.3 210.3h153.4c7.2 0 13.1 5.9 13.1 13.1v6.5c0 7.2-5.9 13.1-13.1 13.1H175.3c-7.2 0-13.1-5.9-13.1-13.1v-6.5c.1-7.2 6-13.1 13.1-13.1z" fill="#f8d578"/><path d="M194.9 220.1c-8.2 0-14.7 2.9-14.7 6.5s6.5 6.5 14.7 6.5 14.7-2.9 14.7-6.5-6.5-6.5-14.7-6.5zm114.3 0c-8.2 0-14.7 2.9-14.7 6.5s6.5 6.5 14.7 6.5 14.7-2.9 14.7-6.5-6.5-6.5-14.7-6.5zM252.1 269c13.5 0 24.5 10.9 24.5 24.5s-11 24.5-24.5 24.5-24.5-10.9-24.5-24.5 10.9-24.5 24.5-24.5z" fill="#bf9c4c"/><path d="M252.1 275.6c10 0 18 8 18 18s-8 18-18 18-18-8-18-18 8-18 18-18z" fill="#e4e7e7"/><path d="M252.1 285.4c1.8 0 3.3 1.5 3.3 3.3v9.8c0 1.8-1.5 3.3-3.3 3.3s-3.3-1.5-3.3-3.3v-9.8c0-1.9 1.5-3.3 3.3-3.3z" fill="#324d5b"/><path d="M252.1 135.2c-18.9 0-36.1 7.7-48.5 20.1-12.4 12.4-20.1 29.6-20.1 48.5v19.6c0 1.8 1.3 3.4 3.3 4.6 2.1 1.2 4.9 1.9 8.1 1.9 3.2 0 6-.7 8.1-1.9 2.1-1.2 3.3-2.8 3.3-4.6v-19.6c0-12.6 5.1-24.1 13.4-32.3 8.3-8.3 19.7-13.4 32.3-13.4s24.1 5.1 32.3 13.4c8.3 8.3 13.4 19.7 13.4 32.3v19.6c0 1.8 1.3 3.4 3.3 4.6 2.1 1.2 4.9 1.9 8.1 1.9s6-.7 8.1-1.9c2.1-1.2 3.3-2.8 3.3-4.6v-19.6c.1-18.9-7.6-36.1-20-48.5-12.4-12.4-29.5-20.1-48.4-20.1z" fill="#ededed"/></symbol><symbol viewBox="0 0 512 512" id="connect" xmlns="http://www.w3.org/2000/svg"><path d="M476.41 95.266a8.082 8.082 0 008.084-8.084V60.913a8.082 8.082 0 00-8.084-8.084h-.072V8.084A8.082 8.082 0 00468.254 0h-82.071a8.083 8.083 0 00-8.084 8.084v44.745h-.07a8.082 8.082 0 00-8.084 8.084v71.365c0 7.592 6.175 13.767 13.766 13.767h16.012v15.153a8.082 8.082 0 008.084 8.084h11.329v155.831c0 53.173-24.44 100.741-62.672 132.076 17.546-23.15 27.972-51.977 27.972-83.198 0-76.099-61.911-138.009-138.009-138.009s-138.009 61.911-138.009 138.009c0 27.159 7.89 52.508 21.491 73.882C97.74 416.808 77.7 373.26 77.7 325.114V235.51h22.012c6.625 0 12.014-5.389 12.014-12.014v-49.363a8.082 8.082 0 00-8.084-8.084h-2.845v-23.355a8.083 8.083 0 00-8.084-8.084H46.519a8.082 8.082 0 00-8.084 8.084v23.355H35.59a8.082 8.082 0 00-8.084 8.084v49.363c0 6.625 5.389 12.014 12.014 12.014h22.011v89.603c0 98.41 76.459 179.292 173.092 186.377 3.892.331 7.828.51 11.804.51.333 0 .663-.011.996-.013.332.001.662.013.995.013 103.05 0 186.886-83.836 186.886-186.886V169.282h11.33a8.082 8.082 0 008.084-8.084v-15.153h16.011c7.591 0 13.766-6.175 13.766-13.767v-19.77a8.082 8.082 0 00-8.084-8.084 8.082 8.082 0 00-8.084 8.084v17.368h-82.215v-60.88h82.213v18.185a8.085 8.085 0 008.085 8.085zM54.603 150.778h30.024v15.271H54.603v-15.271zm-10.929 68.564v-37.125h51.882v37.125H43.674zm203.747 276.477a173.233 173.233 0 01-11.555-.449c-62.257-5.371-111.281-57.754-111.281-121.378 0-67.183 54.658-121.841 121.841-121.841s121.841 54.658 121.841 121.841c0 66.85-54.12 121.289-120.846 121.827zM415.89 146.045h22.658v7.069H415.89v-7.069zm44.279-93.216h-65.902v-36.66h65.902v36.66z"/><path d="M412.117 46.761a8.082 8.082 0 008.084-8.084v-7.006a8.083 8.083 0 00-8.084-8.084 8.083 8.083 0 00-8.084 8.084v7.006a8.082 8.082 0 008.084 8.084zm31.259 0a8.082 8.082 0 008.084-8.084v-7.006a8.082 8.082 0 00-8.084-8.084 8.083 8.083 0 00-8.084 8.084v7.006a8.082 8.082 0 008.084 8.084z"/></symbol><symbol viewBox="0 0 122 109.4" id="contactless" xmlns="http://www.w3.org/2000/svg"><path d="M96.2 46.7c-1 0-2.1-.1-3.3-.1l.1-.4c.7-2.8-.8-3.6-2.5-4.1l-11.9-2.9c-2.1-.5-3.4.2-3.9 2.4l-2.6 10.9c-.6 2.7.9 3.7 2.4 4l8 2-.2.2c-.6.7-.9 1.5-.9 2.4 0 1 .4 1.9 1.1 2.6 0 0 1.1.9 2.4 1.9-.4.2-.8.5-1.1.8-.6.7-.9 1.5-.9 2.4v.2c0 .9.4 1.8 1.1 2.4l6.7 3.3c-8.4 9.7-23.2 16.1-40 16.1-26.1.1-47.4-15.5-47.4-34.6s21.2-34.7 47.3-34.7c21.7 0 39.9 10.7 45.6 25.2zm23.4 27.4L106.1 51c-.2-.2-2.9-3.9-6.2-4.2 0 0-.9 0-2.3-.1C92 31.5 73.1 20.2 50.7 20.2 23.8 20.2 2 36.4 2 56.2s21.8 36 48.7 36c17.5 0 32.8-6.8 41.4-17.1.5.1 1 .1 1.5.1 0 0 2.2-.2 3.4-.3 1.1 2.1 3.6 5.8 9.1 6.5l.2-2c-.1 0-.3-.1-.4-.1-5.9-1-7.6-6.2-7.7-6.5-1.4-4.9-4.1-7.3-4.2-7.4L80.7 52.8c-.6-.5-.9-1.1-.9-1.8v-.3c0-.6.2-1.2.6-1.6.4-.5 1.1-.9 1.8-.9.7-.1 1.3.1 1.8.5.1 0 15.9 10.4 15.9 10.4l.5-.8.5-.8-9.2-6 .7-2.9c3.9.1 7.4.3 7.4.3 2 .2 4.1 2.4 4.7 3.3 0 0 11.1 19 13.1 22.4.2.3.3.5.3.5.3.5.9.6 1.4.4.4-.3.5-.9.3-1.4zm-24.8-4.2c.5.8.9 1.9 1.3 3.1l-2.8.2c-1.2.1-2.3-.5-2.3-.5s-4.9-2.4-5.8-2.9c-.3-.3-.5-.6-.5-1v-.1c0-.4.1-.8.4-1 .3-.3.7-.5 1.1-.5s.8.1 1.1.4l2 1.6c.4.2 1.5.8 2.6.8h.3l2.6-.1zm-11.1-9.8c.7-.7 1.3-.5 1.7-.2 3.5 3.3 7.3 6.9 7.3 6.9s.4.4 1 1.2l-1.7.2c-.4 0-1.2-.3-1.6-.5l-1.8-1.5-4.9-4c-.3-.3-.5-.7-.5-1.1.1-.3.2-.7.5-1zm7.4-14.4s-.6 2.2-1.2 4.5L85 47c-.9-.7-2-1-3.2-.9-1.2.1-2.3.7-3.1 1.7-.8.9-1.1 2.1-1 3.4.1 1.1.7 2.2 1.6 3 0 0 .9.9 2.3 2.2l-6.7-1.7c-.9-.2-1.2-.5-.9-1.7l2.6-10.9c.3-1.1.5-1.2 1.6-.9l11.9 2.9c1.2.3 1.3.4 1 1.6zm-61.4 5.4c.6.8 1 1.7 1.4 2.6.3.9.5 1.9.5 3s-.2 2.1-.5 3-.8 1.8-1.4 2.6c-.8 1.1-.6 2.6.5 3.4 1.1.8 2.6.6 3.4-.5.9-1.2 1.6-2.5 2.1-3.9s.7-3 .7-4.5c0-1.6-.3-3.1-.7-4.5-.5-1.4-1.2-2.7-2.1-3.9-.8-1.1-2.3-1.3-3.4-.5-1.1.6-1.3 2.1-.5 3.2m8.2-4.5c1.8 2.9 2.8 6.4 2.9 10.1 0 3.7-1 7.1-2.9 10.1-.7 1.1-.3 2.6.8 3.3 1.1.7 2.6.3 3.3-.8 2.3-3.7 3.6-8 3.6-12.6s-1.3-8.9-3.6-12.6c-.7-1.1-2.2-1.5-3.3-.8-1.1.7-1.5 2.2-.8 3.3m8.8-4.5c2.5 4.3 3.9 9.3 3.9 14.6s-1.4 10.3-4 14.6c-.7 1.1-.3 2.6.9 3.3 1.1.7 2.6.3 3.3-.9 2.9-5 4.6-10.9 4.6-17.1s-1.7-12.1-4.6-17.1c-.7-1.1-2.1-1.5-3.3-.9-1.1.8-1.5 2.3-.8 3.5m8.7-4.6c3.2 5.7 5.1 12.2 5.1 19.2s-1.8 13.6-5.1 19.2c-.7 1.2-.3 2.6.9 3.3 1.2.7 2.6.3 3.3-.9 3.6-6.4 5.7-13.8 5.7-21.6 0-7.9-2.1-15.2-5.7-21.6-.7-1.2-2.1-1.6-3.3-.9-1.2.7-1.6 2.1-.9 3.3"/></symbol><symbol viewBox="0 0 480.832 480.832" id="cooking" xmlns="http://www.w3.org/2000/svg"><path d="M472 428.416h-48.8l-11.848-112.544 13.112 19.664 3.248 16.264a26.763 26.763 0 0013.528 18.328 26.727 26.727 0 0012.76 3.248c3.368 0 6.752-.64 9.976-1.928a26.901 26.901 0 0015.112-15.368 26.907 26.907 0 00-1.08-21.528l-6.848-13.704c-.024-.056-.072-.088-.104-.136-.016-.04-.016-.08-.032-.12l-48-88a8.046 8.046 0 00-4.048-3.6l-21.68-8.672C413.568 207.104 424 186.96 424 164.416c0-12.056-3.176-23.928-9.016-34.552l-4.128-41.296C423.736 83.112 432 72.4 432 60.416c0-17.224-17.096-31.312-38.424-31.976A47.95 47.95 0 00352 4.416a47.95 47.95 0 00-41.576 24.024C289.096 29.104 272 43.192 272 60.416c0 11.984 8.264 22.696 21.144 28.152l-4.128 41.296c-5.84 10.624-9.016 22.496-9.016 34.552 0 22.544 10.432 42.688 26.712 55.896l-21.68 8.672a8.001 8.001 0 00-3.272 2.432l-27 33.752-32.624-26.096-8.712-14.52c-1.48-2.472-3.368-4.568-5.408-6.48v-21.656c0-10.416-6.712-19.216-16-22.528v-33.472h8c13.232 0 24-10.768 24-24v-48c0-13.232-10.768-24-24-24h-32c-13.232 0-24 10.768-24 24v48c0 13.232 10.768 24 24 24h8v33.472c-9.288 3.312-16 12.112-16 22.528v32.032c-2 4.76-2.896 9.952-2.248 15.264 1.144 9.256 6.384 17.32 14.376 22.12l15.136 9.08 53.184 46.536c8.936 7.808 22.032 7.976 31.168.368l22.36-18.64-13.192 125.24H140.944l9.384-18.768c14.976-5.784 25.672-20.24 25.672-37.232v-17.472c9.288-3.312 16-12.112 16-22.528 0-13.232-10.768-24-24-24H24c-13.232 0-24 10.768-24 24 0 10.416 6.712 19.216 16 22.528v17.472c0 16.992 10.696 31.448 25.672 37.232l9.384 18.768H8c-4.416 0-8 3.584-8 8v32c0 4.416 3.584 8 8 8h464c4.416 0 8-3.584 8-8v-32c0-4.416-3.584-8-8-8zm-296-304h-8c-4.408 0-8-3.592-8-8v-48c0-4.408 3.592-8 8-8h8v64zm287.696 217.28a10.718 10.718 0 01.44 8.688 10.725 10.725 0 01-6.096 6.2 10.802 10.802 0 01-9.168-.536 10.813 10.813 0 01-5.464-7.392l-2.064-10.328 18.376-4.592 3.976 7.96zm-53.336-98.92l41.664 76.384-16.496 4.12-28.128-42.192-11.616-44.144 14.576 5.832zm-17.56 49.64l14.32 136H296.888l14.312-136h81.6zm-78.416-16l11.792-44.84c.32.12.648.208.968.32 1.608.592 3.224 1.16 4.88 1.64.632.184 1.272.328 1.904.488 1.528.4 3.056.784 4.616 1.08.784.152 1.576.24 2.36.36 1.448.224 2.888.464 4.36.608 1.032.096 2.072.104 3.104.16 1.216.064 2.408.184 3.632.184s2.416-.12 3.632-.184c1.04-.056 2.072-.064 3.104-.16 1.472-.136 2.912-.376 4.36-.608.784-.12 1.576-.208 2.36-.36 1.56-.296 3.088-.688 4.616-1.08.632-.168 1.272-.304 1.904-.488 1.656-.48 3.28-1.04 4.88-1.64.32-.12.648-.2.968-.32l11.8 44.84h-75.24zM288 60.416c0-8.672 10.992-16 24-16 .464 0 .904.056 1.352.104l1.288.12c3.368.2 6.6-1.68 7.96-4.824 5.056-11.784 16.6-19.4 29.4-19.4s24.344 7.616 29.408 19.4c1.352 3.144 4.632 5.088 7.96 4.824l1.288-.12c.44-.048.88-.104 1.344-.104 13.008 0 24 7.328 24 16 0 6.392-6.464 12.504-15.72 14.872a7.999 7.999 0 00-5.984 8.544l4.864 48.584h-94.32l4.856-48.576a7.999 7.999 0 00-5.984-8.544C294.464 72.92 288 66.808 288 60.416zm8 104c0-5.424.808-10.816 2.36-16h107.272a55.546 55.546 0 012.368 16c0 22.208-13.032 41.384-31.816 50.432a55.699 55.699 0 01-5.552 2.312l-.264.096a55.574 55.574 0 01-36.752 0l-.264-.096a56.5 56.5 0 01-5.552-2.312c-18.768-9.048-31.8-28.224-31.8-50.432zm-104-104h8c4.408 0 8 3.592 8 8v48c0 4.408-3.592 8-8 8h-8v-64zm-8 128c4.408 0 8 3.592 8 8v13.904c-.048-.008-.104-.008-.152-.016-.192-.024-.36-.112-.552-.136-.44-.056-.872.024-1.304-.016a30.086 30.086 0 00-4.16-.048c-.696.04-1.384.04-2.064.128-1.648.208-3.256.592-4.848 1.072-.68.208-1.336.424-2 .672-.304.112-.616.184-.912.304v-15.864H176c0-4.408 3.592-8 8-8zm-3.624 63.696a13.972 13.972 0 01-6.736-10.36c-.352-2.824.232-5.584 1.48-8.04.032-.064.088-.104.12-.168.344-.656.688-1.216 1.04-1.736.432-.6.856-1.208 1.384-1.736 1.12-1.128 2.424-1.984 3.792-2.648.112-.056.224-.128.336-.184 1.368-.616 2.824-1 4.312-1.152.112-.008.216-.024.328-.032 1.448-.12 2.912.008 4.352.336.152.032.304.064.448.104 1.496.4 2.952 1.016 4.288 1.928.04.024.088.04.128.064 1.608 1.12 3.008 2.552 4.056 4.296l6.232 10.392-15.168 15.168-10.392-6.232zm81 57.408c-3.04 2.528-7.416 2.488-10.392-.12l-47.288-41.376 12.888-12.888 34.408 27.528a7.99 7.99 0 0011.24-1.248l30.68-38.352 15.288-6.112-11.304 42.968-35.52 29.6zM24 340.416c-4.408 0-8-3.592-8-8 0-4.408 3.592-8 8-8h144c4.408 0 8 3.592 8 8 0 4.408-3.592 8-8 8H24zm8 32v-16h128v16c0 13.232-10.768 24-24 24H56c-13.232 0-24-10.768-24-24zm99.056 40l-8 16H104v-16h27.056zm-43.056 0v16H68.944l-8-16H88zm376 48H16v-16h448v16z"/><path d="M376 324.416h-48c-4.416 0-8 3.584-8 8v24c0 17.648 14.352 32 32 32s32-14.352 32-32v-24c0-4.416-3.584-8-8-8zm-8 32c0 8.824-7.176 16-16 16s-16-7.176-16-16v-16h32v16zm-280-112h16v40H88zm40 16h16v32h-16zm-80 0h16v32H48zm40-48h16v16H88zm-40 16h16v16H48zm80 0h16v16h-16z"/></symbol><symbol viewBox="0 0 512 512" id="credit-card" xmlns="http://www.w3.org/2000/svg"><path d="M498.409 175.706L336.283 13.582C327.531 4.831 315.86.011 303.418.011c-12.441 0-24.113 4.818-32.865 13.569L13.571 270.563C4.82 279.315 0 290.985 0 303.427c0 12.442 4.82 24.114 13.571 32.864l19.992 19.992.005.005.006.006 134.36 134.36H149.33c-5.89 0-10.666 4.775-10.666 10.666 0 5.89 4.776 10.666 10.666 10.666h59.189l.041.001.041-.001 154.053.002c5.89 0 10.666-4.776 10.666-10.666 0-5.891-4.776-10.666-10.666-10.666l-113.464-.002 249.22-249.22c18.12-18.122 18.12-47.608-.001-65.728zm-15.084 50.644L226.341 483.334c-4.713 4.712-11.013 7.31-17.742 7.32h-.081c-6.727-.011-13.025-2.608-17.736-7.32L56.195 348.746 302.99 101.949c4.165-4.165 4.165-10.919 0-15.084-4.166-4.165-10.918-4.165-15.085.001L41.11 333.663l-12.456-12.456c-4.721-4.721-7.321-11.035-7.321-17.779s2.6-13.059 7.322-17.781L285.637 28.665c4.722-4.721 11.037-7.321 17.781-7.321 6.744 0 13.059 2.6 17.781 7.322l57.703 57.702-246.798 246.8c-4.165 4.164-4.165 10.918 0 15.085a10.636 10.636 0 007.542 3.123c2.729 0 5.459-1.042 7.542-3.124l246.798-246.799 89.339 89.336c9.803 9.804 9.802 25.757 0 35.561z"/><path d="M262.801 308.064c-4.165-4.165-10.917-4.164-15.085 0l-83.934 83.933c-4.165 4.165-4.165 10.918 0 15.085a10.633 10.633 0 007.542 3.124c2.729 0 5.459-1.042 7.542-3.124l83.934-83.933c4.166-4.167 4.166-10.92.001-15.085zm-34.426 79.677l-34.425 34.425c-4.165 4.165-4.165 10.919 0 15.085a10.637 10.637 0 007.542 3.124c2.731 0 5.459-1.042 7.542-3.124l34.425-34.425c4.165-4.165 4.165-10.919 0-15.085s-10.916-4.166-15.084 0zm31.679-31.676l-4.525 4.524c-4.166 4.165-4.166 10.918-.001 15.085a10.632 10.632 0 007.542 3.125 10.63 10.63 0 007.541-3.125l4.525-4.524c4.166-4.165 4.166-10.918.001-15.084-4.163-4.165-10.918-4.166-15.083-.001zm147.019-192.272a10.666 10.666 0 00-15.084 0l-45.255 45.254a10.668 10.668 0 000 15.084l30.17 30.167a10.633 10.633 0 007.542 3.124c2.731 0 5.459-1.042 7.542-3.124l45.253-45.252c4.165-4.165 4.165-10.919 0-15.084l-30.168-30.169zm-22.628 67.88l-15.085-15.084 30.17-30.169 15.084 15.085-30.169 30.168zM320.339 80.186c2.731 0 5.461-1.042 7.543-3.126l4.525-4.527c4.164-4.166 4.163-10.92-.003-15.084-4.165-4.164-10.92-4.163-15.084.003l-4.525 4.527c-4.164 4.166-4.163 10.92.003 15.084a10.628 10.628 0 007.541 3.123zM107.215 358.057l-4.525 4.525c-4.165 4.164-4.165 10.918 0 15.085 2.083 2.082 4.813 3.123 7.542 3.123s5.459-1.041 7.542-3.123l4.525-4.525c4.165-4.166 4.165-10.92 0-15.085-4.166-4.166-10.918-4.166-15.084 0z"/></symbol><symbol viewBox="0 0 64 64" id="dinner" xmlns="http://www.w3.org/2000/svg"><path d="M31 21h2v1h-2z"/><path d="M8 52h54v-2h-3.153L57 38.917v-2.793l3.97-15.881A1 1 0 0060 19h-3a1 1 0 00-.955.7L51.265 35H49v-9a1 1 0 00-1-1H35.974a4.953 4.953 0 00-.224-6.308 1 1 0 00-.75-.338h-6a1 1 0 00-.75.338A4.953 4.953 0 0028.026 25H16a.989.989 0 00-1 1v9h-3.265l-4.78-15.3A1 1 0 006 19H3a1 1 0 00-.97 1.243L6 36.124v2.793L4.153 50H2v2h6zm7-12v10H9.281l2.5-10zm25.227 3.554L39.153 50H23.846l-.983-5.86c2.224-1.443 5.178-3.4 9.114-6.045a570.422 570.422 0 008.25 5.459zm-20.521.226a.91.91 0 00-.136.053L17 45.286V27.9c5.229 3.59 9.579 6.554 13.185 8.988-5.059 3.39-8.346 5.537-10.479 6.892zM17 50v-2.3a23.8 23.8 0 001.7-.936L18.155 50zm3.832-3.846l.134-.8.067-.042.785 4.688zM41.181 50l.878-5.273.413.261L41.219 50zm2.419-1.293L43.82 50h-.539zM45.847 50l-.538-3.228.894.448c.31.168.573.3.8.408V50zm5.372-10l2.5 10H49V40zm4.562 10l-2.5-10h1.872l1.666 10zm1.954-29h.984l-3.5 14H53.36zM52 37h3v1h-6v-1zM29.491 20.354h5.018A2.989 2.989 0 0133 24.816V23h-2v1.816a2.989 2.989 0 01-1.509-4.462zM47 27v18.382l-.725-.363C41.428 42.069 28.707 33.491 19.225 27zM15 38H8v-1h7zM5.265 21L9.64 35H7.781l-3.5-14zm2.582 19h1.872l-2.5 10H6.181z"/></symbol><symbol viewBox="0 0 496 257.5" id="discover" xmlns="http://www.w3.org/2000/svg"><circle cx="263.2" cy="134.3" r="41.6"/><path d="M22.4 95.1H0v78.4h22.4c12 0 20.8-3.2 28-8.8 8.8-7.2 14.4-18.4 14.4-30.4 0-23.2-16.8-39.2-42.4-39.2zm18.4 59.2c-4.8 4-11.2 6.4-20.8 6.4h-4.8v-52h4c9.6 0 16 1.6 20.8 6.4 5.6 4.8 8.8 12 8.8 19.2.8 7.2-2.4 15.2-8 20zM72 95.1h15.2v78.4H72zm53.6 30.4c-9.6-3.2-12-5.6-12-9.6 0-4.8 4.8-8.8 11.2-8.8 4.8 0 8.8 1.6 12.8 6.4l8-10.4c-6.4-5.6-14.4-8.8-23.2-8.8-13.6 0-24.8 9.6-24.8 22.4 0 11.2 4.8 16 19.2 21.6 6.4 2.4 8.8 3.2 10.4 4.8 3.2 1.6 4.8 4.8 4.8 8 0 6.4-4.8 11.2-12 11.2s-13.6-4-16.8-10.4l-9.6 9.6c7.2 10.4 16 15.2 27.2 15.2 16 0 27.2-10.4 27.2-25.6 0-13.6-4.8-19.2-22.4-25.6zm27.2 8.8c0 23.2 18.4 40.8 41.6 40.8 6.4 0 12-1.6 19.2-4.8v-18.4c-6.4 6.4-12 8.8-18.4 8.8-15.2 0-26.4-11.2-26.4-27.2 0-15.2 11.2-27.2 25.6-27.2 7.2 0 12.8 2.4 19.2 8.8V96.7c-6.4-3.2-12-4.8-19.2-4.8-22.4 1.6-41.6 20-41.6 42.4zm186.4 13.6l-20.8-52.8h-16.8l32.8 80.8h8.8l34.4-80.8h-16.8zm44.8 25.6h44v-12.8h-28v-21.6h27.2v-13.6H400v-16.8h28V95.1h-44zm87.2-32.8c12-2.4 18.4-10.4 18.4-22.4 0-14.4-10.4-23.2-28-23.2h-23.2v78.4h15.2v-31.2h2.4l21.6 31.2H496l-24.8-32.8zm-12.8-9.6h-4.8v-24h4.8c9.6 0 15.2 4 15.2 12s-5.6 12-15.2 12z"/><path d="M22.4 95.1H0v78.4h22.4c12 0 20.8-3.2 28-8.8 8.8-7.2 14.4-18.4 14.4-30.4 0-23.2-16.8-39.2-42.4-39.2zm18.4 59.2c-4.8 4-11.2 6.4-20.8 6.4h-4.8v-52h4c9.6 0 16 1.6 20.8 6.4 5.6 4.8 8.8 12 8.8 19.2.8 7.2-2.4 15.2-8 20zM72 95.1h15.2v78.4H72zm53.6 30.4c-9.6-3.2-12-5.6-12-9.6 0-4.8 4.8-8.8 11.2-8.8 4.8 0 8.8 1.6 12.8 6.4l8-10.4c-6.4-5.6-14.4-8.8-23.2-8.8-13.6 0-24.8 9.6-24.8 22.4 0 11.2 4.8 16 19.2 21.6 6.4 2.4 8.8 3.2 10.4 4.8 3.2 1.6 4.8 4.8 4.8 8 0 6.4-4.8 11.2-12 11.2s-13.6-4-16.8-10.4l-9.6 9.6c7.2 10.4 16 15.2 27.2 15.2 16 0 27.2-10.4 27.2-25.6 0-13.6-4.8-19.2-22.4-25.6zm345.6 15.2c12-2.4 18.4-10.4 18.4-22.4 0-14.4-10.4-23.2-28-23.2h-23.2v78.4h15.2v-31.2h2.4l21.6 31.2H496l-24.8-32.8zm-12.8-9.6h-4.8v-24h4.8c9.6 0 15.2 4 15.2 12s-5.6 12-15.2 12z"/></symbol><symbol viewBox="0 0 480 480" id="dish" xmlns="http://www.w3.org/2000/svg"><path d="M339.904 161.776l-5.136-16.904c-6.524-19.202-27.379-29.479-46.581-22.955a36.72 36.72 0 00-22.955 22.955l-5.136 16.904a94.952 94.952 0 00-2.648 44 41.385 41.385 0 0021.312 28.84L273.008 363.2a25.335 25.335 0 006.4 19.696c10.413 11.39 28.089 12.182 39.479 1.769a27.848 27.848 0 001.769-1.769 24.993 24.993 0 006.4-19.16L321.272 234.6a41.376 41.376 0 0021.28-28.824 94.952 94.952 0 00-2.648-44zm-13.112 41.216a25.366 25.366 0 01-16.6 19.112 7.999 7.999 0 00-5.176 7.848L311.096 365a9.255 9.255 0 01-2.4 7.248c-4.817 4.769-12.575 4.769-17.392 0a9.602 9.602 0 01-2.352-7.776l6.032-134.52a7.999 7.999 0 00-5.176-7.848 25.366 25.366 0 01-16.6-19.112 78.89 78.89 0 012.2-36.528l5.136-16.912c3.974-10.745 15.906-16.234 26.652-12.26a20.744 20.744 0 0112.26 12.26l5.136 16.912a78.999 78.999 0 012.2 36.528zM216 120a8 8 0 00-8 8v68.688l-21.656 21.656A8 8 0 00184 224.4l7 140a10.898 10.898 0 01-3.024 8.152c-4.379 4.418-11.511 4.45-15.93.07l-.07-.07a10.894 10.894 0 01-3.024-8.152l7.048-140a8.002 8.002 0 00-2.336-6.056L152 196.688V128a8 8 0 00-16 0v72a8 8 0 002.344 5.656l21.488 21.496-6.824 136.472c-.726 14.907 10.77 27.581 25.677 28.307 14.907.726 27.581-10.77 28.307-25.677.043-.876.043-1.753 0-2.629l-6.824-136.472 21.488-21.496a8 8 0 002.344-5.656v-72a8 8 0 00-8-8.001z"/><path d="M168 120a8 8 0 00-8 8v64a8 8 0 0016 0v-64a8 8 0 00-8-8zm24 0a8 8 0 00-8 8v64a8 8 0 0016 0v-64a8 8 0 00-8-8z"/><path d="M240 0C107.452 0 0 107.452 0 240s107.452 240 240 240 240-107.452 240-240C479.85 107.514 372.486.15 240 0zm0 464C116.288 464 16 363.712 16 240S116.288 16 240 16s224 100.288 224 224c-.141 123.653-100.347 223.859-224 224z"/><path d="M265.969 390.172a8 8 0 00-9.049-7.149l.032-.008a146.959 146.959 0 01-33.904 0 8.002 8.002 0 00-8.88 7.016 8.002 8.002 0 007.016 8.88 162.046 162.046 0 0037.6 0 8 8 0 007.185-8.739zm96.431-253.26a7.999 7.999 0 00-11.27-.988l-.034.028a8 8 0 00-.96 11.272c48.235 57.26 44.545 141.929-8.488 194.776a8.002 8.002 0 0011.296 11.336c58.937-58.713 63.047-152.795 9.456-216.424zm-176.008-31.168l-.015-.001-.025.001h.04zm91.344-21.272a161.416 161.416 0 00-94.168 5.784 8 8 0 002.809 15.487 8.011 8.011 0 002.799-.519 145.334 145.334 0 0184.8-5.2 8 8 0 009.656-5.896 8 8 0 00-5.896-9.656zM137.992 341.6A143.073 143.073 0 0196 240a142.937 142.937 0 0127.528-84.704 8 8 0 00-1.588-11.202 8 8 0 00-11.34 1.778c-46.253 63.588-39.447 151.359 16.056 207.056a8.013 8.013 0 0011.336-11.328z"/></symbol><symbol viewBox="0 0 436 302" id="google-pay" xmlns="http://www.w3.org/2000/svg"><path d="M206.2 165.6v50.8h-16.1V91h42.7c10.3-.2 20.2 3.7 27.7 10.9 7.5 6.7 11.7 16.4 11.5 26.4.2 10.1-4 19.8-11.5 26.6-7.5 7.1-16.7 10.7-27.6 10.7h-26.7zm0-59.2v43.8h27c6 .2 11.8-2.2 15.9-6.5 8.5-8.2 8.6-21.7.4-30.2l-.4-.4c-4.1-4.4-9.9-6.8-15.9-6.6l-27-.1zm102.9 21.4c11.9 0 21.3 3.2 28.2 9.5 6.9 6.4 10.3 15.1 10.3 26.2v52.8h-15.4v-11.9h-.7c-6.7 9.8-15.5 14.7-26.6 14.7-9.4 0-17.4-2.8-23.7-8.4-6.2-5.2-9.7-12.9-9.5-21 0-8.9 3.4-15.9 10.1-21.2s15.7-7.9 26.9-7.9c9.6 0 17.4 1.8 23.6 5.2v-3.7c0-5.5-2.4-10.7-6.6-14.2-4.3-3.8-9.8-5.9-15.5-5.9-9 0-16.1 3.8-21.4 11.4l-14.2-8.9c7.7-11.1 19.2-16.7 34.5-16.7zm-20.8 62.3c0 4.2 2 8.1 5.3 10.5 3.6 2.8 8 4.3 12.5 4.2 6.8 0 13.3-2.7 18.1-7.5 5.3-5 8-10.9 8-17.7-5-4-12-6-21-6-6.5 0-12 1.6-16.4 4.7-4.3 3.2-6.5 7.1-6.5 11.8zM436 130.6l-53.8 123.6h-16.6l20-43.2-35.4-80.3h17.5l25.5 61.6h.4l24.9-61.6 17.5-.1zm-294.9 24c0-4.9-.4-9.8-1.2-14.6H72v27.7h38.9c-1.6 8.9-6.8 16.9-14.4 21.9v18h23.2c13.6-12.5 21.4-31 21.4-53z"/><path d="M72 225c19.4 0 35.8-6.4 47.7-17.4l-23.2-18c-6.5 4.4-14.8 6.9-24.5 6.9-18.8 0-34.7-12.7-40.4-29.7H7.7v18.6C19.9 209.6 44.8 225 72 225z"/><path d="M31.6 166.8c-3-8.9-3-18.6 0-27.6v-18.5H7.7a71.39 71.39 0 000 64.6l23.9-18.5z"/><path d="M72 109.5c10.3-.2 20.2 3.7 27.6 10.8l20.5-20.5c-13-12.3-30.2-19-48.1-18.8-27.2 0-52.1 15.4-64.3 39.7l23.9 18.6c5.7-17.1 21.6-29.8 40.4-29.8z"/></symbol><symbol id="interac" viewBox="0 0 300 280" xml:space="preserve" xmlns="http://www.w3.org/2000/svg"><style>.avst0{fill:#231f20}</style><g transform="translate(-.8 -30.25) scale(.41768)"><path class="avst0" d="M476.2 227.5c-.5-.1-1.3-.2-2.3-.2-2-.1-4.3.2-6.9.9-8.2 2.1-15.4 7.2-21.5 15.3-1.9 2.5-3.6 5.2-5.1 8l-1.6 3.5v-16.5l-32.9 7.8.1 126.1 34.8-8.1v-69.6c0-16.1 6.1-26.5 18.2-31.3 4.1-1.6 8.2-2.7 12.3-3.3 2.1-.3 3.7-.4 5-.3v-32.3z" id="avLayer0_0_MEMBER_0_MEMBER_0_FILL"/></g><g transform="translate(-.8 -30.25) scale(.41768)"><path class="avst0" d="M261.9 280v-28.2l-35 8.3v28.2l-17 4v25.9l16.9-4V377c0 11.8.9 21.5 2.7 28.9.9 3.7 1.7 6.2 2.6 7.5l37.4-8.9c-1.3-.9-2.6-3.1-3.8-6.5-2.6-6.7-3.9-16.1-3.9-28.2v-64l24.7-5.9V274l-24.6 6z" id="avLayer0_0_MEMBER_0_MEMBER_1_FILL"/></g><g transform="translate(-.8 -30.25) scale(.41768)"><path class="avst0" d="M381.9 265.5c-8.9-9.1-22.4-11.6-40.4-7.5-19.2 4.3-32.9 14-41.1 29-3.4 6.3-6 13.6-7.6 22s-2.4 18.2-2.4 29.4c0 20.4 3.6 34.9 10.8 43.6 8.6 10.4 22.6 13.3 42.1 8.7 19.1-4.5 32.5-13.1 40.3-25.7 4.7-7.7 7.2-16.6 7.5-26.9v-5.5l-31.8 7.6-.2 5.1c-.5 5.1-1.8 9-3.9 11.9-2.6 3.5-6.6 5.8-12 7-6.5 1.4-11.2-.4-14-5.2-2.6-4.5-3.9-12.3-3.9-23.3v-1.1l67.7-15.9c0-3.6 0-9 .1-16.2.3-16.7-3.4-29-11.2-37m-39.1 15.9c6-1.3 10.3-.4 13 2.9 2.4 3 3.7 8.1 3.7 15.3l-.1 5.5-34 8.1c.1-9.1 1.6-16.4 4.5-21.8 3.1-5.4 7.3-8.7 12.9-10z" id="avLayer0_0_MEMBER_0_MEMBER_2_FILL"/></g><g transform="translate(-.8 -30.25) scale(.41768)"><path class="avst0" d="M689.2 193.6c-3.3-4.3-7.7-7.2-13.2-8.8-7.6-2.1-17.5-1.8-29.8 1-20 4.5-34.1 14.1-42.3 28.5-6.9 12.2-9.9 28.9-9.2 50.1.8 22.2 4.4 37.4 10.8 45.7 8.1 10.4 22.2 13.3 42.4 8.6 15.8-3.7 27.8-10.5 36-20.5 8.3-10 12.4-23 12.4-38.8l-.1-5.2-33.5 7.9-.1 6.4c-.1 6.2-1 11-2.6 14.5-2.3 4.9-6.3 7.9-12 9-7 1.5-11.8-.5-14.5-5.9-2.3-4.8-3.5-13.6-3.5-26.5v-11.2c0-12.1 1.4-21.2 4.1-27.3 2.8-6.3 7.4-10.2 13.7-11.8 5.3-1.3 9.1-.6 11.4 2.3 2.2 2.8 3.4 7.9 3.4 15.3v4.6l33.5-7.9v-2.3c0-6.3-.5-11.7-1.6-16-1-4.5-2.8-8.4-5.3-11.7z" id="avLayer0_0_MEMBER_0_MEMBER_3_FILL"/></g><g transform="translate(-.8 -30.25) scale(.41768)"><path class="avst0" d="M484.2 261c-.2 2.4-.2 4.5-.1 6.1l32.5-7.7c-.1-2.1 0-4.3.2-6.5.8-8.9 5.5-14.4 14-16.5 5.3-1.4 9.2-.9 11.7 1.3 2.1 1.9 3 4.8 3 8.8-.1 4.9-1.1 8.5-3.2 10.8-3.1 3.5-9.9 7.4-20.5 11.8-15.1 6.2-25.5 12.1-31.1 17.6-7.9 7.6-11.8 18.1-11.8 31.6 0 11.4 3.3 20 9.9 25.9 7.1 6.4 16.7 8.2 28.9 5.3 10-2.4 18.2-6.9 24.5-13.7 3.2-3.4 5.3-6.6 6.5-9.5.9 3.5 2.3 7.4 4.3 11.5l31.9-7.5c-.8-.7-1.7-2.5-2.5-5.4-1.7-5.8-2.5-14.4-2.5-25.6v-55.8c0-12.8-3.4-21.9-10.2-27.2-7.7-6.1-19.7-7.3-36-3.6-26.3 6.1-42 17.8-47.2 35.3-1.3 3.7-2 8.1-2.3 13m61 17.4V296c0 6.6-1.6 12.2-4.8 16.9-3.2 4.5-7.4 7.5-12.6 8.8-4.6 1.2-8.3.6-11-1.8-2.6-2.2-3.9-5.5-3.9-10 0-4.9 1.2-9.1 3.8-12.5 2.4-3.4 6.3-6.4 11.7-9 6.7-3.4 12.4-6.7 16.8-10z" id="avLayer0_0_MEMBER_0_MEMBER_4_FILL"/></g><g transform="translate(-.8 -30.25) scale(.41768)"><path class="avst0" d="M32.8 470.2h-.4l-.2.3c-2.2 3.3-3.2 7-3.2 11.1 0 5.6 2 10.3 5.9 14.3 4 4 8.7 5.9 14.3 5.9 1.5 0 2.8-.2 4.1-.5 4.6-.9 13.4-3 26.4-6.1l.8-.2v-36.1l-47.7 11.3z" id="avLayer0_0_MEMBER_0_MEMBER_5_FILL"/></g><g transform="translate(-.8 -30.25) scale(.41768)"><path class="avst0" d="M79.7 541.6l.8-.2v-36.1l-47.6 11.3h-.4l-.2.4c-2.2 3.3-3.2 6.9-3.2 11 0 5.6 2 10.3 5.9 14.3 4 3.9 8.7 5.9 14.3 5.9 1.6 0 3-.1 4.1-.4 3-.7 11.8-2.7 26.3-6.2z" id="avLayer0_0_MEMBER_0_MEMBER_6_FILL"/></g><g transform="translate(-.8 -30.25) scale(.41768)"><path class="avst0" d="M32.4 562.9l-.2.3c-2.2 3.3-3.2 6.9-3.2 11 0 5.6 2 10.3 5.9 14.3 4 3.9 8.7 5.9 14.3 5.9 1.4 0 2.7-.1 4.1-.4 7.5-1.6 16.3-3.7 26.4-6.1l.8-.2v-36.2l-48.1 11.4z" id="avLayer0_0_MEMBER_0_MEMBER_7_FILL"/></g><g transform="translate(-.8 -30.25) scale(.41768)"><path class="avst0" d="M80.4 246.4l-36.9 8.7v202.4l36.9-8.8V246.4z" id="avLayer0_0_MEMBER_0_MEMBER_8_FILL"/></g><g transform="translate(-.8 -30.25) scale(.41768)"><path class="avst0" d="M212.5 510c-2.3-4.4-5.6-8-9.7-10.8l-57.4-39v88.6c0 1.4-.5 2.5-1.5 3.5s-2.1 1.5-3.4 1.5c-1.3 0-2.5-.5-3.4-1.5-1-1-1.4-2.1-1.4-3.5l-.1-108.5c0-6.3-2.2-11.6-6.6-16.1-4.5-4.5-9.8-6.7-16.1-6.7-6.3 0-11.7 2.2-16.1 6.7-4.5 4.5-6.7 9.8-6.7 16.1v189.1c0 17 6 31.5 18 43.5 12.1 12.1 26.6 18.1 43.5 18.1H216l.1-166.9c-.1-5-1.2-9.7-3.6-14.1z" id="avLayer0_0_MEMBER_0_MEMBER_9_FILL"/></g><g transform="translate(-.8 -30.25) scale(.41768)"><path class="avst0" d="M152.1 329c4.2-.9 7.4-.4 9.7 1.6 2.7 2.3 4.1 6.6 4.1 12.8V429l35-8.2v-90.5c0-12-2.5-20.7-7.5-26.1-5.8-6.2-14.9-7.9-27.2-5-9.9 2.3-18.3 7.2-25.3 14.8-3.5 3.8-6 7.4-7.5 10.6v-14.2l-33.2 7.9v90.8c4-1.6 8.2-2.4 12.5-2.4 4.2 0 8.3.8 12.2 2.2 3.8 1.5 7.2 3.5 10.2 6.2v-58.7c0-7 1.6-13 4.8-18.1s7.2-8.2 12.2-9.3z" id="avLayer0_0_MEMBER_0_MEMBER_10_FILL"/></g><g transform="translate(-.8 -30.25) scale(.41768)"><path class="avst0" d="M696.3 148c0-6-2.1-11.1-6.3-15.3-4.2-4.2-9.3-6.4-15.2-6.4s-11.1 2.1-15.3 6.4c-4.2 4.2-6.4 9.3-6.4 15.3s2.1 11.1 6.4 15.2c4.2 4.2 9.3 6.4 15.3 6.4s11-2.1 15.2-6.4c4.2-4.2 6.3-9.2 6.3-15.2m-21.6-19c5.2 0 9.7 1.9 13.3 5.5 3.7 3.7 5.5 8.2 5.5 13.4 0 5.2-1.8 9.7-5.5 13.4-3.7 3.7-8.1 5.5-13.3 5.5-5.2 0-9.7-1.8-13.4-5.5-3.7-3.7-5.5-8.1-5.5-13.4s1.9-9.7 5.5-13.4c3.7-3.6 8.2-5.5 13.4-5.5z" id="avLayer0_0_MEMBER_0_MEMBER_11_FILL"/></g><g transform="translate(-.8 -30.25) scale(.41768)"><path class="avst0" d="M678.4 148.4c1.4-.3 2.5-1 3.2-2.2.8-1.2 1.1-2.6 1.1-4.4 0-2.3-.6-4-1.9-5.2-1.2-1-2.8-1.5-4.8-1.5h-9.4v26.4h4.2V150h3.5c1.4 0 2.4.3 3 1 .5.6.8 1.6.8 3.1.1 2.6.1 4.3.2 4.9.1 1.1.3 1.9.7 2.4h4.8c-.8-.5-1.2-1.2-1.2-2.2l-.2-5.4c-.1-1.8-.4-3.1-1.1-4-.5-.8-1.5-1.2-2.9-1.4m-4-1.6H671v-8.6h3.6c2.7 0 4 1.4 4 4.2 0 1.4-.4 2.4-1.1 3.1-.7 1-1.8 1.3-3.1 1.3z" id="avLayer0_0_MEMBER_0_MEMBER_12_FILL"/></g></symbol><symbol viewBox="0 0 478.2 478.2" id="like" xmlns="http://www.w3.org/2000/svg"><path d="M457.575 325.1c9.8-12.5 14.5-25.9 13.9-39.7-.6-15.2-7.4-27.1-13-34.4 6.5-16.2 9-41.7-12.7-61.5-15.9-14.5-42.9-21-80.3-19.2-26.3 1.2-48.3 6.1-49.2 6.3h-.1c-5 .9-10.3 2-15.7 3.2-.4-6.4.7-22.3 12.5-58.1 14-42.6 13.2-75.2-2.6-97-16.6-22.9-43.1-24.7-50.9-24.7-7.5 0-14.4 3.1-19.3 8.8-11.1 12.9-9.8 36.7-8.4 47.7-13.2 35.4-50.2 122.2-81.5 146.3-.6.4-1.1.9-1.6 1.4-9.2 9.7-15.4 20.2-19.6 29.4-5.9-3.2-12.6-5-19.8-5h-61c-23 0-41.6 18.7-41.6 41.6v162.5c0 23 18.7 41.6 41.6 41.6h61c8.9 0 17.2-2.8 24-7.6l23.5 2.8c3.6.5 67.6 8.6 133.3 7.3 11.9.9 23.1 1.4 33.5 1.4 17.9 0 33.5-1.4 46.5-4.2 30.6-6.5 51.5-19.5 62.1-38.6 8.1-14.6 8.1-29.1 6.8-38.3 19.9-18 23.4-37.9 22.7-51.9-.4-8.1-2.2-15-4.1-20.1zm-409.3 122.2c-8.1 0-14.6-6.6-14.6-14.6V270.1c0-8.1 6.6-14.6 14.6-14.6h61c8.1 0 14.6 6.6 14.6 14.6v162.5c0 8.1-6.6 14.6-14.6 14.6h-61v.1zm383.7-133.9c-4.2 4.4-5 11.1-1.8 16.3 0 .1 4.1 7.1 4.6 16.7.7 13.1-5.6 24.7-18.8 34.6-4.7 3.6-6.6 9.8-4.6 15.4 0 .1 4.3 13.3-2.7 25.8-6.7 12-21.6 20.6-44.2 25.4-18.1 3.9-42.7 4.6-72.9 2.2h-1.4c-64.3 1.4-129.3-7-130-7.1h-.1l-10.1-1.2c.6-2.8.9-5.8.9-8.8V270.1c0-4.3-.7-8.5-1.9-12.4 1.8-6.7 6.8-21.6 18.6-34.3 44.9-35.6 88.8-155.7 90.7-160.9.8-2.1 1-4.4.6-6.7-1.7-11.2-1.1-24.9 1.3-29 5.3.1 19.6 1.6 28.2 13.5 10.2 14.1 9.8 39.3-1.2 72.7-16.8 50.9-18.2 77.7-4.9 89.5 6.6 5.9 15.4 6.2 21.8 3.9 6.1-1.4 11.9-2.6 17.4-3.5.4-.1.9-.2 1.3-.3 30.7-6.7 85.7-10.8 104.8 6.6 16.2 14.8 4.7 34.4 3.4 36.5-3.7 5.6-2.6 12.9 2.4 17.4.1.1 10.6 10 11.1 23.3.4 8.9-3.8 18-12.5 27z"/></symbol><symbol viewBox="0 0 48.428 48.428" id="mastercard" xmlns="http://www.w3.org/2000/svg"><path d="M33.933 9.716a14.433 14.433 0 00-9.721 3.748 14.442 14.442 0 00-9.717-3.745h-.093C6.444 9.771 0 16.245 0 24.214c0 8.001 6.494 14.494 14.494 14.494 3.737 0 7.145-1.417 9.716-3.745a14.336 14.336 0 01-1.482-1.584h2.993a14.492 14.492 0 01-1.472 1.553h-.002c-.012.013-.025.021-.037.032a14.44 14.44 0 009.728 3.749c8.005-.003 14.492-6.495 14.49-14.499v-.007c.001-8.004-6.49-14.493-14.495-14.491zm-11.039 5.245h2.755c.406.492.783 1.01 1.125 1.552h-4.915a21.68 21.68 0 011.035-1.552zm-1.891 3.074h6.607c.235.502.443 1.021.625 1.553H20.22c.08-.15.36-.754.783-1.553zM5.917 27.906l.879-5.542-1.983 5.542H3.75l-.138-5.542-.939 5.542H1.184l1.234-7.35H4.67l.079 4.51 1.521-4.51h2.443l-1.217 7.35H5.917zm5.265-.012l.051-.587c-.024.003-.494.709-1.583.709-.57 0-1.49-.311-1.49-1.663 0-1.719 1.402-2.289 2.737-2.289.21 0 .663.038.663.038s.051-.105.051-.389c0-.467-.42-.531-.995-.531-1.013 0-1.682.271-1.682.271l.224-1.33s.812-.34 1.869-.34c.547 0 2.12.058 2.12 1.861l-.606 4.25h-1.359zm5.743-1.872c0 2.051-1.987 1.963-2.334 1.963-1.295 0-1.695-.179-1.732-.189l.206-1.35c.002-.012.65.235 1.371.235.416 0 .956-.041.956-.538 0-.744-1.932-.566-1.932-2.333 0-1.559 1.158-2.015 2.3-2.015.882 0 1.424.121 1.424.121l-.195 1.362s-.837-.069-1.054-.069c-.549 0-.848.12-.848.504-.001.772 1.838.394 1.838 2.309zm2.386.538c.137 0 .292-.047.398-.047l-.193 1.311c-.155.043-.594.199-1.157.203-.719.006-1.23-.396-1.23-1.308 0-.612.877-5.655.911-5.688h1.543l-.157.902h.77l-.197 1.453h-.817l-.434 2.677c-.033.213.026.497.563.497zm3.394-4.797c1.694 0 2.201 1.24 2.201 2.257 0 .407-.204 1.407-.204 1.407h-3.136s-.29 1.235 1.367 1.235c.777 0 1.639-.38 1.639-.38l-.272 1.487s-.498.254-1.63.254c-1.227 0-2.666-.519-2.666-2.699.001-1.889 1.149-3.561 2.701-3.561zm4.087 10.123H21.65c-.313-.5-.605-1.013-.856-1.552h6.843a14.886 14.886 0 01-.845 1.552zm-.345-3.969h-1.584l.963-5.982h1.437l-.138.867s.512-.943 1.203-.943c.201 0 .298.02.298.02-.205.418-.386.801-.574 1.79-1.072-.38-1.154 1.693-1.605 4.248zm6.035-.093s-.83.212-1.35.212c-1.842 0-2.777-1.271-2.777-3.196 0-2.903 1.733-4.449 3.514-4.449.805 0 1.738.378 1.738.378l-.252 1.635s-.631-.441-1.416-.441c-1.05 0-1.992 1.002-1.992 2.823 0 .897.439 1.733 1.535 1.733.521 0 1.276-.379 1.276-.379l-.276 1.684zm3.715.073l.052-.591c-.025.003-.495.709-1.583.709-.57 0-1.49-.311-1.49-1.663 0-1.719 1.402-2.289 2.736-2.289.21 0 .664.038.664.038s.052-.104.052-.388c0-.467-.42-.531-.996-.531-1.013 0-1.681.271-1.681.271l.224-1.33s.812-.34 1.87-.34c.546 0 2.12.058 2.119 1.861l-.606 4.25c-.001.003-1.361.003-1.361.003zm3.207.02H37.82l.963-5.982h1.438l-.138.867s.513-.943 1.204-.943c.201 0 .297.02.297.02-.204.418-.387.801-.574 1.79-1.073-.38-1.155 1.693-1.606 4.248zm4.729-.016l.067-.551s-.512.646-1.438.646c-1.283 0-1.912-1.239-1.912-2.505 0-1.958 1.178-3.665 2.592-3.665.91.002 1.491.805 1.491.805l.334-2.065 1.547-.003-1.18 7.338h-1.501zm3.052-.207a.461.461 0 01-.406.237.471.471 0 01-.404-.237.464.464 0 010-.466.475.475 0 01.404-.236c.08 0 .156.021.23.062a.461.461 0 01.176.64zm-.124 4.423c-.01-.007-.019-.018-.035-.024a.244.244 0 00-.08-.009h-.094v.15h.1c.047 0 .078-.004.096-.021a.066.066 0 00.025-.055.075.075 0 00-.012-.041z"/><path d="M47.384 32.027a.43.43 0 00-.177-.174.472.472 0 00-.229-.062.467.467 0 00-.23.062.434.434 0 00-.176.174.472.472 0 00.408.701.468.468 0 00.404-.701zm-.288.492l-.044-.079a.418.418 0 00-.086-.119.11.11 0 00-.064-.018h-.047v.215h-.082v-.505h.174c.06 0 .103.005.127.015.027.01.05.024.064.049a.127.127 0 01.023.074.144.144 0 01-.039.097.162.162 0 01-.105.046.11.11 0 01.043.027.59.59 0 01.075.099l.062.099h-.101zm-36.074-7.308c-1.131 0-1.36.508-1.36.931 0 .218.125.582.604.582.929 0 1.122-1.218 1.092-1.477-.044-.009-.072-.035-.336-.036zm11.689-2.067c-.841 0-1.003.957-1.003 1.058h1.713c0-.077.161-1.058-.71-1.058zm20.998.167c-.679 0-1.216.788-1.215 1.985 0 .73.26 1.198.816 1.198.836 0 1.239-1.091 1.239-1.904 0-.897-.285-1.279-.84-1.279zm3.406 3.957a.377.377 0 00-.146-.145.381.381 0 00-.528.145.403.403 0 00-.053.195c0 .067.018.133.051.194a.409.409 0 00.339.2c.067 0 .133-.02.193-.054a.388.388 0 00.144-.535zm-.217.452l-.045-.078a.404.404 0 00-.084-.118.102.102 0 00-.066-.019h-.046v.214h-.084v-.504h.175c.059 0 .103.005.128.016a.143.143 0 01.064.048.116.116 0 01.023.074.136.136 0 01-.04.096c-.026.029-.062.041-.104.046.02.008.033.017.043.026a.51.51 0 01.074.099l.062.1h-.1zm-10.859-2.509c-1.131 0-1.36.508-1.36.931 0 .218.124.582.604.582.929 0 1.121-1.218 1.092-1.477-.045-.009-.073-.035-.336-.036z"/><path d="M46.864 27.318a.091.091 0 00-.034-.025.283.283 0 00-.082-.01v.001h-.091v.152h.099c.047 0 .078-.006.097-.021a.078.078 0 00.024-.056.067.067 0 00-.013-.041z"/></symbol><symbol viewBox="0 0 55 55" id="network" xmlns="http://www.w3.org/2000/svg"><path d="M49 0c-3.309 0-6 2.691-6 6 0 1.035.263 2.009.726 2.86l-9.829 9.829a7.943 7.943 0 00-9.795-.001l-7.669-7.669A3.947 3.947 0 0017 9c0-2.206-1.794-4-4-4S9 6.794 9 9s1.794 4 4 4c.74 0 1.424-.215 2.019-.567l7.669 7.669a7.953 7.953 0 000 9.795L10.024 42.562A5.971 5.971 0 006 41c-3.309 0-6 2.691-6 6s2.691 6 6 6 6-2.691 6-6a5.966 5.966 0 00-.726-2.86l12.829-12.829a7.953 7.953 0 003.898 1.619v10.16c-2.833.478-5 2.942-5 5.91 0 3.309 2.691 6 6 6s6-2.691 6-6c0-2.967-2.167-5.431-5-5.91V32.93a7.953 7.953 0 003.898-1.619l7.669 7.669A3.945 3.945 0 0041 41c0 2.206 1.794 4 4 4s4-1.794 4-4-1.794-4-4-4c-.74 0-1.424.215-2.019.567l-7.669-7.669a7.953 7.953 0 000-9.795l9.665-9.665A5.967 5.967 0 0049 12c3.309 0 6-2.691 6-6s-2.691-6-6-6zM11 9c0-1.103.897-2 2-2s2 .897 2 2-.897 2-2 2-2-.897-2-2zM6 51c-2.206 0-4-1.794-4-4s1.794-4 4-4 4 1.794 4 4-1.794 4-4 4zm27-2c0 2.206-1.794 4-4 4s-4-1.794-4-4 1.794-4 4-4 4 1.794 4 4zm-4-18c-3.309 0-6-2.691-6-6s2.691-6 6-6 6 2.691 6 6-2.691 6-6 6zm18 10c0 1.103-.897 2-2 2s-2-.897-2-2 .897-2 2-2 2 .897 2 2zm2-31c-2.206 0-4-1.794-4-4s1.794-4 4-4 4 1.794 4 4-1.794 4-4 4z"/></symbol><symbol viewBox="0 0 64 64" id="online-payment" xmlns="http://www.w3.org/2000/svg"><path d="M23 53a3 3 0 103 3 3 3 0 00-3-3zm0 4a1 1 0 111-1 1 1 0 01-1 1zM21 5h4v2h-4z"/><path d="M55 17H42V5a3 3 0 00-3-3H7a3 3 0 00-3 3v54a3 3 0 003 3h32a3 3 0 003-3V46h13a5.006 5.006 0 005-5V22a5.006 5.006 0 00-5-5zm3 5v1H16v-1a3 3 0 013-3h36a3 3 0 013 3zm0 6H16v-3h42zM7 4h32a1 1 0 011 1v3H6V5a1 1 0 011-1zm32 56H7a1 1 0 01-1-1v-7h34v7a1 1 0 01-1 1zm1-10H6V10h34v7H19a5.006 5.006 0 00-5 5v19a5.006 5.006 0 005 5h21zm15-6H19a3 3 0 01-3-3V30h42v11a3 3 0 01-3 3z"/><path d="M51 34a3.949 3.949 0 00-2 .546A3.949 3.949 0 0047 34a4 4 0 000 8 3.949 3.949 0 002-.546A3.949 3.949 0 0051 42a4 4 0 000-8zm0 6a1.974 1.974 0 01-1.331-.521 1 1 0 00-1.338 0A1.974 1.974 0 0147 40a2 2 0 010-4 1.974 1.974 0 011.331.521 1 1 0 001.338 0A1.974 1.974 0 0151 36a2 2 0 010 4zm-32-6h4v2h-4zm0 5h10v2H19z"/></symbol><symbol viewBox="0 0 232.679 232.679" id="pause" xmlns="http://www.w3.org/2000/svg"><path d="M80.543 0H35.797c-9.885 0-17.898 8.014-17.898 17.898v196.883c0 9.885 8.013 17.898 17.898 17.898h44.746c9.885 0 17.898-8.013 17.898-17.898V17.898C98.44 8.014 90.427 0 80.543 0zm116.339 0h-44.746c-9.886 0-17.899 8.014-17.899 17.898v196.883c0 9.885 8.013 17.898 17.899 17.898h44.746c9.885 0 17.898-8.013 17.898-17.898V17.898C214.781 8.014 206.767 0 196.882 0z" fill-rule="evenodd" clip-rule="evenodd"/></symbol><symbol viewBox="0 0 32 32" id="phone" xmlns="http://www.w3.org/2000/svg"><path d="M23 19c-2 2-2 4-4 4s-4-2-6-4-4-4-4-6 2-2 4-4-4-8-6-8-6 6-6 6c0 4 4.1 12.1 8 16s12 8 16 8c0 0 6-4 6-6s-6-8-8-6z"/></symbol><symbol viewBox="0 0 124.512 124.512" id="play" xmlns="http://www.w3.org/2000/svg"><path d="M113.956 57.006l-97.4-56.2c-4-2.3-9 .6-9 5.2v112.5c0 4.6 5 7.5 9 5.2l97.4-56.2c4-2.401 4-8.2 0-10.5z"/></symbol><symbol viewBox="0 0 276.6 226" id="samsung-pay" xmlns="http://www.w3.org/2000/svg"><path d="M102 54l-4.9 30.2h-.2L92.1 54H75.9L75 93.5h9.9l.2-35.5h.2L92 93.5h10l6.6-35.5h.2l.2 35.5h9.9L118 54zm37.1 10.3c-.1-.7-.1-1.3 0-2 .3-1.3 1.1-2.6 3.6-2.6 1.8-.2 3.5 1.2 3.6 3v2.9h9.7v-2.8c0-8.5-7.6-9.9-13.2-9.9-7 0-12.6 2.3-13.7 8.7-.3 1.7-.3 3.5.1 5.3 1.7 8 15.6 10.3 17.6 15.4.3.9.3 1.9.1 2.9-.3 1.3-1.2 2.6-3.8 2.6-2.4 0-3.9-1.4-3.9-3.5v-3.8h-10.5v3c0 8.7 6.9 11.3 14.2 11.3 7.1 0 12.9-2.4 13.8-8.9.4-2.1.4-4.3 0-6.4-1.7-8.1-16.6-10.6-17.6-15.2zM10.6 64c-.1-.7-.1-1.4 0-2.1.3-1.3 1.1-2.7 3.6-2.7 1.9-.2 3.5 1.2 3.7 3v3h9.9v-2.8c0-8.6-7.7-10-13.3-10-7 0-12.8 2.3-13.8 8.8-.4 1.8-.4 3.6 0 5.4 1.6 8.3 15.6 10.6 17.7 15.7.3 1 .3 2 .1 3-.3 1.3-1.2 2.6-3.9 2.6-2.5 0-4-1.4-4-3.6v-3.9H0v3c0 8.8 6.9 11.5 14.4 11.5 7.2 0 13-2.4 14-9 .4-2.2.4-4.3 0-6.5-1.7-8.3-16.7-10.7-17.8-15.4zm31.7-10L35 93.5h10.7l5.4-35.9h.2l5.3 35.9h10.6L59.9 54zm141.6 29.2c0 .5 0 1-.1 1.5-.4 1.7-2 3-3.8 2.8-1.8.2-3.4-1-3.8-2.8-.1-.5-.1-1-.1-1.5V54h-10v28.3c0 .7.1 2.2.1 2.6.7 7.4 6.5 9.8 13.8 9.8s13.1-2.4 13.8-9.8c0-.4.1-1.9.1-2.6V54h-10v29.2zm44.9 1.8h-.2l-9.1-31h-14.7v39.1h9.7L214 61h.2l9.8 32.1h14.1V54h-9.8zm33.8-32.2c-7 0-13 2.4-13.9 9.8-.1.9-.2 1.7-.2 2.6v16.7c0 .7 0 1.3.1 2.6.7 7.2 6.9 9.8 13.9 9.8s13.3-2.6 13.9-9.8c.1-1.3.1-1.9.1-2.6V71.3h-14v5.8h4v5.7c0 .5 0 1-.1 1.5-.1 1-1.1 2.8-4 2.8s-3.9-1.8-3.9-2.8c-.1-.5-.1-1-.1-1.5V64.7c0-.7.1-1.3.2-1.9.4-1.8 2-3.1 3.9-2.9 3.1 0 3.8 2 4 2.9.1.5.1 1 .1 1.5v2.2h10v-1.3c0-.9 0-1.7-.1-2.6-.8-7.5-6.9-9.8-13.9-9.8zm-107.4 66.3c-3.9-3.2-8.8-5-13.9-5-12.6 0-22.9 11-22.9 24.5s10.2 24.5 22.9 24.5c5.1 0 10-1.8 13.9-5v4.2h10.5v-47h-10.5v3.8zm-12.7 34.8c-7.6 0-13.8-6.8-13.8-15.3s6.2-15.2 13.8-15.2 13.8 6.8 13.8 15.3-6.2 15.2-13.8 15.2zm67.9-38.6l-13.5 32-14.4-32h-10.4l19.8 44-8.5 20.1h10.3l27-64.1zm-120.8-1.2c-5.1 0-10.1 1.8-14 5.2v-4H65v64.1h10.5V158c3.9 3.3 8.9 5.1 14 5.2 12.6 0 22.9-11 22.9-24.5s-10.1-24.6-22.8-24.6zm-1.2 39.8c-7.6 0-13.8-6.8-13.8-15.3s6.2-15.3 13.8-15.3 13.8 6.8 13.8 15.3-6.2 15.3-13.8 15.3z"/></symbol><symbol viewBox="0 0 55.867 55.867" id="star" xmlns="http://www.w3.org/2000/svg"><path d="M55.818 21.578a1.002 1.002 0 00-.808-.681l-18.09-2.629-8.09-16.392a.998.998 0 00-1.792 0l-8.091 16.393-18.09 2.629a1.002 1.002 0 00-.555 1.705l13.091 12.76-3.091 18.018c-.064.375.09.754.397.978a.992.992 0 001.053.076l16.182-8.506 16.18 8.506a1 1 0 001.451-1.054l-3.09-18.017 13.091-12.761c.272-.267.37-.664.252-1.025z"/></symbol><symbol viewBox="0 0 305.3 55.9" id="star-five" xmlns="http://www.w3.org/2000/svg"><path d="M55.8 21.6c-.1-.4-.4-.6-.8-.7l-18.1-2.6-8.1-16.4c-.2-.3-.5-.6-.9-.6s-.7.2-.9.6l-8.1 16.4-18 2.6c-.4.1-.7.3-.9.7-.1.4 0 .8.3 1l13.1 12.8-3.1 18c-.1.4.1.8.4 1 .3.2.7.3 1.1.1L28 46l16.2 8.5c.1.1.3.1.5.1s.4-.1.6-.2c.3-.2.5-.6.4-1l-3.1-18 13.1-12.8c.1-.3.2-.7.1-1zm249.4-.3c-.1-.4-.4-.6-.8-.7L286.3 18l-8.1-16.4c-.2-.3-.5-.6-.9-.6s-.7.2-.9.6l-8 16.4-18.1 2.6c-.4.1-.7.3-.8.7-.1.4 0 .8.3 1l13 12.7-3.1 18c-.1.4.1.8.4 1 .3.2.7.3 1.1.1l16.2-8.5 16.2 8.5c.1.1.3.1.5.1s.4-.1.6-.2c.3-.2.5-.6.4-1L292 35l13-12.7c.3-.3.4-.7.2-1zm-63.7.3c-.1-.4-.4-.6-.8-.7l-18.1-2.6-8.1-16.4c-.2-.3-.5-.6-.9-.6s-.7.2-.9.6l-8.1 16.4-18.1 2.6c-.4.1-.7.3-.8.7-.1.4 0 .8.3 1l13.1 12.8-3.1 18c-.1.4.1.8.4 1 .3.2.7.3 1.1.1l16.2-8.5 16.2 8.5c.1.1.3.1.5.1s.4-.1.6-.2c.3-.2.5-.6.4-1l-3.1-18 13.1-12.8c.2-.3.3-.7.1-1zm-62 0c-.1-.4-.4-.6-.8-.7l-18.1-2.6-8.1-16.4c-.2-.3-.5-.6-.9-.6s-.7.2-.9.6l-8.1 16.4-18.1 2.6c-.4.1-.7.3-.8.7-.1.4 0 .8.3 1l13.1 12.8-3.1 18c-.1.4.1.8.4 1 .3.2.7.3 1.1.1l16.2-8.5 16.2 8.5c.1.1.3.1.5.1s.4-.1.6-.2c.3-.2.5-.6.4-1l-3.1-18 13.1-12.8c.1-.3.2-.7.1-1zm-62.1 0c-.1-.4-.4-.6-.8-.7l-18.1-2.6-8.1-16.4c-.2-.3-.5-.6-.9-.6s-.7.2-.9.6l-8.1 16.4-18.1 2.6c-.4.1-.7.3-.8.7-.1.4 0 .8.3 1L75 35.4l-3.1 18c-.1.4.1.8.4 1 .3.2.7.3 1.1.1L89.6 46l16.2 8.5c.1.1.3.1.5.1s.4-.1.6-.2c.3-.2.5-.6.4-1l-3.1-18 13.1-12.8c.1-.3.2-.7.1-1z"/></symbol><symbol viewBox="0 0 480 480" id="storage" xmlns="http://www.w3.org/2000/svg"><path d="M480 172v-16h-32V44a7.998 7.998 0 00-7.996-8H264a7.998 7.998 0 00-8 7.996V156h-24V44a7.998 7.998 0 00-7.996-8H48a7.998 7.998 0 00-8 7.996V156H16V4H0v464a7.998 7.998 0 007.996 8H480v-16h-32V348a7.998 7.998 0 00-7.996-8H264a7.998 7.998 0 00-8 7.996V460h-24V348a7.998 7.998 0 00-7.996-8H48a7.998 7.998 0 00-8 7.996V460H16V324h464v-16h-32V196a7.998 7.998 0 00-7.996-8H264a7.998 7.998 0 00-8 7.996V308h-24V196a7.998 7.998 0 00-7.996-8H48a7.998 7.998 0 00-8 7.996V308H16V172h464zM336 52h32v32h-32V52zm-64 0h48v40a7.998 7.998 0 007.996 8H376a7.998 7.998 0 008-7.996V52h48v104H272V52zm-152 0h32v32h-32V52zm-64 0h48v40a7.998 7.998 0 007.996 8H160a7.998 7.998 0 008-7.996V52h48v104H56V52zm280 304h32v32h-32v-32zm-64 0h48v40a7.998 7.998 0 007.996 8H376a7.998 7.998 0 008-7.996V356h48v104H272V356zm-152 0h32v32h-32v-32zm-64 0h48v40a7.998 7.998 0 007.996 8H160a7.998 7.998 0 008-7.996V356h48v104H56V356zm280-144h32v32h-32v-32zm-64-8h48v48a7.998 7.998 0 007.996 8H376a7.998 7.998 0 008-7.996V204h48v104H272V204zm-152 0h32v32h-32v-32zm-64 0h48v40a7.998 7.998 0 007.996 8H160a7.998 7.998 0 008-7.996V204h48v104H56V204z"/></symbol><symbol viewBox="0 0 422.692 422.692" id="support" xmlns="http://www.w3.org/2000/svg"><path d="M271.786 289.626v-7.36c2.08-1.68 4.08-3.52 6-5.44a109.36 109.36 0 0027.68-60.96 53.762 53.762 0 0034.72-20.64c11.6-16.4 12.64-40 2.96-69.6a8.002 8.002 0 00-3.2-4.16l-4.4-2.96a108.478 108.478 0 00-25.92-73.04c-21.52-24.24-54.56-36.48-98.32-36.64-43.68 0-76.8 12.4-98.32 36.32a108.478 108.478 0 00-25.92 73.04l-4.4 2.96a8.002 8.002 0 00-3.2 4.16c-9.68 29.76-8.64 53.2 2.96 69.6a53.918 53.918 0 0034.72 20.88 109.44 109.44 0 0027.76 61.04 78.037 78.037 0 006 5.44v7.36c-30.64 5.92-152.96 34.64-150.88 116.24a8 8 0 008 8h406.64a8 8 0 008-8c2.08-81.6-120.24-110.32-150.88-116.24zm-159.44-91.68a34.72 34.72 0 01-16.96-12.4l.4.08c-8-11.68-8.72-29.36-1.6-52.72l5.84-3.92a8 8 0 003.52-7.44 94.558 94.558 0 0121.76-65.84c18.08-20.48 47.12-30.72 86-30.88 38.88-.16 67.92 10.4 86.32 30.88a94.558 94.558 0 0121.76 65.84 8 8 0 003.52 7.44l5.84 3.92c7.12 23.28 6.64 41.04-1.6 52.72a34.886 34.886 0 01-17.04 12.4 53.277 53.277 0 0013.04-40 37.441 37.441 0 00-12.88-22.4c-3.44-80-59.52-88.96-83.68-88.96-5.114-.015-10.222.36-15.28 1.12a100.705 100.705 0 00-15.28-1.12c-24 0-80 8.8-83.68 88.96a37.44 37.44 0 00-13.04 22.32 53.2 53.2 0 0013.04 40zm182-65.6a164.805 164.805 0 01-95.6-24 8 8 0 00-10.4 1.04c-16 17.2-45.2 21.2-59.28 22.08 4.32-56.56 38.56-68.88 67.36-68.88a77.331 77.331 0 0113.68 1.12 7.982 7.982 0 003.2 0 77.71 77.71 0 0113.68-1.12c28.56 0 62.96 12.64 66.96 69.68l.4.08zm-162.48 67.12l.32.08a7.997 7.997 0 00-2-5.36c-10.96-12.56-16-24-14.64-33.44a21.2 21.2 0 017.28-13.52c10.56 0 48-2 72-22.72a180.395 180.395 0 0088.8 24c5.36 0 10.8 0 16.48-.88a21.118 21.118 0 017.2 13.12c1.36 9.28-3.68 20.88-14.64 33.44a7.997 7.997 0 00-2 5.36v4.16l-46.56 24.96c-9.24-8.748-23.823-8.349-32.571.891-8.748 9.24-8.349 23.823.891 32.571 9.24 8.748 23.823 8.349 32.571-.891a23.039 23.039 0 006.309-15.851c.036-.72.036-1.44 0-2.16l36.72-19.68a88.007 88.007 0 01-21.44 42.24 71.28 71.28 0 01-53.04 19.84h-4a71.44 71.44 0 01-52.96-19.76c-25.28-25.2-24.72-66-24.72-66.4zm103.44 45.92a7.12 7.12 0 11-14.24 0 7.12 7.12 0 0114.24 0zm-32 152H16.266c6.32-60.08 104-85.2 134.56-91.68v14.32c0 18.16 22.08 32 52.48 34.32v43.04zm-36.48-77.36v-27.6a96.721 96.721 0 0042.48 8.96h4a96.721 96.721 0 0042.48-8.96v27.6c0 7.6-17.36 18.56-44.48 18.56s-44.48-10.96-44.48-18.56zm52.48 77.6v-43.36c30.4-2.08 52.48-16 52.48-34.32v-14c30.8 6.4 128 31.52 134.56 91.68h-187.04z"/></symbol><symbol viewBox="0 0 47.8 41.4" id="visa" xmlns="http://www.w3.org/2000/svg"><path d="M19.2 14.6l-2.5 14.2h3.9L23 14.6zm-5.7 0l-3.8 9.7-.4-1.5c-.8-1.8-2.9-4.3-5.4-5.9l3.5 11.9h4.1l6.1-14.2h-4.1z"/><path d="M7.8 15.6c-.2-.9-.9-1.1-1.7-1.2h-6l-.1.3c4.7 1.1 7.8 3.9 9.1 7.2l-1.3-6.3zm23.1 1.7c1.3 0 2.2.3 2.9.5l.4.2.5-3.1c-.8-.3-2-.6-3.5-.6-3.8 0-6.6 1.9-6.6 4.7 0 2 1.9 3.2 3.4 3.9 1.5.7 2 1.1 2 1.8 0 1-1.2 1.4-2.3 1.4-1.6 0-2.4-.2-3.7-.7l-.5-.2-.5 3.1c.9.4 2.6.7 4.3.8 4.1 0 6.7-1.9 6.8-4.9 0-1.6-1-2.9-3.3-3.9-1.4-.7-2.2-1.1-2.2-1.8.1-.6.8-1.2 2.3-1.2zm13.8-2.7h-3c-.9 0-1.6.3-2 1.2l-5.8 13.1H38s.7-1.8.8-2.1h5c.1.5.5 2.1.5 2.1h3.6l-3.2-14.3zm-4.8 9.2l1.5-4s.3-.8.5-1.4l.3 1.2s.7 3.4.9 4.1h-3.2z"/></symbol><symbol viewBox="0 0 512 512" id="wallet" xmlns="http://www.w3.org/2000/svg"><path d="M336 336c-5.52 0-10 4.48-10 10s4.48 10 10 10 10-4.48 10-10-4.48-10-10-10zm-136-10c-5.516 0-10-4.484-10-10s4.484-10 10-10c3.543 0 7.281 1.809 10.816 5.227 3.97 3.84 10.301 3.738 14.141-.235 3.84-3.969 3.734-10.297-.234-14.137-5.075-4.914-10.153-7.69-14.723-9.207V276c0-5.523-4.477-10-10-10s-10 4.477-10 10v11.719c-11.64 4.129-20 15.246-20 28.281 0 16.543 13.457 30 30 30 5.512 0 10 4.484 10 10s-4.488 10-10 10c-4.273 0-8.887-2.688-12.988-7.566-3.551-4.227-9.86-4.774-14.086-1.22-4.23 3.556-4.774 9.864-1.223 14.09 5.348 6.36 11.633 10.79 18.297 13.024V396c0 5.523 4.477 10 10 10s10-4.477 10-10v-11.719c11.637-4.129 20-15.246 20-28.281 0-16.543-13.457-30-30-30zm-80-160c5.523 0 10-4.477 10-10v-40c0-5.523-4.477-10-10-10s-10 4.477-10 10v40c0 5.523 4.477 10 10 10zm0 0"/><path d="M472 236v-80c0-27.57-22.43-50-50-50h-56V30c0-16.543-13.457-30-30-30H150c-16.543 0-30 13.457-30 30v36H90c-16.543 0-30 13.457-30 30v10H50c-27.57 0-50 22.43-50 50v306c0 27.57 22.43 50 50 50h306c24.145 0 44.348-17.203 48.992-40H422c27.57 0 50-22.43 50-50v-26h10c16.543 0 30-13.457 30-30v-90c0-22.055-17.945-40-40-40zm20 40c0 11.047-8.953 20-20 20v-40c11.027 0 20 8.973 20 20zm-70-150c16.543 0 30 13.457 30 30v140h-46v-60c0-24.145-17.203-44.348-40-48.992V126zM140 30c0-5.516 4.484-10 10-10h186c5.516 0 10 4.484 10 10v156h-46V96c0-16.543-13.457-30-30-30H140zm100 156V86h30c5.516 0 10 4.484 10 10v90zm-60 0V86h40v100zM80 96c0-5.516 4.484-10 10-10h70v100H80zm-30 30h10v60h-7.86C35.614 186 20 174.031 20 156c0-16.543 13.457-30 30-30zm306 366H50c-16.543 0-30-13.457-30-30V195.383C28.941 202.043 40.172 206 52.14 206H356c16.543 0 30 13.457 30 30v60h-70c-16.543 0-30 13.457-30 30v40c0 16.543 13.457 30 30 30h70v66c0 16.543-13.457 30-30 30zm96-70c0 16.543-13.457 30-30 30h-16v-56h46zm30-46H316c-5.516 0-10-4.484-10-10v-40c0-5.516 4.484-10 10-10h156c7.137 0 13.984-1.867 20-5.355V366c0 5.516-4.484 10-10 10zm0 0"/><path d="M422 336h-46c-5.523 0-10 4.477-10 10s4.477 10 10 10h46c5.523 0 10-4.477 10-10s-4.477-10-10-10zm0 0"/></symbol></svg>