<svg width="128" height="56" viewBox="0 0 128 56" fill="none" xmlns="http://www.w3.org/2000/svg">
<path d="M61.3753 27.2235C62.418 26.6584 63.517 25.999 64.6724 25.2454C65.8615 24.5606 66.9193 23.6869 67.8003 22.6618C68.6008 21.7575 69.0489 20.6164 69.0684 19.4323V19.1901C69.0684 16.6872 68.3752 14.9352 67.0817 13.9421C65.6831 12.8777 63.9213 12.3456 62.1362 12.4484C58.8983 12.4484 56.5989 13.5142 55.2462 15.5568C53.9095 17.8441 53.293 20.4515 53.4709 23.0655V23.7922H37.8312C37.8165 23.631 37.8165 23.4689 37.8312 23.3077C37.8055 22.9987 37.8055 22.6882 37.8312 22.3792L38.0003 19.2708C38.2081 16.3413 39.0425 13.4835 40.4519 10.874C41.8177 8.20864 43.8681 5.91708 46.4119 4.21311C44.9375 2.95479 43.2122 1.99365 41.3396 1.38727C38.3287 0.374428 35.146 -0.0911089 31.9557 0.0147206H0V55.6838H34.7878C35.3808 55.6969 35.9741 55.6699 36.5631 55.603H36.6899V55.5223C36.6899 54.8522 36.6899 54.1901 36.6899 53.5442C36.7357 51.7646 37.0343 49.9991 37.5776 48.2962C38.2811 46.0409 39.3974 43.9224 40.8746 42.039C42.5283 39.8899 44.476 37.9619 46.6655 36.3066C48.5052 34.8524 50.4549 33.5301 52.4987 32.3504C52.4987 32.2697 52.541 32.2293 52.6255 32.2293L53.8091 31.5027C56.3227 30.0494 58.8307 28.6095 61.3331 27.1832L61.3753 27.2235ZM31.9135 14.1036C32.458 14.4024 32.9045 14.8402 33.2032 15.3678C33.5018 15.8955 33.6407 16.4921 33.6043 17.0909C33.6043 18.8429 33.0717 20.062 31.998 20.7645C30.6028 21.4503 29.0422 21.7707 27.4752 21.693H18.0068V13.2558H27.4329C28.9764 13.1866 30.5142 13.4776 31.9135 14.1036ZM18.0068 42.4427V32.0678H29.2505C31.364 32.0678 32.942 32.4984 33.9847 33.3596C34.5099 33.8414 34.9183 34.4271 35.1812 35.0757C35.4441 35.7243 35.5551 36.42 35.5064 37.114C35.5064 39.2132 34.816 40.653 33.4352 41.4335C31.9313 42.2 30.2329 42.5496 28.5319 42.4427H18.0068Z" fill="#15357A"/>
<path d="M125.118 13.9026C125.082 12.3497 124.797 10.8113 124.273 9.3409C123.701 7.66537 122.765 6.12442 121.525 4.81955C119.93 3.25664 117.976 2.06828 115.819 1.34781C113.489 0.521473 111.032 0.0712575 108.548 0.015625C108.236 0.015625 107.897 0.015625 107.534 0.015625H64.5881C68.0176 0.106285 71.4115 0.70552 74.6482 1.79187C77.9261 2.90788 80.791 4.91437 82.8908 7.56466C84.9286 10.4125 85.9649 13.8057 85.8497 17.2533V17.7377C85.823 20.7324 84.9779 23.6686 83.398 26.2556C81.8278 28.7558 79.7427 30.9257 77.2689 32.6339C74.6889 34.5095 71.9454 36.1707 69.0686 37.5993C66.1661 39.1118 63.3482 40.6458 60.6147 42.2014H86.6528V55.6847H107.576C110.969 55.698 114.325 55.0238 117.425 53.7066C120.441 52.5377 123.049 50.5785 124.949 48.0549C127.019 45.3553 128.09 42.0745 127.992 38.7296C128.069 36.3672 127.577 34.0196 126.555 31.8669C125.666 30.1471 124.397 28.6321 122.835 27.4263C121.345 26.3012 119.656 25.4399 117.848 24.883C119.91 23.8884 121.704 22.4514 123.089 20.6846C124.493 18.6831 125.203 16.3105 125.118 13.9026V13.9026ZM101.954 13.2163C103.498 13.1471 105.036 13.4381 106.435 14.0641C106.979 14.363 107.426 14.8008 107.725 15.3284C108.023 15.856 108.162 16.4526 108.126 17.0514C108.126 18.8276 107.59 20.0387 106.519 20.6846C105.142 21.4231 103.574 21.773 101.997 21.6939H92.486V13.2163H101.912H101.954ZM102.969 42.4032H92.486V31.988H103.73C105.843 31.988 107.421 32.4321 108.464 33.3202C109.011 33.7961 109.437 34.3858 109.708 35.0437C109.979 35.7016 110.089 36.4102 110.028 37.1149C109.969 39.1898 109.284 40.6108 107.957 41.394C106.434 42.1922 104.699 42.5433 102.969 42.4032V42.4032Z" fill="#3AB8FA"/>
</svg>
