<svg width="16" height="16" viewBox="0 0 16 8" fill="none" xmlns="http://www.w3.org/2000/svg">
<path d="M3.99457 0.002008H0V7.59569H4.34859C4.42272 7.59748 4.49688 7.5938 4.57051 7.58468H4.58636V7.57367C4.58636 7.48226 4.58636 7.39195 4.58636 7.30384C4.59208 7.06108 4.62941 6.82026 4.69732 6.58797C4.78526 6.28033 4.9248 5.99136 5.10946 5.73444C5.31618 5.44128 5.55964 5.1783 5.83334 4.9525C6.06331 4.75413 6.30703 4.57376 6.56251 4.41284C6.56251 4.40183 6.56779 4.39632 6.57836 4.39632L6.72631 4.2972C7.04052 4.09896 7.35403 3.90256 7.66683 3.70799C7.79716 3.6309 7.93454 3.54095 8.07897 3.43816C8.22761 3.34475 8.35985 3.22556 8.46997 3.08574C8.57082 2.96459 8.62865 2.811 8.63377 2.65071V2.61767C8.63377 2.27626 8.54712 2.03727 8.38543 1.90181C8.2106 1.75661 7.99037 1.68403 7.76722 1.69806C7.36248 1.69806 7.07504 1.84344 6.90596 2.12207C6.73886 2.43408 6.66179 2.78975 6.68404 3.14631V3.24543H4.72902C4.72718 3.22345 4.72718 3.20134 4.72902 3.17935C4.72581 3.1372 4.72581 3.09485 4.72902 3.0527L4.75016 2.62868C4.77614 2.22908 4.88044 1.83926 5.05662 1.4833C5.22735 1.11972 5.48366 0.807135 5.80164 0.574701C5.61733 0.403056 5.40167 0.271949 5.16758 0.189234C4.79122 0.0510748 4.39336 -0.0124279 3.99457 0.002008ZM2.25091 1.80819H3.4292C3.62214 1.79875 3.81438 1.83844 3.98929 1.92383C4.05735 1.9646 4.11317 2.02432 4.1505 2.09629C4.18783 2.16826 4.20519 2.24965 4.20064 2.33133C4.20064 2.57031 4.13406 2.73662 3.99986 2.83243C3.82545 2.92599 3.63037 2.96969 3.43449 2.95908H2.25091V1.80819ZM4.2482 4.55051C4.31385 4.61622 4.3649 4.69612 4.39777 4.7846C4.43063 4.87307 4.4445 4.96797 4.43841 5.06263C4.43841 5.34897 4.35211 5.54538 4.17951 5.65184C3.99152 5.75641 3.77921 5.80409 3.56658 5.78951H2.25091V4.3743H3.65641C3.9206 4.3743 4.11786 4.43303 4.2482 4.55051Z" fill="#15357A"/>
<path d="M15.1921 0.657368C14.9927 0.444174 14.7485 0.282073 14.4788 0.183795C14.1876 0.0710767 13.8805 0.00966389 13.57 0.0020752C13.5309 0.0020752 13.4886 0.0020752 13.4432 0.0020752H8.07481C8.5035 0.014442 8.92775 0.0961821 9.33236 0.244368C9.7421 0.3966 10.1002 0.670302 10.3627 1.03182C10.6174 1.42029 10.747 1.88314 10.7326 2.35342V2.4195C10.7292 2.828 10.6236 3.22852 10.4261 3.5814C10.2298 3.92245 9.96918 4.21844 9.65995 4.45146C9.33744 4.7073 8.9945 4.9339 8.63489 5.12878C8.27207 5.33509 7.91981 5.54434 7.57812 5.75653H10.833V7.59576H13.4485C13.8725 7.59757 14.2921 7.50561 14.6796 7.32593C15.0566 7.16649 15.3826 6.89924 15.6201 6.555C15.8789 6.18675 16.0127 5.73923 16.0005 5.28296C16.0101 4.96071 15.9486 4.64047 15.8209 4.34683C15.7098 4.11224 15.5511 3.90558 15.3559 3.7411C15.1696 3.58763 14.9584 3.47014 14.7324 3.39418C14.9903 3.2585 15.2145 3.06249 15.3876 2.82149C15.5631 2.54845 15.6519 2.22483 15.6412 1.89637C15.6367 1.68454 15.6011 1.47469 15.5356 1.27411C15.4642 1.04556 15.3471 0.835361 15.1921 0.657368V0.657368ZM13.3005 1.91839C13.3686 1.95916 13.4244 2.01888 13.4617 2.09085C13.4991 2.16282 13.5164 2.24421 13.5119 2.32589C13.5119 2.56818 13.4449 2.73338 13.3111 2.82149C13.1389 2.92221 12.9429 2.96995 12.7457 2.95915H11.5621V1.80275H12.7404C12.9334 1.79331 13.1256 1.833 13.3005 1.91839V1.91839ZM11.5621 4.36335H12.9676C13.2318 4.36335 13.4291 4.42392 13.5594 4.54507C13.6278 4.61 13.6811 4.69043 13.715 4.78018C13.7489 4.86992 13.7625 4.96658 13.7549 5.0627C13.7475 5.34574 13.6619 5.53957 13.496 5.6464C13.3063 5.75719 13.0894 5.807 12.8725 5.78957H11.5621V4.36335Z" fill="#3AB8FA"/>
</svg>
