<svg id="Слой_1" xmlns="http://www.w3.org/2000/svg" viewBox="0 0 551.1 166.8"><style>.st0{fill:#d05533}.st1{fill:url(#SVGID_1_)}.st2{fill:#fff}.st3{fill:#6cf}.st4{fill:#006}.st5{fill:#f0993c}.st6{fill:url(#SVGID_2_)}.st7{fill:#fff;stroke:#fff;stroke-width:1.7;stroke-linecap:round;stroke-linejoin:round}</style><g id="Layer0_0_FILL"><path class="st0" d="M83.8 83.8v16.3l47.8 30.6-47.8-46.9z"/><linearGradient id="SVGID_1_" gradientUnits="userSpaceOnUse" x1="37.774" y1="601.086" x2="56.399" y2="758.311" gradientTransform="translate(0 -591.3)"><stop offset="0" stop-color="#2fdfdd"/><stop offset=".577" stop-color="#2180dd"/><stop offset="1" stop-color="#001f78"/></linearGradient><path class="st1" d="M83.8 0C60.3 0 40.5 8.1 24.3 24.3 10.4 38.2 2.5 54.7.5 73.9c-.3 3.2-.5 6.5-.5 9.9 0 3.3.2 6.5.5 9.6 2 18.8 9.9 35.1 23.8 49.1 16.2 16.2 36 24.3 59.5 24.3V0M71.9 40.2c4.4 4.4 6.5 9.7 6.5 15.8 0 6-2.2 11.3-6.5 15.7-4.4 4.4-9.6 6.6-15.7 6.6s-11.4-2.2-15.9-6.6C36.1 67.3 34 62 34 56c0-.5.1-1 .1-1.4.2-4.7 1.7-8.9 4.7-12.6.4-.6.9-1.2 1.4-1.8 4.5-4.3 9.8-6.5 15.9-6.5s11.4 2.2 15.8 6.5z"/><path class="st2" d="M78.4 56.1c0-6.1-2.2-11.4-6.5-15.8-4.4-4.3-9.6-6.5-15.7-6.5S44.8 36 40.3 40.3c-.5.6-1 1.2-1.4 1.8-3 3.7-4.5 7.9-4.7 12.6-.1.4-.1.9-.1 1.4 0 6 2.1 11.3 6.3 15.7 4.5 4.4 9.8 6.6 15.9 6.6s11.3-2.2 15.7-6.6c4.2-4.5 6.4-9.7 6.4-15.7M67.8 44.3c3.3 3.3 5 7.3 5 11.8s-1.7 8.4-5 11.6c-3.3 3.3-7.1 4.9-11.5 4.9-4.6 0-8.6-1.6-11.9-4.9-3.1-3.2-4.7-7.1-4.7-11.6 0-.4 0-.7.1-1.1.1-3.5 1.3-6.6 3.6-9.3.3-.5.7-1 1.1-1.5 3.3-3.1 7.3-4.7 11.9-4.7 4.3.1 8.1 1.6 11.4 4.8z"/><path class="st3" d="M72.8 56.1c0-4.5-1.7-8.5-5-11.8-3.3-3.1-7.1-4.7-11.5-4.7-4.6 0-8.6 1.6-11.9 4.7-.4.5-.7 1-1.1 1.5-2.3 2.7-3.4 5.8-3.6 9.3-.1.3-.1.7-.1 1.1 0 4.5 1.6 8.4 4.7 11.6 3.3 3.3 7.3 4.9 11.9 4.9 4.4 0 8.3-1.6 11.5-4.9 3.4-3.4 5.1-7.2 5.1-11.7m-8.9-8c2.3 2.2 3.4 4.8 3.4 7.9 0 3.1-1.1 5.7-3.4 7.9-2.2 2.2-4.8 3.3-7.9 3.3-3.1 0-5.7-1.1-7.9-3.3s-3.3-4.8-3.3-7.9v-.6c.1-2.1.8-4.1 2.1-5.8.4-.5.8-1.1 1.3-1.6 2.2-2.2 4.8-3.3 7.9-3.3 3 .1 5.6 1.2 7.8 3.4z"/><path class="st4" d="M56 44.8c-3.1 0-5.7 1.1-7.9 3.3-.4.5-.9 1-1.3 1.6-1.2 1.7-1.9 3.6-2.1 5.8v.6c0 3.1 1.1 5.7 3.3 7.9 2.2 2.2 4.8 3.3 7.9 3.3 3.1 0 5.7-1.1 7.9-3.3 2.3-2.3 3.5-5 3.5-8s-1.1-5.7-3.4-7.9c-2.2-2.2-4.8-3.3-7.9-3.3z"/><path class="st5" d="M132.5 131.6l-1-.9-47.8-30.6v52.3c18.7-1.9 35-8.8 48.8-20.8z"/><linearGradient id="SVGID_2_" gradientUnits="userSpaceOnUse" x1="82.787" y1="662.1" x2="165.787" y2="662.1" gradientTransform="translate(0 -591.3)"><stop offset="0" stop-color="#fceb43"/><stop offset="1" stop-color="#f18750"/></linearGradient><path class="st6" d="M131.5 130.7l1 .9 10.9 10c15.6-16.3 23.4-35.5 23.4-57.8 0-23.4-8.1-43.3-24.3-59.5C126.2 8.1 106.6 0 83.8 0v83.8l47.7 46.9z"/></g><path id="Layer0_0_1_STROKES" class="st7" d="M471.4 97.6c0-6.7.8-12.9 2.5-18.4 1.6-5.5 4.2-10.4 7.6-14.5 3.5-4 7.9-7.1 13.3-9.3 5.4-2.3 11.9-3.4 19.4-3.4 8 0 14.4 1.3 19.2 3.8s8.4 5.9 11 10.2c2.7 4.4 4.5 9.5 5.5 15.4.9 5.9 1.3 12.2 1.3 19h-64c0 4 .3 8 1 12.1.8 4.1 2.2 7.8 4.1 11.2 1.9 3.4 4.6 6.2 8.2 8.4 3.7 2.2 8.3 3.3 13.9 3.3 5.3 0 10.4-.9 15.5-2.7 5.2-1.7 10.9-4.9 17.1-9.5v11.7c-4.7 2.7-9.8 4.8-15.5 6.1-5.8 1.5-11.5 2.2-17.1 2.2-7.4 0-13.8-1.1-19.2-3.4-5.2-2.3-9.6-5.4-13.2-9.4s-6.2-8.9-7.9-14.5c-1.9-5.5-2.7-11.6-2.7-18.3zm64.4-5.1c0-4.2-.3-8.3-.8-12.3-.4-4-1.3-7.5-2.8-10.5-1.4-3.1-3.7-5.4-6.7-7.1-3-1.8-7-2.8-12.1-2.8-4.8 0-8.8.9-12.1 2.8-3.4 1.9-6.1 4.4-8.2 7.4s-3.7 6.4-4.8 10.3c-.9 3.9-1.4 8-1.4 12.2h48.9zm-147.9 5.1c0-6.7.8-12.9 2.5-18.4 1.6-5.5 4.3-10.4 8-14.5 3.6-4 8-7.1 13.3-9.3 5.5-2.3 11.9-3.4 19.2-3.4 4.2 0 8.8.5 13.8 1.4 4.9.9 10.1 2.4 15.4 4.6v11.5c-6-4-11.3-6.7-16.1-7.9-4.7-1.1-9-1.7-13-1.7-5.7 0-10.4 1.2-14.2 3.4-3.5 2.3-6.3 5.3-8.3 9-1.9 3.7-3.3 7.8-4 12.3-.6 4.4-1 8.7-1 13.1 0 4.3.3 8.7 1 13.1.8 4.5 2.1 8.5 4 12.3 2 3.5 4.8 6.5 8.3 8.9 3.7 2.3 8.5 3.5 14.2 3.5 4 0 8.8-.9 14.2-2.7 5.4-1.7 10.8-4.9 16.1-9.5V135c-4.8 3.2-9.9 5.4-15.1 6.5-5.2 1.2-10.3 1.8-15.2 1.8-7.3 0-13.7-1.1-19.2-3.4-5.3-2.3-9.7-5.4-13.3-9.4-3.7-4-6.3-8.9-8-14.5-1.7-5.6-2.6-11.7-2.6-18.4zm-128.1 36.7c8 0 14.1-2.1 18.2-6.4 4.2-4.1 6.3-9.6 6.3-16.6 0-4.1-.9-7.6-2.6-10.4-1.7-3-4-5.4-6.7-7.4-2.3-1.8-4.9-3.4-7.6-4.8l-25-13c-4-2.2-7.6-4.8-10.8-7.7-1.4-1.3-2.7-2.7-3.8-4.2-1.6-1.6-3-3.3-4.3-5.3-2.1-3.2-3.2-6.9-3.2-11.1 0-4.1 1-7.6 2.9-10.7 2-3.1 4.7-5.7 8-7.8 3.4-2 7.4-3.6 12.1-4.9 4.6-1.2 9.6-1.8 15-1.8 3.4 0 6.7.1 9.8.4 3.1.3 6.1.6 9 .9 2.8.6 5.7 1.2 8.5 2 .5.2 1.1.4 1.8.6 1 .2 2 .4 3.1.8v9.8c-1-.5-2.1-1-3.1-1.5-2.9-1.3-5.8-2.4-8.6-3.2-5.3-1.7-10.8-2.5-16.6-2.5-8.4 0-14.6 1.5-18.4 4.6-3.9 3.2-5.9 7.2-5.9 12 0 2.6.6 4.8 1.7 6.7.9 1.3 1.9 2.4 2.9 3.6 3.1 2.7 6.5 5 10.1 6.8.7.2 1.3.4 2 .8l12.8 6.6c2.8 1.3 5.8 2.7 8.8 4.1 4.6 2.1 8.8 4.6 12.6 7.6 3.8 2.8 6.9 6.4 9.4 10.6 2.4 4.3 3.6 9.7 3.6 16.2 0 5.1-1.1 9.8-3.2 14-2.1 4.1-5.1 7.7-8.8 10.8-3.8 3-8.2 5.3-13.4 6.8-5.1 1.7-10.9 2.6-17.3 2.6-7.9 0-15-.9-21.4-2.8-6.3-1.8-12.6-5-18.8-9.5v-13.5c7.1 6.5 13.9 11 20.4 13.4 6.5 2.2 13.3 3.4 20.5 3.4zm97.8-116.7h15.5c.1 8.5-5.1 13.8-15.5 15.9V17.6zM332.1 119c0 5.2 1.3 9.3 3.8 12.1 2.7 2.8 6.5 4.2 11.5 4.2v6.8H340c-6.7 0-12.3-2.1-16.6-6.4-4.6-4.2-6.9-10.1-6.9-17.6v-102h15.6V119zm25.5-66h15.5v89.1h-15.5V53z"/></svg>