<svg id="Logo" xmlns="http://www.w3.org/2000/svg" viewBox="0 0 100 125"><style>.st0{fill:#f0993c}.st1{fill:#d05533}.st2{fill:url(#SVGID_1_)}.st3{fill:url(#SVGID_2_)}.st4{fill:#fff}.st5{fill:#6cf}.st6{fill:#006}</style><path class="st0" d="M50.3 61.2v31.2c11.2-1.1 20.9-5.2 29.1-12.4l-.6-.6-28.5-18.2z" id="b-03_1_"/><g id="b-02_1_"><path class="st1" d="M50.3 51.6v9.7l28.6 18.4-28.6-28.1z"/><linearGradient id="SVGID_1_" gradientUnits="userSpaceOnUse" x1="49.802" y1="-134.878" x2="99.46" y2="-134.878" gradientTransform="translate(0 178.7)"><stop offset="0" stop-color="#fceb43"/><stop offset="1" stop-color="#f18750"/></linearGradient><path class="st2" d="M50.3 1.5v50.1l28.6 28.1 7.1 6.5c9.3-9.7 13.9-21.2 14-34.4 0-14-4.8-25.9-14.5-35.6C75.8 6.3 64 1.5 50.3 1.5z"/></g><g id="b-01_1_"><g><linearGradient id="SVGID_2_" gradientUnits="userSpaceOnUse" x1="22.929" y1="-170.653" x2="36.67" y2="-54.739" gradientTransform="translate(0 178.7)"><stop offset="0" stop-color="#2fdfdd"/><stop offset=".577" stop-color="#2180dd"/><stop offset="1" stop-color="#001f78"/></linearGradient><path class="st3" d="M14.8 16C5.1 25.7.3 37.6.3 51.6c0 13.6 4.8 25.3 14.5 35 9.7 10.9 35.5 37.9 35.5 37.9V1.5C36.4 1.5 24.5 6.3 14.8 16z"/></g><g><circle class="st4" cx="34" cy="35.1" r="13.2"/><circle class="st5" cx="34" cy="35.1" r="10.2"/><circle class="st6" cx="33.9" cy="35.1" r="6.7"/></g></g></svg>