<?xml version="1.0" encoding="utf-8"?><svg xmlns="http://www.w3.org/2000/svg" xmlns:xlink="http://www.w3.org/1999/xlink"><symbol viewBox="0 0 512 512" id="24-hours" xmlns="http://www.w3.org/2000/svg"><path d="M63.26 340.44c-7.81 7.81-7.81 20.48 0 28.29 3.9 3.9 9.02 5.85 14.14 5.85s10.24-1.95 14.14-5.85c7.81-7.81 7.81-20.47 0-28.29-7.81-7.81-20.47-7.81-28.28 0zm-36.05-67.89c-10.2 4.23-15.04 15.93-10.81 26.14 3.19 7.69 10.64 12.34 18.48 12.34 2.55 0 5.15-.49 7.65-1.53 10.21-4.23 15.05-15.93 10.82-26.13-4.24-10.21-15.94-15.05-26.14-10.82zm-9.453-36.686c.099.011.197.026.296.035A18 18 0 0020 236c.642 0 1.294-.03 1.946-.098.1-.01.199-.024.299-.036a19.855 19.855 0 007.716-2.54 19.665 19.665 0 001.475-.931c.382-.265.754-.542 1.111-.83.119-.096.236-.194.353-.292a18.479 18.479 0 001.342-1.238 20.055 20.055 0 002.516-3.135c.199-.307.389-.621.57-.939a19.83 19.83 0 002.538-7.714c.011-.1.026-.198.036-.299.068-.654.098-1.306.098-1.948 0-97.047 78.953-176 176-176s176 78.953 176 176v53.773l-39.977-39.978c-7.811-7.811-20.474-7.812-28.284 0-7.811 7.81-7.811 20.474 0 28.284l43.174 43.175c12.477 12.477 28.866 18.715 45.255 18.715 16.389 0 32.778-6.238 45.255-18.715l41.719-41.719c7.811-7.811 7.811-20.474 0-28.284-7.811-7.81-20.474-7.811-28.284 0L432 270.109V216c0-57.696-22.468-111.938-63.265-152.735C327.938 22.468 273.696 0 216 0 158.304 0 104.062 22.468 63.265 63.265S0 158.304 0 216c0 .642.03 1.294.098 1.947.01.099.024.196.035.295a19.836 19.836 0 002.538 7.714c.182.32.373.635.573.943.454.697.947 1.364 1.482 1.997a18.298 18.298 0 001.232 1.336c.366.362.752.713 1.15 1.045a18.812 18.812 0 001.458 1.117 19.447 19.447 0 001.475.931 19.838 19.838 0 007.716 2.539zM148.61 378.64c-10.2-4.23-21.9.61-26.14 10.81-4.23 10.2.61 21.91 10.81 26.14 2.51 1.04 5.11 1.53 7.66 1.53 7.85 0 15.29-4.64 18.48-12.34 4.23-10.2-.61-21.91-10.81-26.14zm87 29.45a20.157 20.157 0 00-1.14-3.74c-.25-.6-.53-1.2-.83-1.77-.31-.58-.65-1.14-1.01-1.68-.36-.55-.75-1.08-1.16-1.58-.42-.51-.86-1-1.32-1.46-.46-.46-.96-.91-1.46-1.32-.51-.41-1.04-.81-1.58-1.17-.55-.36-1.11-.7-1.69-1-.57-.31-1.17-.59-1.77-.84a20.157 20.157 0 00-3.74-1.14 19.85 19.85 0 00-9.71.48c-.62.19-1.24.41-1.85.66-.6.25-1.19.53-1.77.84-.57.3-1.14.64-1.68 1s-1.07.76-1.58 1.17c-.51.41-1 .86-1.46 1.32s-.91.95-1.32 1.46c-.41.5-.8 1.03-1.17 1.58-.35.54-.69 1.1-1 1.68-.3.57-.59 1.17-.83 1.77-.25.6-.48 1.22-.66 1.84-.19.63-.36 1.27-.48 1.9-.13.64-.23 1.3-.3 1.94-.06.66-.1 1.32-.1 1.97 0 .65.04 1.31.1 1.97.07.64.17 1.3.3 1.94.12.64.29 1.27.48 1.9.18.62.41 1.24.66 1.84.24.6.53 1.2.83 1.77.31.58.65 1.14 1 1.68.37.55.76 1.08 1.17 1.58.41.51.86 1 1.32 1.46.46.46.95.91 1.46 1.32.51.41 1.04.81 1.58 1.17.54.36 1.11.7 1.68 1 .58.31 1.17.59 1.77.84.61.25 1.23.47 1.85.66s1.26.35 1.9.48c.64.13 1.29.23 1.94.29.65.07 1.31.1 1.96.1.66 0 1.32-.03 1.97-.1.65-.06 1.3-.16 1.94-.29a20.308 20.308 0 003.74-1.14c.6-.25 1.2-.53 1.77-.84.58-.3 1.14-.64 1.69-1 .54-.36 1.07-.76 1.58-1.17.5-.41 1-.86 1.46-1.32s.9-.95 1.32-1.46c.41-.5.8-1.03 1.16-1.58.36-.54.7-1.1 1.01-1.68.3-.57.58-1.17.83-1.77a20.157 20.157 0 001.14-3.74c.13-.64.23-1.3.29-1.94.07-.66.1-1.32.1-1.97 0-.65-.03-1.31-.1-1.97-.06-.64-.16-1.3-.29-1.94zM354 472h-14.325c29.215-33.117 33.036-49.442 33.036-60 0-27.57-22.43-50-50-50-.12 0-.236.016-.355.018-.12-.002-.236-.018-.356-.018-27.57 0-50 22.43-50 50 0 11.046 8.954 20 20 20s20-8.954 20-20c0-5.42 4.58-10 10-10 .12 0 .236-.016.355-.018.12.002.235.018.355.018 5.351 0 9.881 4.462 9.998 9.79-.195 1.029-2.658 11.331-26.191 37.282-13.94 15.374-27.811 27.984-27.945 28.106A20.001 20.001 0 00292 512h62c11.046 0 20-8.954 20-20s-8.954-20-20-20zm138-110c-11.046 0-20 8.954-20 20v24.5c0 7.995-6.505 14.5-14.5 14.5s-14.5-6.505-14.5-14.5V382c0-11.046-8.954-20-20-20s-20 8.954-20 20v24.5c0 30.051 24.449 54.5 54.5 54.5 5.021 0 9.88-.697 14.5-1.974V492c0 11.046 8.954 20 20 20s20-8.954 20-20V382c0-11.046-8.954-20-20-20z"/><path d="M216 80c-11.046 0-20 8.954-20 20v107.716l-50.142 50.142c-7.811 7.81-7.811 20.473 0 28.284C149.763 290.047 154.881 292 160 292s10.237-1.953 14.142-5.858l56-56A19.998 19.998 0 00236 216V100c0-11.046-8.954-20-20-20z"/></symbol><symbol viewBox="0 0 200 200" id="arrow-top" xmlns="http://www.w3.org/2000/svg"><path d="M101 44l80.6 80.6c2.7 2.7 4 6.2 4 9.7s-1.3 7-4 9.7c-5.4 5.4-14.1 5.4-19.5 0L101 82.9 39.9 144c-5.4 5.4-14.1 5.4-19.5 0s-5.4-14.1 0-19.5L101 44z"/></symbol><symbol viewBox="0 0 512 512" id="bank-check" xmlns="http://www.w3.org/2000/svg"><path d="M97.28 269.454v38.533H76.268c-7.068 0-12.8 5.731-12.8 12.8 0 7.069 5.732 12.8 12.8 12.8H97.28v9.494c0 7.069 5.732 12.8 12.8 12.8 7.068 0 12.8-5.731 12.8-12.8v-10.46c24.818-3.843 41.244-18.936 41.244-39.329v-8.174c0-20.393-16.426-35.488-41.244-39.331v-38.533h21.012c7.068 0 12.8-5.731 12.8-12.8 0-7.069-5.732-12.8-12.8-12.8H122.88v-9.494c0-7.069-5.732-12.8-12.8-12.8-7.068 0-12.8 5.731-12.8 12.8v10.523c-24.517 4.027-41.244 19.615-41.244 40.01v7.432c0 20.391 16.426 35.487 41.244 39.329zm25.6 2.417c8.85 2.134 15.644 6.597 15.644 13.245v8.174c0 6.647-6.794 11.11-15.644 13.244v-34.663zm-41.244-49.178c0-6.87 6.879-11.572 15.644-13.853v34.528c-8.85-2.134-15.644-6.597-15.644-13.244v-7.431z"/><path d="M499.2 115.2H12.8C5.732 115.2 0 120.931 0 128v256c0 7.069 5.732 12.8 12.8 12.8h486.4c7.068 0 12.8-5.731 12.8-12.8V128c0-7.069-5.732-12.8-12.8-12.8zm-12.8 256H25.6V140.8h460.8v230.4z"/><path d="M218.24 215.68h131.84c7.068 0 12.8-5.731 12.8-12.8 0-7.069-5.732-12.8-12.8-12.8H218.24c-7.068 0-12.8 5.731-12.8 12.8 0 7.069 5.732 12.8 12.8 12.8zm0 51.2H438.4c7.068 0 12.8-5.731 12.8-12.8 0-7.069-5.732-12.8-12.8-12.8H218.24c-7.068 0-12.8 5.731-12.8 12.8 0 7.069 5.732 12.8 12.8 12.8zm220.16 25.6h-74.24c-7.068 0-12.8 5.731-12.8 12.8 0 7.069 5.732 12.8 12.8 12.8h74.24c7.068 0 12.8-5.731 12.8-12.8 0-7.069-5.732-12.8-12.8-12.8z"/></symbol><symbol viewBox="0 0 512 512" id="brain" xmlns="http://www.w3.org/2000/svg"><path d="M460.973 440.671c-3.492-10.479-14.818-16.14-25.298-12.649-10.479 3.493-16.142 14.819-12.649 25.298 9.854 29.565 24.156 49.549 24.76 50.385 3.91 5.414 10.026 8.292 16.23 8.292 4.057 0 8.152-1.231 11.693-3.788 8.954-6.468 10.97-18.969 4.503-27.924-.112-.155-11.426-16.174-19.239-39.614z"/><path d="M511.997 222.998c0-20.749-8.642-39.9-23.355-53.218a72.504 72.504 0 003.035-20.793c0-35.871-26.37-65.691-60.74-71.113C424.71 44.422 395.164 19 359.738 19a70.712 70.712 0 00-41.313 13.295C304.007 12.559 280.808 0 255.375 0c-25.622 0-48.405 12.465-62.677 31.685C181.012 23.561 167.001 19 152.262 19c-35.426 0-64.971 25.422-71.198 58.874-34.371 5.421-60.741 35.243-60.741 71.113 0 8.556 2.011 18.736 5.291 27.893C9.185 193.07.003 212.921.003 232.998c0 39.701 32.299 71.999 71.999 71.999 13.625 0 24.095-1.482 33.332-2.79 10.12-1.433 19.189-2.706 32.145-2.223 10.18 27.42 36.604 47.013 67.522 47.013 15.939 0 33.589-.373 51.909-1.906.61.701 1.255 1.381 1.976 2.007 37.974 32.975 77.239 67.071 116.947 153.266 3.373 7.322 10.612 11.637 18.178 11.637 2.8 0 5.646-.591 8.355-1.84 10.032-4.621 14.418-16.501 9.797-26.533-18.339-39.81-36.89-69.686-55.164-93.496 22.823 5.639 45.861 8.865 66.499 8.865 38.874 0 70.499-31.626 70.499-70.499 0-16.824-5.965-32.291-15.907-44.424 20.349-12.737 33.907-35.351 33.907-61.076zm-71.999 31.999c-1.165 0-2.328.102-3.476.305l-17 3c-10.212 1.802-17.353 11.109-16.448 21.439.905 10.33 9.554 18.256 19.924 18.256 17.093 0 31 13.683 31 30.5s-13.682 30.5-30.5 30.5c-32.38 0-72.806-9.638-105.513-24.128 11.279-3.052 22.39-6.847 33.097-11.578 10.103-4.465 14.674-16.273 10.21-26.377-4.465-10.104-16.273-14.676-26.377-10.211-40.707 17.987-90.811 20.294-129.915 20.294-17.645 0-32-14.355-32-32s14.355-32 32-32c28.001 0 49.221-4.393 64.874-13.43C288.012 219.097 298 202.204 298 181.998c0-33.084-26.916-59.999-59.999-59.999-11.046 0-20 8.954-20 20s8.954 20 20 20c11.028 0 20 8.972 20 20 0 18.271-33.206 21-52.999 21-34.528 0-63.444 24.435-70.397 56.917-14.412-.198-25.118 1.306-34.877 2.688-8.7 1.231-16.917 2.395-27.725 2.395-17.645 0-32-14.355-32-32 0-16.506 14.747-29.234 21.087-33.94a20 20 0 008.048-17.165l-.166-3a19.993 19.993 0 00-2.891-9.302c-3.067-5.034-5.758-14.662-5.758-20.604 0-15.021 10.405-27.65 24.385-31.077 10.49 26.93 36.807 46.087 67.555 46.087 11.046 0 20-8.954 20-20s-8.954-20-20-20c-17.88 0-32.427-14.355-32.427-32 0-.169-.021-.332-.025-.5.004-.168.025-.331.025-.5 0-17.645 14.546-32 32.427-32 10.173 0 19.29 4.782 25.21 12.992a79.797 79.797 0 00-.305 6.717c0 11.046 8.954 20 20 20s20-8.954 20-20c0-21.344 17.14-38.709 38.208-38.709 18.015 0 33.758 13.032 37.432 30.987a19.998 19.998 0 0019.339 15.988l1.766.022c7.555.05 14.515-4.071 18-10.772 5.608-10.786 16.011-17.225 27.828-17.225 17.88 0 32.427 14.355 32.427 32s-14.355 32-32 32c-11.046 0-20 8.954-20 20s8.954 20 20 20c30.218 0 56.129-18.721 66.792-45.167 14.148 3.306 24.72 16.015 24.72 31.155 0 5.933-1.588 11.674-4.592 16.604a19.992 19.992 0 00-2.921 10.407v1a19.999 19.999 0 0010.929 17.824c10.585 5.388 16.905 15.921 16.905 28.176-.003 17.646-14.358 32-32.003 32z"/></symbol><symbol viewBox="0 0 485.211 485.211" id="camera" xmlns="http://www.w3.org/2000/svg"><path d="M318.423 257.771c0 41.873-33.943 75.812-75.816 75.812-41.875 0-75.812-33.939-75.812-75.812 0-41.878 33.937-75.817 75.812-75.817 41.872.001 75.816 33.94 75.816 75.817zm166.788-121.304v242.606c0 16.76-13.563 30.322-30.322 30.322H30.327C13.562 409.396 0 395.833 0 379.073V136.467c0-16.762 13.564-30.326 30.327-30.326h30.324c0-16.762 13.579-30.325 30.327-30.325h30.327c16.746 0 30.324 13.562 30.324 30.325h303.26c16.758 0 30.322 13.564 30.322 30.326zM348.745 257.771c0-58.521-47.618-106.144-106.139-106.144S136.465 199.25 136.465 257.771c0 58.516 47.621 106.134 106.141 106.134s106.139-47.618 106.139-106.134zm75.817-121.304h-60.653v30.327h60.653v-30.327z"/></symbol><symbol viewBox="0 0 612 612" id="cloud-up-arrow" xmlns="http://www.w3.org/2000/svg"><path d="M494.7 255c-17.85-86.7-94.35-153-188.7-153-73.95 0-137.7 40.8-168.3 102C58.65 214.2 0 277.95 0 357c0 84.15 68.85 153 153 153h331.5c71.4 0 127.5-56.1 127.5-127.5 0-66.3-53.55-122.4-117.3-127.5zM357 331.5v102H255v-102h-76.5L306 204l127.5 127.5H357z"/></symbol><symbol id="clover" viewBox="0 0 35 35" xml:space="preserve" xmlns="http://www.w3.org/2000/svg"><style>.gst0{fill:#fff}</style><path class="gst0" d="M16.4 9.5C16.4 5.4 13.1 2 9 2 4.9 2 1.5 5.3 1.5 9.4s3.3 7.5 7.4 7.5h7.6l-.1-7.4zm2.2 0C18.5 5.4 21.9 2 26 2c4.1 0 7.5 3.3 7.5 7.4 0 4.1-3.3 7.5-7.4 7.5h-7.6V9.5zm0 17.1c0 4.1 3.3 7.5 7.4 7.5 4.1 0 7.5-3.3 7.5-7.4 0-4.1-3.3-7.5-7.4-7.5h-7.6v7.4zm-2.2 0c0 4.1-3.3 7.5-7.4 7.5s-7.5-3.3-7.5-7.4 3.3-7.5 7.4-7.5h7.6l-.1 7.4zm-7.5 5.3c3 0 5.4-2.4 5.4-5.3v-5.3H9c-3 0-5.4 2.4-5.4 5.3s2.4 5.3 5.3 5.3c0 0 .1 0 0 0z" id="gclover-symbol-2"/></symbol><symbol viewBox="0 0 501.007 501.007" id="colored-chart" xmlns="http://www.w3.org/2000/svg"><path d="M451.72 246.4c10.667 92.8-36.267 186.667-123.733 230.4-112 56.533-248.533 10.667-304-102.4S13.319 124.8 125.32 68.267c42.667-21.333 88.533-27.733 133.333-21.333l-22.4 221.867L451.72 246.4z" fill="#e0e0df"/><path d="M284.253 221.867L306.653 0c71.467 10.667 136.533 54.4 171.733 123.733 11.733 24.533 19.2 50.133 22.4 75.733l-216.533 22.401z" fill="#53c2ef"/></symbol><symbol viewBox="0 0 512 512" id="colored-money" xmlns="http://www.w3.org/2000/svg"><path d="M488.533 404.267H144c-11.733 0-21.333-9.6-21.333-21.333v-166.4c0-11.733 9.6-21.333 21.333-21.333h344.533c11.733 0 21.333 9.6 21.333 21.333v166.4c.001 11.733-9.599 21.333-21.333 21.333z" fill="#4cdbc4"/><path d="M440.533 225.067H192c0 21.333-18.133 39.467-39.467 39.467v70.4c21.333 0 39.467 18.133 39.467 39.467h248.533c0-21.333 18.133-39.467 39.467-39.467v-70.4c-21.333-.001-39.467-18.134-39.467-39.467z" fill="#f2f2f2"/><ellipse cx="316.8" cy="299.733" rx="38.4" ry="56.533" fill="#4cdbc4"/><path d="M312.533 331.733c-9.6-1.067-17.067-4.267-21.333-9.6l7.467-10.667c3.2 3.2 8.533 6.4 14.933 7.467v-13.867c-9.6-2.133-19.2-5.333-19.2-18.133 0-9.6 7.467-17.067 19.2-18.133v-8.533h8.533v8.533c7.467 1.067 13.867 3.2 19.2 8.533l-7.467 9.6c-3.2-3.2-7.467-5.333-11.733-6.4v12.8c9.6 2.133 20.267 6.4 20.267 18.133 0 10.667-6.4 18.133-20.267 19.2v8.533H313.6v-7.467h-1.067zm0-40.533v-10.667c-4.267 1.067-6.4 3.2-6.4 5.333 1.067 3.201 3.2 4.267 6.4 5.334zm9.6 16V320c4.267-1.067 6.4-3.2 6.4-6.4s-3.2-5.333-6.4-6.4z" fill="#f2f2f2"/><circle cx="244.267" cy="299.733" r="13.867" fill="#4cdbc4"/><circle cx="389.333" cy="299.733" r="13.867" fill="#4cdbc4"/><path d="M491.733 238.933L473.6 195.2h-11.733l19.2 48c4.267 10.667-1.067 23.467-11.733 27.733l-317.867 131.2c-7.467 3.2-16 1.067-22.4-3.2 4.267 3.2 8.533 5.333 14.933 5.333h30.933l299.733-123.733c7.467-3.2 13.867-9.6 17.067-17.067 3.2-8.533 3.2-17.066 0-24.533z" fill="#3dc9ae"/><path d="M470.4 270.933l-317.867 131.2c-10.667 4.267-23.467-1.067-27.733-11.733l-64-153.6c-4.267-10.667 1.067-23.467 11.733-27.733L390.4 77.867c10.667-4.267 23.467 1.067 27.733 11.733l64 153.6c4.267 10.667-1.066 22.4-11.733 27.733z" fill="#4cdbc4"/><path d="M357.333 122.667l-229.333 96c8.533 20.267-1.067 43.733-21.333 51.2l26.667 65.067c20.267-8.533 43.733 1.067 51.2 21.333l229.333-94.933c-8.533-20.267 1.067-43.733 21.333-51.2l-26.667-65.067c-20.266 7.466-42.666-2.134-51.2-22.4z" fill="#f2f2f2"/><ellipse transform="rotate(-112.5 271.033 240.051)" cx="271.038" cy="240.055" rx="56.535" ry="38.401" fill="#4cdbc4"/><path d="M279.467 269.867c-9.6 3.2-17.067 2.133-23.467 0l3.2-11.733c4.267 2.133 10.667 3.2 16 2.133l-5.333-12.8c-9.6 1.067-20.267 2.133-25.6-9.6-3.2-8.533 0-18.133 10.667-24.533l-3.2-7.467 7.467-3.2 3.2 8.533c7.467-2.133 13.867-2.133 20.267 0l-3.2 11.733c-4.267-1.067-8.533-2.133-12.8-1.067L272 233.6c9.6-1.067 21.333-2.133 25.6 9.6 4.267 9.6 1.067 19.2-10.667 25.6l3.2 7.467-7.467 1.067-3.199-7.467zM264.533 233.6l-4.267-10.667c-3.2 2.133-4.267 5.333-3.2 7.467 1.067 3.2 3.201 3.2 7.467 3.2zm13.867 11.733l4.267 11.733c4.267-2.133 5.333-6.4 4.267-8.533-1.067-4.266-4.267-4.266-8.534-3.2z" fill="#f2f2f2"/><circle cx="203.733" cy="267.733" r="13.867" fill="#4cdbc4"/><circle cx="338.133" cy="212.267" r="13.867" fill="#4cdbc4"/><path d="M407.467 116.267L374.4 83.2l-10.667 4.267 35.2 35.2c8.533 8.533 8.533 21.333 0 29.867l-243.2 245.333c-4.267 4.267-9.6 6.4-14.933 6.4 3.2 0 7.467 0 10.667-1.067L176 393.6l230.4-230.4c12.8-13.867 12.8-34.133 1.067-46.933z" fill="#3dc9ae"/><path d="M400 153.6L155.733 397.867c-8.533 8.533-21.333 8.533-29.867 0L8.533 280.533C0 272 0 259.2 8.533 250.667L251.733 6.4c8.533-8.533 21.333-8.533 29.867 0l117.333 117.333c8.534 8.534 8.534 22.4 1.067 29.867z" fill="#4cdbc4"/><path d="M238.933 60.8l-176 176c14.933 14.933 14.933 40.533 0 55.467l50.133 50.133c14.933-14.933 40.533-14.933 55.467 0l176-176c-14.933-14.933-14.933-40.533 0-55.467L294.4 60.8c-14.933 16-40.533 16-55.467 0z" fill="#f2f2f2"/><ellipse transform="rotate(-134.999 203.625 201.8)" cx="203.625" cy="201.798" rx="56.533" ry="38.4" fill="#4cdbc4"/><path d="M224 226.133c-7.467 6.4-14.933 8.533-22.4 8.533l-2.133-11.733c5.333 0 10.667-1.067 16-4.267l-9.6-9.6c-8.533 5.333-18.133 9.6-26.667 1.067-6.4-6.4-7.467-17.067 1.067-26.667l-6.4-6.4 6.4-6.4 6.4 6.4c5.333-4.267 11.733-7.467 19.2-7.467L208 181.333c-4.267 0-8.533 2.133-12.8 4.267l8.533 8.533c8.533-5.333 18.133-9.6 27.733-1.067 7.467 7.467 8.533 17.067 0 27.733l5.333 5.333-6.4 6.4-6.399-6.399zM195.2 198.4l-7.467-7.467c-2.133 3.2-2.133 6.4 0 8.533 1.067 1.067 4.267 1.067 7.467-1.066zm18.133 5.333l8.533 8.533c2.133-4.267 2.133-7.467 0-9.6s-5.333-1.066-8.533 1.067z" fill="#f2f2f2"/><circle cx="152.533" cy="252.8" r="13.867" fill="#4cdbc4"/><circle cx="254.933" cy="150.4" r="13.867" fill="#4cdbc4"/><path d="M200.533 467.2c0 24.533-44.8 44.8-99.2 44.8s-99.2-20.267-99.2-44.8v-23.467h198.4V467.2z" fill="#f8b64c"/><ellipse cx="101.333" cy="443.733" rx="99.2" ry="44.8" fill="#ffd15c"/><ellipse cx="101.333" cy="443.733" rx="78.933" ry="34.133" fill="#f8b64c"/><path d="M97.067 461.867c-11.733 0-21.333-2.133-27.733-5.333l9.6-6.4C83.2 452.267 89.6 454.4 97.067 454.4v-8.533c-11.733-1.067-24.533-3.2-24.533-10.667 0-5.333 9.6-9.6 24.533-10.667V419.2h10.667v5.333c9.6 0 17.067 2.133 23.467 4.267l-9.6 5.333c-4.267-2.133-9.6-3.2-14.933-3.2v7.467c11.733 1.067 25.6 3.2 25.6 10.667 0 6.4-8.533 10.667-25.6 11.733v4.267H96v-3.2h1.067zm0-23.467V432c-5.333 0-8.533 1.067-8.533 3.2-.001 2.133 3.199 3.2 8.533 3.2zm10.666 9.6v7.467c6.4 0 8.533-2.133 8.533-4.267.001-1.067-3.199-2.133-8.533-3.2z" fill="#ffd15c"/><path d="M200.533 432c0 24.533-44.8 44.8-99.2 44.8s-99.2-20.267-99.2-44.8v-23.467h198.4V432z" fill="#f8b64c"/><ellipse cx="101.333" cy="409.6" rx="99.2" ry="44.8" fill="#ffd15c"/><ellipse cx="101.333" cy="409.6" rx="78.933" ry="34.133" fill="#f8b64c"/><path d="M97.067 427.733c-11.733 0-21.333-2.133-27.733-5.333l9.6-6.4c4.267 2.133 10.667 4.267 18.133 4.267v-8.533c-11.733-1.067-24.533-3.2-24.533-10.667 0-5.333 9.6-9.6 24.533-10.667v-5.333h10.667v5.333c9.6 0 17.067 2.133 23.467 4.267L121.6 400c-4.267-2.133-9.6-3.2-14.933-3.2v8.533c11.733 1.067 25.6 3.2 25.6 10.667 0 6.4-8.533 10.667-25.6 11.733V432H96v-4.267h1.067zm0-23.466v-6.4c-5.333 0-8.533 1.067-8.533 3.2-.001 1.066 3.199 2.133 8.533 3.2zm10.666 9.6v7.467c6.4 0 8.533-2.133 8.533-4.267.001-2.134-3.199-3.2-8.533-3.2z" fill="#ffd15c"/><path d="M200.533 397.867c0 24.533-44.8 44.8-99.2 44.8s-99.2-20.267-99.2-44.8V374.4h198.4v23.467z" fill="#f8b64c"/><ellipse cx="101.333" cy="374.4" rx="99.2" ry="44.8" fill="#ffd15c"/><ellipse cx="101.333" cy="374.4" rx="78.933" ry="34.133" fill="#f8b64c"/><path d="M97.067 392.533c-11.733 0-21.333-2.133-27.733-5.333l9.6-6.4c4.267 2.133 10.667 4.267 18.133 4.267v-8.533c-11.733-1.067-24.533-3.2-24.533-10.667 0-5.333 9.6-9.6 24.533-10.667V352h10.667v5.333c9.6 0 17.067 2.133 23.467 4.267l-9.6 5.333c-4.267-2.133-9.6-3.2-14.933-3.2v7.467c11.733 1.067 25.6 3.2 25.6 10.667 0 6.4-8.533 10.667-25.6 11.733v4.267H96v-5.333h1.067zm0-23.466v-6.4c-5.333 0-8.533 1.067-8.533 3.2s3.199 3.2 8.533 3.2zm10.666 9.6v7.467c6.4 0 8.533-2.133 8.533-4.267.001-1.067-3.199-2.134-8.533-3.2z" fill="#ffd15c"/><path d="M200.533 362.667c0 24.533-44.8 44.8-99.2 44.8s-99.2-19.2-99.2-44.8V339.2h198.4v23.467z" fill="#f8b64c"/><ellipse cx="101.333" cy="340.267" rx="99.2" ry="44.8" fill="#ffd15c"/><ellipse cx="101.333" cy="340.267" rx="78.933" ry="34.133" fill="#f8b64c"/><path d="M97.067 358.4c-11.733 0-21.333-2.133-27.733-5.333l9.6-6.4c4.267 2.133 10.667 4.267 18.133 4.267V342.4c-11.733-1.067-24.533-3.2-24.533-10.667 0-5.333 9.6-9.6 24.533-10.667v-5.333h10.667v5.333c9.6 0 17.067 2.133 23.467 4.267l-9.6 5.333c-4.267-2.133-9.6-3.2-14.933-3.2v7.467c11.733 1.067 25.6 3.2 25.6 10.667 0 6.4-8.533 10.667-25.6 11.733v5.333H96V358.4h1.067zm0-23.467v-6.4c-5.333 0-8.533 1.067-8.533 3.2s3.199 2.134 8.533 3.2zm10.666 9.6V352c6.4 0 8.533-2.133 8.533-4.267.001-2.133-3.199-2.133-8.533-3.2z" fill="#ffd15c"/><path d="M200.533 328.533c0 24.533-44.8 44.8-99.2 44.8s-99.2-20.267-99.2-44.8v-23.467h198.4v23.467z" fill="#f8b64c"/><ellipse cx="101.333" cy="305.067" rx="99.2" ry="44.8" fill="#ffd15c"/><ellipse cx="101.333" cy="305.067" rx="78.933" ry="34.133" fill="#f8b64c"/><path d="M97.067 323.2c-11.733 0-21.333-2.133-27.733-5.333l9.6-6.4c4.267 2.133 10.667 4.267 18.133 4.267V307.2c-11.733-1.067-24.533-3.2-24.533-10.667 0-5.333 9.6-9.6 24.533-10.667v-5.333h10.667v5.333c9.6 0 17.067 2.133 23.467 4.267l-9.6 5.333c-4.267-2.133-9.6-3.2-14.933-3.2v7.467c11.733 1.067 25.6 3.2 25.6 10.667 0 6.4-8.533 10.667-25.6 11.733v4.267H96v-3.2h1.067zm0-22.4v-6.4c-5.333 0-8.533 1.067-8.533 3.2-.001 1.067 3.199 2.133 8.533 3.2zm10.666 8.533v7.467c6.4 0 8.533-2.133 8.533-4.267.001-1.066-3.199-2.133-8.533-3.2z" fill="#ffd15c"/></symbol><symbol viewBox="0 0 501.551 501.551" id="colored-piggy-bank" xmlns="http://www.w3.org/2000/svg"><path d="M485.616 269.584v10.449c0 6.269-4.18 10.449-10.449 10.449h-37.616v15.673h42.841c11.494 0 20.898-9.404 20.898-20.898v-15.673c0-4.18-3.135-8.359-8.359-8.359-4.18-.001-7.315 3.134-7.315 8.359zM206.629 463.935c-2.09 20.898-19.853 37.616-41.796 37.616h-1.045c-22.988 0-41.796-18.808-41.796-41.796v-24.033c25.077 13.584 54.335 22.988 84.637 28.213z" fill="#f1543f"/><path d="M71.837 199.576c26.122-14.629 54.335-24.033 80.457-27.167L94.825 114.94c-17.763 17.763-26.122 39.706-26.122 62.694 1.044 6.268 2.089 14.627 3.134 21.942z" fill="#40596b"/><path d="M11.233 254.955c-14.629 14.629-14.629 71.053 0 85.682 7.314 7.314 41.796 0 41.796 0v-85.682c-1.045 0-34.482-7.314-41.796 0zm363.624 180.767v24.033c0 22.988-18.808 41.796-41.796 41.796h-1.045c-21.943 0-39.706-16.718-41.796-37.616 31.347-5.225 59.56-14.629 84.637-28.213z" fill="#f1543f"/><ellipse cx="248.424" cy="297.796" rx="219.429" ry="169.273" fill="#ff7058"/><circle cx="95.869" cy="250.776" r="12.539" fill="#40596b"/><path d="M317.388 171.363H180.506c-4.18 0-8.359 3.135-8.359 8.359 0 4.18 3.135 8.359 8.359 8.359h136.882c4.18 0 7.314-3.135 7.314-8.359 0-4.179-3.135-8.359-7.314-8.359z" fill="#f1543f"/><circle cx="248.424" cy="89.861" r="89.861" fill="#ffd15c"/><circle cx="248.424" cy="89.861" r="67.918" fill="#f8b64c"/><path d="M237.975 117.029c-2.09-2.09-3.135-5.224-4.18-9.404l-17.763 2.09c1.045 8.359 4.18 15.673 9.404 19.853 5.224 5.224 11.494 7.314 18.808 8.359v8.359h9.404v-9.404c8.359-1.045 15.673-4.18 19.853-10.449 5.224-5.224 7.314-12.539 7.314-19.853s-2.09-13.584-6.269-17.763c-4.18-4.18-11.494-8.359-21.943-11.494V53.29c4.18 2.09 7.314 5.224 8.359 10.449l16.718-2.09c-1.045-6.269-4.18-11.494-8.359-15.673-4.18-4.18-9.404-6.269-16.718-7.314v-7.314H243.2v6.269c-7.314 1.045-13.584 3.135-18.808 8.359-4.18 5.224-7.314 11.494-7.314 18.808s2.09 13.584 6.269 18.808c4.18 5.224 10.449 8.359 18.808 11.494v28.212c-1.045-1.045-3.135-3.135-4.18-6.269zm15.674-18.809c4.18 1.045 7.314 3.135 8.359 5.224 1.045 2.09 3.135 5.224 3.135 7.314 0 3.135-1.045 6.269-3.135 8.359s-5.224 4.18-8.359 4.18V98.22zm-15.674-27.167c-1.045-2.09-2.09-4.18-2.09-6.269 0-2.09 1.045-5.224 2.09-7.314s3.135-3.135 6.269-4.18v22.988c-3.134-1.045-5.224-3.135-6.269-5.225z" fill="#ffd15c"/></symbol><symbol viewBox="0 0 512 512" id="colored-presentation" xmlns="http://www.w3.org/2000/svg"><path d="M381.867 23.467v268.8c0 12.8-10.667 23.467-23.467 23.467H23.467C10.667 315.733 0 305.067 0 292.267v-268.8C0 10.667 10.667 0 23.467 0h333.867c13.866 0 24.533 10.667 24.533 23.467z" fill="#e8eae9"/><path d="M179.2 70.4c-55.467 0-99.2 44.8-99.2 99.2 0 55.467 44.8 99.2 99.2 99.2 55.467 0 99.2-44.8 99.2-99.2h-99.2V70.4z" fill="#f3705a"/><path d="M202.667 46.933v99.2h99.2c1.066-54.4-43.734-99.2-99.2-99.2z" fill="#66c6b9"/><path d="M199.467 341.333v-33.067h-18.133v33.067c-12.8 4.267-22.4 16-22.4 30.933 0 17.067 13.867 32 32 32 17.067 0 32-13.867 32-32-.001-14.933-9.601-27.733-23.467-30.933zm-8.534 43.734c-7.467 0-13.867-6.4-13.867-13.867s6.4-13.867 13.867-13.867c7.467 0 13.867 6.4 13.867 13.867 0 8.533-6.4 13.867-13.867 13.867z" fill="#e8eae9"/><path d="M121.6 180.267s-1.067 3.2 0 4.267c0 1.067 3.2 7.467 5.333 8.533s4.267 0 3.2-4.267c-1.066-3.2-5.333-11.733-8.533-8.533z" fill="#f7b64c"/><path d="M166.4 205.867l-23.467 5.333s-3.2-6.4-5.333-8.533c-2.133-3.2-7.467-9.6-9.6-14.933l-4.267-8.533s-2.133 2.133-2.133 4.267c0 0-3.2-5.333-1.067-7.467 2.133-3.2 7.467-1.067 8.533-2.133 1.067-1.067 1.067-2.133 2.133-2.133 1.067 0 2.133-2.133 4.267-3.2 2.133-1.067 4.267-1.067 5.333-2.133 2.133-1.067 2.133-2.133 3.2-1.067 1.067 0 0-5.333-1.067-8.533-1.067-4.267-3.2-8.533-1.067-10.667s4.267 0 5.333 3.2c1.067 3.2 3.2 7.467 4.267 9.6s1.067 2.133 1.067 4.267c0 1.067 2.133 6.4 3.2 9.6 1.067 2.133 4.267 18.133 6.4 23.467 2.135 3.198 4.268 9.598 4.268 9.598z" fill="#ffd15c"/><path d="M309.333 308.267l-22.4-21.333s-6.4-4.267-18.133-4.267-22.4 0-26.667-3.2c-4.267-3.2-10.667-10.667-17.067-11.733-6.4-1.067-7.467-4.267-19.2-11.733-11.733-7.467-14.933-26.667-19.2-30.933s-11.733-12.8-11.733-12.8l-9.6-13.867s-21.333-9.6-32 17.067c0 0 4.267 9.6 7.467 14.933 2.133 5.333 7.467 13.867 9.6 22.4 2.133 8.533 5.333 19.2 11.733 27.733 6.4 8.533 23.467 32 34.133 39.467 10.667 7.467 69.333 49.067 69.333 49.067l43.734-60.801zM451.2 512H512c-1.067-13.867-6.4-29.867-6.4-38.4-1.067-13.867-5.333-44.8-4.267-59.733 1.067-16-7.467-38.4-7.467-38.4l-41.6-19.2-14.933 64s1.067 1.067 2.133 22.4C440.533 460.8 450.133 504.533 451.2 512z" fill="#344a5e"/><path d="M423.467 512c0-7.467 1.067-19.2 4.267-27.733 3.2-9.6 25.6-43.733 29.867-53.333 5.333-9.6 34.133-40.533 36.267-52.267 2.133-11.733-24.533-32-35.2-38.4-9.6-6.4-19.2-18.133-28.8-23.467-10.667-6.4-14.933-11.733-14.933-11.733-52.267-25.6-66.133-12.8-72.533-9.6-7.467 3.2-13.867 1.067-28.8-5.333-16-6.4-26.667-3.2-26.667-3.2 6.4 23.467-21.333 83.2-21.333 83.2s-1.067 21.333-4.267 45.867c-2.133 19.2-3.2 71.467-4.267 96h166.399z" fill="#415a6b"/><path d="M364.8 182.4s-6.4 8.533-10.667 13.867c-4.267 4.267-8.533 7.467-8.533 11.733-1.067 4.267 2.133 9.6 1.067 11.733-2.133 2.133-12.8 6.4-8.533 13.867 0 0-5.333 7.467-2.133 11.733 0 0-3.2 1.067-1.067 5.333 0 0 1.067 4.267-1.067 8.533-2.133 5.333-3.2 13.867 4.267 17.067 7.467 2.133 12.8 2.133 12.8 2.133v11.733L412.8 291.2l5.333-9.6c-5.333-48-16-87.467-53.333-99.2z" fill="#ffd15c"/><path d="M352 229.333l4.267 5.333s12.8-9.6 20.267-3.2c7.467 5.333 6.4 35.2 2.133 44.8 0 0 29.867 7.467 38.4 4.267 8.533-3.2 36.267-30.933 40.533-59.733 4.267-28.8-17.067-52.267-40.533-55.467-37.333-4.267-51.2 2.133-55.467 7.467-4.267 5.333-1.067 13.867 6.4 14.933 0 0-11.733 8.533-11.733 20.267 1.066 12.8 0 17.067-4.267 21.333z" fill="#415a6b"/><ellipse transform="rotate(-61.471 371.46 239.895)" cx="371.459" cy="239.904" rx="16" ry="8.533" fill="#ffd15c"/><path d="M350.933 286.933c9.6-5.333 17.067-13.867 17.067-13.867-6.4 4.267-16 5.333-16 5.333l-1.067 8.534z" fill="#f7b64c"/><path d="M342.4 295.467s10.667-3.2 25.6-1.067c14.933 2.133 46.933 10.667 46.933 10.667s-1.067-5.333-1.067-10.667c-1.067-4.267-1.067-5.333-5.333-7.467C403.2 285.867 368 276.267 355.2 281.6s-12.8 13.867-12.8 13.867z" fill="#e8eae9"/><path d="M141.867 154.667c0 1.067 0 1.067 1.067 2.133 1.067 3.2 2.133 9.6 1.067 8.533 2.133 1.067 3.2 4.267 3.2 1.067-1.068-2.133-3.201-8.533-5.334-11.733z" fill="#f7b64c"/></symbol><symbol viewBox="0 0 60 60" id="flag" xmlns="http://www.w3.org/2000/svg"><path d="M46.714 25l10.61-15.434A1.001 1.001 0 0056.5 8h-30V4a1 1 0 00-1-1h-21V1a1 1 0 10-2 0v58a1 1 0 102 0V34h11.026a4.948 4.948 0 00-1.026 3c0 2.757 2.243 5 5 5h37a1.001 1.001 0 00.824-1.566L46.714 25z"/></symbol><symbol viewBox="0 0 32 32" id="phone" xmlns="http://www.w3.org/2000/svg"><path d="M23 19c-2 2-2 4-4 4s-4-2-6-4-4-4-4-6 2-2 4-4-4-8-6-8-6 6-6 6c0 4 4.1 12.1 8 16s12 8 16 8c0 0 6-4 6-6s-6-8-8-6z"/></symbol><symbol viewBox="0 0 512 512" id="settings" xmlns="http://www.w3.org/2000/svg"><path d="M256 140c-63.963 0-116 52.038-116 116s52.037 116 116 116c11.947 0 23.735-1.813 35.036-5.39 10.531-3.333 16.365-14.572 13.032-25.103-3.332-10.531-14.574-16.366-25.103-13.033A75.99 75.99 0 01256 332c-41.906 0-76-34.093-76-76s34.094-76 76-76 76 34.093 76 76a76.118 76.118 0 01-3.045 21.386c-3.101 10.602 2.98 21.709 13.582 24.81 10.604 3.101 21.709-2.98 24.811-13.582A116.145 116.145 0 00372 256c0-63.962-52.037-116-116-116z"/><path d="M452 186.001h-10.071c-2.65 0-5.052-1.669-6.092-4.187l-.178-.432c-1.077-2.594-.562-5.481 1.311-7.355l7.123-7.122c23.394-23.394 23.394-61.459 0-84.853L429.951 67.91c-11.333-11.333-26.401-17.574-42.427-17.574-16.028 0-31.095 6.241-42.427 17.574l-7.121 7.121c-1.875 1.875-4.765 2.389-7.347 1.316l-.377-.156c-2.583-1.067-4.251-3.468-4.251-6.117V60c0-33.084-26.916-60-60-60h-20c-33.084 0-60 26.916-60 60v10.074c0 2.649-1.668 5.05-4.229 6.107l-.391.162c-2.591 1.078-5.481.563-7.354-1.311l-7.122-7.122c-11.332-11.333-26.4-17.574-42.427-17.574S93.384 56.577 82.051 67.91L67.909 82.05c-23.394 23.395-23.394 61.459.001 84.854l7.121 7.121c1.874 1.875 2.388 4.762 1.281 7.43l-.121.292c-1.066 2.583-3.469 4.252-6.118 4.252H60c-33.084 0-60 26.916-60 60v20c0 33.084 26.916 60 60 60h10.072c2.65 0 5.051 1.669 6.092 4.187l.178.432c1.077 2.594.562 5.481-1.312 7.355l-7.121 7.122c-11.333 11.333-17.574 26.4-17.574 42.427 0 16.026 6.241 31.093 17.573 42.426L82.05 444.09c11.333 11.333 26.401 17.574 42.427 17.574 16.028 0 31.095-6.241 42.427-17.574l7.121-7.121c1.873-1.875 4.764-2.389 7.347-1.316l.377.156c2.583 1.067 4.251 3.468 4.251 6.117V452c0 33.084 26.916 60 60 60h20c33.084 0 60-26.916 60-60v-10.074c0-2.649 1.668-5.05 4.229-6.107l.391-.162c2.593-1.076 5.481-.562 7.354 1.311l7.122 7.122c11.332 11.333 26.4 17.574 42.427 17.574s31.094-6.241 42.427-17.574l14.142-14.142c11.332-11.332 17.573-26.4 17.573-42.426 0-16.027-6.241-31.094-17.573-42.426l-7.122-7.122c-1.875-1.874-2.389-4.761-1.312-7.355l.151-.366c1.067-2.583 3.469-4.252 6.118-4.252H452c33.084 0 60-26.916 60-60v-20c0-33.084-26.916-60-60-60zM472 266c0 11.028-8.972 20-20 20h-10.073c-18.905 0-35.818 11.376-43.089 28.983l-.13.314c-7.298 17.599-3.384 37.6 9.976 50.961l7.123 7.122a19.87 19.87 0 015.857 14.142c0 5.342-2.08 10.364-5.858 14.142l-14.141 14.142a19.876 19.876 0 01-14.143 5.858 19.865 19.865 0 01-14.142-5.858l-7.123-7.123c-13.368-13.365-33.381-17.276-50.991-9.962l-.282.117C297.377 406.108 286 423.021 286 441.926V452c0 11.028-8.972 20-20 20h-20c-11.028 0-20-8.972-20-20v-10.074c0-18.905-11.377-35.818-29.005-43.097l-.27-.112a47.223 47.223 0 00-18.137-3.636 46.36 46.36 0 00-32.846 13.603l-7.122 7.123a19.87 19.87 0 01-14.142 5.857 19.87 19.87 0 01-14.142-5.858l-14.142-14.142a19.868 19.868 0 01-5.858-14.142c0-5.342 2.08-10.365 5.858-14.142l7.122-7.122c13.361-13.361 17.275-33.362 9.976-50.961l-.13-.314C105.89 297.376 88.977 286 70.073 286H60c-11.028 0-20-8.972-20-20v-20c0-11.028 8.972-20 20-20h10.073c18.905 0 35.818-11.376 43.116-29.047l.093-.227c7.312-17.604 3.4-37.616-9.967-50.984l-7.121-7.121c-7.799-7.799-7.799-20.487 0-28.285l14.141-14.142a19.876 19.876 0 0114.143-5.858c5.343 0 10.365 2.08 14.142 5.858l7.123 7.123c13.369 13.366 33.382 17.278 50.991 9.962l.282-.117C214.623 105.892 226 88.979 226 70.074V60c0-11.028 8.972-20 20-20h20c11.028 0 20 8.972 20 20v10.074c0 18.905 11.377 35.818 29.005 43.096l.27.112c17.601 7.31 37.614 3.399 50.983-9.967l7.122-7.123a19.87 19.87 0 0114.142-5.857 19.87 19.87 0 0114.142 5.858l14.142 14.142c7.799 7.798 7.799 20.486.001 28.284l-7.123 7.123c-13.366 13.368-17.278 33.379-9.996 50.91l.15.365C406.11 214.624 423.023 226 441.927 226H452c11.028 0 20 8.972 20 20v20z"/></symbol><symbol viewBox="0 0 504.1 504.1" id="shield" xmlns="http://www.w3.org/2000/svg"><path d="M456.9 78.8c.4 0-199.7-76.8-204.8-78.8-4 1.6-205.2 78.8-204.8 78.8v144.9c0 100.4 28.8 231.6 204.8 280.4 175.7-48.8 204.4-182.4 204.4-280.4.4-49.6.4-144.9.4-144.9z" fill="#f3f3f3"/><path d="M47.3 223.7c0 100.4 28.8 231.6 204.8 280.4V0C244.6 2.8 47.3 78.8 47.3 78.8v144.9z" fill="#e7e7e7"/><path d="M417.1 105.9c.4 0-161.1-65-165.4-66.6-3.5 1.2-165.8 63.8-165.4 63.4v121.7c0 84.3 16.5 199.3 165.4 240.2 148.5-41 165.4-157.9 165.4-240.2.4-41.7.4-118.5 0-118.5z" fill="#3fb286"/><path d="M252.1 39.4c-3.5 1.2-165.8 63.8-165.4 63.4v121.7c0 84.3 16.5 199.3 165.4 240.2V39.4z" fill="#389b6e"/><path d="M175.3 216.8h153.4c7.2 0 13.1 5.9 13.1 13.1v101.2c0 7.2-5.9 13.1-13.1 13.1H175.3c-7.2 0-13.1-5.9-13.1-13.1V229.9c.1-7.2 6-13.1 13.1-13.1z" fill="#ecc45c"/><path d="M175.3 210.3h153.4c7.2 0 13.1 5.9 13.1 13.1v6.5c0 7.2-5.9 13.1-13.1 13.1H175.3c-7.2 0-13.1-5.9-13.1-13.1v-6.5c.1-7.2 6-13.1 13.1-13.1z" fill="#f8d578"/><path d="M194.9 220.1c-8.2 0-14.7 2.9-14.7 6.5s6.5 6.5 14.7 6.5 14.7-2.9 14.7-6.5-6.5-6.5-14.7-6.5zm114.3 0c-8.2 0-14.7 2.9-14.7 6.5s6.5 6.5 14.7 6.5 14.7-2.9 14.7-6.5-6.5-6.5-14.7-6.5zM252.1 269c13.5 0 24.5 10.9 24.5 24.5s-11 24.5-24.5 24.5-24.5-10.9-24.5-24.5 10.9-24.5 24.5-24.5z" fill="#bf9c4c"/><path d="M252.1 275.6c10 0 18 8 18 18s-8 18-18 18-18-8-18-18 8-18 18-18z" fill="#e4e7e7"/><path d="M252.1 285.4c1.8 0 3.3 1.5 3.3 3.3v9.8c0 1.8-1.5 3.3-3.3 3.3s-3.3-1.5-3.3-3.3v-9.8c0-1.9 1.5-3.3 3.3-3.3z" fill="#324d5b"/><path d="M252.1 135.2c-18.9 0-36.1 7.7-48.5 20.1-12.4 12.4-20.1 29.6-20.1 48.5v19.6c0 1.8 1.3 3.4 3.3 4.6 2.1 1.2 4.9 1.9 8.1 1.9 3.2 0 6-.7 8.1-1.9 2.1-1.2 3.3-2.8 3.3-4.6v-19.6c0-12.6 5.1-24.1 13.4-32.3 8.3-8.3 19.7-13.4 32.3-13.4s24.1 5.1 32.3 13.4c8.3 8.3 13.4 19.7 13.4 32.3v19.6c0 1.8 1.3 3.4 3.3 4.6 2.1 1.2 4.9 1.9 8.1 1.9s6-.7 8.1-1.9c2.1-1.2 3.3-2.8 3.3-4.6v-19.6c.1-18.9-7.6-36.1-20-48.5-12.4-12.4-29.5-20.1-48.4-20.1z" fill="#ededed"/></symbol><symbol viewBox="0 0 512 512" id="shop" xmlns="http://www.w3.org/2000/svg"><path d="M510.395 152.744L465.95 48.599A79.891 79.891 0 00392.37 0H119.63a79.892 79.892 0 00-73.58 48.599L1.605 152.744A20.002 20.002 0 000 160.594v26c0 27.34 16.469 50.893 40 61.298V432c0 44.112 35.888 80 80 80h272c44.112 0 80-35.888 80-80 0-11.046-8.954-20-20-20s-20 8.954-20 20c0 22.056-17.944 40-40 40H120c-22.056 0-40-17.944-40-40V252.318c13.101-2.587 24.839-9.002 34-18.032a67.515 67.515 0 006 5.243V369c0 11.046 8.954 20 20 20h232c11.046 0 20-8.954 20-20V239.529a67.515 67.515 0 006-5.243c9.161 9.03 20.899 15.445 34 18.032V332c0 11.046 8.954 20 20 20s20-8.954 20-20v-84.107c23.531-10.406 40-33.958 40-61.298v-26c0-2.699-.546-5.369-1.605-7.851zM94 186.594c0 14.888-12.112 27-27 27s-27-12.112-27-27V180h54v6.594zm40 0V180h54v6.594c0 14.888-12.112 27-27 27s-27-12.112-27-27zM352 349H160v-95.431c.334.005.665.025 1 .025 18.445 0 35.173-7.494 47.3-19.595 12.284 12.106 29.131 19.595 47.7 19.595 18.569 0 35.416-7.489 47.7-19.595 12.128 12.101 28.855 19.595 47.3 19.595.335 0 .666-.021 1-.025V349zM228 185.594V180h56v5.594c0 15.439-12.561 28-28 28s-28-12.561-28-28zm150 1c0 14.888-12.112 27-27 27s-27-12.112-27-27V180h54v6.594zM50.534 140L82.84 64.299A39.947 39.947 0 01119.63 40h272.74a39.947 39.947 0 0136.79 24.299L461.466 140H50.534zM472 186.594c0 14.888-12.112 27-27 27s-27-12.112-27-27V180h54v6.594z"/></symbol><symbol viewBox="0 0 55.867 55.867" id="star" xmlns="http://www.w3.org/2000/svg"><path d="M55.818 21.578a1.002 1.002 0 00-.808-.681l-18.09-2.629-8.09-16.392a.998.998 0 00-1.792 0l-8.091 16.393-18.09 2.629a1.002 1.002 0 00-.555 1.705l13.091 12.76-3.091 18.018c-.064.375.09.754.397.978a.992.992 0 001.053.076l16.182-8.506 16.18 8.506a1 1 0 001.451-1.054l-3.09-18.017 13.091-12.761c.272-.267.37-.664.252-1.025z"/></symbol><symbol viewBox="0 0 512 512" id="support" xmlns="http://www.w3.org/2000/svg"><path d="M322.6 472.8c4 10.3-1.1 21.9-11.4 25.9-23.1 9-46.4 13.4-71.2 13.4-30.4 0-60.1-7.2-88.3-21.3-26.4-13.2-50.2-31.8-70.9-55.3C39.6 388.8 16 327.7 16 268V111c0-7.9 4.6-15 11.8-18.2l203-91c5.2-2.3 11.1-2.3 16.3 0l205 91c7.2 3.2 11.9 10.4 11.9 18.3v157c0 10.4-1.4 20.2-2.7 29.6l-.4 3.1c-1.5 10.9-11.7 18.6-22.6 17-10.9-1.5-18.6-11.6-17-22.6l.5-3.2c1.2-8.5 2.3-16.5 2.3-24V124L239 41.9 56 124v144c0 106.8 87.7 204 184 204 19.8 0 38.3-3.5 56.8-10.6 10.2-4 21.8 1.1 25.8 11.4zM496 453.5c0 15.6-6.1 30.3-17.1 41.4-11.1 11.1-25.7 17.1-41.4 17.1-15.6 0-30.3-6.1-41.3-17.1L294 394.3c-13.8 6-29.3 9.1-40.4 9.2h-.2c-31.6 0-59.9-14.8-79.7-41.6-16.4-22.2-25.7-52-25.7-81.8 0-11.5 2.1-23.2 6.4-35.9 2.2-6.5 7.7-11.5 14.4-13 6.7-1.6 13.8.5 18.7 5.4l48.9 49 25.5-5.8 6-26-47.9-49.2c-4.8-4.9-6.8-12-5.2-18.7 1.6-6.7 6.5-12.1 13-14.3 12.1-4.1 23.1-6 34.8-6h.2c35.9 0 71.1 13.8 94.3 37 18.9 18.9 28.9 42.6 28.9 68.5 0 12.1-3.8 27.1-9.8 40.2L478.7 412l.1.1c11.1 11.1 17.2 25.8 17.2 41.4zm-40 0c0-4.9-1.9-9.5-5.4-13L337.2 329.1c-7.1-6.9-8-18-2.2-26 6.3-8.6 10.9-24 11-32 0-15.2-5.7-28.7-17.2-40.1-12.6-12.6-30.9-21.2-50.8-24.2l26.3 26.9c4.8 4.9 6.7 11.9 5.2 18.5L298.2 301c-1.7 7.5-7.6 13.3-15.1 15l-48.5 11c-6.7 1.5-13.7-.5-18.6-5.4l-27-27c2.2 16.3 8.1 31.6 16.9 43.5 8.5 11.6 23.7 25.3 47.5 25.3h.1c8.6 0 23.9-4.2 32.2-10.1 3.5-2.5 7.6-3.7 11.6-3.7 5.1 0 10.2 1.9 14 5.7l112.8 111.1.1.1c3.5 3.5 8.1 5.4 13.1 5.4s9.6-1.9 13.1-5.4c3.7-3.4 5.6-8.1 5.6-13z"/></symbol><symbol viewBox="-23 0 512 512.001" id="upload-file" xmlns="http://www.w3.org/2000/svg"><path d="M348.945 221.64v-96.894c0-2.773-1.28-5.336-3.093-7.363L237.219 3.309C235.19 1.176 232.309 0 229.429 0H57.196C25.398 0 0 25.93 0 57.73v325.684c0 31.8 25.398 57.305 57.195 57.305h135.953C218.863 483.402 265.605 512 318.852 512c80.886 0 146.941-65.734 146.941-146.727.11-70.75-50.688-129.867-116.848-143.632zM240.102 37.458l72.882 76.723h-47.273c-14.086 0-25.61-11.63-25.61-25.715zM57.195 419.375c-19.953 0-35.851-16.008-35.851-35.96V57.73c0-20.062 15.898-36.386 35.851-36.386h161.563v67.12c0 25.93 21.023 47.06 46.953 47.06h61.89v83.34c-3.199-.106-5.761-.427-8.535-.427-37.242 0-71.496 14.301-97.32 36.711H86.223c-5.871 0-10.672 4.801-10.672 10.668 0 5.872 4.8 10.672 10.672 10.672h115.675c-7.578 10.672-13.875 21.344-18.78 33.082H86.222c-5.871 0-10.672 4.801-10.672 10.672 0 5.867 4.8 10.672 10.672 10.672h89.957c-2.668 10.672-4.055 22.516-4.055 34.36 0 19.206 3.734 38.203 10.457 54.21H57.195zm261.766 71.39c-69.149 0-125.387-56.238-125.387-125.386 0-69.149 56.13-125.387 125.387-125.387 69.254 0 125.383 56.238 125.383 125.387 0 69.148-56.235 125.387-125.383 125.387zm0 0"/><path d="M86.223 223.027H194.32c5.871 0 10.672-4.804 10.672-10.672 0-5.87-4.8-10.671-10.672-10.671H86.223c-5.871 0-10.672 4.8-10.672 10.671 0 5.868 4.8 10.672 10.672 10.672zm240.312 63.598c-2.027-2.133-4.8-3.414-7.789-3.414-2.988 0-5.762 1.281-7.789 3.414l-62.535 67.121c-4.055 4.27-3.734 11.098.535 15.047 4.27 4.055 11.203 3.734 15.258-.531l44.18-47.274v116.528c0 5.87 4.8 10.671 10.671 10.671 5.868 0 10.672-4.8 10.672-10.671V320.988l43.856 47.274c2.136 2.238 4.91 3.414 7.793 3.414 2.558 0 5.12-.961 7.254-2.883 4.27-4.055 4.59-10.777.535-15.047zm0 0"/></symbol></svg>