<svg xmlns="http://www.w3.org/2000/svg" viewBox="0 0 151.4 69"><path d="M79.3 17.3c-1.5-1.3-3.5-1.9-5.8-1.9-3.8 0-6.6 1.3-8.2 3.9-1.5 2.4-2.2 5.5-2.1 9.3v.9H44.8c0-.2-.1-.4-.1-.6v-1.1l.2-3.9c.3-3.9 1.3-7.4 2.9-10.4 1.7-3.4 4-6.2 7-8.2-1.5-1.4-3.5-2.6-6-3.5C46 .7 42.3.1 37.8.1H0v69h41.1c1 0 1.7 0 2.1-.1h.1v-.1-2.5c.1-2.3.4-4.5 1-6.5.9-2.9 2.2-5.5 3.9-7.8 1.9-2.6 4.2-5 6.8-7.1 2.1-1.8 4.4-3.4 6.9-4.9 0-.1.1-.2.2-.2.5-.3.9-.6 1.4-.9 3-1.8 5.9-3.6 8.9-5.4 1.2-.7 2.5-1.5 3.9-2.4 1.5-.9 2.7-2 3.7-3.2 1-1.1 1.5-2.5 1.5-4v-.3c.2-3-.6-5.2-2.2-6.4zm-58-.9h11.1c2.2 0 4 .4 5.3 1.1 1.3.8 1.9 2 1.9 3.7 0 2.2-.6 3.7-1.9 4.6-1.3.8-3.1 1.1-5.4 1.1h-11V16.4zm18.2 34.9c-1.6.9-3.5 1.3-5.8 1.2H21.3V39.8h13.3c2.5 0 4.4.5 5.6 1.6 1.2 1 1.8 2.6 1.8 4.6 0 2.6-.9 4.4-2.5 5.3z" fill="#1976d3"/><path d="M147.9 17.3c0-1.8-.3-3.7-1-5.7-.6-2-1.7-3.9-3.2-5.6-1.6-1.8-3.9-3.2-6.8-4.3-2.3-.9-5.2-1.5-8.6-1.7-.4 0-.8 0-1.2-.1H76.4c4.4.2 8.4.9 11.9 2.2 4.2 1.6 7.4 4 9.8 7.1 2.3 3.2 3.5 7.2 3.5 12V21.8c-.1 4.1-1.1 7.6-2.9 10.6-1.8 3.1-4.2 5.7-7.2 7.9-3 2.3-6.2 4.3-9.7 6.2-3.4 1.9-6.8 3.8-10 5.7h30.8V69h24.7c4.1 0 8-.8 11.7-2.5 3.6-1.5 6.6-3.8 8.9-7 2.4-3.1 3.6-6.9 3.6-11.5 0-3.4-.6-6.2-1.7-8.5-1.2-2.3-2.6-4.2-4.4-5.6-1.8-1.4-3.8-2.5-5.9-3.1 2.6-1.4 4.7-3.1 6.2-5.2 1.4-2.1 2.2-4.9 2.2-8.3m-27.4-.9c2.2 0 4 .4 5.3 1 1.3.8 1.9 2 1.9 3.7 0 2.2-.6 3.7-1.9 4.5-1.3.8-3.1 1.2-5.4 1.2h-11.1V16.4h11.2m1.3 36.1h-12.4V39.7h13.3c2.5 0 4.4.6 5.6 1.7 1.2 1 1.9 2.6 1.9 4.6-.1 2.6-.9 4.3-2.4 5.3-1.7.9-3.7 1.3-6 1.2z" fill="#3ab8fa"/></svg>