<svg version="1.0" xmlns="http://www.w3.org/2000/svg" width="1333.333" height="1333.333" viewBox="0 0 1000 1000"><path d="M90 329.7c-.3 88.2.2 364.8.6 365.2.3.3 53.2.6 117.4.6 85.8 0 117.2-.3 118-1.1.7-.7 1.5-5.4 2-10.6.4-5.1 1.4-11.4 2.3-13.8.8-2.5 1.8-8.8 2.1-14 .6-7.5 1.2-10.2 3.1-13 1.3-1.9 2.6-5.1 3-7 .4-1.9 1.5-4.4 2.5-5.5 1-1.1 2.3-3.8 2.9-6.1.6-2.2 2-4.9 3.1-5.9s2-2.6 2-3.7c0-1 1-2.8 2.3-4 1.2-1.2 2.9-3.2 3.7-4.4 5.6-7.9 8.6-11.4 9.7-11.4.7 0 1.3-.7 1.3-1.5 0-1.6 8.5-10.5 10-10.5.6 0 1-.7 1-1.5s1-2 2.3-2.6c1.2-.7 4.4-3.4 7.1-6.1 2.8-2.6 5.5-4.8 6.2-4.8.6 0 2.3-1.2 3.8-2.7 1.5-1.5 3.5-3.1 4.4-3.7 1-.6 3.3-2 5.1-3.1 1.9-1.1 4.5-3 5.9-4.3 1.4-1.2 2.8-2.2 3.2-2.2.3 0 2.2-1.4 4-3 1.8-1.7 4.2-3 5.3-3 1 0 2.1-.9 2.4-1.9.3-1.1 2.3-2.6 4.9-3.6 2.4-.9 4.4-2.1 4.4-2.6 0-.6 1.5-1.6 3.3-2.4 1.9-.8 3.9-2.1 4.6-2.9.7-.9 2.9-1.8 4.8-2.2 1.9-.4 4.1-1.6 4.9-2.9.8-1.3 2.7-2.6 4.1-3 1.4-.3 4.2-1.7 6.2-3.1 1.9-1.3 4.3-2.4 5.3-2.4.9 0 1.9-.9 2.3-2 .4-1.2 2.1-2.4 4.4-3 2.1-.5 4.6-1.9 5.6-3s2.6-2 3.5-2c.9 0 2.9-1.1 4.5-2.5 1.5-1.4 4.1-2.9 5.7-3.2 1.7-.3 3.3-1.4 3.5-2.3.3-1 1.7-2 3.2-2.3 1.4-.3 4.4-1.9 6.5-3.6 2.1-1.7 4.4-3.1 5.1-3.1.7 0 1.5-.9 1.8-2 .3-1.1 1.7-2.4 3.1-3 1.4-.5 2.6-1.4 2.6-1.9 0-.6 1.4-1.7 3-2.6 1.7-.9 3-2.2 3-3.1 0-.8 1.1-1.9 2.5-2.4s2.5-1.6 2.5-2.5c0-.8 1.1-2.2 2.4-3 3.8-2.5 5.1-12.5 3.6-27.2-1.4-13.3-1.5-14-4-14.8-1-.3-2.2-1.9-2.5-3.5-.4-1.7-1.3-3-2-3-.8 0-1.9-.9-2.5-2-.6-1.1-2.2-2.3-3.5-2.6-1.3-.3-2.7-1.4-3-2.4-.7-2.3-1.5-2.6-14.5-4.5-9.6-1.4-11.5-1.4-22.8.1-9.7 1.3-13 2.2-15.1 3.9-1.4 1.2-3.6 2.5-4.8 2.9-2.6.8-9.3 6.8-9.3 8.3 0 .6-1.1 1.8-2.5 2.7-1.6 1.1-2.5 2.6-2.5 4.3 0 1.5-1.1 4.3-2.4 6.2-1.4 2-3 6.5-3.6 10.1-.6 3.6-1.6 7.8-2.2 9.5-.6 1.6-1.5 7.4-2.2 12.7-.6 5.4-1.7 10.3-2.4 11-1 1-11.5 1.3-48.7 1.3h-47.3l-2.7-2.5c-3.1-2.8-3.1.7.4-33.4 1-9.8 2.3-18.1 2.8-18.5.5-.3 1.8-4 2.9-8.1 1-4.2 2.6-8.1 3.6-8.8 1.2-.9 1.8-2.7 1.8-5.6 0-3.3.7-5 3-7.6 1.6-1.8 3-4.2 3-5.2 0-1.1 1.1-2.3 2.5-2.8 1.6-.6 2.5-1.7 2.5-3.1 0-1.1 1.3-3.4 2.9-5 1.6-1.6 3.2-4.2 3.6-5.9.4-1.6 1.2-3 2-3 .7 0 2-1.1 2.9-2.5.9-1.4 2.3-2.5 3.1-2.5.9 0 2-1.1 2.5-2.5s1.4-2.5 1.9-2.5 2.8-1.7 5.1-3.9c3.7-3.4 4.1-4.2 3.5-7.2-.5-2.7-1.5-3.8-4.6-5.3-2.1-1.1-3.9-2.3-3.9-2.7 0-.5-2.5-1.6-5.5-2.4-3-.9-5.9-2.4-6.5-3.4-.6-1.2-2.6-2-5.7-2.4-2.6-.3-6.3-1.3-8.1-2.3-1.9-.9-7-2.1-11.5-2.6-5.5-.7-8.5-1.5-9.3-2.6-1.1-1.6-11.1-1.7-121.8-2C95.2 327.9 90 328 90 329.7zm190.8 85.6c1.7 1 6 2.2 9.4 2.7 4 .6 6.9 1.6 8.2 3 1.2 1.1 3 2.8 4.2 3.8 2.3 1.9 6.6 13.9 5.9 16.9-2.5 11.7-4.3 16.9-6.1 17.7-1.1.5-2.8 2.2-3.6 3.7-1.3 2.2-2.8 3-7.5 3.9-3.2.7-6.4 1.7-7.2 2.4-1.4 1.1-57 2.5-70.7 1.8-6-.4-6.2-.5-6.8-3.4-.3-1.7-.6-13.5-.6-26.3 0-22.1.1-23.4 2.1-25.9l2.1-2.7 33.7.3c30.3.3 33.9.5 36.9 2.1zm15.5 125.6c5.1.7 7.3 1.5 8.4 3 .8 1.2 2.2 2.1 3.2 2.1 1.7 0 8.1 6.9 8.1 8.8 0 .5 1 2.2 2.1 3.6 3 3.8 4 14.3 2.2 21.6-1.9 7.6-4.9 13.7-7.3 15-1.1.6-2 1.7-2 2.5s-1.1 1.7-2.5 2.1c-1.3.3-2.7 1.4-3 2.4-.8 2.4-1.2 2.5-17 4.7-16.6 2.3-78.5 2.7-80.7.5-1-1-1.4-8.5-1.6-32-.2-16.9 0-31.7.3-32.9.5-2 1.3-2.2 7.3-2.5 14.2-.7 76 .1 82.5 1.1z"/><path d="M551.6 329.9c.6.7 4 1.4 7.5 1.6 5.6.3 13.2 2.1 10.4 2.5-1.8.2 7.9 3 10.6 3 1.4 0 3.6.9 4.8 1.9 1.3 1.1 3.5 2.3 5.1 2.6 1.5.3 3.8 1.7 5.1 3.1 1.2 1.3 4 2.9 6.1 3.4 2.1.6 4.2 2 4.8 3 .6 1.1 2 2 3.1 2s4.6 2.8 8.2 6.5c3.5 3.6 6.8 6.5 7.5 6.5.7 0 1.2.6 1.2 1.4 0 .8.9 1.8 2 2.1 2.1.7 5 5.3 5 8 0 .8 1.1 2 2.5 2.5 1.7.7 2.5 1.7 2.5 3.4 0 1.5.7 2.5 1.9 2.9 1.4.3 2.1 1.7 2.7 5.3.8 5.6 2.7 9.9 4.7 10.7 1.1.4 1.5 3.7 2 13.3.4 10.5.8 13 2.2 14 1.3 1 1.9 3.3 2.2 10.1.5 7.5.2 9.5-1.5 13.4-1.5 3.2-2.3 7.4-2.6 13.5-.2 4.9-.5 9.2-.5 9.6-.1.4-1.2 1.9-2.6 3.4-1.5 1.6-2.5 3.9-2.5 5.6 0 2.9-1.6 6.8-3.2 7.9-.4.3-1.4 2.5-2.1 5-.8 2.8-2.1 4.8-3.5 5.4-1.2.5-2.2 1.6-2.2 2.3 0 .7-1 2.3-2.2 3.6-3 3-5.2 7.2-4.4 8.4.4.6-.6 1.2-2.1 1.4-2.2.2-2.9.9-3.1 3-.2 1.8-1.1 2.8-2.6 3.2-1.3.3-2.6 1.5-2.9 2.6-.3 1.1-1.9 2.5-3.6 3.1-1.7.6-3.1 1.5-3.1 1.9 0 1-1.6 2.6-6.1 6-1.8 1.4-4.4 3.7-5.8 5.1-1.5 1.4-3.9 2.9-5.5 3.3-1.5.4-3 1.5-3.3 2.5-.3 1.2-2.1 2.3-4.8 3.1-2.4.7-4.6 1.9-4.9 2.7-.3.7-2 2.1-3.8 2.9-1.8.9-4.9 2.4-6.8 3.4-1.9 1.1-4.3 1.9-5.2 2-1 0-1.8.7-1.8 1.5 0 1.4-2.7 3.1-12 8-2.2 1.1-4.9 3.1-6 4.3-1.2 1.3-3.3 2.2-4.9 2.2-2 0-3.4.8-4.5 2.5-1 1.5-2.6 2.5-4 2.5s-3.8 1.1-5.4 2.5c-1.7 1.4-3.9 2.5-5 2.5s-2.7 1.1-3.6 2.5c-.9 1.4-2.5 2.5-3.5 2.5s-3.4 1.1-5.4 2.5c-2 1.3-5.5 3-7.8 3.7-3.7 1.1-3.9 1.3-1.8 1.8 1.3.3 35.9.5 76.9.4 72.2-.1 81.3.2 84.8 2.9 1 .8 1.3 4.7 1.2 15.6-.3 41.1.1 67.2 1 69.6 1 2.6 1.1 2.6 9.3 2.2 4.5-.3 9.4-1 10.9-1.7 2-1 3.7-1 7-.2 2.4.6 6.1.8 8.3.4 2.2-.4 5.8-.5 8-.2 3.6.4 3.3.5-2.5 1-4.9.5-3 .7 7.8.8 7.9.1 14.1-.2 13.8-.6-.2-.4 12.1-.9 27.5-1.1 19.7-.2 27.9 0 27.9.8 0 1.4 10.2 1.4 15.5 0 2.2-.6 5.5-1.3 7.3-1.6 1.8-.3 3.5-.9 3.8-1.4.3-.5 5.8-.9 12.3-.9 10.8 0 12-.2 13.2-2 1.4-2.1 10.5-4.9 16-5 1.5 0 3.2-.6 3.8-1.4.6-.7 2.9-1.6 5.1-1.9 2.8-.3 4.7-1.4 6.1-3.1 1.1-1.4 2.6-2.6 3.4-2.6 3.2 0 13.6-6.4 15.5-9.5 1.3-2.1 3.4-3.8 5.5-4.5 2.4-.8 3.7-2 4.1-3.6.3-1.3 1.1-2.4 1.7-2.4 1.2 0 9.7-9 9.7-10.3 0-.5.6-.7 1.4-.4 1.8.7 3.6-1.2 3.6-3.9 0-1.2.9-3.3 2-4.7 1.1-1.4 2-3.2 2-4 0-.9 1.2-3 2.7-4.8 2.9-3.4 4.1-8.9 4.2-19.3.1-4.8.6-6.5 2.4-8.4 2.1-2.3 2.2-3 2-17.8-.2-13.6-.5-15.7-2.3-18.1-1.3-1.9-2.2-5.2-2.6-10.1-.6-6.2-1.1-7.6-3.1-8.9-1.3-.9-2.3-2.5-2.3-3.8 0-1.2-1.3-3.9-3-6-1.6-2.1-3-4.4-3-5.1 0-.7-2.9-4.1-6.5-7.6-3.6-3.4-6.5-6.7-6.5-7.4 0-.7-1.5-1.4-3.2-1.6-2.4-.2-3.6-1-4.6-3.1-.8-1.6-2.1-2.7-3.3-2.7-1.1 0-3.5-1.1-5.2-2.4-1.8-1.4-5.2-2.9-7.7-3.5-2.4-.5-5-1.8-5.7-2.7-.7-.9-2.2-2.2-3.5-2.8-3.5-1.8-3.4-4.2.4-6.2 1.8-.9 3.8-2.5 4.5-3.4.6-.9 3-2.2 5.2-2.9 2.3-.6 4.1-1.6 4.1-2.2 0-1.2 6.6-7.9 7.8-7.9.4 0 1.8-1.4 3-3 1.3-1.7 2.9-3 3.7-3 .9 0 1.5-.9 1.5-2.1 0-1.2 1.1-3.2 2.5-4.5 1.7-1.6 2.5-3.4 2.5-5.7 0-2.4.7-3.9 2-4.8 1.6-1.1 2.4-3.5 3.5-10.9 1.3-8.9 1.3-15.3 0-35.5-.2-4.4-.5-8.3-.5-8.8 0-.4-.9-1.6-2-2.7-1.2-1.2-2.5-4.2-2.9-6.7-.5-2.6-1.5-5.2-2.3-5.7-.7-.6-1.9-2.3-2.5-3.9-.7-1.5-1.9-2.7-2.6-2.7-1.3 0-4.7-6-4.7-8.4 0-.7-1.8-1.9-3.9-2.6-2.3-.7-3.7-1.8-3.5-2.4.3-.7-.7-1.8-2.1-2.6-1.4-.7-2.5-1.9-2.5-2.7 0-.7-1.1-1.3-2.4-1.3-3.1 0-8.1-1.8-7.3-2.7 1-.9-2.5-3.2-5-3.3-3.5 0-5.3-1.1-5.3-3.2 0-1.8-.4-2-4.4-1.4-3.2.5-5.7.2-9.5-1.4-3.2-1.2-7.5-2-11.1-2-3.6 0-6-.4-6-1.1 0-.7-3.7-.9-10.9-.7-6 .2-10.7 0-10.4-.5.2-.4 1.1-.7 1.9-.7.9 0 1.4-.6 1.2-1.3-.3-.6-2.5-1.3-5-1.5-3.9-.3-4.7 0-5.3 1.7-.6 2-3.5 3-3.5 1.2 0-1.3-5.7-3.4-7-2.6-.6.4-1.7.2-2.4-.4-.7-.6-4.2-1-7.7-.9-3.5.1-54.5-.2-113.4-.6-82.9-.7-106.7-.6-105.9.3zm214.8 81.7c7.5.5 8.9.9 9.3 2.5.5 1.9 2.8 3 7.2 3.3 2.6.2 9.1 5.5 9.1 7.5 0 .5 1.5 2.4 3.3 4l3.2 3.1-.2 9.7c-.2 9.1-.4 9.9-2.7 11.8-1.4 1.1-2.8 3.5-3.2 5.2-.4 1.9-1.4 3.3-2.5 3.6-1 .3-2.3 1.6-2.8 3-.8 1.9-1.9 2.5-5.6 3-3 .5-5.3 1.4-6.4 2.8-1.6 2-2.5 2.1-36.1 2.3-35.2.3-45.1-.1-47.1-2.1-.8-.8-1.3-8.2-1.6-21-.5-22.7.3-35.7 2.2-37.7 1-1 8.2-1.3 33.2-1.4 17.5-.1 35.8.1 40.7.4zm9.9 124.9c5.6 2.2 8.6 2.9 16.7 3.9 1.4.1 2.9 1.2 3.5 2.5.6 1.2 2.1 2.4 3.3 2.8 1.4.3 2.8 1.7 3.4 3.4.5 1.6 1.4 2.9 1.9 2.9.6 0 1.7 1.7 2.6 3.7 2.2 4.9 2.1 33.2 0 34.8-.8.5-2.2 2.2-3.1 3.7-1 1.6-2.4 2.8-3.1 2.8-.7 0-2 1.1-2.9 2.5-.9 1.4-2.5 2.5-3.6 2.5s-2 .7-2 1.5c0 2-4 3.5-9 3.5-2.5 0-4.2.6-4.8 1.5-.4.9-2.4 1.8-4.3 2.1-5.7.8-74.2 1.1-77.8.3-6.5-1.4-6.3-.1-6.4-38.8 0-19.3.3-35.4.7-35.8 1.3-1.4 13.1-1.9 46.4-2.1 32.3-.2 32.4-.2 38.5 2.3zm28.2 65.5c.3.5.1 1-.4 1-.6 0-1.1-.5-1.1-1 0-.6.2-1 .4-1 .3 0 .8.4 1.1 1z"/></svg>