<svg width="77" height="46" viewBox="0 0 77 46" fill="none" xmlns="http://www.w3.org/2000/svg">
<path d="M76.7185 17.4727C76.5317 17.1019 76.2458 16.7901 75.8926 16.5719C75.5394 16.3536 75.1327 16.2374 74.7175 16.2361H63.4763V2.74662C63.5004 2.25354 63.3616 1.76622 63.0812 1.35989C62.8008 0.953563 62.3945 0.650809 61.925 0.498362C61.4736 0.349849 60.9867 0.34818 60.5343 0.493594C60.0819 0.639008 59.6872 0.924027 59.4069 1.30773L41.4209 26.0385C41.1955 26.3642 41.0602 26.7437 41.0286 27.1385C40.9971 27.5333 41.0703 27.9294 41.241 28.2868C41.3982 28.6954 41.6713 29.0492 42.0268 29.3048C42.3822 29.5604 42.8046 29.7067 43.242 29.7257H54.4833V43.2152C54.4836 43.6893 54.6338 44.1512 54.9124 44.5348C55.191 44.9184 55.5838 45.2041 56.0345 45.351C56.2604 45.421 56.4951 45.4589 56.7315 45.4634C57.0862 45.4644 57.4362 45.3813 57.7527 45.2211C58.0692 45.0609 58.3433 44.8281 58.5526 44.5417L76.5386 19.8109C76.7809 19.4754 76.9258 19.0796 76.9576 18.6671C76.9893 18.2545 76.9066 17.8412 76.7185 17.4727V17.4727ZM58.9798 36.2906V27.4774C58.9798 26.8811 58.7429 26.3093 58.3213 25.8877C57.8996 25.466 57.3278 25.2292 56.7315 25.2292H47.7385L58.9798 9.67124V18.4844C58.9798 19.0807 59.2166 19.6525 59.6383 20.0741C60.0599 20.4958 60.6317 20.7326 61.228 20.7326H70.221L58.9798 36.2906Z" fill="#3AB8FA"/>
<path d="M24.7308 23.1144C23.3968 23.1144 22.0928 23.5099 20.9836 24.2511C19.8744 24.9922 19.0099 26.0456 18.4994 27.278C17.9889 28.5105 17.8554 29.8666 18.1156 31.175C18.3759 32.4833 19.0183 33.6851 19.9615 34.6284C20.9048 35.5717 22.1066 36.2141 23.415 36.4743C24.7233 36.7345 26.0795 36.601 27.3119 36.0905C28.5443 35.58 29.5977 34.7155 30.3389 33.6063C31.08 32.4972 31.4756 31.1931 31.4756 29.8591C31.4756 28.0703 30.7649 26.3548 29.5001 25.0899C28.2352 23.825 26.5196 23.1144 24.7308 23.1144ZM24.7308 32.1074C24.2861 32.1074 23.8515 31.9755 23.4817 31.7285C23.112 31.4814 22.8238 31.1303 22.6537 30.7195C22.4835 30.3087 22.439 29.8566 22.5257 29.4205C22.6125 28.9844 22.8266 28.5838 23.141 28.2694C23.4555 27.955 23.8561 27.7408 24.2922 27.6541C24.7283 27.5673 25.1803 27.6119 25.5912 27.782C26.002 27.9522 26.3531 28.2403 26.6001 28.6101C26.8472 28.9798 26.979 29.4145 26.979 29.8591C26.979 30.4554 26.7422 31.0273 26.3205 31.4489C25.8989 31.8705 25.3271 32.1074 24.7308 32.1074ZM23.1345 17.9659C23.3483 18.1706 23.6005 18.331 23.8765 18.438C24.1456 18.557 24.4366 18.6184 24.7308 18.6184C25.025 18.6184 25.316 18.557 25.5851 18.438C25.8611 18.331 26.1132 18.1706 26.3271 17.9659L31.4756 12.9073C31.9108 12.472 32.1554 11.8817 32.1554 11.2661C32.1554 10.6505 31.9108 10.0601 31.4756 9.62485C31.0403 9.18957 30.4499 8.94503 29.8343 8.94503C29.2188 8.94503 28.6284 9.18957 28.1931 9.62485L26.979 10.9513V2.88009C26.979 2.28382 26.7422 1.71196 26.3205 1.29033C25.8989 0.868705 25.3271 0.631836 24.7308 0.631836C24.1345 0.631836 23.5627 0.868705 23.141 1.29033C22.7194 1.71196 22.4825 2.28382 22.4825 2.88009V10.9513L21.2685 9.62485C20.8332 9.18957 20.2428 8.94503 19.6273 8.94503C19.0117 8.94503 18.4213 9.18957 17.986 9.62485C17.5508 10.0601 17.3062 10.6505 17.3062 11.2661C17.3062 11.8817 17.5508 12.472 17.986 12.9073L23.1345 17.9659ZM40.4686 29.8591C40.4686 29.4145 40.3367 28.9798 40.0897 28.6101C39.8426 28.2403 39.4915 27.9522 39.0807 27.782C38.6699 27.6119 38.2178 27.5673 37.7817 27.6541C37.3456 27.7408 36.945 27.955 36.6306 28.2694C36.3161 28.5838 36.102 28.9844 36.0153 29.4205C35.9285 29.8566 35.973 30.3087 36.1432 30.7195C36.3134 31.1303 36.6015 31.4814 36.9713 31.7285C37.341 31.9755 37.7757 32.1074 38.2203 32.1074C38.8166 32.1074 39.3884 31.8705 39.8101 31.4489C40.2317 31.0273 40.4686 30.4554 40.4686 29.8591ZM42.7168 14.1214H35.9721C35.3758 14.1214 34.8039 14.3582 34.3823 14.7799C33.9607 15.2015 33.7238 15.7733 33.7238 16.3696C33.7238 16.9659 33.9607 17.5377 34.3823 17.9594C34.8039 18.381 35.3758 18.6179 35.9721 18.6179H42.7168C43.3131 18.6179 43.885 18.8547 44.3066 19.2764C44.7282 19.698 44.9651 20.2698 44.9651 20.8661V38.8522C44.9651 39.4484 44.7282 40.0203 44.3066 40.4419C43.885 40.8635 43.3131 41.1004 42.7168 41.1004H6.74476C6.14849 41.1004 5.57664 40.8635 5.15501 40.4419C4.73338 40.0203 4.49651 39.4484 4.49651 38.8522V20.8661C4.49651 20.2698 4.73338 19.698 5.15501 19.2764C5.57664 18.8547 6.14849 18.6179 6.74476 18.6179H13.4895C14.0858 18.6179 14.6576 18.381 15.0793 17.9594C15.5009 17.5377 15.7378 16.9659 15.7378 16.3696C15.7378 15.7733 15.5009 15.2015 15.0793 14.7799C14.6576 14.3582 14.0858 14.1214 13.4895 14.1214H6.74476C4.95594 14.1214 3.24038 14.832 1.97549 16.0969C0.710607 17.3617 0 19.0773 0 20.8661V38.8522C0 40.641 0.710607 42.3565 1.97549 43.6214C3.24038 44.8863 4.95594 45.5969 6.74476 45.5969H42.7168C44.5056 45.5969 46.2212 44.8863 47.4861 43.6214C48.751 42.3565 49.4616 40.641 49.4616 38.8522V20.8661C49.4616 19.0773 48.751 17.3617 47.4861 16.0969C46.2212 14.832 44.5056 14.1214 42.7168 14.1214ZM8.99302 29.8591C8.99302 30.3038 9.12487 30.7385 9.37191 31.1082C9.61896 31.4779 9.97009 31.7661 10.3809 31.9363C10.7917 32.1064 11.2438 32.1509 11.6799 32.0642C12.116 31.9774 12.5166 31.7633 12.831 31.4489C13.1454 31.1345 13.3596 30.7339 13.4463 30.2977C13.5331 29.8616 13.4886 29.4096 13.3184 28.9988C13.1482 28.588 12.8601 28.2368 12.4903 27.9898C12.1206 27.7427 11.6859 27.6109 11.2413 27.6109C10.645 27.6109 10.0731 27.8478 9.65151 28.2694C9.22988 28.691 8.99302 29.2629 8.99302 29.8591Z" fill="#15357A"/>
</svg>
