<svg width="212" height="326" viewBox="0 0 212 326" fill="none" xmlns="http://www.w3.org/2000/svg">
<path d="M44.1945 7.00994C33.1543 -2.48632 16.5062 -1.23471 7.00994 9.80549C-2.48632 20.8457 -1.23471 37.4938 9.80549 46.9901L44.1945 7.00994ZM185.206 163.081L202.422 183.052C208.237 178.04 211.578 170.743 211.574 163.067C211.569 155.391 208.22 148.097 202.4 143.091L185.206 163.081ZM9.78351 279.495C-1.24624 289.003 -2.47953 305.653 7.02887 316.682C16.5373 327.712 33.1867 328.945 44.2165 319.437L9.78351 279.495ZM9.80549 46.9901L168.011 183.071L202.4 143.091L44.1945 7.00994L9.80549 46.9901ZM167.989 143.11L9.78351 279.495L44.2165 319.437L202.422 183.052L167.989 143.11Z" fill="#E9F8FF"/>
</svg>
