<svg width="57" height="38" viewBox="0 0 57 38" fill="none" xmlns="http://www.w3.org/2000/svg">
<path d="M55.7379 14.275C55.7379 16.3949 50.9259 18.1135 44.9901 18.1135C39.0543 18.1135 34.2424 16.3949 34.2424 14.275M55.7379 14.275C55.7379 12.1551 50.9259 10.4365 44.9901 10.4365C39.0543 10.4365 34.2424 12.1551 34.2424 14.275M55.7379 14.275V32.6996C55.7379 34.8196 50.9259 36.5381 44.9901 36.5381C39.0543 36.5381 34.2424 34.8196 34.2424 32.6996V14.275M55.7379 20.4165C55.7379 22.5365 50.9259 24.255 44.9901 24.255C39.0543 24.255 34.2424 22.5365 34.2424 20.4165M55.7379 26.5581C55.7379 28.678 50.9259 30.3966 44.9901 30.3966C39.0543 30.3966 34.2424 28.678 34.2424 26.5581" stroke="#3AB8FA" stroke-width="2.30308"/>
<rect x="2" y="8.03735" width="35.186" height="28.1488" rx="8.79649" stroke="#15357A" stroke-width="3.07078"/>
<path d="M31.9081 8.91684V8.91684C31.9081 4.82985 28.1569 1.7723 24.1539 2.59645L9.02265 5.7117C4.93396 6.55349 2 10.153 2 14.3275L2 20.3523" stroke="#15357A" stroke-width="3.07078"/>
<path d="M9.03809 28.2691H19.5939" stroke="#15357A" stroke-width="3.07078" stroke-linecap="round" stroke-linejoin="round"/>
<path d="M24.8718 22.1114C24.8718 19.6823 26.841 17.7131 29.2701 17.7131H37.1869V26.5096H29.2701C26.841 26.5096 24.8718 24.5405 24.8718 22.1114V22.1114Z" stroke="#15357A" stroke-width="3.07078"/>
<path d="M29.2681 22.1116H29.6199" stroke="#15357A" stroke-width="3.07078" stroke-linecap="round" stroke-linejoin="round"/>
</svg>
