<svg width="57" height="39" viewBox="0 0 57 39" fill="none" xmlns="http://www.w3.org/2000/svg">
<path d="M46.9822 17.7536C46.9822 16.1845 48.8799 15.3983 49.989 16.5082L51.0233 17.7413C51.9828 18.7009 53.538 18.7009 54.4975 17.7413C55.3799 16.859 55.4604 15.4542 54.684 14.4766L48.3024 5.609C46.0728 3.37937 42.992 2.00002 39.5885 2.00002C32.7829 2.00002 27.2656 7.5174 27.2656 14.3229L27.2656 25.8243C27.2656 27.1856 28.3689 28.2889 29.7301 28.2889C31.0914 28.2889 32.1947 27.1856 32.1947 25.8243V19.2521V30.7535C32.1947 32.1147 33.298 33.218 34.6593 33.218C36.0206 33.218 37.1239 32.1147 37.1239 30.7535V20.8951V23.3597V34.0396C37.1239 35.4008 38.2272 36.5042 39.5885 36.5042C40.9497 36.5042 42.053 35.4008 42.053 34.0396V23.3597V20.8951V32.3965C42.053 33.7578 43.1563 34.8611 44.5176 34.8611C45.8789 34.8611 46.9822 33.7578 46.9822 32.3965V21.7167V17.7536Z" stroke="#3AB8FA" stroke-width="3.28611" stroke-miterlimit="10" stroke-linecap="round" stroke-linejoin="round"/>
<path d="M10.2346 20.7908C10.2346 22.3599 8.33687 23.1461 7.22781 22.0362L6.1935 20.8031C5.23396 19.8436 3.67881 19.8436 2.71926 20.8031C1.83694 21.6854 1.75644 23.0903 2.53278 24.0679L8.91438 32.9354C11.144 35.1651 14.2248 36.5444 17.6283 36.5444C24.4339 36.5444 29.9512 31.027 29.9512 24.2215V12.7201C29.9512 11.3589 28.8479 10.2556 27.4867 10.2556C26.1254 10.2556 25.0221 11.3589 25.0221 12.7201V19.2923V7.79097C25.0221 6.4297 23.9188 5.32639 22.5575 5.32639C21.1962 5.32639 20.0929 6.4297 20.0929 7.79097V17.6493V15.1847V4.50486C20.0929 3.14359 18.9896 2.04028 17.6283 2.04028C16.2671 2.04028 15.1638 3.14359 15.1638 4.50486V15.1847V17.6493V6.14792C15.1638 4.78665 14.0604 3.68334 12.6992 3.68334C11.3379 3.68334 10.2346 4.78665 10.2346 6.14792V16.8278L10.2346 20.7908Z" stroke="#15357A" stroke-width="3.28611" stroke-miterlimit="10" stroke-linecap="round" stroke-linejoin="round"/>
</svg>
