<svg width="67" height="41" viewBox="0 0 67 41" fill="none" xmlns="http://www.w3.org/2000/svg">
<path d="M40.9126 12.4151C40.6934 12.187 40.4115 12.029 40.1026 11.9612C39.7936 11.8933 39.4715 11.9185 39.1769 12.0337C38.8823 12.1489 38.6284 12.3489 38.4475 12.6084C38.2665 12.8678 38.1666 13.1751 38.1603 13.4914C38.154 13.8076 38.2416 14.1187 38.4121 14.3851C38.5825 14.6516 38.8282 14.8615 39.118 14.9884C39.4077 15.1152 39.7286 15.1533 40.04 15.0978C40.3514 15.0423 40.6394 14.8957 40.8675 14.6765C41.1733 14.3826 41.3499 13.9792 41.3584 13.5551C41.3668 13.131 41.2065 12.721 40.9126 12.4151ZM54.2104 26.254C53.9912 26.0259 53.7093 25.8679 53.4004 25.8C53.0914 25.7321 52.7693 25.7574 52.4747 25.8726C52.1801 25.9878 51.9262 26.1878 51.7453 26.4472C51.5643 26.7067 51.4644 27.014 51.4581 27.3302C51.4518 27.6465 51.5394 27.9575 51.7099 28.224C51.8803 28.4905 52.126 28.7004 52.4158 28.8272C52.7055 28.9541 53.0264 28.9922 53.3378 28.9367C53.6492 28.8811 53.9372 28.7345 54.1653 28.5154C54.4711 28.2215 54.6477 27.8181 54.6562 27.394C54.6646 26.9699 54.5043 26.5598 54.2104 26.254ZM63.3461 21.9115L45.6157 3.45972C44.734 2.54214 43.5239 2.0124 42.2516 1.98704C40.9794 1.96167 39.7491 2.44275 38.8315 3.32445L29.6056 12.1897C28.6881 13.0714 28.1583 14.2814 28.1329 15.5537C28.1076 16.826 28.5887 18.0562 29.4704 18.9738L47.2008 37.4257C48.0825 38.3432 49.2926 38.873 50.5648 38.8983C51.8371 38.9237 53.0674 38.4426 53.9849 37.5609L63.2109 28.6957C64.1284 27.814 64.6582 26.6039 64.6835 25.3316C64.7089 24.0594 64.2278 22.8291 63.3461 21.9115ZM51.7686 35.2544C51.4628 35.5483 51.0527 35.7087 50.6286 35.7002C50.2045 35.6918 49.8011 35.5152 49.5072 35.2094L31.7768 16.7575C31.4829 16.4517 31.3226 16.0416 31.331 15.6175C31.3395 15.1934 31.5161 14.79 31.8219 14.4961L41.0478 5.63093C41.3537 5.33703 41.7638 5.17667 42.1879 5.18513C42.612 5.19358 43.0153 5.37016 43.3092 5.67602L61.0396 24.1278C61.3335 24.4337 61.4939 24.8438 61.4854 25.2679C61.477 25.692 61.3004 26.0953 60.9945 26.3892L51.7686 35.2544ZM49.868 17.1182C49.2104 16.434 48.3648 15.96 47.4379 15.7564C46.5111 15.5527 45.5446 15.6285 44.6608 15.9741C43.777 16.3197 43.0156 16.9196 42.4727 17.698C41.9299 18.4764 41.63 19.3983 41.6111 20.347C41.5922 21.2958 41.855 22.2289 42.3664 23.0283C42.8778 23.8277 43.6148 24.4575 44.4841 24.8381C45.3534 25.2186 46.3161 25.3328 47.2503 25.1663C48.1845 24.9998 49.0484 24.5599 49.7327 23.9024C50.6503 23.0207 51.18 21.8106 51.2054 20.5383C51.2307 19.2661 50.7497 18.0358 49.868 17.1182ZM45.255 21.5508C45.0358 21.3227 44.8892 21.0348 44.8337 20.7234C44.7782 20.412 44.8163 20.0911 44.9431 19.8013C45.07 19.5115 45.2799 19.2659 45.5464 19.0954C45.8128 18.925 46.1239 18.8373 46.4401 18.8436C46.7564 18.8499 47.0637 18.9499 47.3231 19.1308C47.5826 19.3118 47.7826 19.5656 47.8978 19.8602C48.013 20.1548 48.0382 20.477 47.9703 20.7859C47.9025 21.0949 47.7445 21.3768 47.5164 21.5959C47.2105 21.8898 46.8004 22.0502 46.3764 22.0417C45.9523 22.0333 45.5489 21.8567 45.255 21.5508Z" fill="#3AB8FA"/>
<path d="M2 14.7744C2 12.8665 3.54669 11.3198 5.45462 11.3198H33.0916C34.9995 11.3198 36.5462 12.8665 36.5462 14.7744V17.6327C36.5462 19.1583 35.5455 20.5033 34.0843 20.9417L21.2585 24.7894C19.9634 25.1779 18.5828 25.1779 17.2878 24.7894L4.46195 20.9417C3.0007 20.5033 2 19.1583 2 17.6327V14.7744Z" stroke="#15357A" stroke-width="3.31644"/>
<path d="M19.2732 20.2033L19.2732 17.2422" stroke="#15357A" stroke-width="3.31644" stroke-linecap="round" stroke-linejoin="round"/>
<path d="M3.43945 20.2024L3.43945 29.5791C3.43945 33.395 6.53283 36.4884 10.3487 36.4884H28.1976C32.0134 36.4884 35.1068 33.395 35.1068 29.5791V20.2024" stroke="#15357A" stroke-width="3.31644"/>
<path d="M25.0308 11.3194V8.85184C25.0308 6.9439 23.4841 5.39722 21.5762 5.39722H16.97C15.0621 5.39722 13.5154 6.9439 13.5154 8.85184L13.5154 11.3194" stroke="#15357A" stroke-width="3.31644"/>
</svg>
