<svg width="141" height="24" viewBox="0 0 141 24" fill="none" xmlns="http://www.w3.org/2000/svg">
<g clip-path="url(#clip0_454_26)">
<path d="M68.7609 7.30453H76.0085V4.66105H65.4649V18.9915H68.7609V13.0611H75.0434V10.6263H68.7609V7.30453ZM87.3351 8.60888H84.3487V14.0524C84.3487 15.0958 84.1848 15.868 83.8206 16.3306C83.6087 16.5762 83.3366 16.7682 83.0285 16.8895C82.7205 17.0108 82.3858 17.0578 82.0542 17.0263C81.7702 17.051 81.4843 17.0066 81.2231 16.8971C80.962 16.7876 80.7342 16.6166 80.561 16.4002C80.2328 15.8138 80.0875 15.1499 80.1422 14.4871V8.60888H77.1558V15.0089C77.1299 15.7691 77.2407 16.5279 77.4835 17.2524C77.6841 17.8675 78.111 18.3926 78.6854 18.7306C79.4287 19.1279 80.2751 19.3149 81.1255 19.2697C81.7583 19.2681 82.3819 19.1252 82.9465 18.8524C83.5525 18.5528 84.0623 18.1021 84.4215 17.548H84.4762V18.9915H87.3169V8.60888H87.3351ZM99.0077 10.348C98.8072 9.73281 98.3803 9.20772 97.8059 8.86975C97.0777 8.48565 96.251 8.30485 95.4204 8.34801C94.7814 8.34689 94.1513 8.4899 93.5812 8.7654C92.9818 9.06748 92.4786 9.51801 92.1244 10.0697H92.0697V8.60888H89.229V18.9915H92.2154V13.5654C92.2154 12.5219 92.3866 11.7497 92.7617 11.2871C93.1368 10.8245 93.7159 10.5915 94.5281 10.5915C94.8094 10.5678 95.0923 10.6128 95.3504 10.7223C95.6084 10.8319 95.833 11.0023 96.0031 11.2176C96.3313 11.8039 96.4766 12.4678 96.4219 13.1306V18.9915H99.4084V12.5915C99.4342 11.8313 99.3234 11.0724 99.0806 10.348H99.0077ZM102.923 9.09583C102.216 9.59944 101.668 10.2794 101.339 11.0611C100.969 11.8973 100.783 12.797 100.792 13.7045C100.784 14.6385 100.963 15.5654 101.32 16.435C101.66 17.2397 102.22 17.9424 102.941 18.4697C103.72 19.0036 104.659 19.2841 105.618 19.2697C106.283 19.2795 106.942 19.1489 107.548 18.8871C108.128 18.6247 108.611 18.2002 108.932 17.6697H108.969V18.9915H111.809V4.66105H108.823V9.87844H108.787C108.452 9.3715 107.971 8.96707 107.403 8.71322C106.832 8.46017 106.211 8.32957 105.582 8.33062C104.627 8.31234 103.691 8.57994 102.905 9.09583H102.923ZM106.383 10.4871C106.937 10.4686 107.48 10.6415 107.912 10.9741C108.302 11.2936 108.581 11.7179 108.714 12.1915C108.887 12.7021 108.967 13.2375 108.95 13.7741C108.966 14.3322 108.892 14.8893 108.732 15.4263C108.59 15.9008 108.312 16.3283 107.931 16.6611C107.493 16.9954 106.943 17.1682 106.383 17.148C105.834 17.1573 105.302 16.9713 104.89 16.6263C104.493 16.2922 104.192 15.8673 104.015 15.3915C103.844 14.8741 103.758 14.3342 103.761 13.7915C103.738 13.2445 103.812 12.6977 103.979 12.1741C104.132 11.7007 104.422 11.2786 104.817 10.9567C105.257 10.6259 105.805 10.4535 106.365 10.4697L106.383 10.4871ZM116.671 8.60888H113.685V18.9915H116.671V8.60888ZM116.671 7.00888V4.66105H113.685V7.00888H116.671ZM128.399 10.348C128.198 9.73281 127.771 9.20772 127.197 8.86975C126.455 8.46992 125.607 8.28274 124.757 8.33062C124.118 8.3295 123.488 8.47251 122.917 8.74801C122.311 9.04755 121.802 9.4983 121.442 10.0524H121.388V8.60888H118.547V18.9915H121.534V13.5654C121.534 12.5219 121.705 11.7497 122.08 11.2871C122.455 10.8245 123.034 10.5915 123.846 10.5915C124.127 10.5678 124.41 10.6128 124.668 10.7223C124.927 10.8319 125.151 11.0023 125.321 11.2176C125.649 11.8039 125.795 12.4678 125.74 13.1306V18.9915H128.726V12.5915C128.752 11.8313 128.641 11.0724 128.399 10.348ZM132.332 9.06105C131.637 9.54049 131.09 10.1891 130.748 10.9393C130.391 11.7359 130.211 12.5946 130.22 13.4611C130.207 14.3568 130.367 15.2471 130.693 16.0871C130.992 16.8418 131.518 17.4952 132.205 17.9654C132.995 18.4562 133.921 18.7106 134.863 18.6958C135.512 18.7003 136.154 18.5635 136.739 18.2958C137.318 18.0327 137.801 17.6083 138.123 17.0784H138.159V18.435C138.215 19.1003 138.014 19.7621 137.595 20.2958C137.372 20.5445 137.091 20.74 136.775 20.8668C136.459 20.9936 136.116 21.0482 135.774 21.0263C135.286 21.0395 134.803 20.9316 134.372 20.7132C134.162 20.5879 133.981 20.423 133.84 20.2286C133.699 20.0343 133.601 19.8145 133.552 19.5828H130.584C130.61 20.2985 130.9 20.9825 131.403 21.5132C131.902 22.009 132.521 22.3793 133.206 22.5915C133.903 22.8208 134.636 22.9384 135.373 22.9393C136.392 22.966 137.407 22.8006 138.36 22.4524C138.966 22.2298 139.507 21.8697 139.935 21.4031C140.363 20.9365 140.666 20.3774 140.818 19.7741C140.944 19.3025 141.005 18.8173 141 18.3306V8.60888H138.159V9.98279H138.123C137.82 9.43782 137.35 8.99467 136.775 8.71322C136.191 8.44514 135.547 8.31965 134.9 8.34801C133.991 8.33241 133.1 8.58774 132.35 9.07844L132.332 9.06105ZM133.479 11.9828C133.637 11.5597 133.914 11.1865 134.281 10.9045C134.674 10.6226 135.155 10.4756 135.646 10.4871C136.19 10.4674 136.723 10.6271 137.158 10.9393C137.543 11.2408 137.822 11.6473 137.959 12.1045C138.119 12.6177 138.193 13.1519 138.177 13.6871C138.182 14.1634 138.089 14.636 137.904 15.0784C137.725 15.4999 137.43 15.8667 137.048 16.1393C136.639 16.4173 136.148 16.5635 135.646 16.5567C135.12 16.5737 134.606 16.3997 134.208 16.0697C133.839 15.7612 133.573 15.356 133.443 14.9045C133.285 14.4327 133.211 13.9389 133.224 13.4437C133.219 12.9462 133.306 12.4518 133.479 11.9828ZM26.4409 11.7393C26.8901 11.4958 27.3636 11.2118 27.8613 10.8871C28.3736 10.5921 28.8293 10.2157 29.2088 9.77409C29.5537 9.3845 29.7467 8.8929 29.7551 8.38279V8.27844C29.7551 7.20018 29.4565 6.4454 28.8993 6.01757C28.2967 5.55902 27.5377 5.32979 26.7687 5.37409C25.3738 5.37409 24.3832 5.83322 23.8005 6.71322C23.2246 7.69861 22.959 8.8219 23.0356 9.94801V10.2611H16.2979C16.2916 10.1916 16.2916 10.1218 16.2979 10.0524C16.2869 9.91923 16.2869 9.78548 16.2979 9.65236L16.3708 8.31322C16.4603 7.05117 16.8198 5.82003 17.427 4.69583C18.0154 3.54757 18.8987 2.56035 19.9946 1.82627C19.3594 1.28417 18.6161 0.870108 17.8094 0.608877C16.5123 0.172537 15.1411 -0.0280198 13.7668 0.0175722H0V24.0002H14.9868C15.2423 24.0058 15.4979 23.9942 15.7516 23.9654H15.8063V23.9306C15.8063 23.6419 15.8063 23.3567 15.8063 23.0784C15.826 22.3118 15.9546 21.5512 16.1887 20.8176C16.4918 19.846 16.9726 18.9333 17.6091 18.1219C18.3215 17.1961 19.1605 16.3655 20.1038 15.6524C20.8964 15.0259 21.7363 14.4562 22.6168 13.948C22.6168 13.9132 22.635 13.8958 22.6714 13.8958L23.1813 13.5828C24.2642 12.9567 25.3447 12.3364 26.4227 11.7219L26.4409 11.7393ZM13.7485 6.08714C13.9831 6.2159 14.1755 6.4045 14.3042 6.6318C14.4328 6.85911 14.4926 7.11614 14.4769 7.37409C14.4769 8.12888 14.2475 8.65409 13.785 8.9567C13.1839 9.25217 12.5116 9.39019 11.8365 9.3567H7.75746V5.72192H11.8183C12.4832 5.6921 13.1457 5.81745 13.7485 6.08714ZM7.75746 18.2958V13.8263H12.6013C13.5118 13.8263 14.1917 14.0118 14.6408 14.3828C14.8671 14.5903 15.0431 14.8427 15.1563 15.1221C15.2696 15.4015 15.3174 15.7012 15.2964 16.0002C15.2964 16.9045 14.999 17.5248 14.4041 17.861C13.7562 18.1913 13.0245 18.3419 12.2917 18.2958H7.75746Z" fill="#15357A"/>
<path d="M53.9016 6.00019C53.886 5.3312 53.7632 4.66844 53.5374 4.03497C53.2913 3.31314 52.8879 2.64929 52.3538 2.08714C51.6664 1.41383 50.8249 0.901877 49.8954 0.591491C48.892 0.235501 47.8335 0.041545 46.7633 0.0175781C46.6285 0.0175781 46.4829 0.0175781 46.3263 0.0175781H27.8249C29.3024 0.0566352 30.7645 0.31479 32.1589 0.782796C33.571 1.26358 34.8052 2.12799 35.7098 3.26975C36.5877 4.49662 37.0342 5.95843 36.9845 7.44367V7.65236C36.973 8.94251 36.609 10.2074 35.9283 11.3219C35.2519 12.399 34.3536 13.3338 33.2879 14.0698C32.1764 14.8778 30.9945 15.5934 29.7552 16.2089C28.5047 16.8605 27.2907 17.5213 26.1132 18.1915H37.3305V24.0002H46.3445C47.806 24.0059 49.2521 23.7155 50.5874 23.148C51.8866 22.6445 53.0102 21.8004 53.8288 20.7132C54.7206 19.5502 55.1819 18.1368 55.1399 16.6958C55.1727 15.6781 54.9609 14.6667 54.5208 13.7393C54.1378 12.9984 53.591 12.3457 52.9183 11.8263C52.2762 11.3416 51.5484 10.9705 50.7695 10.7306C51.6582 10.3021 52.431 9.68308 53.0275 8.92193C53.6325 8.05963 53.9382 7.03754 53.9016 6.00019ZM43.9225 5.70454C44.5875 5.67472 45.25 5.80007 45.8528 6.06975C46.0874 6.19851 46.2798 6.38711 46.4084 6.61442C46.5371 6.84172 46.5969 7.09876 46.5812 7.35671C46.5812 8.12193 46.3505 8.64367 45.8892 8.92193C45.2959 9.24005 44.6202 9.39082 43.9407 9.35671H39.8435V5.70454H43.9043H43.9225ZM44.3596 18.2784H39.8435V13.7915H44.6874C45.5979 13.7915 46.2777 13.9828 46.7269 14.3654C46.9627 14.5705 47.1461 14.8245 47.2629 15.1079C47.3798 15.3914 47.4269 15.6966 47.4006 16.0002C47.3752 16.8941 47.0801 17.5063 46.5084 17.8437C45.8526 18.1875 45.105 18.3388 44.3596 18.2784Z" fill="#3AB8FA"/>
</g>
<defs>
<clipPath id="clip0_454_26">
<rect width="141" height="24" fill="white"/>
</clipPath>
</defs>
</svg>
