<svg width="79" height="44" viewBox="0 0 79 44" fill="none" xmlns="http://www.w3.org/2000/svg">
<path d="M49.125 40.2598H43.5C42.5054 40.2598 41.5516 39.8647 40.8483 39.1614C40.1451 38.4582 39.75 37.5043 39.75 36.5098V23.3848C39.75 22.3902 40.1451 21.4364 40.8483 20.7331C41.5516 20.0299 42.5054 19.6348 43.5 19.6348H49.125M62.25 15.8848V8.38477C62.25 6.89292 61.6574 5.46218 60.6025 4.40729C59.5476 3.3524 58.1168 2.75977 56.625 2.75977L49.125 19.6348V40.2598H70.275C71.1794 40.27 72.057 39.953 72.7461 39.3673C73.4352 38.7815 73.8894 37.9665 74.025 37.0723L76.6125 20.1973C76.6941 19.6598 76.6578 19.111 76.5063 18.589C76.3547 18.0669 76.0914 17.5841 75.7347 17.1739C75.378 16.7636 74.9364 16.4359 74.4404 16.2133C73.9445 15.9907 73.4061 15.8786 72.8625 15.8848H62.25Z" stroke="#3AB8FA" stroke-width="3.75" stroke-linecap="round" stroke-linejoin="round"/>
<path fill-rule="evenodd" clip-rule="evenodd" d="M25.7493 6.50506C34.2699 7.38076 40.916 14.5804 40.916 23.3323C40.916 32.6751 33.3422 40.249 23.9993 40.249C15.2474 40.249 8.04779 33.6029 7.1721 25.0823H23.9993C24.9658 25.0823 25.7493 24.2988 25.7493 23.3323V6.50506ZM44.416 23.3323C44.416 12.0565 35.2752 2.91565 23.9993 2.91565C23.0329 2.91565 22.2493 3.69915 22.2493 4.66565V21.5823H5.33268C4.36619 21.5823 3.58268 22.3658 3.58268 23.3323C3.58268 34.6081 12.7235 43.749 23.9993 43.749C35.2752 43.749 44.416 34.6081 44.416 23.3323Z" fill="#15357A"/>
<path fill-rule="evenodd" clip-rule="evenodd" d="M15.8327 3.90415V15.1656H4.57119C5.88492 9.60204 10.2691 5.21788 15.8327 3.90415ZM17.004 0.14282C8.55658 1.19405 1.86109 7.88954 0.809856 16.3369C0.650715 17.6157 1.71069 18.6656 2.99935 18.6656H18.166C18.8103 18.6656 19.3327 18.1433 19.3327 17.499V2.33231C19.3327 1.04365 18.2828 -0.0163192 17.004 0.14282Z" fill="#15357A"/>
</svg>
