<svg width="161" height="26" viewBox="0 0 161 26" fill="none" xmlns="http://www.w3.org/2000/svg">
<path d="M159.922 10.3442C159.454 9.85062 158.865 9.49983 158.219 9.32967C157.526 9.1458 156.813 9.05449 156.098 9.05794C155.585 9.05878 155.073 9.10728 154.568 9.20286C154.06 9.30604 153.569 9.48288 153.108 9.72823C152.663 9.94988 152.28 10.2867 151.996 10.7065C151.702 11.1601 151.556 11.6998 151.578 12.2463C151.55 12.8163 151.696 13.3811 151.996 13.8587C152.287 14.2587 152.669 14.5763 153.108 14.7826C153.59 14.9952 154.091 15.159 154.603 15.2717C155.135 15.3804 155.663 15.4963 156.185 15.634C156.369 15.6956 156.592 15.7536 156.845 15.8152C157.07 15.8778 157.282 15.9821 157.471 16.1232C157.563 16.195 157.637 16.288 157.689 16.3949C157.74 16.5018 157.767 16.6196 157.767 16.7391C157.76 16.9861 157.66 17.2203 157.489 17.3913C157.312 17.5498 157.104 17.6671 156.88 17.7355C156.666 17.805 156.444 17.8416 156.22 17.8442C155.997 17.846 155.774 17.8156 155.559 17.7536C155.36 17.6965 155.172 17.6046 155.003 17.4818C154.852 17.3473 154.723 17.1883 154.62 17.0108C154.523 16.796 154.475 16.5601 154.481 16.3224H151.387C151.385 17.1441 151.662 17.9399 152.17 18.5688C152.643 19.1193 153.258 19.5156 153.943 19.7101C154.689 19.9298 155.461 20.0396 156.237 20.0362C156.805 20.0368 157.37 19.9699 157.923 19.8369C158.463 19.7237 158.98 19.5154 159.453 19.221C159.907 18.9401 160.289 18.5485 160.565 18.0797C160.861 17.5529 161.012 16.9509 161 16.3405C160.989 15.9902 160.912 15.6456 160.774 15.3261C160.608 14.9141 160.345 14.5526 160.009 14.2753C159.566 13.9027 159.04 13.6534 158.479 13.5507C158.097 13.4674 157.69 13.3876 157.263 13.3152C156.87 13.2463 156.481 13.1556 156.098 13.0434C155.78 12.9576 155.475 12.8233 155.194 12.6449C155.087 12.5891 154.996 12.504 154.932 12.3987C154.868 12.2934 154.832 12.1718 154.829 12.0471C154.822 11.9476 154.842 11.848 154.884 11.7588C154.927 11.6696 154.992 11.594 155.072 11.5398C155.23 11.4174 155.416 11.3422 155.611 11.3224C155.812 11.2879 156.016 11.2697 156.22 11.2681C156.419 11.2661 156.617 11.2905 156.811 11.3405C156.969 11.3687 157.118 11.4372 157.245 11.5398C157.391 11.6193 157.507 11.7467 157.576 11.9021C157.638 12.0694 157.668 12.2481 157.662 12.4275H160.67C160.669 11.6675 160.403 10.9336 159.922 10.3623V10.3442ZM148.867 9.38402V6.26808H145.599V9.38402H143.947V11.5579H145.599V16.1594C145.563 16.8956 145.658 17.6324 145.877 18.3333C145.97 18.5859 146.11 18.8169 146.289 19.0128C146.468 19.2086 146.682 19.3656 146.92 19.4746C147.607 19.7192 148.333 19.8237 149.058 19.7826C149.347 19.7826 149.642 19.7826 149.945 19.7463C150.247 19.7101 150.529 19.7029 150.831 19.692V17.2282C150.692 17.2282 150.553 17.2282 150.414 17.2463C150.275 17.2645 150.136 17.2463 149.997 17.2463C149.7 17.2732 149.402 17.2036 149.145 17.0471C149.03 16.9544 148.941 16.832 148.886 16.6921C148.831 16.5522 148.813 16.3998 148.832 16.25V11.5398H150.831V9.36591H148.832L148.867 9.38402ZM136.316 9.36591H133.17V19.7101H136.421V14.0579C136.42 13.6939 136.478 13.3324 136.594 12.9891C136.717 12.6716 136.914 12.3913 137.168 12.1739C137.463 11.9591 137.817 11.8509 138.176 11.8659C138.813 11.8659 139.244 12.0543 139.463 12.3913C139.71 12.7621 139.833 13.2082 139.81 13.6594V19.7101H143.061V13.0797C143.069 12.6551 143.04 12.2306 142.974 11.8116C142.899 11.3496 142.739 10.9069 142.505 10.5072C142.252 10.0652 141.884 9.70713 141.444 9.4746C140.824 9.17698 140.145 9.03431 139.463 9.05794C139.06 9.05959 138.66 9.13311 138.281 9.27533C137.882 9.40501 137.507 9.60076 137.168 9.85504C136.845 10.1044 136.573 10.4185 136.368 10.779H136.316V9.36591ZM123.609 9.78257C123.164 10.0452 122.788 10.4186 122.514 10.8695C122.221 11.3852 122.065 11.973 122.062 12.5724H125.087C125.131 12.1878 125.319 11.8367 125.608 11.5942C125.931 11.35 126.323 11.2285 126.721 11.25C126.962 11.2513 127.202 11.2879 127.434 11.3587C127.66 11.4221 127.868 11.54 128.042 11.7029C128.125 11.7846 128.19 11.8829 128.235 11.9919C128.28 12.1009 128.303 12.2183 128.303 12.3369C128.316 12.4564 128.303 12.5775 128.263 12.6907C128.224 12.8038 128.16 12.906 128.077 12.9891C127.893 13.1502 127.671 13.2566 127.434 13.2971C126.852 13.4058 126.232 13.5024 125.574 13.5869C124.937 13.6661 124.309 13.8056 123.696 14.0036C123.142 14.185 122.645 14.5163 122.254 14.9637C121.838 15.5073 121.628 16.1902 121.663 16.884C121.639 17.5015 121.79 18.1127 122.097 18.6413C122.392 19.1069 122.817 19.4672 123.314 19.6739C123.858 19.9159 124.444 20.0392 125.035 20.0362C125.637 20.0378 126.235 19.94 126.808 19.7463C127.382 19.5457 127.9 19.2039 128.32 18.75C128.345 18.9203 128.362 19.0869 128.372 19.2572C128.408 19.4176 128.454 19.575 128.511 19.7282H131.779C131.594 19.3179 131.482 18.8759 131.449 18.4239C131.404 17.9726 131.387 17.5188 131.397 17.0652V12.5362C131.441 11.7375 131.199 10.9502 130.719 10.3261C130.26 9.8194 129.667 9.46629 129.016 9.31156C127.725 9.00677 126.389 8.97596 125.087 9.22098C124.569 9.32481 124.07 9.51441 123.609 9.78257ZM125.296 15.8333C125.583 15.6257 125.908 15.4837 126.252 15.4166C126.599 15.3188 126.975 15.2427 127.347 15.1811C127.661 15.1247 127.965 15.021 128.251 14.8732C128.31 15.9347 128.181 16.7101 127.868 17.192C127.555 17.6739 127.034 17.9166 126.269 17.9166C125.933 17.9407 125.597 17.8518 125.313 17.663C125.179 17.5544 125.073 17.4136 125.003 17.2526C124.934 17.0916 124.903 16.9154 124.913 16.7391C124.904 16.5673 124.933 16.3957 125 16.2382C125.066 16.0807 125.168 15.942 125.296 15.8333ZM113.753 5.48909H110.503V19.7101H113.753V14.0579C113.752 13.6939 113.811 13.3324 113.927 12.9891C114.05 12.6716 114.247 12.3913 114.501 12.1739C114.796 11.9591 115.15 11.8509 115.509 11.8659C116.145 11.8659 116.576 12.0543 116.795 12.3913C117.037 12.7643 117.153 13.2103 117.126 13.6594V19.7101H120.376V13.0797C120.385 12.6551 120.356 12.2306 120.289 11.8116C120.214 11.3496 120.055 10.9069 119.82 10.5072C119.572 10.0678 119.211 9.70991 118.777 9.4746C118.162 9.17973 117.49 9.03713 116.813 9.05794C116.41 9.05959 116.01 9.13311 115.631 9.27533C115.243 9.40527 114.879 9.60115 114.553 9.85504C114.243 10.1029 113.987 10.4182 113.806 10.779H113.771V5.48909H113.753ZM104.262 9.05794C103.299 9.04341 102.351 9.30001 101.516 9.80069C100.739 10.2585 100.11 10.9456 99.708 11.7753C99.275 12.6872 99.0547 13.6927 99.0649 14.7101C99.0631 15.6868 99.3026 16.6476 99.7602 17.5C100.191 18.2879 100.831 18.9295 101.603 19.3478C102.429 19.796 103.348 20.0262 104.28 20.0181C105.107 20.0303 105.926 19.8509 106.679 19.4927C107.368 19.1734 107.967 18.6742 108.417 18.0434C108.889 17.335 109.176 16.5111 109.251 15.6521H106.105C106.068 16.1457 105.872 16.6117 105.549 16.9746C105.193 17.2972 104.733 17.4658 104.262 17.4456C103.855 17.4549 103.458 17.3065 103.15 17.0289C102.852 16.7607 102.635 16.4084 102.524 16.0145C102.383 15.6018 102.312 15.1664 102.315 14.7282C102.312 14.2414 102.359 13.7555 102.455 13.279C102.55 12.8462 102.761 12.4505 103.063 12.1376C103.438 11.7987 103.923 11.6235 104.419 11.6485C104.824 11.6521 105.216 11.799 105.531 12.0652C105.68 12.2017 105.8 12.3687 105.883 12.5557C105.967 12.7428 106.013 12.9458 106.018 13.1521H109.164C109.103 12.332 108.82 11.5467 108.347 10.8876C107.885 10.2836 107.28 9.81532 106.592 9.52895C105.855 9.20661 105.062 9.04626 104.262 9.05794ZM95.345 9.36591H92.1813V19.7101H95.4319V14.5833C95.4269 14.161 95.5224 13.7439 95.71 13.3695C95.8966 12.9933 96.1873 12.684 96.5444 12.4818C96.9496 12.2339 97.4131 12.1085 97.8829 12.1195C98.092 12.1183 98.3009 12.1304 98.5086 12.1558C98.7137 12.1932 98.9168 12.2415 99.117 12.3007V9.2391C98.9909 9.21217 98.8631 9.19401 98.7346 9.18475C98.606 9.18475 98.4808 9.16663 98.3522 9.16663C97.71 9.15226 97.077 9.32815 96.527 9.67388C95.9939 10.0272 95.5899 10.5566 95.3797 11.1775H95.345V9.36591ZM82.9336 9.78257C82.1397 10.2268 81.4737 10.8833 81.0041 11.6847C80.5197 12.5414 80.2618 13.5165 80.2566 14.5108C80.2383 15.5471 80.4778 16.5707 80.952 17.4818C81.3913 18.291 82.0505 18.9465 82.8467 19.3659C83.7364 19.8083 84.7118 20.0315 85.6975 20.0181C86.419 20.0242 87.1363 19.9017 87.8182 19.6558C88.4724 19.4247 89.067 19.0405 89.5565 18.5326C90.0761 17.999 90.4484 17.3294 90.6342 16.5942H87.6096C87.4579 16.9565 87.195 17.256 86.8621 17.4456C86.5179 17.6288 86.1361 17.7221 85.7496 17.7174C85.4556 17.7317 85.1618 17.6828 84.8867 17.5737C84.6116 17.4646 84.361 17.2977 84.1504 17.0833C83.7441 16.6104 83.5211 15.997 83.5246 15.3623H90.808C90.8817 14.2747 90.7152 13.184 90.3213 12.1739C89.9724 11.2596 89.3665 10.4766 88.583 9.9275C87.7071 9.32816 86.6753 9.02454 85.6279 9.05794C84.6908 9.05644 83.769 9.30597 82.951 9.78257H82.9336ZM86.9838 11.9565C87.3384 12.372 87.5414 12.9043 87.5574 13.4601H83.5072C83.5842 12.8923 83.834 12.3652 84.2199 11.9565C84.4033 11.7686 84.6207 11.6206 84.8594 11.5211C85.0981 11.4216 85.3535 11.3725 85.6106 11.3768C85.8655 11.3733 86.1183 11.4265 86.3521 11.5327C86.5859 11.6389 86.7953 11.7957 86.9664 11.9927L86.9838 11.9565ZM68.7666 5.48909H63.5169V19.7101H66.8718V8.91301H66.9066L69.7748 19.7101H72.5039L75.3547 8.91301H75.4068V19.7101H78.7443V5.48909H73.5121L71.148 14.9637H71.1133L68.7666 5.48909ZM13.1414 0.0180806H0V25H14.3061C14.55 25.0059 14.7939 24.9937 15.0362 24.9637H15.0883V24.9275C15.0883 24.6268 15.0883 24.3297 15.0883 24.0398C15.1071 23.2412 15.2299 22.4489 15.4534 21.6847C15.7427 20.6727 16.2017 19.722 16.8092 18.8768C17.4893 17.9123 18.2902 17.0472 19.1907 16.3043C19.9472 15.6517 20.749 15.0583 21.5895 14.5289C21.5895 14.4927 21.6069 14.4746 21.6417 14.4746L22.1284 14.1485C23.1621 13.4963 24.1935 12.8502 25.2225 12.2101C25.6513 11.9565 26.1033 11.6606 26.5784 11.3224C27.0674 11.0151 27.5024 10.623 27.8647 10.163C28.1965 9.76446 28.3867 9.25918 28.4036 8.73185V8.62315C28.4036 7.49996 28.1185 6.71373 27.5866 6.26808C27.0114 5.79042 26.2869 5.55164 25.5528 5.59779C24.2213 5.59779 23.2756 6.07605 22.7194 6.99272C22.1697 8.01916 21.9161 9.18925 21.9893 10.3623V10.6884H15.5577C15.5516 10.616 15.5516 10.5433 15.5577 10.471C15.5471 10.3323 15.5471 10.193 15.5577 10.0543L15.6272 8.65938C15.7127 7.34474 16.0558 6.06231 16.6354 4.89127C17.1971 3.69516 18.0403 2.66681 19.0864 1.90214C18.48 1.33746 17.7705 0.906139 17.0004 0.634023C15.7623 0.179502 14.4534 -0.0294111 13.1414 0.0180806ZM7.4051 5.96011H11.2815C11.9162 5.92905 12.5486 6.05963 13.1241 6.34054C13.348 6.47467 13.5316 6.67113 13.6544 6.9079C13.7772 7.14468 13.8343 7.41242 13.8194 7.68112C13.8194 8.46736 13.6003 9.01446 13.1588 9.32967C12.5851 9.63745 11.9433 9.78122 11.2989 9.74634H7.4051V5.96011ZM13.9758 14.9818C14.1918 15.198 14.3598 15.4609 14.4679 15.752C14.576 16.043 14.6216 16.3552 14.6016 16.6666C14.6016 17.6087 14.3177 18.2548 13.7498 18.605C13.1314 18.949 12.4329 19.1059 11.7334 19.0579H7.4051V14.4021H12.0289C12.8981 14.4021 13.547 14.5954 13.9758 14.9818Z" fill="#15357A"/>
<path d="M49.9764 2.17386C49.3203 1.47249 48.517 0.939211 47.6297 0.615893C46.6719 0.245069 45.6614 0.0430319 44.6399 0.0180664C44.5113 0.0180664 44.3722 0.0180664 44.2227 0.0180664H26.5617C27.9721 0.0587509 29.3678 0.327662 30.6988 0.815168C32.0468 1.31598 33.225 2.21641 34.0885 3.40575C34.9265 4.68374 35.3527 6.20645 35.3053 7.75357V7.97097C35.2943 9.31487 34.9468 10.6325 34.2971 11.7934C33.6514 12.9154 32.7939 13.8892 31.7766 14.6557C30.7156 15.4974 29.5874 16.2429 28.4043 16.884C27.2107 17.5628 26.0518 18.2512 24.9277 18.9492H35.6356V25H44.2401C45.6352 25.0059 47.0157 24.7034 48.2903 24.1123C49.5305 23.5877 50.6031 22.7085 51.3844 21.576C52.2357 20.3645 52.6761 18.8923 52.636 17.3913C52.6673 16.3311 52.4652 15.2776 52.045 14.3115C51.6794 13.5398 51.1575 12.8599 50.5153 12.3188C49.9024 11.8139 49.2077 11.4274 48.4641 11.1775C49.3124 10.7311 50.0502 10.0863 50.6196 9.29343C51.197 8.39521 51.4889 7.33052 51.454 6.24995C51.4391 5.55309 51.3218 4.86272 51.1063 4.20285C50.8714 3.45094 50.4863 2.75943 49.9764 2.17386ZM43.7534 6.32241C43.9773 6.45654 44.1609 6.653 44.2837 6.88977C44.4065 7.12655 44.4637 7.39429 44.4487 7.66299C44.4487 8.4601 44.2285 9.00357 43.7881 9.29343C43.2218 9.62481 42.5768 9.78186 41.9282 9.74633H38.0344V5.94198H41.9108C42.5455 5.91092 43.1779 6.0415 43.7534 6.32241ZM38.0344 14.3659H42.6582C43.5274 14.3659 44.1763 14.5652 44.6051 14.9637C44.8303 15.1773 45.0053 15.4419 45.1168 15.7372C45.2283 16.0324 45.2733 16.3504 45.2483 16.6666C45.224 17.5978 44.9424 18.2355 44.3965 18.5869C43.7724 18.9514 43.0587 19.1152 42.3454 19.0579H38.0344V14.3659Z" fill="#3AB8FA"/>
</svg>
