<?xml version="1.0" standalone="no"?>
<!DOCTYPE svg PUBLIC "-//W3C//DTD SVG 20010904//EN"
 "http://www.w3.org/TR/2001/REC-SVG-20010904/DTD/svg10.dtd">
<svg version="1.0" xmlns="http://www.w3.org/2000/svg"
 width="16.000000pt" height="16.000000pt" viewBox="0 0 16.000000 16.000000"
 preserveAspectRatio="xMidYMid meet">
<metadata>
Created by potrace 1.11, written by Peter Selinger 2001-2013
</metadata>
<g transform="translate(0.000000,16.000000) scale(0.005714,-0.005714)"
fill="#000000" stroke="none">
<path d="M1241 2620 c-8 -4 -22 -7 -32 -5 -10 2 -21 0 -24 -4 -2 -5 -16 -7
-30 -6 -14 2 -25 0 -25 -4 0 -4 -6 -8 -12 -8 -28 -1 -82 -14 -114 -28 -19 -8
-34 -11 -34 -8 0 3 -7 -1 -17 -8 -9 -8 -17 -13 -17 -11 -2 6 -86 -32 -86 -40
0 -4 -7 -8 -16 -8 -8 0 -32 -11 -52 -25 -20 -14 -42 -25 -48 -25 -7 0 -14 -4
-16 -8 -1 -4 -21 -21 -43 -37 -70 -52 -200 -176 -245 -236 -14 -18 -31 -38
-38 -46 -7 -7 -10 -13 -5 -13 4 0 0 -5 -9 -11 -10 -5 -18 -16 -18 -23 0 -8 -7
-17 -16 -20 -9 -4 -14 -9 -11 -12 3 -3 -8 -26 -23 -51 -16 -25 -27 -50 -24
-54 3 -5 0 -9 -5 -9 -6 0 -11 -7 -11 -15 0 -8 -4 -15 -10 -15 -5 0 -9 -3 -8
-7 3 -9 -20 -80 -35 -108 -6 -11 -12 -33 -13 -50 -4 -31 -11 -70 -14 -70 -3 0
-12 -42 -13 -67 -1 -16 -5 -28 -9 -28 -5 0 -8 -5 -8 -11 0 -5 4 -7 10 -4 5 3
10 1 10 -4 0 -6 -4 -11 -9 -11 -14 0 -12 -272 2 -289 7 -9 8 -12 1 -8 -6 3
-11 0 -11 -8 0 -8 4 -12 9 -9 4 3 9 -7 9 -23 2 -47 6 -70 13 -90 5 -10 10 -29
12 -43 3 -14 7 -32 11 -40 6 -15 7 -18 14 -50 2 -8 7 -17 10 -20 3 -3 16 -31
28 -63 13 -31 28 -57 33 -57 5 0 7 -4 4 -9 -3 -5 3 -20 14 -33 10 -14 20 -31
22 -39 2 -7 12 -21 23 -31 11 -9 17 -17 13 -18 -21 -1 157 -192 249 -268 l53
-43 22 24 c13 14 32 37 42 52 11 14 27 34 35 45 9 10 30 35 46 56 67 85 96
120 120 146 14 15 25 29 25 32 0 6 31 45 58 72 6 7 12 15 12 18 0 3 8 14 18
24 9 10 33 38 52 62 19 24 41 49 47 56 7 7 13 15 13 18 0 3 8 14 18 24 9 10
33 38 52 62 19 24 43 52 53 62 9 10 17 20 17 23 0 7 31 44 53 64 9 8 17 21 17
28 0 7 4 13 8 13 4 0 26 24 47 53 22 28 42 54 46 57 3 3 19 24 36 47 17 23 33
39 37 36 3 -3 6 1 6 10 0 8 3 17 8 19 4 2 32 35 62 73 30 39 57 72 60 75 4 3
26 31 49 63 24 31 48 57 53 57 5 0 7 4 4 9 -4 5 -2 11 2 13 5 1 30 30 57 63
26 32 53 65 59 71 6 6 18 22 26 34 8 13 24 32 35 44 11 12 39 46 62 76 23 30
50 64 60 75 10 11 30 36 45 57 15 20 34 43 42 51 8 8 13 16 12 18 -2 2 2 10
10 17 11 10 14 10 15 0 1 -7 2 -335 3 -728 1 -543 -1 -718 -10 -727 -10 -10
-13 -10 -17 0 -4 9 -6 9 -6 -1 -1 -8 -6 -10 -13 -6 -16 10 -88 11 -88 2 0 -4
-10 -4 -22 0 -24 8 -80 7 -103 -2 -8 -3 -17 -1 -21 5 -4 6 -11 6 -20 -2 -8 -6
-14 -7 -14 -2 0 6 -15 9 -34 6 -20 -2 -38 2 -42 8 -5 8 -3 9 7 4 12 -8 12 -6
0 8 -10 13 -10 17 -1 17 9 0 9 4 -1 17 -12 14 -12 15 -1 9 11 -7 12 -4 3 13
-9 16 -9 21 0 21 8 0 8 4 -1 15 -10 12 -10 18 0 30 9 11 9 15 1 15 -9 0 -9 5
0 21 8 16 8 20 -1 14 -9 -6 -9 -2 -1 14 8 14 8 21 1 21 -7 0 -8 6 -1 18 5 10
6 24 1 32 -5 8 -5 21 0 31 5 9 6 19 3 23 -11 11 -10 46 1 46 6 0 5 5 -2 12 -8
8 -9 15 -1 25 9 9 8 13 0 13 -8 0 -9 5 -2 19 10 18 6 31 -11 31 -4 0 -8 -7 -8
-16 0 -8 -4 -12 -10 -9 -5 3 -10 2 -10 -2 0 -9 -28 -47 -65 -89 -11 -12 -27
-32 -35 -45 -8 -12 -27 -35 -42 -50 -15 -16 -25 -29 -23 -29 5 0 -18 -29 -41
-54 -6 -6 -35 -43 -65 -81 -56 -73 -62 -81 -104 -128 -14 -15 -25 -31 -25 -35
0 -4 -14 -22 -31 -39 -16 -18 -28 -33 -25 -33 5 0 -8 -15 -71 -85 -12 -14 -20
-25 -18 -25 5 0 -28 -40 -57 -72 -10 -10 -18 -22 -18 -27 0 -5 -3 -11 -7 -13
-10 -4 -116 -136 -131 -163 -6 -11 -12 -16 -12 -11 0 5 -12 -8 -26 -30 -24
-35 -25 -39 -9 -51 10 -7 21 -10 26 -8 4 3 20 0 36 -6 24 -10 47 -15 100 -23
7 -1 15 -5 19 -8 3 -4 12 -4 19 -2 7 3 23 0 35 -6 18 -10 21 -10 14 2 -6 10
-5 11 7 2 21 -16 233 -19 224 -3 -6 9 -4 10 6 3 16 -10 80 -13 74 -4 -2 4 15
7 37 8 23 1 44 5 47 10 3 4 17 7 31 6 14 0 30 4 37 9 7 5 17 6 22 3 5 -4 12
-2 15 3 3 4 20 12 38 16 18 4 38 9 43 10 29 7 185 89 185 97 0 5 4 7 8 4 8 -5
128 79 177 124 58 53 119 117 154 160 20 25 45 53 55 63 10 9 16 17 12 17 -7
0 29 57 44 70 7 6 80 158 80 166 0 3 6 20 14 37 12 28 31 92 26 92 -1 0 4 13
10 29 10 27 17 62 26 136 7 59 11 260 5 260 -3 0 -6 21 -7 48 0 26 -4 63 -8
82 -13 68 -15 75 -20 95 -2 11 -5 20 -6 20 -1 0 -3 8 -5 18 -2 10 -7 26 -11
35 -4 9 -9 25 -10 35 -2 10 -15 39 -29 66 -13 27 -21 51 -18 55 4 3 1 6 -5 6
-7 0 -12 5 -12 10 0 6 -18 38 -40 71 -22 33 -40 62 -40 65 0 2 -8 13 -17 23
-42 45 -72 81 -69 81 2 0 -15 19 -38 43 -22 24 -44 42 -48 40 -5 -2 -8 -1 -8
4 0 4 -11 21 -25 37 -14 16 -25 25 -25 20 0 -5 -10 1 -22 14 -38 36 -85 72
-97 72 -6 0 -11 3 -11 8 0 4 -10 12 -23 18 -12 6 -47 24 -78 40 -30 16 -71 35
-90 42 -19 7 -42 18 -51 23 -10 5 -26 9 -36 9 -10 0 -22 3 -26 7 -6 7 -32 12
-73 16 -13 1 -23 5 -23 8 0 6 -7 8 -67 11 -24 1 -43 5 -43 8 0 4 -61 7 -136 8
-105 1 -133 -1 -128 -11 6 -9 5 -9 -7 0 -9 7 -20 8 -28 3z m-33 -1093 c200
-240 191 -200 76 -329 -13 -15 -24 -32 -24 -37 0 -5 -4 -11 -8 -13 -4 -1 -23
-22 -42 -46 -18 -23 -37 -41 -42 -40 -4 2 -58 63 -120 137 -62 74 -119 136
-125 139 -10 3 -13 -55 -13 -267 l0 -271 -130 0 -130 0 0 470 0 470 192 -2
192 -3 174 -208z"/>
</g>
</svg>
