<?xml version="1.0" encoding="utf-8"?>
<!-- Generator: Adobe Illustrator 22.1.0, SVG Export Plug-In . SVG Version: 6.00 Build 0)  -->
<svg version="1.1" id="Capa_1" xmlns="http://www.w3.org/2000/svg" xmlns:xlink="http://www.w3.org/1999/xlink" x="0px" y="0px"
	 viewBox="0 0 47.9 35.5" style="enable-background:new 0 0 47.9 35.5;" xml:space="preserve">
<g>
	<g>
		<polygon points="34.6,12 33.7,14.1 35.4,14.1 		"/>
	</g>
</g>
<g>
	<g>
		<polygon points="4.1,12 3.2,14.1 5,14.1 		"/>
	</g>
</g>
<g>
	<g>
		<path d="M24.3,12.3c-0.2-0.1-0.4-0.1-0.6-0.1h-1.6v1.2h1.6c0.2,0,0.5,0,0.6-0.1c0.2-0.1,0.3-0.3,0.3-0.5
			C24.6,12.5,24.5,12.3,24.3,12.3z"/>
	</g>
</g>
<g>
	<g>
		<path d="M29.8,21.5c-0.2-0.1-0.4-0.1-0.6-0.1h-1.6v1.2h1.6c0.2,0,0.5,0,0.6-0.1c0.2-0.1,0.3-0.3,0.3-0.5
			C30.1,21.7,30,21.6,29.8,21.5z"/>
	</g>
</g>
<g>
	<g>
		<path d="M23.6,21.4h-1.7v1.4h1.7c0.5,0,0.8-0.2,0.8-0.7C24.4,21.6,24,21.4,23.6,21.4z"/>
	</g>
</g>
<g>
	<g>
		<path d="M47.3,22.2C47.3,22.2,47.2,22.2,47.3,22.2c0.2-0.2,0.4-0.5,0.4-0.8v-1.1c0-0.5-0.4-0.9-0.9-0.9h-2.6
			c-0.8,0-1.4,0.2-1.8,0.6c-0.1-0.3-0.4-0.6-0.8-0.6h-2.6c-0.7,0-1.3,0.2-1.7,0.5c-0.2-0.3-0.4-0.5-0.8-0.5h-4.3
			c-0.3,0-0.6,0.2-0.8,0.5c-0.1,0-0.1-0.1-0.2-0.1c-0.6-0.3-1.3-0.4-2-0.4h-3c-0.3,0-0.6,0.2-0.8,0.5c-0.5-0.3-1.1-0.5-2-0.5h-4.1
			c-0.2,0-0.5,0.1-0.7,0.3l-1,1l-0.9-1c-0.2-0.2-0.4-0.3-0.7-0.3h-5.2c-0.5,0-0.9,0.4-0.9,0.9v5.4c0,0.5,0.4,0.9,0.9,0.9h5.1
			c0.2,0,0.5-0.1,0.6-0.3l1-1.1l0.9,1c0.2,0.2,0.4,0.3,0.7,0.3h2.5c0.5,0,0.9-0.4,0.9-0.9v-0.9h0.7c0.9,0,1.5-0.2,2-0.4v1.4
			c0,0.5,0.4,0.9,0.9,0.9h1.3c0.5,0,0.9-0.4,0.9-0.9v-1.1H29c0.1,0,0.2,0,0.3,0c0,0.1,0,0.2,0,0.3v0.8c0,0.5,0.4,0.9,0.9,0.9h1.3
			c0.1,0,0.3,0,0.4-0.1c0.1,0.1,0.2,0.1,0.4,0.1h4.3c0.1,0,0.3,0,0.4-0.1c0.1,0.1,0.2,0.1,0.4,0.1h2.5c0.8,0,1.4-0.2,1.9-0.5
			c0.1,0.3,0.4,0.5,0.8,0.5H45c1.8,0,2.9-1,2.9-2.6C47.9,23.2,47.7,22.6,47.3,22.2z M23.5,23.8h-1.6v1.8h-2.5l-1.6-1.8l-1.6,1.8
			h-5.1v-5.4h5.2l1.6,1.8l1.6-1.8h4.1c1,0,2.2,0.3,2.2,1.8C25.7,23.5,24.6,23.8,23.5,23.8z M30.6,23.2c0.3,0.1,0.5,0.3,0.6,0.5
			c0.2,0.3,0.2,0.5,0.2,1v1.1h-1.3V25c0-0.3,0-0.8-0.2-1.1c-0.2-0.2-0.5-0.2-0.9-0.2h-1.4v2h-1.3v-5.4h3c0.6,0,1.1,0,1.5,0.3
			c0.4,0.2,0.7,0.6,0.7,1.2C31.5,22.6,30.9,23,30.6,23.2z M36.5,21.4h-3v1h2.9v1.1h-2.9v1.1l3,0v1.1h-4.3v-5.4h4.3V21.4z M39.8,25.6
			h-2.5v-1.2h2.5c0.2,0,0.4,0,0.5-0.1c0.1-0.1,0.2-0.2,0.2-0.4c0-0.2-0.1-0.3-0.2-0.4c-0.1-0.1-0.2-0.1-0.5-0.1
			c-1.2,0-2.7,0-2.7-1.7c0-0.8,0.5-1.6,1.8-1.6h2.6v1.1h-2.4c-0.2,0-0.4,0-0.5,0.1c-0.1,0.1-0.2,0.2-0.2,0.4c0,0.2,0.1,0.3,0.3,0.4
			c0.1,0,0.3,0.1,0.5,0.1l0.7,0c0.7,0,1.2,0.1,1.5,0.4c0.3,0.3,0.4,0.6,0.4,1.1C41.8,25.1,41.1,25.6,39.8,25.6z M45,25.6h-2.5v-1.2
			H45c0.2,0,0.4,0,0.5-0.1c0.1-0.1,0.2-0.2,0.2-0.4c0-0.2-0.1-0.3-0.2-0.4c-0.1-0.1-0.2-0.1-0.5-0.1c-1.2,0-2.7,0-2.7-1.7
			c0-0.8,0.5-1.6,1.8-1.6h2.6v1.1h-2.4c-0.2,0-0.4,0-0.5,0.1c-0.1,0.1-0.2,0.2-0.2,0.4c0,0.2,0.1,0.3,0.3,0.4c0.1,0,0.3,0.1,0.5,0.1
			l0.7,0c0.7,0,1.2,0.1,1.5,0.4c0.2,0.3,0.4,0.6,0.4,1.1C47,25.1,46.3,25.6,45,25.6z"/>
	</g>
</g>
<g>
	<g>
		<path d="M43.2,10.2h-1.3c-0.5,0-0.9,0.4-0.9,0.9v0.6l-0.6-1c-0.2-0.3-0.4-0.4-0.8-0.4h-2c-0.5,0-0.9,0.4-0.9,0.9v0.8l-0.5-1.1
			c-0.1-0.3-0.5-0.5-0.8-0.5h-1.9c-0.2,0-0.4,0.1-0.5,0.2c-0.1-0.1-0.3-0.2-0.5-0.2h-1.2c-1.1,0-1.8,0.3-2.4,0.8
			c-0.1-0.4-0.4-0.8-0.9-0.8h-1.3c-0.4,0-0.6,0.2-0.8,0.5c-0.1,0-0.1-0.1-0.2-0.1c-0.6-0.3-1.2-0.4-2-0.4h-3c-0.2,0-0.3,0.1-0.4,0.1
			c-0.1-0.1-0.3-0.1-0.4-0.1h-4.3c-0.2,0-0.3,0.1-0.5,0.2c-0.1-0.1-0.3-0.2-0.5-0.2h-2.1c-0.4,0-0.7,0.2-0.8,0.5L11,12.5l-0.8-1.8
			c-0.1-0.3-0.5-0.5-0.8-0.5H7.3c-0.5,0-0.9,0.4-0.9,0.9v0.8l-0.5-1.1c-0.1-0.3-0.5-0.5-0.8-0.5H3.2c-0.4,0-0.7,0.2-0.8,0.5
			l-2.3,5.4C0,16.3,0,16.6,0.1,16.9c0.2,0.2,0.4,0.4,0.7,0.4h1.4c0.4,0,0.7-0.2,0.8-0.5l0.3-0.7h1.5l0.3,0.6
			c0.1,0.3,0.5,0.5,0.8,0.5h2.6c0.5,0,0.9-0.4,0.9-0.9v0l0.2,0.4c0.1,0.3,0.5,0.5,0.8,0.5l1.1,0c0.4,0,0.7-0.2,0.8-0.5l0.2-0.4v0
			c0,0.5,0.4,0.9,0.9,0.9h1.3c0.2,0,0.3-0.1,0.5-0.2c0.1,0.1,0.3,0.2,0.5,0.2H20c0.2,0,0.3-0.1,0.4-0.1c0.1,0.1,0.3,0.1,0.4,0.1h1.3
			c0.5,0,0.9-0.4,0.9-0.9v-1.1h0.5c0.1,0,0.2,0,0.2,0c0,0.1,0,0.2,0,0.3l0,0.1l0,0.7c0,0.5,0.4,0.9,0.9,0.9h1.3c0.1,0,0.3,0,0.4-0.1
			c0.1,0.1,0.3,0.1,0.4,0.1h1.3c0.4,0,0.8-0.3,0.9-0.7c0.7,0.6,1.8,0.7,2.3,0.7h1.5c0.4,0,0.7-0.2,0.8-0.6l0.3-0.6h1.5l0.3,0.7
			c0.1,0.3,0.5,0.5,0.8,0.5H39c0.5,0,0.9-0.4,0.9-0.9v-0.8l0.8,1.3c0.2,0.3,0.4,0.4,0.8,0.4h1.8c0.5,0,0.9-0.4,0.9-0.9V11
			C44.1,10.6,43.7,10.2,43.2,10.2z M14.7,16.4h-1.3l0-4.2l-1.9,4.2h-1.1l-1.9-4.2v4.2H5.9l-0.5-1.2H2.8l-0.5,1.2H0.9L3.2,11h1.9
			l2.2,5.1V11h2.1l1.7,3.6l1.5-3.6h2.1C14.7,11,14.7,16.4,14.7,16.4z M20,12.2h-3v1h2.9v1.1H17v1.1h3v1.1h-4.3V11H20V12.2z
			 M25.1,13.9c0.3,0.1,0.5,0.3,0.6,0.5c0.2,0.3,0.2,0.5,0.2,1v1.1h-1.3l0-0.7c0-0.3,0-0.8-0.2-1c-0.2-0.2-0.5-0.2-0.9-0.2h-1.4v2
			h-1.3h0V11h3c0.7,0,1.1,0,1.6,0.3c0.4,0.2,0.6,0.6,0.6,1.2C26,13.3,25.4,13.8,25.1,13.9z M28.1,16.4h-1.3V11h1.3V16.4z M43.2,16.4
			h-1.8l-2.4-4v4h-2.6l-0.5-1.2h-2.7l-0.5,1.2h-1.5c-0.6,0-1.4-0.1-1.9-0.6c-0.5-0.5-0.7-1.1-0.7-2c0-0.8,0.1-1.5,0.7-2.1
			c0.4-0.4,1.1-0.6,1.9-0.6h1.2v1.1h-1.2c-0.5,0-0.7,0.1-1,0.3c-0.2,0.2-0.4,0.7-0.4,1.2c0,0.6,0.1,1,0.4,1.3
			c0.2,0.2,0.6,0.3,0.9,0.3h0.6l1.8-4.2h1.9l2.2,5.1V11h2l2.3,3.7V11h1.3V16.4z M31.8,13.1l-0.6,1.3c-0.1,0-0.2,0-0.3,0
			c0-0.1-0.1-0.3-0.1-0.6c0-0.4,0.1-0.6,0.1-0.6c0,0,0.1-0.1,0.4-0.1L31.8,13.1z"/>
	</g>
</g>
<g>
	<g>
		<polygon points="18.7,23 20.6,25.2 20.6,20.9 		"/>
	</g>
</g>
<g>
	<g>
		<polygon points="15.6,21.4 12.4,21.4 12.4,22.4 15.2,22.4 15.2,23.5 12.4,23.5 12.4,24.5 15.5,24.5 17,23 		"/>
	</g>
</g>
</svg>
