<?xml version="1.0" encoding="utf-8"?>
<!-- Generator: Adobe Illustrator 22.1.0, SVG Export Plug-In . SVG Version: 6.00 Build 0)  -->
<svg version="1.1" id="Слой_1" xmlns="http://www.w3.org/2000/svg" xmlns:xlink="http://www.w3.org/1999/xlink" x="0px" y="0px"
	 viewBox="0 0 35 35" style="enable-background:new 0 0 35 35;" xml:space="preserve">
<style type="text/css">
	.st0{fill:#FFFFFF;}
</style>
<g id="clover-symbol-2">
	<path class="st0" d="M16.4,9.5C16.4,5.4,13.1,2,9,2c-4.1,0-7.5,3.3-7.5,7.4s3.3,7.5,7.4,7.5c0,0,0.1,0,0.1,0h7.5L16.4,9.5L16.4,9.5
		z"/>
	<path class="st0" d="M18.6,9.5C18.5,5.4,21.9,2,26,2c4.1,0,7.5,3.3,7.5,7.4c0,4.1-3.3,7.5-7.4,7.5c0,0,0,0-0.1,0h-7.5V9.5z"/>
	<path class="st0" d="M18.6,26.6c0,4.1,3.3,7.5,7.4,7.5c4.1,0,7.5-3.3,7.5-7.4c0-4.1-3.3-7.5-7.4-7.5c0,0,0,0-0.1,0h-7.5V26.6z"/>
	<path class="st0" d="M16.4,26.6c0,4.1-3.3,7.5-7.4,7.5s-7.5-3.3-7.5-7.4s3.3-7.5,7.4-7.5c0,0,0.1,0,0.1,0h7.5L16.4,26.6L16.4,26.6z
		 M8.9,31.9c3,0,5.4-2.4,5.4-5.3v-5.3H9c-3,0-5.4,2.4-5.4,5.3C3.6,29.5,6,31.9,8.9,31.9C8.9,31.9,9,31.9,8.9,31.9L8.9,31.9L8.9,31.9
		z"/>
</g>
</svg>
