<?xml version="1.0" encoding="iso-8859-1"?>
<!-- Generator: Adobe Illustrator 19.0.0, SVG Export Plug-In . SVG Version: 6.00 Build 0)  -->
<svg version="1.1" id="Layer_1" xmlns="http://www.w3.org/2000/svg" xmlns:xlink="http://www.w3.org/1999/xlink" x="0px" y="0px"
	 viewBox="0 0 512 512" style="enable-background:new 0 0 512 512;" xml:space="preserve">
<g>
	<g>
		<g>
			<path d="M476.41,95.266c4.466,0,8.084-3.618,8.084-8.084V60.913c0-4.466-3.618-8.084-8.084-8.084h-0.072V8.084
				c0-4.466-3.618-8.084-8.084-8.084h-82.071c-4.466,0-8.084,3.619-8.084,8.084v44.745h-0.07c-4.466,0-8.084,3.618-8.084,8.084
				v71.365c0,7.592,6.175,13.767,13.766,13.767h16.012v15.153c0,4.466,3.618,8.084,8.084,8.084h11.329v155.831
				c0,53.173-24.44,100.741-62.672,132.076c17.546-23.15,27.972-51.977,27.972-83.198c0-76.099-61.911-138.009-138.009-138.009
				s-138.009,61.911-138.009,138.009c0,27.159,7.89,52.508,21.491,73.882c-32.169-31.065-52.209-74.613-52.209-122.759V235.51
				h22.012c6.625,0,12.014-5.389,12.014-12.014v-49.363c0-4.466-3.618-8.084-8.084-8.084h-2.845v-23.355
				c0-4.466-3.619-8.084-8.084-8.084H46.519c-4.466,0-8.084,3.618-8.084,8.084v23.355H35.59c-4.466,0-8.084,3.618-8.084,8.084
				v49.363c0,6.625,5.389,12.014,12.014,12.014h22.011v89.603c0,98.41,76.459,179.292,173.092,186.377
				c3.892,0.331,7.828,0.51,11.804,0.51c0.333,0,0.663-0.011,0.996-0.013c0.332,0.001,0.662,0.013,0.995,0.013
				c103.05,0,186.886-83.836,186.886-186.886V169.282h11.33c4.466,0,8.084-3.618,8.084-8.084v-15.153h16.011
				c7.591,0,13.766-6.175,13.766-13.767v-19.77c0-4.466-3.618-8.084-8.084-8.084c-4.466,0-8.084,3.618-8.084,8.084v17.368h-21.694
				h-38.827h-21.694v-60.88h82.213v18.185C468.326,91.647,471.944,95.266,476.41,95.266z M54.603,150.778h30.024v15.271H54.603
				V150.778z M43.674,219.342v-37.125h2.845h46.192h2.845v37.125H43.674z M247.421,495.819c-3.884-0.023-7.737-0.171-11.555-0.449
				c-62.257-5.371-111.281-57.754-111.281-121.378c0-67.183,54.658-121.841,121.841-121.841s121.841,54.658,121.841,121.841
				C368.267,440.842,314.147,495.281,247.421,495.819z M415.89,146.045h22.658v7.069H415.89V146.045z M460.169,52.829h-65.902
				v-36.66h0h65.902V52.829z"/>
			<path d="M412.117,46.761c4.466,0,8.084-3.618,8.084-8.084v-7.006c0-4.466-3.619-8.084-8.084-8.084
				c-4.466,0-8.084,3.619-8.084,8.084v7.006C404.033,43.143,407.651,46.761,412.117,46.761z"/>
			<path d="M443.376,46.761c4.466,0,8.084-3.618,8.084-8.084v-7.006c0-4.466-3.618-8.084-8.084-8.084
				c-4.466,0-8.084,3.619-8.084,8.084v7.006C435.292,43.143,438.91,46.761,443.376,46.761z"/>
		</g>
	</g>
</g>
<g>
</g>
<g>
</g>
<g>
</g>
<g>
</g>
<g>
</g>
<g>
</g>
<g>
</g>
<g>
</g>
<g>
</g>
<g>
</g>
<g>
</g>
<g>
</g>
<g>
</g>
<g>
</g>
<g>
</g>
</svg>
