<?xml version="1.0" encoding="utf-8"?>
<!-- Generator: Adobe Illustrator 22.1.0, SVG Export Plug-In . SVG Version: 6.00 Build 0)  -->
<svg version="1.1" id="Слой_1" xmlns="http://www.w3.org/2000/svg" xmlns:xlink="http://www.w3.org/1999/xlink" x="0px" y="0px"
	 viewBox="0 0 122 109.4" style="enable-background:new 0 0 122 109.4;" xml:space="preserve">
<path d="M96.2,46.7c-1,0-2.1-0.1-3.3-0.1l0.1-0.4c0.7-2.8-0.8-3.6-2.5-4.1l-11.9-2.9c-2.1-0.5-3.4,0.2-3.9,2.4l-2.6,10.9
	c-0.6,2.7,0.9,3.7,2.4,4c0,0,4.8,1.2,8,2c-0.1,0.1-0.1,0.1-0.2,0.2c-0.6,0.7-0.9,1.5-0.9,2.4c0,1,0.4,1.9,1.1,2.6
	c0,0,1.1,0.9,2.4,1.9c-0.4,0.2-0.8,0.5-1.1,0.8c-0.6,0.7-0.9,1.5-0.9,2.4c0,0.1,0,0.1,0,0.2c0,0.9,0.4,1.8,1.1,2.4l6.7,3.3
	c-8.4,9.7-23.2,16.1-40,16.1C24.6,90.9,3.3,75.3,3.3,56.2s21.2-34.7,47.3-34.7C72.3,21.5,90.5,32.2,96.2,46.7z M119.6,74.1L106.1,51
	c-0.2-0.2-2.9-3.9-6.2-4.2c0,0-0.9,0-2.3-0.1C92,31.5,73.1,20.2,50.7,20.2C23.8,20.2,2,36.4,2,56.2s21.8,36,48.7,36
	c17.5,0,32.8-6.8,41.4-17.1c0.5,0.1,1,0.1,1.5,0.1c0,0,2.2-0.2,3.4-0.3c1.1,2.1,3.6,5.8,9.1,6.5l0.2-2c-0.1,0-0.3-0.1-0.4-0.1
	c-5.9-1-7.6-6.2-7.7-6.5c-1.4-4.9-4.1-7.3-4.2-7.4L80.7,52.8c-0.6-0.5-0.9-1.1-0.9-1.8c0-0.1,0-0.2,0-0.3c0-0.6,0.2-1.2,0.6-1.6
	c0.4-0.5,1.1-0.9,1.8-0.9c0.7-0.1,1.3,0.1,1.8,0.5c0.1,0,15.9,10.4,15.9,10.4l0.5-0.8l0.5-0.8l-9.2-6l0.7-2.9
	c3.9,0.1,7.4,0.3,7.4,0.3c2,0.2,4.1,2.4,4.7,3.3c0,0,11.1,19,13.1,22.4c0.2,0.3,0.3,0.5,0.3,0.5c0.3,0.5,0.9,0.6,1.4,0.4
	C119.7,75.2,119.8,74.6,119.6,74.1z M94.8,69.9c0.5,0.8,0.9,1.9,1.3,3.1l-2.8,0.2c-1.2,0.1-2.3-0.5-2.3-0.5s-4.9-2.4-5.8-2.9
	c-0.3-0.3-0.5-0.6-0.5-1c0,0,0,0,0-0.1c0-0.4,0.1-0.8,0.4-1c0.3-0.3,0.7-0.5,1.1-0.5s0.8,0.1,1.1,0.4l2,1.6c0.4,0.2,1.5,0.8,2.6,0.8
	c0.1,0,0.2,0,0.3,0L94.8,69.9z M83.7,60.1c0.7-0.7,1.3-0.5,1.7-0.2c3.5,3.3,7.3,6.9,7.3,6.9s0.4,0.4,1,1.2L92,68.2
	c-0.4,0-1.2-0.3-1.6-0.5l-1.8-1.5l-4.9-4c-0.3-0.3-0.5-0.7-0.5-1.1C83.3,60.8,83.4,60.4,83.7,60.1z M91.1,45.7c0,0-0.6,2.2-1.2,4.5
	L85,47c-0.9-0.7-2-1-3.2-0.9c-1.2,0.1-2.3,0.7-3.1,1.7c-0.8,0.9-1.1,2.1-1,3.4c0.1,1.1,0.7,2.2,1.6,3c0,0,0.9,0.9,2.3,2.2l-6.7-1.7
	C74,54.5,73.7,54.2,74,53l2.6-10.9c0.3-1.1,0.5-1.2,1.6-0.9l11.9,2.9C91.3,44.4,91.4,44.5,91.1,45.7z M29.7,51.1
	c0.6,0.8,1,1.7,1.4,2.6c0.3,0.9,0.5,1.9,0.5,3s-0.2,2.1-0.5,3s-0.8,1.8-1.4,2.6c-0.8,1.1-0.6,2.6,0.5,3.4c1.1,0.8,2.6,0.6,3.4-0.5
	c0.9-1.2,1.6-2.5,2.1-3.9s0.7-3,0.7-4.5c0-1.6-0.3-3.1-0.7-4.5c-0.5-1.4-1.2-2.7-2.1-3.9c-0.8-1.1-2.3-1.3-3.4-0.5
	C29.1,48.5,28.9,50,29.7,51.1 M37.9,46.6c1.8,2.9,2.8,6.4,2.9,10.1c0,3.7-1,7.1-2.9,10.1c-0.7,1.1-0.3,2.6,0.8,3.3
	c1.1,0.7,2.6,0.3,3.3-0.8c2.3-3.7,3.6-8,3.6-12.6s-1.3-8.9-3.6-12.6c-0.7-1.1-2.2-1.5-3.3-0.8C37.6,44,37.2,45.5,37.9,46.6
	 M46.7,42.1c2.5,4.3,3.9,9.3,3.9,14.6s-1.4,10.3-4,14.6c-0.7,1.1-0.3,2.6,0.9,3.3c1.1,0.7,2.6,0.3,3.3-0.9c2.9-5,4.6-10.9,4.6-17.1
	s-1.7-12.1-4.6-17.1c-0.7-1.1-2.1-1.5-3.3-0.9C46.4,39.4,46,40.9,46.7,42.1 M55.4,37.5c3.2,5.7,5.1,12.2,5.1,19.2
	s-1.8,13.6-5.1,19.2c-0.7,1.2-0.3,2.6,0.9,3.3c1.2,0.7,2.6,0.3,3.3-0.9c3.6-6.4,5.7-13.8,5.7-21.6c0-7.9-2.1-15.2-5.7-21.6
	c-0.7-1.2-2.1-1.6-3.3-0.9C55.1,34.9,54.7,36.3,55.4,37.5"/>
</svg>
