<svg width="70" height="63" viewBox="0 0 70 63" fill="none" xmlns="http://www.w3.org/2000/svg">
<path d="M1.5 19.1275V6.9939H29.4848V19.1275C29.4848 21.2086 27.7904 22.9051 25.6843 22.9051H21.2182H19.7182V24.4051V28.4432H11.2666V24.4051V22.9051H9.76659H5.30046C3.19441 22.9051 1.5 21.2086 1.5 19.1275Z" stroke="#3AB8FA" stroke-width="3"/>
<path d="M28.5678 0H2.79541V3.20762H28.5678V0Z" fill="#15357A"/>
<path d="M54.6386 13.6711V25.7084C54.6386 27.5165 56.1109 28.9825 57.9268 28.9825H61.346V47.9425C61.346 53.9041 56.4709 58.7419 50.4997 58.7419H29.7068C29.7559 59.0188 29.7722 59.312 29.7722 59.5889C29.7722 60.0938 29.6904 60.5662 29.5596 61.0223H50.4997C57.7469 61.0223 63.6363 55.1584 63.6363 47.9425V28.9825H66.7119C68.5278 28.9825 70.0001 27.5165 70.0001 25.7084V13.6711H57.9268H54.6386Z" fill="#15357A"/>
<path d="M67.2247 8.0188H57.5601V11.2264H67.2247V8.0188Z" fill="#3AB8FA"/>
<path d="M25.4354 57.0636C21.2474 56.1352 18.1064 52.4051 18.1064 47.9583V32.2234H12.855V47.9583C12.855 54.8972 17.7628 60.7123 24.2902 62.162C25.9262 62.5203 27.4803 61.2824 27.4803 59.6047C27.4967 58.383 26.646 57.3242 25.4354 57.0636Z" fill="#15357A"/>
</svg>
