<svg width="54" height="70" viewBox="0 0 54 70" fill="none" xmlns="http://www.w3.org/2000/svg">
<path d="M2.49999 6.77539H12.4993C13.1623 6.77539 13.7982 7.03246 14.267 7.49004C14.7358 7.94762 14.9992 8.56823 14.9992 9.21535V67.56C14.9992 68.2072 14.7358 68.8278 14.267 69.2854C13.7982 69.7429 13.1623 70 12.4993 70H2.49999C1.83699 70 1.20114 69.7429 0.73233 69.2854C0.263519 68.8278 0.000148773 68.2072 0.000148773 67.56V9.21535C0.000148773 8.56823 0.263519 7.94762 0.73233 7.49004C1.20114 7.03246 1.83699 6.77539 2.49999 6.77539ZM4.36494 66.2065H10.4757V10.9904H4.36494V66.2065Z" fill="#15357A"/>
<path d="M21.2865 23.6353H31.2858C31.9488 23.6353 32.5847 23.8923 33.0535 24.3499C33.5223 24.8075 33.7857 25.4281 33.7857 26.0752L33.7857 67.56C33.7857 68.2072 33.5223 68.8278 33.0535 69.2854C32.5847 69.7429 31.9489 70 31.2859 70H21.2865C20.6235 70 19.9876 69.7429 19.5188 69.2854C19.05 68.8278 18.7867 68.2072 18.7867 67.56L18.7866 26.0752C18.7866 25.4281 19.05 24.8075 19.5188 24.3499C19.9876 23.8923 20.6235 23.6353 21.2865 23.6353ZM23.1515 66.2065H29.2622L29.2621 27.8502H23.1514L23.1515 66.2065Z" fill="#15357A"/>
<path d="M40.3147 36.7017H50.3141C50.9771 36.7017 51.6129 36.9587 52.0818 37.4163C52.5506 37.8739 52.8139 38.4945 52.8139 39.1416L52.814 67.56C52.814 68.2072 52.5506 68.8278 52.0818 69.2854C51.613 69.7429 50.9771 70 50.3141 70H40.3148C39.6518 70 39.0159 69.7429 38.5471 69.2854C38.0783 68.8278 37.8149 68.2072 37.8149 67.56L37.8149 39.1416C37.8149 38.4945 38.0783 37.8739 38.5471 37.4163C39.0159 36.9587 39.6517 36.7017 40.3147 36.7017ZM42.1797 66.2065H48.2904L48.2904 40.9166H42.1797L42.1797 66.2065Z" fill="#15357A"/>
<path d="M50.8322 11.1561C50.3807 11.1152 49.931 11.2491 49.5818 11.5285C49.2327 11.8078 49.0127 12.2096 48.9704 12.6455L48.5567 16.9026L38.8569 5.57744C38.7137 5.40905 38.5373 5.26971 38.338 5.16747C38.1387 5.06523 37.9204 5.00211 37.6957 4.98175C37.471 4.96138 37.2444 4.98419 37.0288 5.04884C36.8133 5.11349 36.6132 5.2187 36.44 5.35842L30.3131 10.275L22.1557 0.747762C21.8653 0.409215 21.4475 0.195945 20.9942 0.154871C20.5409 0.113796 20.0893 0.248282 19.7387 0.528742C19.3882 0.809202 19.1673 1.21266 19.1248 1.65037C19.0822 2.08807 19.2215 2.52417 19.5119 2.86271L28.766 13.65C28.9093 13.8184 29.0856 13.9577 29.2849 14.06C29.4843 14.1622 29.7025 14.2253 29.9272 14.2457C30.1519 14.2661 30.3786 14.2433 30.5941 14.1786C30.8096 14.114 31.0098 14.0087 31.183 13.869L37.3098 8.95245L45.9316 19.0026L41.5232 18.6031C41.0718 18.5622 40.622 18.6962 40.2729 18.9755C39.9237 19.2548 39.7038 19.6566 39.6614 20.0925C39.619 20.5285 39.7577 20.9628 40.047 21.2999C40.3362 21.6371 40.7523 21.8495 41.2038 21.8904L49.7141 22.6616C49.9368 22.6792 50.1608 22.6544 50.3737 22.5887C50.8058 22.4596 51.1673 22.1704 51.379 21.7845C51.4854 21.5948 51.5523 21.3868 51.5759 21.1722L52.3745 12.954C52.4169 12.5181 52.2782 12.0838 51.9889 11.7466C51.6997 11.4094 51.2836 11.197 50.8322 11.1561Z" fill="#3AB8FA"/>
</svg>
