<?xml version="1.0" encoding="utf-8"?>
<!-- Generator: Adobe Illustrator 22.1.0, SVG Export Plug-In . SVG Version: 6.00 Build 0)  -->
<svg version="1.1" id="Samsung_Pay_1_" xmlns="http://www.w3.org/2000/svg" xmlns:xlink="http://www.w3.org/1999/xlink" x="0px"
	 y="0px" viewBox="0 0 276.6 226" style="enable-background:new 0 0 276.6 226;" xml:space="preserve">
<g>
	<polygon points="102,54 97.1,84.2 96.9,84.2 92.1,54 75.9,54 75,93.5 84.9,93.5 85.1,58 85.3,58 92,93.5 102,93.5 108.6,58 
		108.8,58 109,93.5 118.9,93.5 118,54 	"/>
	<path d="M139.1,64.3c-0.1-0.7-0.1-1.3,0-2c0.3-1.3,1.1-2.6,3.6-2.6c1.8-0.2,3.5,1.2,3.6,3c0,0.2,0,0.3,0,0.5v2.4h9.7v-2.8
		c0-8.5-7.6-9.9-13.2-9.9c-7,0-12.6,2.3-13.7,8.7c-0.3,1.7-0.3,3.5,0.1,5.3c1.7,8,15.6,10.3,17.6,15.4c0.3,0.9,0.3,1.9,0.1,2.9
		c-0.3,1.3-1.2,2.6-3.8,2.6c-2.4,0-3.9-1.4-3.9-3.5v-3.8h-10.5v3c0,8.7,6.9,11.3,14.2,11.3c7.1,0,12.9-2.4,13.8-8.9
		c0.4-2.1,0.4-4.3,0-6.4C155,71.4,140.1,68.9,139.1,64.3z"/>
	<path d="M10.6,64c-0.1-0.7-0.1-1.4,0-2.1c0.3-1.3,1.1-2.7,3.6-2.7c1.9-0.2,3.5,1.2,3.7,3c0,0.2,0,0.4,0,0.6v2.4h9.9v-2.8
		c0-8.6-7.7-10-13.3-10c-7,0-12.8,2.3-13.8,8.8c-0.4,1.8-0.4,3.6,0,5.4c1.6,8.3,15.6,10.6,17.7,15.7c0.3,1,0.3,2,0.1,3
		c-0.3,1.3-1.2,2.6-3.9,2.6c-2.5,0-4-1.4-4-3.6v-3.9H0v3c0,8.8,6.9,11.5,14.4,11.5c7.2,0,13-2.4,14-9c0.4-2.2,0.4-4.3,0-6.5
		C26.7,71.1,11.7,68.7,10.6,64z"/>
	<polygon points="42.3,54 35,93.5 45.7,93.5 51.1,57.6 51.3,57.6 56.6,93.5 67.2,93.5 59.9,54 	"/>
	<path d="M183.9,83.2c0,0.5,0,1-0.1,1.5c-0.4,1.7-2,3-3.8,2.8c-1.8,0.2-3.4-1-3.8-2.8c-0.1-0.5-0.1-1-0.1-1.5V54h-10v28.3
		c0,0.7,0.1,2.2,0.1,2.6c0.7,7.4,6.5,9.8,13.8,9.8s13.1-2.4,13.8-9.8c0-0.4,0.1-1.9,0.1-2.6V54h-10V83.2z"/>
	<polygon points="228.8,85 228.6,85 219.5,54 204.8,54 204.8,93.1 214.5,93.1 214,61 214.2,61 224,93.1 238.1,93.1 238.1,54 
		228.3,54 	"/>
	<path d="M262.6,52.8c-7,0-13,2.4-13.9,9.8c-0.1,0.9-0.2,1.7-0.2,2.6v16.7c0,0.7,0,1.3,0.1,2.6c0.7,7.2,6.9,9.8,13.9,9.8
		c7,0,13.3-2.6,13.9-9.8c0.1-1.3,0.1-1.9,0.1-2.6V71.3h-14v5.8h4v5.7c0,0.5,0,1-0.1,1.5c-0.1,1-1.1,2.8-4,2.8s-3.9-1.8-3.9-2.8
		c-0.1-0.5-0.1-1-0.1-1.5V64.7c0-0.7,0.1-1.3,0.2-1.9c0.4-1.8,2-3.1,3.9-2.9c3.1,0,3.8,2,4,2.9c0.1,0.5,0.1,1,0.1,1.5v2.2h10v-1.3
		c0-0.9,0-1.7-0.1-2.6C275.7,55.1,269.6,52.8,262.6,52.8z"/>
</g>
<g>
	<path d="M155.2,119.1c-3.9-3.2-8.8-5-13.9-5c-12.6,0-22.9,11-22.9,24.5s10.2,24.5,22.9,24.5c5.1,0,10-1.8,13.9-5v4.2h10.5v-47
		h-10.5V119.1z M142.5,153.9c-7.6,0-13.8-6.8-13.8-15.3s6.2-15.2,13.8-15.2s13.8,6.8,13.8,15.3S150.1,153.9,142.5,153.9z"/>
	<polygon points="210.4,115.3 196.9,147.3 182.5,115.3 172.1,115.3 191.9,159.3 183.4,179.4 193.7,179.4 220.7,115.3 	"/>
	<path d="M89.6,114.1c-5.1,0-10.1,1.8-14,5.2v-4H65v64.1h10.5V158c3.9,3.3,8.9,5.1,14,5.2c12.6,0,22.9-11,22.9-24.5
		S102.3,114.1,89.6,114.1z M88.4,153.9c-7.6,0-13.8-6.8-13.8-15.3s6.2-15.3,13.8-15.3s13.8,6.8,13.8,15.3S96,153.9,88.4,153.9z"/>
</g>
</svg>
