<svg width="67" height="68" viewBox="0 0 67 68" fill="none" xmlns="http://www.w3.org/2000/svg">
<rect x="48.3149" y="47.6365" width="5" height="30" transform="rotate(114.911 48.3149 47.6365)" fill="#15357A"/>
<rect x="45.3599" y="15" width="5" height="30" transform="rotate(65.7822 45.3599 15)" fill="#15357A"/>
<path d="M63.5763 13.0226C63.5763 18.2788 59.3089 22.5452 54.0381 22.5452C48.7673 22.5452 44.5 18.2788 44.5 13.0226C44.5 7.76646 48.7673 3.5 54.0381 3.5C59.3089 3.5 63.5763 7.76646 63.5763 13.0226Z" stroke="#15357A" stroke-width="5"/>
<path d="M65.25 13C65.25 19.2132 60.2132 24.25 54 24.25C47.7868 24.25 42.75 19.2132 42.75 13C42.75 6.7868 47.7868 1.75 54 1.75C60.2132 1.75 65.25 6.7868 65.25 13Z" stroke="#3AB8FA" stroke-width="3.5"/>
<path d="M21.5763 34.0226C21.5763 39.2788 17.3089 43.5452 12.0381 43.5452C6.76732 43.5452 2.5 39.2788 2.5 34.0226C2.5 28.7665 6.76732 24.5 12.0381 24.5C17.3089 24.5 21.5763 28.7665 21.5763 34.0226Z" stroke="#15357A" stroke-width="5"/>
<path d="M63.5763 55.0226C63.5763 60.2788 59.3089 64.5452 54.0381 64.5452C48.7673 64.5452 44.5 60.2788 44.5 55.0226C44.5 49.7665 48.7673 45.5 54.0381 45.5C59.3089 45.5 63.5763 49.7665 63.5763 55.0226Z" stroke="#15357A" stroke-width="5"/>
</svg>
