<?xml version="1.0" encoding="utf-8"?>
<!-- Generator: Adobe Illustrator 22.1.0, SVG Export Plug-In . SVG Version: 6.00 Build 0)  -->
<svg version="1.1" id="Capa_1" xmlns="http://www.w3.org/2000/svg" xmlns:xlink="http://www.w3.org/1999/xlink" x="0px" y="0px"
	 viewBox="0 0 47.8 41.4" style="enable-background:new 0 0 47.8 41.4;" xml:space="preserve">
<g>
	<g>
		<polygon points="19.2,14.6 16.7,28.8 20.6,28.8 23,14.6 		"/>
	</g>
</g>
<g>
	<g>
		<path d="M13.5,14.6l-3.8,9.7l-0.4-1.5c-0.8-1.8-2.9-4.3-5.4-5.9l3.5,11.9l4.1,0l6.1-14.2L13.5,14.6z"/>
	</g>
</g>
<g>
	<g>
		<path d="M7.8,15.6c-0.2-0.9-0.9-1.1-1.7-1.2h-6L0,14.7c4.7,1.1,7.8,3.9,9.1,7.2L7.8,15.6z"/>
	</g>
</g>
<g>
	<g>
		<path d="M30.9,17.3c1.3,0,2.2,0.3,2.9,0.5l0.4,0.2l0.5-3.1c-0.8-0.3-2-0.6-3.5-0.6c-3.8,0-6.6,1.9-6.6,4.7c0,2,1.9,3.2,3.4,3.9
			c1.5,0.7,2,1.1,2,1.8c0,1-1.2,1.4-2.3,1.4c-1.6,0-2.4-0.2-3.7-0.7l-0.5-0.2L23,28.3c0.9,0.4,2.6,0.7,4.3,0.8
			c4.1,0,6.7-1.9,6.8-4.9c0-1.6-1-2.9-3.3-3.9c-1.4-0.7-2.2-1.1-2.2-1.8C28.7,17.9,29.4,17.3,30.9,17.3z"/>
	</g>
</g>
<g>
	<g>
		<path d="M44.7,14.6h-3c-0.9,0-1.6,0.3-2,1.2l-5.8,13.1H38c0,0,0.7-1.8,0.8-2.1c0.4,0,4.4,0,5,0c0.1,0.5,0.5,2.1,0.5,2.1h3.6
			L44.7,14.6z M39.9,23.8c0.3-0.8,1.5-4,1.5-4c0,0,0.3-0.8,0.5-1.4l0.3,1.2c0,0,0.7,3.4,0.9,4.1H39.9z"/>
	</g>
</g>
</svg>
