<svg width="70" height="59" viewBox="0 0 70 59" fill="none" xmlns="http://www.w3.org/2000/svg">
<path fill-rule="evenodd" clip-rule="evenodd" d="M-0.000519289 47.1153L-0.000520989 8.22642C-0.000521188 3.68305 3.77741 -7.7751e-05 8.43772 -7.79547e-05L25.3142 -7.86924e-05C26.5852 -7.8748e-05 27.6155 1.00441 27.6155 2.24351L27.6155 11.9657L51.5704 11.9657C55.938 11.9657 58.4786 16.7787 55.9399 20.2436L55.5563 20.7672C53.8456 23.102 53.8514 26.2646 55.5701 28.6104C58.4278 32.5108 58.4278 37.7881 55.5701 41.6886C53.8514 44.0344 53.8457 47.197 55.5563 49.5318L55.94 50.0554C58.4786 53.5203 55.938 58.3333 51.5704 58.3333L11.5062 58.3333C5.1512 58.3333 -0.000519018 53.3108 -0.000519289 47.1153ZM51.8247 39.0805C53.5394 36.7402 53.5394 33.5588 51.8247 31.2185C48.971 27.3235 48.9492 22.065 51.8109 18.1591L52.1946 17.6355C52.5573 17.1405 52.1943 16.4529 51.5704 16.4529L8.43772 16.4529C7.05658 16.4529 5.75294 16.1294 4.60216 15.5559L4.60216 47.1153C4.60216 50.8326 7.69319 53.8461 11.5062 53.8461L51.5704 53.8461C52.1943 53.8461 52.5573 53.1585 52.1946 52.6635L51.8109 52.1399C48.9492 48.234 48.971 42.9754 51.8247 39.0805ZM8.43772 11.9657L23.0129 11.9657L23.0129 4.4871L8.43772 4.4871C6.3194 4.4871 4.60216 6.16125 4.60216 8.22642C4.60216 10.2916 6.3194 11.9657 8.43772 11.9657Z" fill="#15357A"/>
<path d="M25.3989 29.1663C25.3989 33.7302 21.5989 37.4593 16.8748 37.4593C12.1506 37.4593 8.3507 33.7302 8.3507 29.1663C8.3507 24.6023 12.1506 20.8732 16.8748 20.8732C21.5989 20.8732 25.3989 24.6023 25.3989 29.1663Z" stroke="#15357A" stroke-width="1.36254"/>
<line x1="8" y1="28.3187" x2="25" y2="28.3187" stroke="#15357A" stroke-width="1.36254"/>
<line x1="16.9574" y1="28.1665" x2="16.9574" y2="20.6879" stroke="#15357A" stroke-width="1.36254"/>
<line x1="32.6739" y1="24.9731" x2="44.8065" y2="24.9731" stroke="#15357A" stroke-width="0.908358" stroke-linecap="round"/>
<line x1="32.6739" y1="28.7123" x2="44.8065" y2="28.7123" stroke="#15357A" stroke-width="0.908358" stroke-linecap="round"/>
<path d="M47.3276 19.697L67.9314 19.697C68.5375 19.697 68.9992 20.1799 68.9992 20.7089L68.9992 48.8432C68.9992 49.3822 68.5499 49.8551 67.9314 49.8551L47.3276 49.8551C46.7215 49.8551 46.2598 49.3722 46.2598 48.8432L46.2598 20.7089C46.2598 20.17 46.709 19.697 47.3276 19.697Z" stroke="#3AB8FA" stroke-width="2"/>
<rect x="49.7173" y="29.9958" width="3.56604" height="3.47655" fill="#3AB8FA"/>
<rect x="49.7173" y="36.0798" width="3.56604" height="3.47655" fill="#3AB8FA"/>
<rect x="49.7173" y="42.1638" width="3.56604" height="3.47655" fill="#3AB8FA"/>
<rect x="55.958" y="29.9958" width="3.56604" height="3.47655" fill="#3AB8FA"/>
<rect x="55.958" y="36.0798" width="3.56604" height="3.47655" fill="#3AB8FA"/>
<rect x="55.958" y="42.1638" width="3.56604" height="3.47655" fill="#3AB8FA"/>
<rect x="62.2002" y="29.9958" width="3.56604" height="3.47655" fill="#3AB8FA"/>
<rect x="62.2002" y="36.0798" width="3.56604" height="3.47655" fill="#3AB8FA"/>
<rect x="62.2002" y="42.1638" width="3.56604" height="3.47655" fill="#3AB8FA"/>
</svg>
