<svg width="70" height="70" viewBox="0 0 70 70" fill="none" xmlns="http://www.w3.org/2000/svg">
<path d="M16 31H6V49H16V31Z" stroke="#15357A" stroke-width="4" stroke-linecap="round" stroke-linejoin="round"/>
<path d="M64 31H54V49H64V31Z" stroke="#15357A" stroke-width="4" stroke-linecap="round" stroke-linejoin="round"/>
<path d="M10.6948 30.1378C10.6948 23.6916 13.2556 17.5094 17.8138 12.9512C22.3719 8.39303 28.5541 5.83228 35.0004 5.83228V5.83228C41.4466 5.83228 47.6288 8.39303 52.187 12.9512C56.7451 17.5094 59.3059 23.6916 59.3059 30.1378" stroke="#15357A" stroke-width="4.5" stroke-linecap="round" stroke-linejoin="round"/>
<path d="M59.3074 49.5823V54.4434C59.3074 55.7326 58.7953 56.9691 57.8837 57.8807C56.972 58.7923 55.7356 59.3045 54.4463 59.3045H44.7241" stroke="#15357A" stroke-width="4" stroke-linecap="round" stroke-linejoin="round"/>
<path d="M44.7222 54.4436H35V64.1658H44.7222V54.4436Z" stroke="#15357A" stroke-width="4" stroke-linecap="round" stroke-linejoin="round"/>
<path d="M25.2793 25.2771V49.5826L30.1404 44.7215H44.7237V25.2771H25.2793Z" stroke="#3AB8FA" stroke-width="3.5" stroke-linecap="round" stroke-linejoin="round"/>
</svg>
