<?xml version="1.0" encoding="iso-8859-1"?>
<!-- Generator: Adobe Illustrator 19.0.0, SVG Export Plug-In . SVG Version: 6.00 Build 0)  -->
<svg version="1.1" id="Capa_1" xmlns="http://www.w3.org/2000/svg" xmlns:xlink="http://www.w3.org/1999/xlink" x="0px" y="0px"
	 viewBox="0 0 512 512" style="enable-background:new 0 0 512 512;" xml:space="preserve">
<g>
	<g>
		<g>
			<path d="M63.26,340.44c-7.81,7.81-7.81,20.48,0,28.29c3.9,3.9,9.02,5.85,14.14,5.85s10.24-1.95,14.14-5.85
				c7.81-7.81,7.81-20.47,0-28.29C83.73,332.63,71.07,332.63,63.26,340.44z"/>
			<path d="M27.21,272.55c-10.2,4.23-15.04,15.93-10.81,26.14c3.19,7.69,10.64,12.34,18.48,12.34c2.55,0,5.15-0.49,7.65-1.53
				c10.21-4.23,15.05-15.93,10.82-26.13C49.11,273.16,37.41,268.32,27.21,272.55z"/>
			<path d="M17.757,235.864c0.099,0.011,0.197,0.026,0.296,0.035C18.705,235.97,19.357,236,20,236c0.642,0,1.294-0.03,1.946-0.098
				c0.1-0.01,0.199-0.024,0.299-0.036c0.521-0.058,1.049-0.137,1.568-0.239c2.201-0.426,4.267-1.217,6.148-2.301
				c0.321-0.183,0.637-0.374,0.946-0.574c0.179-0.116,0.355-0.235,0.529-0.357c0.382-0.265,0.754-0.542,1.111-0.83
				c0.119-0.096,0.236-0.194,0.353-0.292c0.392-0.328,0.772-0.673,1.133-1.03c0.07-0.069,0.14-0.138,0.209-0.208
				c0.357-0.362,0.703-0.742,1.032-1.135c0.536-0.634,1.029-1.302,1.484-2c0.199-0.307,0.389-0.621,0.57-0.939
				c1.083-1.88,1.874-3.945,2.299-6.146c0.103-0.519,0.182-1.047,0.239-1.568c0.011-0.1,0.026-0.198,0.036-0.299
				C39.97,217.294,40,216.642,40,216c0-97.047,78.953-176,176-176s176,78.953,176,176v53.773l-39.977-39.978
				c-7.811-7.811-20.474-7.812-28.284,0c-7.811,7.81-7.811,20.474,0,28.284l43.174,43.175
				c12.477,12.477,28.866,18.715,45.255,18.715c16.389,0,32.778-6.238,45.255-18.715l41.719-41.719
				c7.811-7.811,7.811-20.474,0-28.284c-7.811-7.81-20.474-7.811-28.284,0L432,270.109V216c0-57.696-22.468-111.938-63.265-152.735
				C327.938,22.468,273.696,0,216,0C158.304,0,104.062,22.468,63.265,63.265S0,158.304,0,216c0,0.642,0.03,1.294,0.098,1.947
				c0.01,0.099,0.024,0.196,0.035,0.295c0.058,0.529,0.139,1.065,0.243,1.591c0.426,2.192,1.216,4.25,2.295,6.123
				c0.182,0.32,0.373,0.635,0.573,0.943c0.454,0.697,0.947,1.364,1.482,1.997c0.331,0.397,0.681,0.781,1.042,1.146
				c0.063,0.064,0.126,0.127,0.19,0.19c0.366,0.362,0.752,0.713,1.15,1.045c0.111,0.094,0.222,0.187,0.336,0.278
				c0.36,0.291,0.736,0.572,1.122,0.839c0.174,0.121,0.349,0.239,0.527,0.355c0.31,0.201,0.627,0.393,0.948,0.576
				c1.879,1.082,3.943,1.874,6.143,2.299C16.705,235.727,17.234,235.806,17.757,235.864z"/>
			<path d="M148.61,378.64c-10.2-4.23-21.9,0.61-26.14,10.81c-4.23,10.2,0.61,21.91,10.81,26.14c2.51,1.04,5.11,1.53,7.66,1.53
				c7.85,0,15.29-4.64,18.48-12.34C163.65,394.58,158.81,382.87,148.61,378.64z"/>
			<path d="M235.61,408.09c-0.13-0.63-0.29-1.27-0.48-1.9c-0.19-0.62-0.41-1.24-0.66-1.84c-0.25-0.6-0.53-1.2-0.83-1.77
				c-0.31-0.58-0.65-1.14-1.01-1.68c-0.36-0.55-0.75-1.08-1.16-1.58c-0.42-0.51-0.86-1-1.32-1.46c-0.46-0.46-0.96-0.91-1.46-1.32
				c-0.51-0.41-1.04-0.81-1.58-1.17c-0.55-0.36-1.11-0.7-1.69-1c-0.57-0.31-1.17-0.59-1.77-0.84c-0.6-0.25-1.22-0.47-1.84-0.66
				s-1.26-0.35-1.9-0.48c-0.64-0.13-1.29-0.22-1.94-0.29c-1.3-0.13-2.63-0.13-3.93,0c-0.65,0.07-1.3,0.16-1.94,0.29
				c-0.64,0.13-1.28,0.29-1.9,0.48s-1.24,0.41-1.85,0.66c-0.6,0.25-1.19,0.53-1.77,0.84c-0.57,0.3-1.14,0.64-1.68,1
				c-0.54,0.36-1.07,0.76-1.58,1.17c-0.51,0.41-1,0.86-1.46,1.32s-0.91,0.95-1.32,1.46c-0.41,0.5-0.8,1.03-1.17,1.58
				c-0.35,0.54-0.69,1.1-1,1.68c-0.3,0.57-0.59,1.17-0.83,1.77c-0.25,0.6-0.48,1.22-0.66,1.84c-0.19,0.63-0.36,1.27-0.48,1.9
				c-0.13,0.64-0.23,1.3-0.3,1.94c-0.06,0.66-0.1,1.32-0.1,1.97c0,0.65,0.04,1.31,0.1,1.97c0.07,0.64,0.17,1.3,0.3,1.94
				c0.12,0.64,0.29,1.27,0.48,1.9c0.18,0.62,0.41,1.24,0.66,1.84c0.24,0.6,0.53,1.2,0.83,1.77c0.31,0.58,0.65,1.14,1,1.68
				c0.37,0.55,0.76,1.08,1.17,1.58c0.41,0.51,0.86,1,1.32,1.46c0.46,0.46,0.95,0.91,1.46,1.32c0.51,0.41,1.04,0.81,1.58,1.17
				c0.54,0.36,1.11,0.7,1.68,1c0.58,0.31,1.17,0.59,1.77,0.84c0.61,0.25,1.23,0.47,1.85,0.66s1.26,0.35,1.9,0.48
				c0.64,0.13,1.29,0.23,1.94,0.29c0.65,0.07,1.31,0.1,1.96,0.1c0.66,0,1.32-0.03,1.97-0.1c0.65-0.06,1.3-0.16,1.94-0.29
				c0.64-0.13,1.28-0.29,1.9-0.48s1.24-0.41,1.84-0.66c0.6-0.25,1.2-0.53,1.77-0.84c0.58-0.3,1.14-0.64,1.69-1
				c0.54-0.36,1.07-0.76,1.58-1.17c0.5-0.41,1-0.86,1.46-1.32s0.9-0.95,1.32-1.46c0.41-0.5,0.8-1.03,1.16-1.58
				c0.36-0.54,0.7-1.1,1.01-1.68c0.3-0.57,0.58-1.17,0.83-1.77s0.47-1.22,0.66-1.84c0.19-0.63,0.35-1.26,0.48-1.9
				s0.23-1.3,0.29-1.94c0.07-0.66,0.1-1.32,0.1-1.97c0-0.65-0.03-1.31-0.1-1.97C235.84,409.39,235.74,408.73,235.61,408.09z"/>
			<path d="M354,472h-14.325c29.215-33.117,33.036-49.442,33.036-60c0-27.57-22.43-50-50-50c-0.12,0-0.236,0.016-0.355,0.018
				C322.236,362.016,322.12,362,322,362c-27.57,0-50,22.43-50,50c0,11.046,8.954,20,20,20c11.046,0,20-8.954,20-20
				c0-5.42,4.58-10,10-10c0.12,0,0.236-0.016,0.355-0.018c0.12,0.002,0.235,0.018,0.355,0.018c5.351,0,9.881,4.462,9.998,9.79
				c-0.195,1.029-2.658,11.331-26.191,37.282c-13.94,15.374-27.811,27.984-27.945,28.106c-6.128,5.552-8.208,14.303-5.233,22.018
				C276.314,506.911,283.731,512,292,512h62c11.046,0,20-8.954,20-20C374,480.954,365.046,472,354,472z"/>
			<path d="M492,362c-11.046,0-20,8.954-20,20v24.5c0,7.995-6.505,14.5-14.5,14.5s-14.5-6.505-14.5-14.5V382
				c0-11.046-8.954-20-20-20c-11.046,0-20,8.954-20,20v24.5c0,30.051,24.449,54.5,54.5,54.5c5.021,0,9.88-0.697,14.5-1.974V492
				c0,11.046,8.954,20,20,20c11.046,0,20-8.954,20-20V382C512,370.954,503.046,362,492,362z"/>
			<path d="M216,80c-11.046,0-20,8.954-20,20v107.716l-50.142,50.142c-7.811,7.81-7.811,20.473,0,28.284
				C149.763,290.047,154.881,292,160,292s10.237-1.953,14.142-5.858l56-56c3.751-3.75,5.858-8.838,5.858-14.142V100
				C236,88.954,227.046,80,216,80z"/>
		</g>
	</g>
</g>
<g>
</g>
<g>
</g>
<g>
</g>
<g>
</g>
<g>
</g>
<g>
</g>
<g>
</g>
<g>
</g>
<g>
</g>
<g>
</g>
<g>
</g>
<g>
</g>
<g>
</g>
<g>
</g>
<g>
</g>
</svg>
