<?xml version="1.0" encoding="iso-8859-1"?>
<!-- Generator: Adobe Illustrator 19.0.0, SVG Export Plug-In . SVG Version: 6.00 Build 0)  -->
<svg version="1.1" id="Capa_1" xmlns="http://www.w3.org/2000/svg" xmlns:xlink="http://www.w3.org/1999/xlink" x="0px" y="0px"
	 viewBox="0 0 512 512" style="enable-background:new 0 0 512 512;" xml:space="preserve">
<g>
	<g>
		<g>
			<path d="M492.002,216.492c11.045,0,19.998-8.953,19.998-19.998V80.505c0-44.108-35.884-79.992-79.992-79.992H80.043
				c-44.108,0-79.992,35.884-79.992,79.992v196.923c-0.012,4.151-0.112,40.697,0.006,45.542
				c0.599,24.413,16.936,46.459,40.704,54.995l327.892,129.818l0.732,0.273c6.519,2.292,13.246,3.43,19.945,3.43
				c9.057,0,18.068-2.082,26.451-6.21c9.908-4.88,13.985-16.867,9.105-26.775c-4.88-9.908-16.869-13.984-26.775-9.104
				c-4.765,2.346-10.138,2.71-15.159,1.033l-147.41-58.363l181.171,31.349l0.181,0.031c3.295,0.539,6.585,0.804,9.85,0.804
				c15.141,0,29.678-5.712,40.964-16.327c8.045-7.567,8.432-20.223,0.866-28.268c-7.566-8.046-20.223-8.433-28.268-0.866
				c-4.567,4.294-10.72,6.187-16.884,5.197l-158.988-27.51h167.575c44.108,0,79.992-35.884,79.992-79.992
				c0-11.045-8.953-19.998-19.998-19.998c-11.045,0-19.998,8.953-19.998,19.998c0,22.054-17.942,39.996-39.996,39.996H80.043
				c-22.054,0-39.996-17.942-39.996-39.996V80.505c0-22.054,17.942-39.996,39.996-39.996h351.965
				c22.054,0,39.996,17.942,39.996,39.996v115.988C472.004,207.538,480.957,216.492,492.002,216.492z"/>
			<circle cx="415.01" cy="187.495" r="19.998"/>
			<path d="M155.035,188.373c0,59.545,45.305,107.989,100.99,107.989c55.685,0,100.99-48.444,100.99-107.989
				c0-59.545-45.305-107.989-100.99-107.989C200.34,80.383,155.035,128.828,155.035,188.373z M317.019,188.373
				c0,37.491-27.361,67.993-60.994,67.993c-33.633,0-60.994-30.502-60.994-67.993c0-37.491,27.361-67.993,60.994-67.993
				C289.658,120.379,317.019,150.881,317.019,188.373z"/>
			<circle cx="97.041" cy="187.495" r="19.998"/>
		</g>
	</g>
</g>
<g>
</g>
<g>
</g>
<g>
</g>
<g>
</g>
<g>
</g>
<g>
</g>
<g>
</g>
<g>
</g>
<g>
</g>
<g>
</g>
<g>
</g>
<g>
</g>
<g>
</g>
<g>
</g>
<g>
</g>
</svg>
