<?xml version="1.0" encoding="iso-8859-1"?>
<!-- Generator: Adobe Illustrator 19.0.0, SVG Export Plug-In . SVG Version: 6.00 Build 0)  -->
<svg version="1.1" id="Capa_1" xmlns="http://www.w3.org/2000/svg" xmlns:xlink="http://www.w3.org/1999/xlink" x="0px" y="0px"
	 viewBox="0 0 468.293 468.293" style="enable-background:new 0 0 468.293 468.293;" xml:space="preserve">
<path style="fill:#27A2DB;" d="M351.505,77.569v373.736c0,9.344-7.587,16.988-16.988,16.988H133.776
	c-9.343,0-16.988-7.644-16.988-16.988V77.569c0-9.4,7.645-16.988,16.988-16.988h200.741
	C343.918,60.581,351.505,68.169,351.505,77.569z"/>
<path style="fill:#E1E6E9;" d="M330.833,161.15v19.231c0-6.119-4.995-11.176-11.176-11.176H148.636
	c-0.874,0-1.623,0.124-2.435,0.312c-4.995,1.124-8.742,5.558-8.742,10.864V161.15c0-5.307,3.747-9.74,8.742-10.864
	c0.812-0.187,1.561-0.312,2.435-0.312h171.021C325.838,149.974,330.833,155.031,330.833,161.15z"/>
<path style="fill:#EBF0F3;" d="M330.833,180.381v65.124c0,6.119-4.995,11.177-11.176,11.177H148.636
	c-6.181,0-11.177-5.058-11.177-11.177v-65.124c0-5.306,3.747-9.74,8.742-10.864c0.812-0.188,1.561-0.312,2.435-0.312h171.021
	C325.838,169.205,330.833,174.262,330.833,180.381z"/>
<g>
	<circle style="fill:#1C75A1;" cx="165.526" cy="306.576" r="19.556"/>
	<circle style="fill:#1C75A1;" cx="234.146" cy="306.576" r="19.556"/>
	<circle style="fill:#1C75A1;" cx="302.798" cy="306.576" r="19.556"/>
	<circle style="fill:#1C75A1;" cx="165.526" cy="362.459" r="19.556"/>
	<circle style="fill:#1C75A1;" cx="234.146" cy="362.459" r="19.556"/>
	<circle style="fill:#1C75A1;" cx="302.798" cy="362.459" r="19.556"/>
	<circle style="fill:#1C75A1;" cx="165.526" cy="418.341" r="19.556"/>
	<circle style="fill:#1C75A1;" cx="234.146" cy="418.341" r="19.556"/>
	<circle style="fill:#1C75A1;" cx="302.798" cy="418.341" r="19.556"/>
</g>
<path style="fill:#2D93BA;" d="M351.505,77.569v42.074H116.788V77.569c0-9.4,7.645-16.988,16.988-16.988h200.741
	C343.918,60.581,351.505,68.169,351.505,77.569z"/>
<rect x="160.531" y="84.48" style="fill:#64798A;" width="147.231" height="11.326"/>
<polygon style="fill:#EBF0F3;" points="285.11,95.775 183.182,95.775 183.182,0 195.923,6.244 208.664,0 221.405,6.244 234.146,0 
	246.887,6.244 259.628,0 272.369,6.244 285.11,0 "/>
<g>
</g>
<g>
</g>
<g>
</g>
<g>
</g>
<g>
</g>
<g>
</g>
<g>
</g>
<g>
</g>
<g>
</g>
<g>
</g>
<g>
</g>
<g>
</g>
<g>
</g>
<g>
</g>
<g>
</g>
</svg>
