<?xml version="1.0" encoding="iso-8859-1"?>
<!-- Generator: Adobe Illustrator 19.0.0, SVG Export Plug-In . SVG Version: 6.00 Build 0)  -->
<svg version="1.1" id="Capa_1" xmlns="http://www.w3.org/2000/svg" xmlns:xlink="http://www.w3.org/1999/xlink" x="0px" y="0px"
	 viewBox="0 0 512 512" style="enable-background:new 0 0 512 512;" xml:space="preserve">
<g>
	<g>
		<g>
			<path d="M53.196,133.658c3.543,2.585,7.655,3.823,11.737,3.823c6.168,0,12.246-2.844,16.148-8.214
				c6.487-8.913,4.521-21.398-4.391-27.885c-8.913-6.487-21.398-4.521-27.885,4.391C42.317,114.686,44.283,127.171,53.196,133.658z"
				/>
			<path d="M25.281,202.115c2.046,0.669,4.122,0.988,6.168,0.988c8.414,0,16.238-5.359,18.983-13.793
				c3.403-10.49-2.325-21.747-12.815-25.161c-10.479-3.403-21.747,2.335-25.151,12.815C9.052,187.453,14.791,198.711,25.281,202.115
				z"/>
			<path d="M117.071,85.383c4.072,0,8.184-1.248,11.737-3.823c-0.01,0-0.01,0-0.01,0c8.923-6.487,10.889-18.973,4.401-27.885
				c-6.487-8.913-18.973-10.879-27.885-4.391c-8.913,6.487-10.879,18.963-4.391,27.885
				C104.825,82.538,110.903,85.383,117.071,85.383z"/>
			<path d="M0.389,259.902c0.13,0.639,0.289,1.267,0.479,1.896c0.19,0.619,0.409,1.238,0.659,1.836s0.529,1.198,0.838,1.767
				c0.299,0.569,0.639,1.138,0.998,1.677c0.359,0.549,0.749,1.078,1.168,1.577c0.409,0.509,0.858,0.998,1.317,1.457
				s0.948,0.908,1.457,1.317c0.499,0.409,1.028,0.808,1.577,1.168c0.539,0.359,1.108,0.699,1.677,0.998
				c0.569,0.309,1.168,0.589,1.767,0.838c0.599,0.25,1.218,0.469,1.836,0.659c0.629,0.19,1.268,0.349,1.896,0.479
				c0.639,0.13,1.297,0.23,1.936,0.289c0.659,0.07,1.317,0.1,1.966,0.1c0.649,0,1.307-0.03,1.966-0.1
				c0.639-0.06,1.297-0.16,1.936-0.289s1.268-0.289,1.896-0.479c0.619-0.19,1.238-0.409,1.836-0.659
				c0.599-0.25,1.198-0.529,1.767-0.838c0.579-0.299,1.138-0.639,1.677-0.998c0.549-0.359,1.078-0.759,1.577-1.168
				c0.509-0.409,0.998-0.858,1.457-1.317s0.908-0.948,1.317-1.457c0.409-0.499,0.808-1.028,1.168-1.577
				c0.359-0.539,0.699-1.108,0.998-1.677c0.309-0.569,0.589-1.168,0.838-1.767s0.469-1.218,0.659-1.836
				c0.19-0.629,0.349-1.258,0.479-1.896c0.13-0.639,0.23-1.288,0.289-1.936c0.07-0.649,0.1-1.317,0.1-1.966
				c0-0.649-0.03-1.307-0.1-1.966c-0.06-0.639-0.16-1.297-0.289-1.936c-0.13-0.629-0.289-1.268-0.479-1.896
				c-0.19-0.619-0.409-1.238-0.659-1.836s-0.529-1.198-0.838-1.767c-0.299-0.569-0.639-1.138-0.998-1.677
				c-0.359-0.549-0.759-1.078-1.168-1.577c-0.409-0.509-0.858-0.998-1.317-1.457s-0.948-0.908-1.457-1.317
				c-0.499-0.419-1.028-0.808-1.577-1.168c-0.539-0.359-1.098-0.699-1.677-0.998c-0.569-0.309-1.168-0.589-1.767-0.838
				c-0.599-0.25-1.218-0.469-1.836-0.659c-0.629-0.19-1.258-0.349-1.896-0.479c-0.639-0.13-1.297-0.23-1.936-0.289
				c-1.307-0.13-2.625-0.13-3.932,0c-0.639,0.06-1.297,0.16-1.936,0.289c-0.629,0.13-1.268,0.289-1.896,0.479
				c-0.619,0.19-1.238,0.409-1.836,0.659c-0.599,0.25-1.198,0.529-1.767,0.838c-0.569,0.299-1.138,0.639-1.677,0.998
				c-0.549,0.359-1.078,0.749-1.577,1.168c-0.509,0.409-0.998,0.858-1.457,1.317s-0.908,0.948-1.317,1.457
				c-0.419,0.499-0.808,1.028-1.168,1.577c-0.359,0.539-0.699,1.108-0.998,1.677c-0.309,0.569-0.589,1.168-0.838,1.767
				s-0.469,1.218-0.659,1.836c-0.19,0.629-0.349,1.268-0.479,1.896c-0.13,0.639-0.23,1.297-0.289,1.936
				c-0.07,0.659-0.1,1.317-0.1,1.966c0,0.649,0.03,1.317,0.1,1.966C0.16,258.614,0.26,259.263,0.389,259.902z"/>
			<path d="M182.693,51.888c2.046,0,4.122-0.309,6.168-0.978c10.49-3.403,16.228-14.661,12.825-25.151
				c-3.413-10.479-14.671-16.218-25.151-12.815c-10.489,3.403-16.228,14.661-12.825,25.151
				C166.455,46.529,174.279,51.888,182.693,51.888z"/>
			<path d="M176.655,199.167v3.707c0,38.648,31.264,70.092,69.693,70.092h25.14c16.5,0,29.923,13.381,29.923,29.828v13.032
				c0,16.542-13.424,29.998-29.923,29.998H230.63c-11.405,0-21.04-10.055-21.04-21.957c0-11.024-8.937-19.961-19.961-19.961
				c-11.024,0-19.961,8.937-19.961,19.961c0,34.12,27.348,61.879,60.962,61.879h4.909v20.959c0,11.024,8.937,19.961,19.961,19.961
				c11.024,0,19.961-8.937,19.961-19.961v-21.08c36.67-2.07,65.871-32.581,65.871-69.799v-13.032c0-38.46-31.333-69.75-69.845-69.75
				h-25.14c-16.416,0-29.771-13.534-29.771-30.169v-3.707c0-16.542,13.355-29.998,29.771-29.998h23.774
				c11.75,0,21.309,9.402,21.309,20.959c0,11.024,8.937,19.961,19.961,19.961c11.024,0,19.961-8.937,19.961-19.961
				c0-31.78-24.621-57.934-55.891-60.635v-23.202c0-11.024-8.937-19.961-19.961-19.961c-11.024,0-19.961,8.937-19.961,19.961v23.799
				C202.226,135.317,176.655,164.301,176.655,199.167z"/>
			<path d="M486.718,309.874c-10.479-3.403-21.747,2.335-25.151,12.815c-3.403,10.49,2.325,21.747,12.815,25.161
				c2.046,0.659,4.132,0.978,6.178,0.978c8.414,0,16.238-5.36,18.973-13.793C502.947,324.545,497.208,313.287,486.718,309.874z"/>
			<path d="M276.362,489.615c-0.011-0.112-0.026-0.222-0.039-0.333c-0.057-0.508-0.134-1.022-0.234-1.528
				c-0.424-2.21-1.219-4.283-2.307-6.169c-0.175-0.305-0.356-0.605-0.547-0.9c-0.126-0.194-0.254-0.385-0.386-0.575
				c-0.258-0.371-0.528-0.733-0.807-1.079c-0.103-0.127-0.207-0.253-0.311-0.376c-0.321-0.383-0.66-0.756-1.008-1.11
				c-0.076-0.077-0.152-0.154-0.23-0.23c-0.353-0.348-0.724-0.685-1.106-1.005c-0.129-0.11-0.259-0.217-0.39-0.323
				c-0.344-0.278-0.703-0.545-1.071-0.8c-0.187-0.131-0.375-0.258-0.566-0.381c-0.299-0.194-0.604-0.378-0.914-0.555
				c-1.879-1.084-3.944-1.875-6.145-2.3c-0.516-0.102-1.041-0.181-1.559-0.238c-0.738-0.083-1.484-0.134-2.244-0.134
				c-75.491,0-145.537-40.049-184.326-103.728l45.627-0.069c11.024-0.017,19.947-8.967,19.931-19.991
				c-0.017-11.014-8.951-19.931-19.961-19.931c-0.01,0-0.021,0-0.031,0l-58.39,0.089c-0.065,0-0.13,0-0.195,0
				c-15.793,0-30.584,6.097-41.671,17.184c-11.341,11.34-17.55,26.565-17.483,42.786v57.71c0,11.024,8.937,19.961,19.961,19.961
				c11.024,0,19.961-8.937,19.961-19.961V391.63c19.75,31.508,46.2,58.429,77.692,78.859
				c41.347,26.824,89.361,41.004,138.853,41.011c0.01,0,0.021,0.001,0.032,0.001c0.647,0,1.303-0.03,1.96-0.1
				c0.09-0.009,0.178-0.023,0.267-0.033c0.53-0.058,1.069-0.139,1.596-0.244c2.189-0.425,4.243-1.213,6.112-2.29
				c0.322-0.184,0.639-0.375,0.949-0.577c0.179-0.117,0.355-0.236,0.531-0.358c0.382-0.264,0.754-0.542,1.11-0.829
				c0.118-0.095,0.233-0.191,0.348-0.288c0.392-0.327,0.771-0.673,1.133-1.03c0.07-0.069,0.14-0.139,0.209-0.209
				c0.355-0.36,0.7-0.739,1.026-1.13c0.099-0.118,0.198-0.235,0.294-0.356c0.284-0.352,0.559-0.72,0.82-1.097
				c0.122-0.175,0.242-0.35,0.357-0.529c0.208-0.318,0.405-0.645,0.593-0.976c1.076-1.873,1.86-3.931,2.283-6.124
				c0.101-0.509,0.179-1.025,0.236-1.541c0.012-0.109,0.027-0.216,0.038-0.325c0.066-0.63,0.096-1.279,0.096-1.908
				c0-0.006,0.001-0.012,0.001-0.018s-0.001-0.013-0.001-0.019C276.457,490.891,276.428,490.253,276.362,489.615z"/>
			<path d="M492.038,46.409c-11.024,0-19.961,8.937-19.961,19.961v53.999c-19.75-31.509-46.2-58.429-77.692-78.86
				C353.029,14.68,305.004,0.499,255.5,0.499c-0.757,0-1.5,0.051-2.236,0.133c-0.53,0.058-1.067,0.139-1.594,0.244
				c-2.184,0.425-4.234,1.212-6.1,2.286c-0.332,0.189-0.659,0.386-0.978,0.594c-0.682,0.446-1.335,0.93-1.956,1.455
				c-0.402,0.335-0.792,0.69-1.161,1.055c-0.057,0.057-0.114,0.113-0.17,0.17c-0.365,0.369-0.72,0.758-1.055,1.161
				c-0.093,0.11-0.185,0.22-0.275,0.331c-0.292,0.362-0.575,0.741-0.844,1.129c-0.115,0.164-0.227,0.328-0.335,0.496
				c-0.208,0.319-0.405,0.647-0.594,0.978c-1.076,1.87-1.863,3.925-2.288,6.114c-0.101,0.514-0.176,1.037-0.237,1.553
				c-0.011,0.101-0.028,0.199-0.038,0.299c-0.071,0.66-0.101,1.317-0.101,1.964s0.03,1.304,0.099,1.961
				c0.01,0.102,0.027,0.202,0.038,0.303c0.061,0.515,0.136,1.036,0.237,1.547c0.424,2.191,1.212,4.248,2.289,6.12
				c0.189,0.331,0.385,0.658,0.593,0.976c0.11,0.169,0.223,0.334,0.337,0.499c0.266,0.384,0.546,0.759,0.835,1.118
				c0.095,0.118,0.192,0.234,0.288,0.348c0.33,0.396,0.68,0.779,1.04,1.144c0.063,0.063,0.126,0.126,0.189,0.189
				c0.366,0.362,0.752,0.713,1.15,1.045c0.111,0.093,0.221,0.186,0.333,0.276c0.359,0.291,0.736,0.571,1.122,0.838
				c0.173,0.121,0.346,0.238,0.523,0.352c0.31,0.202,0.629,0.394,0.951,0.578c1.874,1.08,3.934,1.869,6.128,2.294
				c0.52,0.103,1.048,0.182,1.57,0.24c0.099,0.011,0.197,0.026,0.295,0.035c0.652,0.068,1.302,0.098,1.944,0.098
				c75.491,0,145.536,40.049,184.325,103.728l-45.626,0.069c-11.023,0.017-19.947,8.966-19.931,19.991
				c0.017,11.014,8.951,19.931,19.961,19.931c0.01,0,0.021,0,0.031,0l58.39-0.088c0.065,0,0.129,0,0.194,0
				c15.794,0,30.586-6.098,41.673-17.184c11.341-11.341,17.55-26.566,17.483-42.787V66.37
				C511.999,55.346,503.063,46.409,492.038,46.409z"/>
			<path d="M458.803,378.34c-8.913-6.487-21.398-4.521-27.885,4.391c-6.487,8.913-4.521,21.398,4.391,27.885
				c3.543,2.575,7.655,3.823,11.727,3.823c6.168,0,12.246-2.854,16.158-8.214C469.682,397.313,467.716,384.827,458.803,378.34z"/>
			<path d="M511.61,252.097c-0.13-0.629-0.289-1.268-0.479-1.896c-0.19-0.619-0.409-1.238-0.659-1.836s-0.529-1.198-0.838-1.767
				c-0.299-0.579-0.639-1.138-0.998-1.677c-0.359-0.549-0.759-1.078-1.168-1.577c-0.409-0.509-0.858-0.998-1.317-1.457
				s-0.948-0.908-1.457-1.317c-0.499-0.419-1.028-0.808-1.577-1.168c-0.539-0.359-1.108-0.699-1.677-0.998
				c-0.569-0.309-1.168-0.589-1.767-0.838s-1.218-0.469-1.836-0.659c-0.629-0.19-1.268-0.349-1.896-0.479
				c-0.639-0.13-1.297-0.23-1.936-0.289c-1.307-0.13-2.625-0.13-3.932,0c-0.639,0.06-1.297,0.16-1.936,0.289
				c-0.629,0.13-1.267,0.289-1.896,0.479c-0.619,0.19-1.238,0.409-1.836,0.659s-1.198,0.529-1.767,0.838
				c-0.569,0.299-1.138,0.639-1.677,0.998c-0.549,0.359-1.078,0.749-1.577,1.168c-0.509,0.409-0.998,0.858-1.457,1.317
				s-0.908,0.948-1.317,1.457c-0.409,0.499-0.808,1.028-1.168,1.577c-0.359,0.539-0.699,1.098-0.998,1.677
				c-0.309,0.569-0.589,1.168-0.838,1.767s-0.469,1.218-0.659,1.836c-0.19,0.629-0.349,1.268-0.479,1.896
				c-0.13,0.639-0.23,1.297-0.289,1.936c-0.07,0.659-0.1,1.317-0.1,1.966c0,0.649,0.03,1.307,0.1,1.966
				c0.06,0.639,0.16,1.297,0.289,1.936c0.13,0.629,0.289,1.267,0.479,1.896c0.19,0.619,0.409,1.238,0.659,1.836
				s0.529,1.198,0.838,1.767c0.299,0.569,0.639,1.138,0.998,1.677c0.359,0.549,0.759,1.078,1.168,1.577
				c0.409,0.509,0.858,0.998,1.317,1.457s0.948,0.908,1.457,1.317c0.499,0.409,1.028,0.808,1.577,1.168
				c0.539,0.359,1.108,0.699,1.677,0.998c0.569,0.309,1.168,0.589,1.767,0.838s1.218,0.469,1.836,0.659
				c0.629,0.19,1.268,0.349,1.896,0.479c0.639,0.13,1.297,0.23,1.936,0.289c0.659,0.07,1.317,0.1,1.966,0.1s1.307-0.03,1.966-0.1
				c0.639-0.06,1.297-0.16,1.936-0.289c0.629-0.13,1.268-0.289,1.896-0.479c0.619-0.19,1.238-0.409,1.836-0.659
				s1.198-0.529,1.767-0.838c0.569-0.299,1.138-0.639,1.677-0.998c0.549-0.359,1.078-0.759,1.577-1.168
				c0.509-0.409,0.998-0.858,1.457-1.317s0.908-0.948,1.317-1.457c0.409-0.499,0.808-1.028,1.168-1.577
				c0.359-0.539,0.699-1.108,0.998-1.677c0.309-0.569,0.589-1.168,0.838-1.767s0.469-1.218,0.659-1.836
				c0.19-0.629,0.349-1.268,0.479-1.896c0.13-0.639,0.23-1.297,0.289-1.936c0.07-0.659,0.1-1.317,0.1-1.966
				c0-0.649-0.03-1.307-0.1-1.966C511.839,253.394,511.74,252.736,511.61,252.097z"/>
			<path d="M383.201,430.438c-8.923,6.487-10.889,18.973-4.401,27.885c3.912,5.37,9.99,8.214,16.158,8.214
				c4.072,0,8.184-1.238,11.727-3.823c8.913-6.487,10.879-18.973,4.401-27.885C404.599,425.917,392.113,423.951,383.201,430.438z"/>
			<path d="M323.138,461.088c-10.49,3.403-16.228,14.661-12.825,25.151c2.745,8.434,10.569,13.793,18.983,13.803
				c2.046,0,4.122-0.319,6.168-0.988c10.49-3.403,16.228-14.661,12.825-25.151C344.886,463.424,333.618,457.685,323.138,461.088z"/>
		</g>
	</g>
</g>
<g>
</g>
<g>
</g>
<g>
</g>
<g>
</g>
<g>
</g>
<g>
</g>
<g>
</g>
<g>
</g>
<g>
</g>
<g>
</g>
<g>
</g>
<g>
</g>
<g>
</g>
<g>
</g>
<g>
</g>
</svg>
