<?xml version="1.0" encoding="iso-8859-1"?>
<!-- Generator: Adobe Illustrator 19.0.0, SVG Export Plug-In . SVG Version: 6.00 Build 0)  -->
<svg version="1.1" id="Capa_1" xmlns="http://www.w3.org/2000/svg" xmlns:xlink="http://www.w3.org/1999/xlink" x="0px" y="0px"
	 viewBox="0 0 512.002 512.002" style="enable-background:new 0 0 512.002 512.002;" xml:space="preserve">
<g>
	<g>
		<g>
			<path d="M428.208,223.004c3.73,0,7.504-1.042,10.866-3.224c9.267-6.012,11.905-18.397,5.894-27.663
				c-2.32-3.576-7.147-11.018-6.965-13.655c0.143-2.061,3.478-7.343,5.685-10.839c0.82-1.299,1.638-2.596,2.43-3.894
				c4.525-7.422,10.664-18.838,11.728-32.228c1.196-15.069-4.496-29.429-15.617-39.395c-8.227-7.372-20.871-6.679-28.242,1.547
				c-7.371,8.227-6.679,20.87,1.547,28.242c1.827,1.637,2.647,3.804,2.438,6.439c-0.29,3.652-2.254,8.418-6.004,14.568
				c-0.684,1.121-1.393,2.242-2.102,3.365c-4.867,7.71-10.925,17.304-11.766,29.424c-1.107,15.968,7.227,28.813,13.313,38.193
				C415.241,219.791,421.658,223.004,428.208,223.004z"/>
			<path d="M329.208,136.004c3.73,0,7.504-1.042,10.866-3.224c9.267-6.012,11.905-18.397,5.894-27.663
				c-2.32-3.576-7.147-11.018-6.965-13.655c0.143-2.061,3.478-7.343,5.685-10.839c0.82-1.299,1.638-2.596,2.43-3.894
				c4.525-7.422,10.664-18.838,11.728-32.228c1.196-15.069-4.496-29.429-15.617-39.395c-8.227-7.372-20.87-6.678-28.242,1.547
				c-7.371,8.227-6.679,20.87,1.547,28.242c1.827,1.637,2.647,3.804,2.438,6.439c-0.29,3.652-2.254,8.418-6.004,14.568
				c-0.684,1.121-1.393,2.242-2.102,3.365c-4.867,7.71-10.925,17.304-11.766,29.424c-1.107,15.968,7.227,28.813,13.313,38.193
				C316.241,132.791,322.658,136.004,329.208,136.004z"/>
			<path d="M202.208,136.004c3.73,0,7.504-1.042,10.866-3.224c9.267-6.012,11.905-18.397,5.894-27.663
				c-2.32-3.576-7.147-11.018-6.965-13.655c0.143-2.061,3.478-7.343,5.685-10.839c0.82-1.299,1.638-2.596,2.43-3.894
				c4.525-7.422,10.664-18.838,11.728-32.228c1.196-15.069-4.496-29.429-15.617-39.395c-8.227-7.372-20.87-6.678-28.242,1.547
				c-7.371,8.227-6.679,20.87,1.547,28.242c1.827,1.637,2.647,3.804,2.438,6.439c-0.29,3.652-2.254,8.418-6.004,14.568
				c-0.684,1.121-1.393,2.242-2.102,3.365c-4.867,7.71-10.925,17.304-11.766,29.424c-1.107,15.968,7.227,28.813,13.313,38.193
				C189.241,132.791,195.658,136.004,202.208,136.004z"/>
			<path d="M492.001,472.002h-20v-19c0-15.975-1.755-31.912-5.215-47.37c-2.412-10.779-13.103-17.561-23.886-15.147
				c-10.778,2.412-17.56,13.107-15.147,23.886c2.818,12.593,4.248,25.591,4.248,38.631v19h-352v-19c0-7.106,0.435-14.112,1.258-21
				h275.742c11.046,0,20-8.954,20-20c0-11.046-8.954-20-20-20H90.907c24.861-67.07,89.483-115,165.094-115
				c52.12,0,101.262,22.913,134.825,62.866c7.104,8.457,19.721,9.553,28.179,2.448c8.457-7.106,9.552-19.721,2.448-28.179
				c-36.641-43.615-88.425-70.661-144.452-76.099v-22.32c9.064-6.325,15-16.825,15-28.716c0-19.33-15.67-35-35-35s-35,15.67-35,35
				c0,11.892,5.936,22.391,15,28.716v22.119c-50.526,4.375-97.45,26.145-133.735,62.43c-40.797,40.797-63.265,95.039-63.265,152.735
				v19h-20c-11.046,0-20,8.954-20,20c0,11.046,8.954,20,20,20h472c11.046,0,20-8.954,20-20
				C512.001,480.956,503.047,472.002,492.001,472.002z"/>
			<path d="M85.208,222.004c3.73,0,7.504-1.042,10.866-3.224c9.267-6.012,11.905-18.397,5.894-27.663
				c-2.32-3.576-7.147-11.018-6.965-13.655c0.143-2.061,3.478-7.343,5.685-10.839c0.82-1.299,1.638-2.596,2.43-3.894
				c4.525-7.422,10.664-18.838,11.728-32.228c1.196-15.069-4.496-29.429-15.617-39.395c-8.227-7.373-20.87-6.677-28.242,1.547
				c-7.371,8.227-6.679,20.87,1.547,28.242c1.827,1.637,2.647,3.804,2.438,6.439c-0.29,3.652-2.254,8.418-6.004,14.568
				c-0.684,1.121-1.393,2.242-2.102,3.365c-4.867,7.71-10.925,17.304-11.766,29.424c-1.107,15.968,7.227,28.813,13.313,38.193
				C72.241,218.791,78.658,222.004,85.208,222.004z"/>
		</g>
	</g>
</g>
<g>
</g>
<g>
</g>
<g>
</g>
<g>
</g>
<g>
</g>
<g>
</g>
<g>
</g>
<g>
</g>
<g>
</g>
<g>
</g>
<g>
</g>
<g>
</g>
<g>
</g>
<g>
</g>
<g>
</g>
</svg>
