<?xml version="1.0" encoding="iso-8859-1"?>
<!-- Generator: Adobe Illustrator 19.0.0, SVG Export Plug-In . SVG Version: 6.00 Build 0)  -->
<svg version="1.1" id="Capa_1" xmlns="http://www.w3.org/2000/svg" xmlns:xlink="http://www.w3.org/1999/xlink" x="0px" y="0px"
	 viewBox="0 0 512 512" style="enable-background:new 0 0 512 512;" xml:space="preserve">
<g>
	<g>
		<path d="M492,284.122c11.046,0,20-8.955,20-20V148c0-44.112-35.888-80-80-80H80c-44.112,0-80,35.888-80,80v216
			c0,44.112,35.888,80,80,80h352c44.112,0,80-35.888,80-80c0-11.046-8.954-20-20-20c-11.046,0-20,8.954-20,20
			c0,22.056-17.944,40-40,40H80c-22.056,0-40-17.944-40-40V233.122h52.44c8.256,23.278,30.487,40,56.56,40
			c7.731,0,15.318-1.803,22.529-4.709c-7.34,15.861-18.356,31.872-34.866,43.232c-9.1,6.261-11.401,18.714-5.14,27.813
			c3.879,5.637,10.132,8.665,16.495,8.665c3.907,0,7.856-1.143,11.319-3.525c23.095-15.891,38.206-37.573,48.089-58.709
			c9.968,21.134,25.145,42.82,48.237,58.709c3.463,2.383,7.411,3.525,11.319,3.525c6.361,0,12.616-3.028,16.495-8.665
			c6.261-9.1,3.96-21.552-5.14-27.813c-16.423-11.3-27.48-27.338-34.91-43.25c7.224,2.916,14.826,4.727,22.573,4.727
			c26.073,0,48.303-16.722,56.56-40H472v31C472,275.167,480.954,284.122,492,284.122z M149,233.122c-11.028,0-20-8.973-20-20
			c0-11.028,8.972-20,20-20c9.204,0,22.492,9.7,33.058,19.975C171.81,223.034,158.401,233.122,149,233.122z M266,233.122
			c-9.204,0-22.492-9.7-33.058-19.975c10.248-9.937,23.657-20.025,33.058-20.025c11.028,0,20,8.972,20,20
			C286,224.15,277.028,233.122,266,233.122z M322.56,193.122c-8.256-23.278-30.487-40-56.56-40c-22.71,0-44.181,15.541-58.5,28.973
			c-14.319-13.433-35.79-28.973-58.5-28.973c-26.073,0-48.303,16.722-56.56,40H40V148c0-22.056,17.944-40,40-40h352
			c22.056,0,40,17.944,40,40v45.122H322.56z"/>
	</g>
</g>
<g>
</g>
<g>
</g>
<g>
</g>
<g>
</g>
<g>
</g>
<g>
</g>
<g>
</g>
<g>
</g>
<g>
</g>
<g>
</g>
<g>
</g>
<g>
</g>
<g>
</g>
<g>
</g>
<g>
</g>
</svg>
