<?xml version="1.0" encoding="iso-8859-1"?>
<!-- Generator: Adobe Illustrator 19.0.0, SVG Export Plug-In . SVG Version: 6.00 Build 0)  -->
<svg version="1.1" id="Capa_1" xmlns="http://www.w3.org/2000/svg" xmlns:xlink="http://www.w3.org/1999/xlink" x="0px" y="0px"
	 viewBox="0 0 512.001 512.001" style="enable-background:new 0 0 512.001 512.001;" xml:space="preserve">
<g>
	<g>
		<path d="M471.268,40.658c-2.12,30.113-10.922,87.499-46.458,123.035c-9.789,9.788-19.747,16.661-29.601,20.43
			c-10.313,3.944-15.477,15.502-11.533,25.815c3.046,7.964,10.631,12.858,18.679,12.858c2.374,0,4.788-0.426,7.138-1.325
			c15.138-5.789,29.804-15.716,43.592-29.504c58.674-58.674,59.083-156.572,58.808-171.001c0.004-0.085,0.007-0.17,0.01-0.255
			c0.362-11.004-8.241-20.23-19.245-20.637c-4.482-0.171-110.543-3.343-172.651,58.766c-23.903,23.903-35.935,49.916-35.76,77.315
			c0.143,22.582,8.769,40.626,14.372,51.363c-18.455,21.022-33.17,44.786-43.808,70.832c-2.282,5.587-4.354,11.232-6.221,16.927
			c-8.59-14.408-19.815-31.254-34.218-49.57c5.574-10.902,13.25-28.16,13.384-49.45c0.174-27.4-11.857-53.413-35.76-77.316
			C129.887,36.832,23.828,40.013,19.343,40.176C8.409,40.58-0.13,49.692,0.118,60.605c-0.285,12.647-0.546,112.119,58.799,171.464
			c23.729,23.729,49.699,35.761,77.188,35.761c0.351,0,28.044-0.165,51.443-11.323c7.184,9.437,13.245,18.142,18.268,25.845
			c21.231,32.561,29.149,54.842,29.286,55.234c0.368,1.067,0.82,2.079,1.342,3.039c-0.22,4.317-0.338,8.648-0.338,12.994v25.114
			c-8.963-4.231-18.812-6.484-28.938-6.484c-34.802,0-63.571,26.328-67.435,60.113c-30.097,3.183-53.625,28.718-53.625,59.646
			c0,11.042,8.951,19.993,19.993,19.993s19.993-8.951,19.993-19.993c0-11.024,8.969-19.993,19.993-19.993
			c2.717,0,5.344,0.531,7.808,1.578c7.229,3.072,15.589,1.626,21.368-3.695c5.778-5.323,7.903-13.536,5.432-20.993
			c-0.941-2.84-1.418-5.793-1.418-8.779c0-15.379,12.512-27.89,27.89-27.89c14.388,0,26.59,11.215,27.779,25.533
			c0.725,8.728,7.047,15.97,15.598,17.865c8.548,1.895,17.34-1.995,21.686-9.6c4.936-8.64,14.164-14.006,24.081-14.006
			c14.004,0,25.827,10.464,27.501,24.343c0.716,5.935,4.05,11.237,9.087,14.455c5.039,3.218,11.252,4.013,16.936,2.166
			c1.998-0.649,4.078-0.978,6.181-0.978c11.024,0,19.993,8.969,19.993,19.993c0,11.042,8.951,19.993,19.993,19.993
			s19.993-8.951,19.993-19.993c0-32.374-25.781-58.84-57.891-59.944c-10.651-23.773-34.531-40.022-61.793-40.022
			c-5.795,0-11.49,0.755-16.97,2.182c15.226-25.541,49.525-57.164,66.82-63.072c10.449-3.57,16.026-14.934,12.456-25.383
			c-3.57-10.448-14.934-16.025-25.383-12.456c-16.458,5.623-37.605,21.466-56.207,40.324c4.503-48.333,25.29-93.343,59.676-128.417
			l83.548-85.219c7.73-7.885,7.604-20.543-0.28-28.273c-7.885-7.73-20.544-7.604-28.273,0.28l-63.32,64.587
			c-2.312-6.133-4.097-13.12-4.145-20.692c-0.104-16.542,7.762-32.5,24.05-48.788C383.805,51.591,441.157,42.783,471.268,40.658z
			 M185.288,191.787c-18.536-19.891-40.638-40.685-66.878-61.381c-8.669-6.839-21.241-5.354-28.079,3.316
			s-5.353,21.242,3.316,28.079c26.895,21.213,48.971,42.495,66.86,62.225c-8.882,2.537-18.608,3.817-24.402,3.817
			c-16.731,0-32.731-7.866-48.913-24.049c-35.542-35.542-44.34-92.935-46.459-123.033c30.125,2.126,87.47,10.937,122.988,46.455
			c16.287,16.287,24.155,32.246,24.05,48.786C187.734,181.623,186.741,186.92,185.288,191.787z"/>
	</g>
</g>
<g>
</g>
<g>
</g>
<g>
</g>
<g>
</g>
<g>
</g>
<g>
</g>
<g>
</g>
<g>
</g>
<g>
</g>
<g>
</g>
<g>
</g>
<g>
</g>
<g>
</g>
<g>
</g>
<g>
</g>
</svg>
