<?xml version="1.0" encoding="iso-8859-1"?>
<!-- Generator: Adobe Illustrator 19.0.0, SVG Export Plug-In . SVG Version: 6.00 Build 0)  -->
<svg version="1.1" id="Capa_1" xmlns="http://www.w3.org/2000/svg" xmlns:xlink="http://www.w3.org/1999/xlink" x="0px" y="0px"
	 viewBox="0 0 511.999 511.999" style="enable-background:new 0 0 511.999 511.999;" xml:space="preserve">
<g>
	<g>
		<path d="M431.423,0H80.576C36.146,0,0,36.146,0,80.576v350.848c0,44.43,36.146,80.576,80.576,80.576h350.848
			c44.429,0,80.576-36.147,80.576-80.576V80.576C512,36.146,475.854,0,431.423,0z M30.597,223.591h33.037v64.817H30.597V223.591z
			 M431.424,481.402H80.577c-27.559,0.001-49.979-22.42-49.979-49.978V319.005h33.037v85.258c0,24.319,19.784,44.103,44.103,44.103
			h296.527c24.319,0,44.103-19.784,44.103-44.103V107.737c0-24.319-19.784-44.103-44.103-44.103H107.737
			c-24.319,0-44.103,19.784-44.103,44.103v85.258H30.597V80.576c0-27.558,22.421-49.978,49.978-49.978h350.848
			c27.559,0,49.978,22.421,49.978,49.978v350.848h0.001C481.403,458.982,458.982,481.402,431.424,481.402z M94.231,107.737
			c0-7.447,6.058-13.506,13.506-13.506h296.527c7.447,0,13.506,6.058,13.506,13.506v296.527c0,7.447-6.058,13.506-13.506,13.506
			H107.737c-7.447,0-13.506-6.058-13.506-13.506C94.231,404.263,94.231,107.737,94.231,107.737z"/>
	</g>
</g>
<g>
	<g>
		<path d="M256.004,147.889c-59.612,0-108.11,48.498-108.11,108.11s48.498,108.11,108.11,108.11s108.11-48.498,108.11-108.11
			S315.616,147.889,256.004,147.889z M256.004,236.621c10.686,0,19.378,8.693,19.378,19.378s-8.693,19.378-19.378,19.378
			s-19.378-8.693-19.378-19.378S245.318,236.621,256.004,236.621z M191.476,298.888C183.28,286.597,178.49,271.849,178.49,256
			c0.001-37.504,26.777-68.866,62.215-75.989v28.419c-20.094,6.478-34.677,25.35-34.677,47.57c0,8.213,2.004,15.964,5.53,22.806
			L191.476,298.888z M256.004,333.514c-15.851-0.002-30.6-4.793-42.892-12.991l20.081-20.081c6.845,3.528,14.596,5.533,22.811,5.533
			c8.213,0,15.964-2.004,22.806-5.53l20.082,20.082C286.601,328.724,271.853,333.514,256.004,333.514z M320.528,298.892
			l-20.081-20.081c3.528-6.845,5.533-14.596,5.533-22.811c0-22.221-14.583-41.093-34.677-47.57V180.01
			c35.437,7.123,62.213,38.485,62.213,75.989C333.516,271.851,328.725,286.6,320.528,298.892z"/>
	</g>
</g>
<g>
</g>
<g>
</g>
<g>
</g>
<g>
</g>
<g>
</g>
<g>
</g>
<g>
</g>
<g>
</g>
<g>
</g>
<g>
</g>
<g>
</g>
<g>
</g>
<g>
</g>
<g>
</g>
<g>
</g>
</svg>
