<svg xmlns="http://www.w3.org/2000/svg" viewBox="0 0 554.1 178.4" style="enable-background:new 0 0 554.1 178.4" xml:space="preserve"><path d="M117.2 89.2 0 178.4l129.2-89.2L0 0l117.2 89.2z" style="fill:#c30"/><path d="M0 0v178.4l117.2-89.2L0 0m21.2 119 7.2-26.2-22-16.2 27.2-1.2 8.6-25.9L51.8 75l27.2.2-21.3 17.1 8.3 26-22.8-15-22 15.7z" style="fill:#2b379b"/><path d="M28.3 92.9 21.2 119l22-15.8 22.8 15-8.3-26 21.3-17-27.3-.1-9.6-25.5-8.6 25.9-27.1 1.1 21.9 16.3m379.3 10.5c-2.3 3.8-3.5 8.6-3.5 14.4.1 5.7 1.3 10.5 3.5 14.4 2.3 3.8 5.4 6.6 9.3 8.5 3.9 1.9 8.2 2.9 13 2.9 3.6 0 6.9-.6 9.9-1.8 3.1-1.2 6.1-3.2 8.9-5.9l-8.1-7.9c-1.5 1.5-3.2 2.5-5 3.1-1.8.6-3.7.9-5.6.9-2.5 0-4.8-.6-6.9-1.7-2.1-1.1-3.8-2.6-5-4.8-1.2-2.1-1.9-4.7-1.9-7.8.1-4.3 1.4-7.8 4-10.4 2.6-2.6 5.9-3.9 10-4 1.7 0 3.4.3 5.1.9 1.7.6 3.2 1.6 4.6 2.9l7.7-8c-2.6-2.6-5.4-4.5-8.2-5.6-2.8-1.1-6-1.7-9.3-1.6-4.8 0-9.1.9-13 2.9-4 1.9-7.1 4.8-9.5 8.6m33.2-70.8v8.6c-1.1-2-2.5-3.7-4.1-5.1-1.7-1.3-3.6-2.3-5.6-3-2-.6-4.1-1-6.2-1-3.7 0-7 .9-10 2.6-3 1.6-5.3 3.9-7.1 6.9-1.8 3-2.7 6.5-2.7 10.5s.9 7.5 2.7 10.6c1.8 3 4.1 5.3 7.1 7 3 1.7 6.3 2.6 10 2.6 3.2 0 6.2-.7 9-2.2 2.7-1.5 5.1-3.7 7-6.8v8.3h3.9v-39h-4m.3 19.5c0 2.8-.6 5.4-1.8 7.9-1.2 2.5-3 4.5-5.4 6.1-2.4 1.6-5.5 2.4-9.1 2.4-3 0-5.7-.7-8.1-2.1-2.4-1.4-4.3-3.3-5.7-5.8-1.4-2.5-2.1-5.3-2.1-8.6s.7-6.1 2.1-8.6c1.4-2.4 3.3-4.3 5.7-5.7 2.4-1.3 5.1-2 8.1-2 3.6.1 6.6.9 9.1 2.4 2.4 1.5 4.2 3.6 5.4 6.1 1.3 2.6 1.8 5.2 1.8 7.9m73.2 48c-1.3 1.9-1.9 4.3-2 7.1.1 3.7 1.2 6.5 3.2 8.6 2.1 2.1 4.6 3.7 7.7 4.6 3.1 1 6.2 1.6 9.3 1.8 3.4.2 5.9.6 7.4 1.5 1.6.8 2.3 2 2.3 3.7 0 1.2-.5 2.3-1.3 3.1-.8.9-1.9 1.5-3.3 2-1.3.5-2.7.7-4.3.7-1.8 0-3.8-.4-6-1-2.1-.6-4.2-1.4-6.1-2.4-1.9-1-3.5-2.1-4.7-3.5l-5.9 8.6c2.4 2.5 4.8 4.3 7.3 5.5 2.5 1.3 5 2.1 7.6 2.5 2.5.5 5.1.7 7.7.7 4.6 0 8.5-.8 11.6-2.3 3.1-1.5 5.4-3.4 7-5.8 1.5-2.4 2.3-5 2.3-7.9 0-3.2-.7-5.8-2-7.8s-2.9-3.5-5-4.6c-2.1-1.1-4.3-1.9-6.7-2.3-2.4-.5-4.8-.8-7.2-.9-3.1-.2-5.4-.8-6.8-1.6-1.5-.9-2.2-2.1-2.2-3.7 0-1.5.8-2.7 2.3-3.5 1.5-.8 3.7-1.3 6.5-1.3 2.3 0 4.5.3 6.5 1s3.8 1.8 5.5 3.4l6.7-7.9c-2.8-2.4-5.7-4.1-8.7-5.1-3.1-.9-6.5-1.4-10.3-1.4-2.3 0-4.6.3-6.9.8-2.4.5-4.6 1.4-6.7 2.5-1.8 1.4-3.5 3-4.8 4.9m-20.7-4.8c-3.9-2.2-8.5-3.3-14-3.3-5.3 0-9.8 1.1-13.7 3.3-3.8 2.2-6.8 5.1-8.9 9-2.1 3.8-3.1 8.2-3.2 13.1 0 5.2 1 9.8 3.2 13.6 2.1 3.9 5.2 6.9 9.1 9s8.8 3.2 14.4 3.3c2.5 0 5-.3 7.5-.9 2.6-.6 5-1.5 7.3-2.6 2.3-1.2 4.4-2.6 6.1-4.4l-7.7-7.6c-.9 1-2.2 1.8-3.7 2.5-1.4.7-3 1.2-4.7 1.5-1.6.4-3.2.6-4.7.6-4.3-.1-7.6-1-10.1-3-2.5-1.9-4-4.4-4.4-7.4H504c.6-6.7 0-12.3-1.9-16.7-1.8-4.4-4.6-7.8-8.5-10m-5 9.7c2.2 1.6 3.6 3.9 4 7h-26.2c.9-3.1 2.6-5.5 5-7 2.4-1.6 5.3-2.4 8.6-2.4 3.5 0 6.4.8 8.6 2.4m-.3-65.1c-1.5-2.6-3.5-4.5-6.2-5.9-2.6-1.3-5.7-2-9.2-2.1-2.8 0-5.4.7-7.9 1.9s-4.5 3.2-6 5.8v-6.9h-3.8v39h3.8V49.9c0-2.7.6-5.1 1.8-7.3 1.2-2.1 2.8-3.8 4.8-5.1 2-1.2 4.4-1.9 7.1-1.9 4.3 0 7.7 1.1 10.1 3.4s3.7 5.7 3.8 10.1v22.4h3.8V49.1c.1-3.6-.6-6.7-2.1-9.2m19.7-19-3.8.4v11.4h-8.3V36h8.3v23.8c-.1 3.9.7 7 2.4 9.2 1.6 2.2 4.5 3.3 8.5 3.4 1.2 0 2.5-.2 3.7-.6 1.2-.4 2.4-.9 3.7-1.4l-1.4-3.1c-1 .5-2 .9-3 1.1-1 .3-2 .4-3 .4-2 0-3.5-.4-4.5-1.2-1.1-.8-1.8-1.8-2.1-3.1-.3-1.4-.5-2.9-.5-4.7V35.9h13.3v-3.3H508V20.9M384.1 93.2V142h12V93.2h-12m-104-51.7c-1.7-3.3-4.1-5.7-7.2-7.2-3.1-1.5-6.5-2.3-10.2-2.3-3.7 0-7 .9-10 2.6-3 1.7-5.4 4.1-7.2 7.1-1.7 3-2.6 6.5-2.7 10.4.1 4.2 1 7.7 2.7 10.7 1.8 3 4.2 5.3 7.2 6.9 3 1.6 6.3 2.4 10 2.4 2.1 0 4.2-.3 6.3-.9 2.1-.6 4.1-1.4 5.9-2.5 1.8-1.1 3.4-2.5 4.6-4.2l-2.8-2.2c-1 1.3-2.3 2.4-3.8 3.3-1.5.9-3.2 1.5-5 1.9-1.8.5-3.6.7-5.3.7-2.7 0-5.2-.6-7.5-1.7-2.3-1.2-4.2-2.8-5.7-4.9-1.5-2.2-2.4-4.8-2.6-7.9H282c.5-4.8-.2-9-1.9-12.2m-3.6.9c1.3 2.3 2 5 2 8.2h-31.6c.3-3.2 1.2-5.9 2.7-8.2 1.5-2.2 3.4-3.9 5.7-5.1 2.3-1.2 4.8-1.8 7.5-1.8 3.2 0 5.9.6 8.3 1.8 2.3 1.1 4.1 2.8 5.4 5.1m43.8 54.4c-1.4-1.3-3.2-2.4-5.4-3.3-2.2-.8-4.6-1.3-7.1-1.3-1.7 0-3.3.1-4.9.4-1.6.4-3.2 1.1-4.7 2.1s-2.9 2.5-4.1 4.4l-.9-5.6-11.1.1V142h12v-25.6c0-3 .6-5.4 1.7-7.2 1.1-1.8 2.6-3.1 4.5-4s3.8-1.2 6-1.2c1.9 0 3.5.3 4.8.9 1.4.5 2.6 1.3 3.8 2.3l5.4-10.4m16.6-3.5h-13.1l20.8 48.9h13l20.7-48.9h-13.1l-6.7 16.3-7.4 20.3-7.5-20.5-6.7-16.1m-21.4-55.7 1.7-3.1c-1.3-.8-2.7-1.3-4.1-1.8-1.4-.4-2.8-.5-4.3-.5-1.7 0-3.4.2-5 .7-1.6.5-3.1 1.3-4.5 2.4-1.4 1.1-2.5 2.5-3.4 4.3l-.1-6.9h-3.7v39h3.9V48.9c0-2.4.6-4.6 1.8-6.5 1.1-1.9 2.6-3.5 4.5-4.7 2-1.2 4.2-1.8 6.6-1.8 1.1 0 2.3.1 3.4.4 1.1.3 2.2.8 3.2 1.3m32.8-3.9c-2.4-1-4.9-1.4-7.5-1.4-3.8 0-7.2.8-10.2 2.4-3 1.6-5.4 3.9-7.1 6.9-1.8 3-2.7 6.5-2.7 10.6s.9 7.7 2.8 10.7c1.8 2.9 4.2 5.2 7.3 6.8 3 1.6 6.3 2.4 10 2.4 2.6 0 5.1-.5 7.5-1.4 2.5-1 4.7-2.4 6.7-4.4l-2.6-2.6c-1.6 1.6-3.4 2.8-5.4 3.6-2 .8-4 1.2-6.2 1.2-3 0-5.7-.6-8.2-1.9-2.5-1.2-4.4-3.1-5.9-5.4-1.5-2.4-2.2-5.4-2.3-8.9 0-3.5.8-6.5 2.3-8.9 1.5-2.4 3.4-4.2 5.9-5.4 2.5-1.3 5.2-1.9 8.2-1.9 2.1 0 4.2.4 6.2 1.1s3.9 1.9 5.5 3.5l2.5-2.4c-2.1-2.2-4.3-3.6-6.8-4.6m-122.6 70.5c-2.1 3.8-3.1 8.2-3.1 13.1 0 5.2 1 9.8 3.1 13.6 2.1 3.9 5.2 6.9 9.1 9s8.8 3.2 14.4 3.3c2.5 0 5-.3 7.6-.9 2.6-.6 5-1.5 7.3-2.6 2.3-1.2 4.4-2.6 6.1-4.4l-7.7-7.6c-.9 1-2.1 1.8-3.6 2.5-1.4.7-3 1.2-4.7 1.5-1.6.4-3.2.6-4.7.6-4.3-.1-7.6-1-10.1-3-2.5-1.9-4-4.4-4.4-7.4h37.9c.6-6.7 0-12.3-1.9-16.7-1.9-4.4-4.8-7.8-8.7-10-3.9-2.2-8.5-3.3-14-3.3-5.3 0-9.8 1.1-13.7 3.3-3.8 2.2-6.8 5.2-8.9 9m35.6 7.8h-26.2c.9-3.1 2.6-5.5 5-7 2.4-1.6 5.3-2.4 8.6-2.4 3.5 0 6.4.8 8.6 2.4 2.2 1.5 3.6 3.9 4 7m-74.2-5.2c0-1.5.8-2.7 2.3-3.5 1.5-.8 3.7-1.3 6.5-1.3 2.3 0 4.5.3 6.5 1s3.8 1.8 5.6 3.4l6.7-7.9c-2.8-2.4-5.7-4.1-8.7-5.1-3.1-.9-6.5-1.4-10.3-1.4-2.3 0-4.6.3-7 .8-2.4.5-4.6 1.4-6.6 2.5-2 1.2-3.7 2.8-5 4.7-1.3 1.9-1.9 4.3-1.9 7.1.1 3.7 1.1 6.5 3.1 8.6 2.1 2.1 4.6 3.7 7.6 4.6 3.1 1 6.2 1.6 9.3 1.8 3.4.2 5.9.6 7.4 1.5 1.6.8 2.3 2 2.3 3.7 0 1.2-.4 2.3-1.3 3.1-.8.9-1.9 1.5-3.3 2-1.3.5-2.7.7-4.3.7-1.8 0-3.8-.4-6-1-2.1-.6-4.2-1.4-6.1-2.4-1.9-1-3.5-2.1-4.7-3.5l-5.9 8.6c2.4 2.5 4.8 4.3 7.3 5.5 2.5 1.3 5 2.1 7.6 2.5 2.5.5 5.1.7 7.6.7 4.6 0 8.5-.8 11.6-2.3 3.1-1.5 5.4-3.4 7-5.8 1.5-2.4 2.3-5 2.3-7.9 0-3.2-.7-5.8-1.9-7.8s-2.9-3.5-5-4.6c-2.1-1.1-4.3-1.9-6.7-2.3-2.4-.5-4.8-.8-7.1-.9-3.1-.2-5.4-.8-6.9-1.6-1.3-.7-2-1.9-2-3.5m39.8-67.7c2.3 2.3 3.4 5.4 3.5 9.2v23.4h3.9V48.3c0-3.2-.8-6.1-2.1-8.6-1.4-2.4-3.3-4.3-5.8-5.8-2.4-1.3-5.3-2-8.5-2-2 0-4 .3-5.9 1-1.9.7-3.6 1.8-5.1 3.2-1.5 1.5-2.7 3.3-3.5 5.4-.8-2.3-1.9-4.2-3.4-5.6-1.5-1.4-3.2-2.5-5.2-3.1-1.9-.6-3.8-.9-5.8-.9-2.6 0-5 .5-7.3 1.7-2.3 1.1-4.1 3-5.5 5.6l-.1-6.5h-3.6v39h3.9V48.5c0-2.5.6-4.7 1.6-6.7 1.1-1.9 2.5-3.5 4.3-4.6 1.9-1.1 4.1-1.7 6.6-1.7s4.7.6 6.5 1.7c1.9 1.1 3.4 2.6 4.4 4.6 1.1 2 1.6 4.2 1.7 6.7v23.1h3.8V48.5c0-2.5.6-4.7 1.6-6.7 1.1-2 2.5-3.5 4.4-4.7 1.9-1.1 4.1-1.7 6.6-1.7 3.8.1 6.8 1.3 9 3.7m139.7-22.8H363v55.4h3.8V50.3c0-2.8.6-5.2 1.8-7.4 1.2-2.2 2.8-3.9 4.9-5.2 2.1-1.3 4.5-1.9 7.3-1.9 4.4 0 7.5 1.3 9.5 3.7 2 2.4 3 5.7 3 9.8v22.3h3.8V49.3c0-3.4-.6-6.4-1.8-9-1.2-2.6-3-4.6-5.5-6.1-2.4-1.4-5.4-2.2-9.1-2.2-2.7 0-5.4.6-7.9 1.8-2.5 1.2-4.6 3.2-6.2 6V16.3z" style="fill:#fff"/></svg>