<?xml version="1.0" encoding="utf-8"?><svg xmlns="http://www.w3.org/2000/svg" xmlns:xlink="http://www.w3.org/1999/xlink"><symbol viewBox="0 0 200 200" id="arrow-top" xmlns="http://www.w3.org/2000/svg"><path d="M101 44l80.6 80.6c2.7 2.7 4 6.2 4 9.7s-1.3 7-4 9.7c-5.4 5.4-14.1 5.4-19.5 0L101 82.9 39.9 144c-5.4 5.4-14.1 5.4-19.5 0s-5.4-14.1 0-19.5L101 44z"/></symbol><symbol viewBox="0 0 462 462" id="file-dollar" xmlns="http://www.w3.org/2000/svg"><path d="M336 34.4c-1.6-1.7-3.9-2.7-6.3-2.7H175.1c-19.4 0-35.6 15.9-35.6 35.3v26.2H96c-19.4 0-35.6 16.1-35.6 35.5v273.7c0 19.4 16.2 35.3 35.6 35.3h204.8c19.4 0 35.6-15.9 35.6-35.3v-26.2h43.5c19.4 0 35.6-16.1 35.6-35.5V119.3c-.1-2.3-1-4.5-2.7-6.2L336 34.4zm2.1 27.8l47.3 48.5H344c-3.2-.1-5.8-2.5-6-5.7V62.2zm-19.3 340.2c0 9.7-8.3 17.7-18 17.7H96c-9.7 0-18-8-18-17.7V128.7c.2-9.9 8.1-17.8 18-17.9h43.5v229.9c0 19.4 16.2 35.5 35.6 35.5h143.7v26.2zm61.1-43.9H175.1c-9.9-.1-17.8-8.1-18-17.9V66.9c0-9.7 8.3-17.7 18-17.7h145.5V105c0 12.7 10.8 23.3 23.5 23.3h53.8v212.3c-.2 9.9-8.2 17.8-18 17.9z"/><path d="M357.7 304.9H192.8c-4.9 0-8.8 3.9-8.8 8.8s3.9 8.8 8.8 8.8h164.9c4.9 0 8.8-3.9 8.8-8.8 0-4.8-4-8.8-8.8-8.8zm-164.9-21.1h98.7c4.9 0 8.8-3.9 8.8-8.8s-3.9-8.8-8.8-8.8h-98.7c-4.9 0-8.8 3.9-8.8 8.8s4 8.8 8.8 8.8zm84.7-64.7c-8.5 0-15.4-6.9-15.4-15.4 0-4.9-3.9-8.8-8.8-8.8s-8.8 3.9-8.8 8.8c0 14.5 9.5 27.3 23.3 31.5v7.4c0 4.9 3.9 8.8 8.8 8.8s8.8-3.9 8.8-8.8v-6.9c16.2-4 26.8-19.4 24.8-36s-16.1-29-32.7-29c-8.5 0-15.4-6.9-15.4-15.4s6.9-15.4 15.4-15.4 15.4 6.9 15.4 15.4c0 4.9 3.9 8.8 8.8 8.8s8.8-3.9 8.8-8.8c0-15.2-10.4-28.4-25.1-32v-8.2c0-4.9-3.9-8.8-8.8-8.8s-8.8 3.9-8.8 8.8v8.6c-15.6 4.8-25.4 20.3-22.9 36.4 2.4 16.1 16.3 28.1 32.6 28.1 8.5-.1 15.5 6.8 15.5 15.3.1 8.5-6.8 15.5-15.3 15.5-.1.1-.2.1-.2.1z"/></symbol><symbol id="logo-plaid" viewBox="0 0 364.4 364.4" xml:space="preserve" xmlns="http://www.w3.org/2000/svg"><style>.cst0{fill:#111}</style><path class="cst0" d="M71.8 282.9c-5-4.2-13.6-6.3-25.8-6.3H18.6v84.7h20.5v-26.6h9.2c11.1 0 19.3-2.5 24.5-7.4 5.9-5.5 8.8-12.8 8.8-22 0-9.4-3.3-16.9-9.8-22.4m-24.1 32.6H39v-19.8h7.8c9.5 0 14.2 3.3 14.2 10 .1 6.5-4.4 9.8-13.3 9.8m68.9-39H95.3v84.7h46.1V342h-24.8v-65.5zm66.7 0l-33.6 84.7h23l4.4-12.3h29.2l4 12.3h23.3l-33.3-84.7h-17zm-.3 55.3l8.8-29 8.7 29H183zm94-300.7l-69-19.3-24.3 24.1-24-24.5-69.3 18.1-19.1 69.7 24 24.5L71 147.8l18 70 69 19.3 24.3-24.1 23.9 24.5 69.3-18.1 19.1-69.7-23.9-24.5 24.3-24.1-18-70zm-63.5 2.8l36.3 10.2-29.7 29.5c.1-.1-22.8-23.6-22.8-23.6l16.2-16.1zm29.4 91L219.6 148c0 .1-22.9-23.5-22.9-23.5l23.3-23.1 22.9 23.5zm-36.6-37.5L183 110.5 160.1 87l23.3-23.1 22.9 23.5zm-37.2 36.9l-23.3 23.1-22.9-23.5 23.3-23.1 22.9 23.5zm-15.4-91l16 16.4-23.3 23.1-29.2-29.9 36.5-9.6zM93.2 93.5l10.1-36.7 29.2 29.9-23.3 23.1-16-16.3zm-.4 60.4l16.2-16.1 22.9 23.5-29.6 29.5c-.1 0-9.5-36.9-9.5-36.9zm59.4 61l-36.3-10.1 29.6-29.5 22.9 23.5-16.2 16.1zm7.3-53.4l23.3-23.1 22.9 23.5-23.3 23.1-22.9-23.5zm52.6 54l-16-16.4 23.3-23.1 29.2 29.9-36.5 9.6zm60.5-60.1l-10 36.7c-.1 0-29.3-30-29.3-30l23.3-23.1 16 16.4zm-15.7-44.3c-.1 0-23-23.5-23-23.5l29.7-29.5 9.5 36.9-16.2 16.1zm-12.6 165.4h21.4v84.7h-21.4zm101.1 73c7.2-7.8 10.8-18.1 10.8-31 .1-10.2-2.5-18.9-7.6-26.1-2.7-3.9-6.2-7.2-10.2-9.8-6.5-4.1-15.3-6.1-26.4-6.1h-28.2v84.7h32.9c11.9 0 21.5-3.9 28.7-11.7zm-31-7.5h-9.1v-46.3h9.3c6.5 0 11.6 2 15.1 6.1s5.3 9.9 5.3 17.4c-.1 15.2-6.9 22.8-20.6 22.8z"/></symbol><symbol viewBox="0 0 18 14" fill="none" id="mail" xmlns="http://www.w3.org/2000/svg"><path d="M14.833.333H3.166a2.5 2.5 0 00-2.5 2.5v8.334a2.5 2.5 0 002.5 2.5h11.667a2.5 2.5 0 002.5-2.5V2.833a2.5 2.5 0 00-2.5-2.5zm.833 10.834a.833.833 0 01-.833.833H3.166a.833.833 0 01-.833-.833V4.734l6.233 3.808a.833.833 0 00.833 0l6.267-3.808v6.433z" fill="#6D6E71"/></symbol><symbol viewBox="0 0 18 21" fill="none" id="map" xmlns="http://www.w3.org/2000/svg"><g fill-rule="evenodd" clip-rule="evenodd" fill="#6D6E71"><path d="M4.25 9a4.75 4.75 0 119.5 0 4.75 4.75 0 01-9.5 0z"/><path d="M.524 7.857A8.288 8.288 0 018.784.25h.432a8.288 8.288 0 018.26 7.607 8.944 8.944 0 01-1.99 6.396l-4.793 5.861a2.187 2.187 0 01-3.386 0l-4.793-5.861a8.943 8.943 0 01-1.99-6.396zm8.26-6.107A6.788 6.788 0 002.02 7.98a7.443 7.443 0 001.656 5.323l4.793 5.862a.687.687 0 001.064 0l4.793-5.862A7.443 7.443 0 0015.98 7.98a6.788 6.788 0 00-6.765-6.23h-.432z"/></g></symbol><symbol viewBox="0 0 32 32" id="phone" xmlns="http://www.w3.org/2000/svg"><path d="M23 19c-2 2-2 4-4 4s-4-2-6-4-4-4-4-6 2-2 4-4-4-8-6-8-6 6-6 6c0 4 4.1 12.1 8 16s12 8 16 8c0 0 6-4 6-6s-6-8-8-6z"/></symbol></svg>