<?xml version="1.0" encoding="utf-8"?>
<!-- Generator: Adobe Illustrator 22.1.0, SVG Export Plug-In . SVG Version: 6.00 Build 0)  -->
<svg version="1.1" id="Слой_1" xmlns="http://www.w3.org/2000/svg" xmlns:xlink="http://www.w3.org/1999/xlink" x="0px" y="0px"
	 viewBox="0 0 500 500" style="enable-background:new 0 0 500 500;" xml:space="preserve">
<path d="M156.2,140.1c-6.7,1.6-15.6,7.1-20.2,12.3c-15.3,17.4-14.8,42.3,1,58.2c21.1,21.1,56.3,14.3,68.7-13.2
	c4.5-9.9,4-24.5-1.1-35c-4-8.2-13.8-17.4-21.7-20.4C176.4,139.4,162.7,138.4,156.2,140.1z"/>
<g>
	<path d="M234,38.7c-44.7,3.6-83.2,18.7-116.5,45.6c-10.4,8.4-29.4,28-37.4,38.5c-16.9,22.4-28.8,47-35.7,74.2
		c-7.6,30.1-8.4,65.7-2.2,98c12.4,65.5,63.1,126.5,126.7,152.5c22.7,9.3,53.5,15.5,76.7,15.5h6.4v-18.4v-18.4V38.5
		C245.1,38.3,238.8,38.3,234,38.7z M192.3,231.7c-7.9,4.4-15.3,6-26.3,5.9c-12.5,0-20.5-2.4-30.7-9c-16.4-10.8-24.8-26.7-24.8-46.9
		c0-16.7,5.1-29.4,16.5-40.8c7.8-7.8,16.5-12.7,26.8-15.1c9-2,22.6-1.2,31.5,1.9c13.5,4.7,25.2,15.1,31.7,28.2
		C231,184,220.5,216.2,192.3,231.7z"/>
	<path d="M257,425.7"/>
	<path d="M252,426.2"/>
</g>
<g>
	<path d="M432.6,360.8c20.4-32.9,29.8-67.7,29.8-109.8c0-44.8-10.6-81.9-33.1-116c-29.1-44-73.2-76.5-121.6-89.5
		c-11.9-3.2-32.8-5.8-50.7-6.8v221l148.4,136.6C411.2,390.8,425.2,372.7,432.6,360.8z"/>
	<path d="M257,425.7l0.8-0.1c39.9-4.8,80.5-21.8,111-46.5c1.8-1.5,3.6-2.9,4.9-3.8L257,267.9V425.7z"/>
</g>
</svg>
