
<svg xmlns="http://www.w3.org/2000/svg" version="1.1" xmlns:xlink="http://www.w3.org/1999/xlink" preserveAspectRatio="none" x="0px" y="0px" width="554px" height="178px" viewBox="0 0 554 178">
<defs>
<g id="Layer0_0_FILL">
<path fill="#A8A8A8" stroke="none" d="
M 0 178.4
L 117.15 89.2 0 0 0 178.4
M 28.35 92.85
L 6.4 76.65 33.6 75.45 42.15 49.55 51.75 75.05 79 75.2 57.7 92.25 66 118.2 43.2 103.2 21.15 119.05 28.35 92.85
M 188.8 92.85
Q 185.25 93.65 182.15 95.4 179.1 97.2 177.2 100.1 175.3 103 175.25 107.2 175.4 112.7 178.4 115.85 181.5 119.05 186.05 120.5 190.65 122 195.35 122.25 200.5 122.5 202.75 123.7 205.1 124.9 205.05 127.4 205 129.2 203.8 130.55 202.55 131.85 200.55 132.55 198.6 133.3 196.25 133.25 193.5 133.2 190.25 132.3 187.05 131.4 184.15 129.85 181.25 128.4 179.45 126.4
L 173.55 135
Q 177.1 138.7 180.8 140.55 184.55 142.45 188.4 143.05 192.2 143.75 196.05 143.7 203 143.65 207.7 141.45 212.3 139.25 214.65 135.65 216.95 132.05 216.95 127.7 216.9 122.9 215 119.9 213.1 116.9 210 115.3 206.9 113.65 203.3 113 199.65 112.3 196.15 112.1 191.5 111.8 189.3 110.45 187.1 109.15 187.1 106.8 187.1 104.5 189.4 103.25 191.65 102 195.95 102 199.45 101.95 202.45 102.95 205.4 103.95 208 106.35
L 214.7 98.45
Q 210.5 94.85 206 93.4 201.4 92 195.75 92.05 192.35 92.05 188.8 92.85
M 212 32.9
Q 209.15 34 206.95 36.1 204.7 38.3 203.45 41.5 202.25 38 200 35.9 197.75 33.75 194.85 32.8 192 31.85 189 31.85 185.15 31.8 181.75 33.55 178.35 35.25 176.25 39.1
L 176.2 32.6 172.55 32.6 172.55 71.65 176.4 71.65 176.4 48.5
Q 176.45 44.75 178 41.8 179.6 38.9 182.35 37.25 185.15 35.6 188.9 35.55 192.65 35.6 195.45 37.25 198.3 38.9 199.85 41.8 201.45 44.75 201.5 48.5
L 201.5 71.65 205.35 71.65 205.35 48.5
Q 205.4 44.75 206.95 41.8 208.55 38.85 211.35 37.15 214.2 35.5 217.9 35.45 223.6 35.55 226.95 39.05 230.35 42.55 230.4 48.25
L 230.4 71.65 234.3 71.65 234.3 48.25
Q 234.25 43.4 232.15 39.65 230.05 36 226.4 33.9 222.75 31.9 217.9 31.85 214.85 31.85 212 32.9
M 320.35 96.75
Q 318.3 94.75 314.95 93.45 311.65 92.2 307.85 92.15 305.35 92.1 302.95 92.55 300.5 93.1 298.25 94.6 296 96.1 294.15 99
L 293.2 93.4 282.1 93.45 282.1 142 294.15 142 294.15 116.4
Q 294.2 111.9 295.85 109.2 297.55 106.5 300.3 105.25 303.05 104 306.25 104.05 309.15 104.05 311.1 104.9 313.15 105.65 314.9 107.2
L 320.35 96.75
M 262.3 95.3
Q 256.5 91.95 248.3 91.95 240.4 92 234.6 95.25 228.85 98.5 225.65 104.2 222.55 109.9 222.5 117.35 222.5 125.15 225.65 131 228.85 136.8 234.8 140 240.75 143.2 249.2 143.25 252.9 143.25 256.75 142.4 260.6 141.5 264 139.8 267.5 138.05 270.1 135.35
L 262.4 127.8
Q 261 129.25 258.75 130.25 256.6 131.25 254.1 131.8 251.65 132.35 249.4 132.35 243 132.25 239.3 129.4 235.55 126.55 234.9 122
L 272.85 122
Q 273.75 111.95 270.95 105.3 268.1 98.65 262.3 95.3
M 235.1 112
Q 236.5 107.3 240.1 104.95 243.75 102.6 248.7 102.6 253.95 102.6 257.3 104.95 260.65 107.3 261.3 112
L 235.1 112
M 280.15 41.5
Q 277.6 36.6 272.95 34.3 268.35 32 262.75 32 257.2 32.05 252.75 34.6 248.3 37.2 245.6 41.7 243 46.25 242.9 52.15 243 58.4 245.6 62.85 248.3 67.35 252.75 69.8 257.2 72.2 262.75 72.25 265.9 72.25 269.05 71.4 272.2 70.55 274.95 68.85 277.7 67.2 279.6 64.7
L 276.85 62.5
Q 275.3 64.45 273 65.8 270.75 67.1 268.05 67.75 265.35 68.45 262.75 68.45 258.7 68.45 255.25 66.75 251.8 65 249.55 61.8 247.3 58.55 246.9 53.95
L 282.05 53.95
Q 282.7 46.35 280.15 41.5
M 262.75 35.55
Q 267.5 35.55 271 37.3 274.55 39 276.5 42.35 278.5 45.75 278.55 50.55
L 246.9 50.55
Q 247.35 45.75 249.6 42.4 251.85 39.05 255.25 37.3 258.7 35.55 262.75 35.55
M 295.9 39.55
L 295.75 32.6 292.1 32.6 292.1 71.65 295.95 71.65 295.95 48.9
Q 296 45.3 297.7 42.35 299.35 39.45 302.25 37.7 305.2 35.95 308.85 35.85 310.55 35.85 312.25 36.3 313.95 36.75 315.5 37.65
L 317.2 34.5
Q 315.25 33.35 313.15 32.75 311.05 32.2 308.85 32.25 306.3 32.25 303.8 32.95 301.35 33.7 299.25 35.3 297.15 36.95 295.9 39.55
M 396.15 93.2
L 384.15 93.2 384.15 142 396.15 142 396.15 93.2
M 378.3 93.3
L 365.2 93.3 358.5 109.55 351.1 129.85 343.65 109.35 336.9 93.3 323.8 93.3 344.6 142.2 357.6 142.2 378.3 93.3
M 348.35 33.7
Q 344.7 32.25 340.8 32.25 335.1 32.25 330.6 34.65 326.05 37.05 323.45 41.5 320.8 45.95 320.75 52.15 320.8 58.3 323.5 62.8 326.2 67.2 330.75 69.6 335.25 72 340.8 72.05 344.7 72.05 348.35 70.6 352.05 69.15 355 66.2
L 352.4 63.6
Q 350 66 346.95 67.2 343.95 68.4 340.8 68.4 336.35 68.4 332.65 66.5 328.95 64.65 326.75 61.05 324.55 57.4 324.5 52.15 324.55 46.9 326.75 43.2 328.95 39.6 332.65 37.75 336.35 35.85 340.8 35.85 343.95 35.85 347 37 350.05 38.15 352.5 40.5
L 355 38.05
Q 352.05 35.15 348.35 33.7
M 368.6 42.85
Q 370.35 39.6 373.45 37.7 376.6 35.8 380.7 35.8 387.25 35.85 390.25 39.5 393.3 43.15 393.3 49.3
L 393.3 71.65 397.05 71.65 397.05 49.3
Q 397.05 44.15 395.25 40.3 393.45 36.45 389.8 34.25 386.2 32.1 380.7 32.05 376.6 32.05 372.85 33.9 369.1 35.75 366.65 39.85
L 366.65 16.25 362.95 16.25 362.95 71.65 366.8 71.65 366.8 50.25
Q 366.85 46.1 368.6 42.85
M 439.3 93.65
Q 435.05 91.95 429.95 92 422.8 92 416.95 94.85 411.15 97.65 407.65 103.4 404.2 109.1 404.1 117.75 404.2 126.35 407.65 132.1 411.15 137.8 416.95 140.65 422.8 143.5 429.95 143.5 435.3 143.55 439.85 141.7 444.5 139.9 448.7 135.8
L 440.6 127.9
Q 438.35 130.1 435.6 131.05 432.85 132 429.95 131.95 426.15 131.95 423.05 130.3 419.9 128.7 418.05 125.55 416.2 122.35 416.15 117.75 416.25 111.3 420.1 107.35 423.95 103.45 430.15 103.35 432.7 103.35 435.2 104.3 437.7 105.25 439.85 107.2
L 447.5 99.2
Q 443.55 95.3 439.3 93.65
M 414.9 34.7
Q 410.45 37.15 407.8 41.65 405.15 46.15 405.1 52.15 405.15 58.15 407.8 62.7 410.45 67.2 414.9 69.7 419.4 72.25 424.9 72.3 429.7 72.3 433.85 70.15 437.95 67.95 440.85 63.4
L 440.85 71.65 444.7 71.65
Q 444.7 61.9 444.7 52.15 444.7 42.35 444.7 32.6
L 440.85 32.6 440.85 41.2
Q 439.2 38.15 436.7 36.1 434.15 34.1 431.1 33.1 428.1 32.15 424.9 32.15 419.4 32.2 414.9 34.7
M 411.1 43.55
Q 413.25 39.9 416.8 37.9 420.45 35.9 424.9 35.85 430.3 35.95 433.95 38.3 437.55 40.6 439.4 44.35 441.15 48.05 441.15 52.15 441.15 56.35 439.4 60.05 437.55 63.8 433.95 66.1 430.3 68.45 424.9 68.55 420.45 68.5 416.8 66.5 413.25 64.45 411.1 60.75 409 57.05 408.95 52.15 409 47.25 411.1 43.55
M 504.15 122
Q 505.05 111.95 502.25 105.3 499.4 98.65 493.6 95.3 487.8 91.95 479.6 91.95 471.7 92 465.9 95.25 460.15 98.5 456.95 104.2 453.85 109.9 453.8 117.35 453.8 125.15 456.95 131 460.15 136.8 466.1 140 472.05 143.2 480.5 143.25 484.2 143.25 488.05 142.4 491.9 141.5 495.3 139.8 498.8 138.05 501.4 135.35
L 493.7 127.8
Q 492.3 129.25 490.05 130.25 487.9 131.25 485.4 131.8 482.95 132.35 480.7 132.35 474.3 132.25 470.6 129.4 466.85 126.55 466.2 122
L 504.15 122
M 488.6 104.95
Q 491.95 107.3 492.6 112
L 466.4 112
Q 467.8 107.3 471.4 104.95 475.05 102.6 480 102.6 485.25 102.6 488.6 104.95
M 525.95 92.85
Q 522.4 93.65 519.3 95.4 516.25 97.2 514.35 100.1 512.45 103 512.4 107.2 512.55 112.7 515.55 115.85 518.65 119.05 523.2 120.5 527.8 122 532.5 122.25 537.65 122.5 539.9 123.7 542.25 124.9 542.2 127.4 542.15 129.2 540.95 130.55 539.7 131.85 537.7 132.55 535.75 133.3 533.4 133.25 530.65 133.2 527.4 132.3 524.2 131.4 521.3 129.85 518.4 128.4 516.6 126.4
L 510.7 135
Q 514.25 138.7 517.95 140.55 521.7 142.45 525.55 143.05 529.35 143.75 533.2 143.7 540.15 143.65 544.85 141.45 549.45 139.25 551.8 135.65 554.1 132.05 554.1 127.7 554.05 122.9 552.15 119.9 550.25 116.9 547.15 115.3 544.05 113.65 540.45 113 536.8 112.3 533.3 112.1 528.65 111.8 526.45 110.45 524.25 109.15 524.25 106.8 524.25 104.5 526.55 103.25 528.8 102 533.1 102 536.6 101.95 539.6 102.95 542.55 103.95 545.15 106.35
L 551.85 98.45
Q 547.65 94.85 543.15 93.4 538.55 92 532.9 92.05 529.5 92.05 525.95 92.85
M 495.9 35.85
L 504.2 35.85 504.2 59.65
Q 504.1 65.5 506.6 68.85 509.05 72.15 515.15 72.25 517 72.25 518.85 71.7 520.65 71.15 522.5 70.25
L 521.15 67.1
Q 519.65 67.85 518.1 68.25 516.55 68.7 515.15 68.7 512.15 68.7 510.6 67.5 509 66.35 508.45 64.35 507.95 62.3 507.95 59.65
L 507.95 35.85 521.25 35.85 521.25 32.6 507.95 32.6 507.95 20.85 504.2 21.25 504.2 32.6 495.9 32.6 495.9 35.85
M 490.55 49.1
Q 490.5 43.7 488.3 39.85 486.1 36 482.15 33.95 478.2 31.95 472.95 31.9 468.8 31.95 465.05 33.75 461.35 35.6 459.05 39.55
L 459.05 32.6 455.25 32.6 455.25 71.65 459.1 71.65 459.1 49.95
Q 459.15 45.85 460.85 42.7 462.6 39.5 465.65 37.65 468.7 35.8 472.75 35.7 479.2 35.65 482.9 39.1 486.6 42.55 486.7 49.2
L 486.7 71.65 490.55 71.65 490.55 49.1 Z"/>

<path fill="#797979" stroke="none" d="
M 129.15 89.2
L 0 0 117.15 89.2 0 178.4 129.15 89.2 Z"/>
</g>
</defs>

<g transform="matrix( 1, 0, 0, 1, 0,0) ">
<use xlink:href="#Layer0_0_FILL"/>
</g>
</svg>
