<?xml version="1.0" encoding="utf-8"?><svg xmlns="http://www.w3.org/2000/svg" xmlns:xlink="http://www.w3.org/1999/xlink"><symbol viewBox="0 0 512 512" id="arrow" xmlns="http://www.w3.org/2000/svg"><path d="M501.333 245.325H10.667C4.779 245.325 0 250.104 0 255.992s4.779 10.667 10.667 10.667h490.667c5.888 0 10.667-4.779 10.667-10.667s-4.78-10.667-10.668-10.667z"/><path d="M508.864 248.461L338.197 77.795c-4.16-4.16-10.923-4.16-15.083 0s-4.16 10.923 0 15.083l170.667 170.667a10.716 10.716 0 007.552 3.115c2.731 0 5.461-1.045 7.531-3.115 4.16-4.161 4.16-10.924 0-15.084z"/><path d="M508.864 248.461c-4.16-4.16-10.923-4.16-15.083 0L323.115 419.128c-4.16 4.16-4.16 10.923 0 15.083a10.716 10.716 0 007.552 3.115c2.731 0 5.461-1.045 7.531-3.115l170.667-170.667c4.159-4.16 4.159-10.923-.001-15.083z"/></symbol><symbol viewBox="0 0 200 200" id="arrow-top" xmlns="http://www.w3.org/2000/svg"><path d="M101 44l80.6 80.6c2.7 2.7 4 6.2 4 9.7s-1.3 7-4 9.7c-5.4 5.4-14.1 5.4-19.5 0L101 82.9 39.9 144c-5.4 5.4-14.1 5.4-19.5 0s-5.4-14.1 0-19.5L101 44z"/></symbol><symbol viewBox="0 0 32 32" id="email" xmlns="http://www.w3.org/2000/svg"><path d="M28.3 27.7c.7 0 1.3-.2 1.7-.7l-8.5-8.5c-.2.1-.4.3-.6.4-.6.5-1.1.8-1.5 1.1-.4.3-.9.5-1.6.8-.7.3-1.3.4-1.8.4-.6 0-1.2-.1-1.8-.4-.7-.3-1.2-.5-1.6-.8-.4-.3-.9-.6-1.5-1.1-.2-.1-.4-.3-.6-.4L2 27.1c.5.4 1.1.7 1.7.7h24.6zM2.8 13.3c-.6-.4-1.2-.9-1.7-1.4v12.9l7.5-7.5c-1.6-1.1-3.5-2.4-5.8-4zm26.5 0c-2.3 1.5-4.2 2.9-5.8 4l7.5 7.5v-13c-.5.6-1.1 1.1-1.7 1.5z"/><path d="M28.3 4.3H3.7c-.9 0-1.5.3-2 .9-.4.5-.6 1.2-.6 2.1 0 .7.3 1.5.9 2.3.6.8 1.3 1.5 1.9 1.9.4.3 1.5 1.1 3.4 2.4 1 .7 1.9 1.3 2.7 1.9.7.5 1.2.8 1.7 1.2.1 0 .1.1.2.2s.3.2.5.3c.4.3.7.5.9.6.2.2.5.3.9.5.3.2.7.3 1 .4.3.1.6.1.8.1.3 0 .5-.1.8-.1.3-.1.6-.2 1-.4.3-.2.6-.4.9-.5.2-.2.5-.4.9-.6.2-.1.3-.2.5-.3.1-.1.2-.1.2-.2.4-.3.9-.6 1.7-1.2 1.4-1 3.4-2.4 6.1-4.2.8-.6 1.5-1.2 2-2s.8-1.6.8-2.5c0-.7-.3-1.4-.8-1.9-.5-.7-1.1-.9-1.8-.9z"/></symbol><symbol viewBox="0 0 32 32" id="location" xmlns="http://www.w3.org/2000/svg"><path d="M16 0C10.477 0 6 4.477 6 10c0 10 10 22 10 22s10-12 10-22c0-5.523-4.477-10-10-10zm0 16a6 6 0 110-12 6 6 0 010 12z"/></symbol><symbol viewBox="0 0 32 32" id="phone" xmlns="http://www.w3.org/2000/svg"><path d="M23 19c-2 2-2 4-4 4s-4-2-6-4-4-4-4-6 2-2 4-4-4-8-6-8-6 6-6 6c0 4 4.1 12.1 8 16s12 8 16 8c0 0 6-4 6-6s-6-8-8-6z"/></symbol></svg>