<svg version="1.0" xmlns="http://www.w3.org/2000/svg" width="666.667" height="666.667" viewBox="0 0 500 500"><path d="M116 250.5c0 173.8.3 217.5 1.2 216.9 4.2-2.5 310.6-213 312.1-214.3 1.6-1.6-7.3-8-152.9-109.1-85.1-59.1-156-108.3-157.6-109.3l-2.8-1.9v217.7zm118.5-61.2c8.9 22 11.1 26.8 12.9 27.1 1.1.3 15.4 1.2 31.6 2.1 16.2.9 29.6 1.8 29.8 1.9.1.2-10.5 9.5-23.8 20.7-13.2 11.2-24 20.9-24 21.4 0 .6 4 15.6 9 33.5 4.9 17.8 8.8 32.6 8.5 32.8-.2.3-12.8-7.7-28-17.8-15.2-10-28.1-17.9-28.8-17.6-.7.3-13.3 8.6-28.2 18.4-14.8 9.9-27.1 17.9-27.2 17.8-.1-.1 3.6-13.9 8.3-30.6 4.6-16.8 8.8-32 9.3-33.8l1-3.3-24-20.2-24-20.2 30.3-2.3c16.7-1.3 31-2.7 31.8-3.1.8-.5 6.4-13.2 12.5-28.4 6-15.1 11.3-27 11.6-26.4.4.7 5.5 13.2 11.4 28z"/></svg>