<svg xmlns="http://www.w3.org/2000/svg" width="88" height="22" viewBox="0 0 88 22">
  <g fill="none">
    <path fill="#63666A" d="M36.27,14.56 C34.9184887,16.3004386 32.8435166,17.3250252 30.64,17.34 C26.88,17.34 23.89,14.65 23.89,11.11 C23.9098836,9.39628198 24.624894,7.76411787 25.8711348,6.58763638 C27.1173756,5.4111549 28.7879771,4.79124357 30.5,4.87 C32.7035166,4.88497481 34.7784887,5.90956138 36.13,7.65 L33.63,9.42 C32.9743743,8.31276754 31.7867451,7.62978593 30.5,7.62 C28.574787,7.61996857 27.0110012,9.17481843 27,11.1 C27.0651906,13.0607712 28.68835,14.6083314 30.65,14.58 C31.9209194,14.5640402 33.1056514,13.9344185 33.83,12.89 L36.27,14.56 Z"/>
    <rect width="3.13" height="17.09" x="37.66" fill="#63666A"/>
    <path fill="#63666A" d="M49.06,14.69 C51.0781783,14.7076518 52.744325,13.1168363 52.82,11.1 C52.7168275,9.10140626 51.066255,7.53384272 49.065,7.53384272 C47.063745,7.53384272 45.4131725,9.10140626 45.31,11.1 C45.3752222,13.1215256 47.0476207,14.7183103 49.07,14.69 M49.07,4.87 C50.7951719,4.78600456 52.4817774,5.39851967 53.7510134,6.56997745 C55.0202494,7.74143524 55.7657213,9.37363761 55.82,11.1 C55.7657213,12.8263624 55.0202494,14.4585648 53.7510134,15.6300225 C52.4817774,16.8014803 50.7951719,17.4139954 49.07,17.33 C45.31,17.33 42.29,14.61 42.29,11.1 C42.29,7.59 45.29,4.87 49.07,4.87"/>
    <polygon fill="#63666A" points="55.31 5.12 58.98 5.12 61.95 11.51 65.16 5.12 68.56 5.12 61.95 17.82"/>
    <path fill="#63666A" d="M77.46 9.44C76.9790283 8.2595887 75.8245373 7.49389533 74.55 7.51 73.2288548 7.49425747 72.0189354 8.24752985 71.45 9.44L77.45 9.44 77.46 9.44zM79.46 15.73C78.1600279 16.7843375 76.5337299 17.3535418 74.86 17.34 71.1 17.34 68.08 14.62 68.08 11.11 68.0784026 9.40983901 68.7717082 7.782881 69.9991263 6.60644795 71.2265444 5.4300149 72.8814357 4.80631648 74.58 4.88 76.246381 4.82315871 77.8612671 5.46228709 79.0374127 6.64412376 80.2135584 7.82596043 80.8448843 9.44391281 80.78 11.11L80.78 12 71.17 12C71.654144 13.6078378 73.1409068 14.7035617 74.82 14.69 75.8626393 14.715557 76.8653813 14.2889359 77.57 13.52L79.46 15.73zM82.29 10.37C82.29 7.51 84.47 5.12 88 5.12L88 7.92C87.256713 7.88059661 86.5345234 8.17444445 86.0298996 8.72160354 85.5252759 9.26876264 85.2907046 10.0123221 85.39 10.75L85.39 17.09 82.29 17.09 82.29 10.37z"/>
    <path fill="#43B02A" d="M9.7 5.58C9.7121507 3.61567375 8.53822115 1.83800129 6.72689619 1.07785186 4.91557124.317702435 2.82459838.72521009 1.43128086 2.10990916.0379633274 3.49460823-.382510337 5.58301237.366385736 7.39901896 1.11528181 9.21502554 2.88563617 10.3999624 4.85 10.4L9.70009343 10.4 9.7 5.58zM11.1 5.58C11.0878493 3.61567375 12.2617789 1.83800129 14.0731038 1.07785186 15.8844288.317702435 17.9754016.72521009 19.3687191 2.10990916 20.7620367 3.49460823 21.1825103 5.58301237 20.4336143 7.39901896 19.6847182 9.21502554 17.9143638 10.3999624 15.95 10.4L11.0999066 10.4 11.1 5.58zM11.1 16.63C11.0878493 18.5943262 12.2617789 20.3719987 14.0731038 21.1321481 15.8844288 21.8922976 17.9754016 21.4847899 19.3687191 20.1000908 20.7620367 18.7153918 21.1825103 16.6269876 20.4336143 14.810981 19.6847182 12.9949745 17.9143638 11.8100376 15.95 11.81L11.0999066 11.81 11.1 16.63zM4.85 20.09C6.76806687 20.0955433 8.32898459 18.5480432 8.34 16.63L8.34 13.17 4.85 13.17C2.93909477 13.17 1.39 14.7190948 1.39 16.63 1.39 18.5409052 2.93909477 20.09 4.85 20.09zM9.7 16.63C9.7121507 18.5943262 8.53822115 20.3719987 6.72689619 21.1321481 4.91557124 21.8922976 2.82459838 21.4847899 1.43128086 20.1000908.0379633274 18.7153918-.382510337 16.6269876.366385736 14.810981 1.11528181 12.9949745 2.88563617 11.8100376 4.85 11.81L9.70009343 11.81 9.7 16.63z"/>
  </g>
</svg>
