<?xml version="1.0" encoding="utf-8"?>
<!-- Generator: Adobe Illustrator 22.1.0, SVG Export Plug-In . SVG Version: 6.00 Build 0)  -->
<svg version="1.1" id="Слой_1" xmlns="http://www.w3.org/2000/svg" xmlns:xlink="http://www.w3.org/1999/xlink" x="0px" y="0px"
	 viewBox="0 0 329.7 101.6" style="enable-background:new 0 0 329.7 101.6;" xml:space="preserve">
<style type="text/css">
	.st0{fill:#F0993C;}
	.st1{fill:url(#SVGID_1_);}
	.st2{fill:#FFFFFF;}
	.st3{fill:#66CCFF;}
	.st4{fill:#000066;}
	.st5{fill:#D05533;}
	.st6{fill:url(#SVGID_2_);}
	.st7{fill:#003366;}
	.st8{fill:none;stroke:#000066;stroke-width:1.7;stroke-linecap:round;stroke-linejoin:round;}
</style>
<g transform="matrix( 1, 0, 0, 1, 0,0) ">
	<g>
		<g id="Layer0_0_FILL">
			<path class="st0" d="M51,92.8c11.4-1.1,21.3-5.3,29.7-12.6l-0.6-0.5L51,61V92.8z"/>
			
				<linearGradient id="SVGID_1_" gradientUnits="userSpaceOnUse" x1="22.987" y1="95.6135" x2="34.337" y2="-0.1365" gradientTransform="matrix(1 0 0 -1 0 101.6)">
				<stop  offset="0" style="stop-color:#2FDFDD"/>
				<stop  offset="0.5765" style="stop-color:#2180DD"/>
				<stop  offset="1" style="stop-color:#001F78"/>
			</linearGradient>
			<path class="st1" d="M51,61V51V0C36.8,0,24.7,4.9,14.8,14.8C4.9,24.7,0,36.8,0,51c0,13.9,4.9,25.8,14.8,35.7
				c9.9,9.9,22,14.8,36.2,14.8v-8.8V61 M43.8,43.7c-2.7,2.7-5.8,4-9.6,4c-3.7,0-7-1.3-9.7-4c-2.6-2.7-3.8-5.9-3.8-9.6
				c0-0.3,0-0.6,0.1-0.9c0.1-2.8,1.1-5.4,2.9-7.7c0.3-0.4,0.6-0.8,0.9-1.1c2.7-2.6,6-4,9.7-4c3.7,0,6.9,1.3,9.6,4
				c2.7,2.7,4,5.9,4,9.6C47.8,37.8,46.4,41,43.8,43.7z"/>
			<path class="st2" d="M34.2,47.7c3.7,0,6.9-1.3,9.6-4c2.7-2.7,4-5.9,4-9.6c0-3.7-1.3-7-4-9.6c-2.7-2.6-5.8-4-9.6-4
				c-3.7,0-7,1.3-9.7,4c-0.3,0.3-0.6,0.7-0.9,1.1c-1.8,2.3-2.8,4.8-2.9,7.7c-0.1,0.3-0.1,0.6-0.1,0.9c0,3.7,1.3,6.9,3.8,9.6
				C27.2,46.4,30.5,47.7,34.2,47.7 M41.3,27c2,2,3,4.4,3,7.2c0,2.7-1,5.1-3,7.1c-2,2-4.3,3-7,3c-2.8,0-5.2-1-7.2-3
				c-1.9-2-2.8-4.3-2.8-7.1c0-0.2,0-0.5,0-0.6c0.1-2.1,0.8-4,2.2-5.7c0.2-0.3,0.4-0.6,0.6-0.9c2-1.9,4.4-2.9,7.2-2.9
				C37,24.1,39.3,25,41.3,27z"/>
			<path class="st3" d="M44.3,34.1c0-2.8-1-5.2-3-7.2c-2-1.9-4.3-2.9-7-2.9c-2.8,0-5.2,1-7.2,2.9c-0.2,0.3-0.5,0.6-0.6,0.9
				c-1.4,1.7-2.1,3.6-2.2,5.7c0,0.2,0,0.4,0,0.6c0,2.7,1,5.1,2.8,7.1c2,2,4.4,3,7.2,3c2.7,0,5-1,7-3C43.3,39.2,44.3,36.9,44.3,34.1
				 M38.9,29.3c1.4,1.3,2.1,2.9,2.1,4.8c0,1.9-0.7,3.5-2.1,4.8c-1.3,1.3-2.9,2-4.8,2c-1.9,0-3.5-0.7-4.8-2c-1.3-1.3-2-2.9-2-4.8
				c0-0.1,0-0.2,0-0.3c0.1-1.3,0.5-2.5,1.2-3.5c0.2-0.3,0.5-0.7,0.8-1c1.3-1.3,2.9-2,4.8-2C36,27.3,37.6,28,38.9,29.3z"/>
			<path class="st4" d="M41,34.1c0-1.9-0.7-3.5-2.1-4.8c-1.3-1.3-2.9-2-4.8-2c-1.9,0-3.5,0.7-4.8,2c-0.3,0.3-0.5,0.6-0.8,1
				c-0.8,1-1.2,2.2-1.2,3.5c0,0.1,0,0.2,0,0.3c0,1.9,0.7,3.5,2,4.8c1.3,1.3,2.9,2,4.8,2c1.9,0,3.5-0.7,4.8-2
				C40.3,37.6,41,36,41,34.1 M141.2,21.8c-0.5-0.9-0.8-2-0.8-3.3c0-2.3,0.9-4.3,2.9-5.8c1.9-1.5,4.8-2.2,8.9-2.2
				c2.8,0,5.5,0.4,8.1,1.2c1.4,0.4,2.7,0.9,4.1,1.5c0.5,0.2,1,0.5,1.5,0.8V9.2c-0.5-0.1-1-0.2-1.5-0.4c-0.3-0.1-0.6-0.2-0.9-0.3
				c-1.4-0.4-2.8-0.7-4.1-1c-1.4-0.2-2.9-0.4-4.4-0.5C153.6,7,152,7,150.3,7c-2.6,0-5,0.3-7.2,0.9c-2.3,0.6-4.2,1.4-5.8,2.4
				c-1.6,1-2.9,2.3-3.9,3.8c-0.9,1.5-1.4,3.2-1.4,5.2c0,2,0.5,3.8,1.6,5.4c0.6,0.9,1.2,1.8,2,2.5c0.5,0.7,1.2,1.4,1.9,2.1
				c1.5,1.4,3.3,2.6,5.2,3.8l12.2,6.3c1.3,0.7,2.6,1.4,3.7,2.3c1.3,1,2.4,2.2,3.2,3.6c0.9,1.4,1.3,3.1,1.3,5.1c0,3.4-1,6-3.1,8
				c-2,2.1-5,3.1-8.9,3.1c-3.5,0-6.8-0.6-9.9-1.7c-3.1-1.2-6.4-3.3-9.9-6.5v6.6c3,2.2,6.1,3.7,9.1,4.6c3,0.9,6.5,1.3,10.4,1.3
				c3.1,0,5.9-0.4,8.4-1.2c2.5-0.7,4.7-1.8,6.5-3.3c1.8-1.5,3.2-3.2,4.2-5.2s1.6-4.3,1.6-6.8c0-3.2-0.6-5.8-1.8-7.8
				c-1.2-2.1-2.7-3.8-4.6-5.2c-1.9-1.4-3.9-2.6-6.1-3.7c-1.5-0.7-2.9-1.3-4.2-2l-6.2-3.2c-0.3-0.2-0.6-0.3-1-0.4
				c-1.8-0.8-3.4-1.9-4.9-3.2C142.1,23,141.6,22.4,141.2,21.8 M186.2,4h-7.6v49.5c0,3.6,1.1,6.5,3.3,8.6c2.1,2.1,4.8,3.1,8.1,3.1
				h3.6v-3.3c-2.4,0-4.2-0.7-5.6-2.1c-1.3-1.4-1.9-3.4-1.9-5.9V4 M206.2,4.7h-7.6v7.7C203.7,11.4,206.2,8.8,206.2,4.7 M206.2,21.9
				h-7.6v43.2h7.6V21.9 M234.2,21.4c-3.6,0-6.7,0.5-9.3,1.7c-2.6,1.1-4.7,2.6-6.5,4.5c-1.8,2-3.1,4.3-3.9,7c-0.8,2.7-1.3,5.7-1.2,9
				c0,3.2,0.4,6.2,1.2,8.9c0.8,2.7,2.1,5,3.9,7c1.7,1.9,3.9,3.4,6.5,4.5c2.6,1.1,5.7,1.6,9.3,1.6c2.4,0,4.9-0.3,7.4-0.8
				c2.5-0.6,5-1.6,7.3-3.2V56c-2.6,2.2-5.2,3.8-7.8,4.6c-2.6,0.9-4.9,1.3-6.9,1.3c-2.8,0-5.1-0.6-6.9-1.7c-1.7-1.1-3.1-2.6-4-4.3
				c-0.9-1.8-1.6-3.8-2-6c-0.3-2.1-0.5-4.2-0.5-6.3c0-2.1,0.2-4.2,0.5-6.3c0.4-2.2,1-4.2,2-6c1-1.8,2.3-3.2,4-4.4
				c1.8-1.1,4.1-1.7,6.9-1.7c2,0,4.1,0.3,6.4,0.8c2.3,0.6,4.9,1.9,7.8,3.8v-5.6c-2.6-1.1-5-1.8-7.4-2.2
				C238.5,21.6,236.2,21.4,234.2,21.4 M290.5,61.6V56c-3,2.2-5.8,3.8-8.3,4.6c-2.5,0.9-5,1.3-7.6,1.3c-2.7,0-4.9-0.5-6.7-1.6
				c-1.7-1.1-3-2.4-4-4.1c-0.9-1.6-1.6-3.4-2-5.4c-0.3-2-0.5-3.9-0.5-5.8h31.1c0-3.3-0.2-6.4-0.6-9.2c-0.4-2.8-1.3-5.3-2.6-7.4
				c-1.3-2.1-3-3.8-5.4-5c-2.3-1.2-5.4-1.9-9.4-1.9c-3.6,0-6.8,0.5-9.4,1.7s-4.8,2.6-6.5,4.5c-1.7,2-2.9,4.3-3.7,7
				c-0.8,2.7-1.2,5.7-1.2,9c0,3.2,0.4,6.2,1.2,8.9c0.8,2.7,2.1,5,3.8,7c1.7,1.9,3.9,3.4,6.4,4.5c2.6,1.1,5.7,1.6,9.2,1.6
				c2.7,0,5.5-0.3,8.3-1C285.7,63.9,288.2,62.9,290.5,61.6 M283.4,30c0.7,1.4,1.2,3.1,1.4,5c0.2,1.9,0.4,3.9,0.4,6h-23.6
				c0-2,0.2-4,0.7-5.9c0.5-1.9,1.3-3.6,2.3-5c1-1.4,2.3-2.6,4-3.5c1.6-0.9,3.5-1.3,5.8-1.3c2.5,0,4.4,0.5,5.9,1.3
				C281.6,27.4,282.6,28.5,283.4,30z"/>
			<path class="st5" d="M51,51V61l29.1,18.7L51,51z"/>
			
				<linearGradient id="SVGID_2_" gradientUnits="userSpaceOnUse" x1="50.45" y1="58.5" x2="101" y2="58.5" gradientTransform="matrix(1 0 0 -1 0 101.6)">
				<stop  offset="0" style="stop-color:#FCEB43"/>
				<stop  offset="1" style="stop-color:#F18750"/>
			</linearGradient>
			<path class="st6" d="M86.8,14.8C76.9,4.9,64.9,0,51,0v51l29.1,28.6l0.6,0.5l6.6,6.1c9.5-9.9,14.2-21.6,14.2-35.1
				C101.6,36.8,96.6,24.7,86.8,14.8z"/>
			<path class="st7" d="M225.4,83.9c-0.8-0.9-1.9-1.3-3.3-1.3c-0.9,0-1.8,0.2-2.5,0.6c-0.7,0.5-1.3,1.1-1.8,1.9
				c-0.4,0.8-0.6,1.7-0.6,2.7c0,1.6,0.5,2.9,1.4,3.8c1,0.9,2.3,1.4,3.9,1.4c0.7,0,1.5-0.1,2.2-0.4c0.7-0.2,1.3-0.5,1.8-0.9l-0.7-1.8
				c-0.9,0.7-2,1.1-3.1,1.1c-0.9,0-1.6-0.3-2.1-0.8c-0.5-0.5-0.8-1.3-0.8-2.3h6.9v-0.4C226.6,86.1,226.2,84.8,225.4,83.9 M220.6,85
				c0.4-0.4,0.9-0.6,1.6-0.6s1.2,0.2,1.6,0.6c0.4,0.4,0.6,1,0.7,1.8h-4.7C219.8,85.9,220.1,85.4,220.6,85 M244.4,82.9
				c0-1.3-0.4-2.3-1.3-3.1c-0.9-0.7-2.1-1.1-3.6-1.1h-6.1v14.2h2.5V87h3.6c1.5,0,2.7-0.4,3.6-1.1C244,85.1,244.4,84.1,244.4,82.9
				 M242,82.9c0,0.7-0.2,1.2-0.7,1.6c-0.5,0.4-1.2,0.5-2.1,0.6h-3.3v-4.3h3.3c0.9,0,1.6,0.2,2.1,0.6C241.8,81.6,242,82.1,242,82.9
				 M252.4,85.1v-2.3c-0.3-0.1-0.6-0.1-1-0.1c-0.7,0-1.3,0.2-1.9,0.5c-0.6,0.3-1,0.8-1.2,1.5l-0.2-1.8h-2.4c0.1,0.8,0.1,1.8,0.1,2.8
				v7.2h2.5v-5.4c0-0.8,0.2-1.5,0.7-1.9c0.5-0.5,1.1-0.8,1.9-0.8C251.6,84.8,252,84.9,252.4,85.1 M262.4,85.1
				c-0.4-0.8-1-1.4-1.8-1.8c-0.8-0.4-1.6-0.6-2.6-0.6c-1,0-1.9,0.2-2.7,0.6c-0.8,0.4-1.4,1-1.8,1.8c-0.4,0.8-0.6,1.7-0.6,2.8
				s0.2,2,0.6,2.8c0.4,0.8,1,1.4,1.8,1.8c0.8,0.4,1.7,0.7,2.7,0.7c1,0,1.9-0.2,2.6-0.7c0.8-0.4,1.4-1,1.8-1.8
				c0.4-0.8,0.6-1.7,0.6-2.8S262.8,85.8,262.4,85.1 M256,85.4c0.5-0.6,1.1-0.8,2-0.8s1.5,0.3,1.9,0.8c0.5,0.6,0.7,1.4,0.7,2.5
				c0,1.1-0.2,1.9-0.7,2.4c-0.4,0.6-1.1,0.8-1.9,0.8c-0.8,0-1.5-0.3-1.9-0.8c-0.5-0.5-0.7-1.4-0.7-2.4C255.3,86.8,255.5,86,256,85.4
				 M276,83.2c-0.7,0.5-1.3,1.1-1.8,1.9c-0.4,0.8-0.6,1.7-0.6,2.7c0,1.6,0.5,2.9,1.4,3.8c1,0.9,2.3,1.4,3.9,1.4
				c0.7,0,1.4-0.1,2.1-0.4c0.7-0.2,1.3-0.5,1.8-0.9l-0.7-1.8c-0.9,0.7-2,1.1-3.1,1.1c-0.9,0-1.6-0.3-2.1-0.8
				c-0.5-0.5-0.8-1.3-0.8-2.3h7v-0.4c0-1.6-0.4-2.8-1.2-3.7s-1.9-1.3-3.3-1.3C277.6,82.6,276.8,82.8,276,83.2 M278.6,84.4
				c0.7,0,1.2,0.2,1.6,0.6c0.4,0.4,0.6,1,0.6,1.8h-4.7c0.1-0.8,0.4-1.3,0.8-1.7C277.4,84.6,277.9,84.4,278.6,84.4 M272.4,85.6
				l0.7-1.8c-0.4-0.4-0.9-0.7-1.6-0.9c-0.7-0.2-1.4-0.3-2.1-0.3c-1,0-2,0.2-2.8,0.6c-0.8,0.5-1.4,1.1-1.9,1.9
				c-0.4,0.8-0.6,1.7-0.6,2.8c0,1.1,0.2,2,0.6,2.8c0.4,0.8,1,1.4,1.8,1.8c0.8,0.4,1.7,0.7,2.8,0.7c0.7,0,1.5-0.1,2.2-0.4
				c0.7-0.2,1.2-0.5,1.6-0.9l-0.7-1.8c-0.4,0.4-0.9,0.6-1.4,0.8c-0.5,0.2-1,0.3-1.4,0.3c-0.9,0-1.6-0.3-2.1-0.8
				c-0.5-0.6-0.8-1.4-0.8-2.4s0.2-1.9,0.8-2.5s1.2-0.8,2.1-0.8c0.5,0,0.9,0.1,1.4,0.3C271.5,85,271.9,85.3,272.4,85.6 M137.4,78.7
				h-1.5l-3.9,2.4v2.3l2.9-1.8v9.2h-3.1v2.1h8.8v-2.1h-3.1V78.7 M152.2,85.8c0-2.4-0.5-4.2-1.4-5.4c-0.9-1.2-2.1-1.8-3.8-1.8
				s-3,0.6-3.9,1.9c-0.9,1.2-1.4,3-1.4,5.4c0,2.4,0.4,4.2,1.4,5.4c0.9,1.3,2.2,1.9,3.9,1.9s3-0.6,3.8-1.9
				C151.8,90,152.2,88.2,152.2,85.8 M149.1,81.9c0.4,0.8,0.6,2.1,0.6,3.9c0,1.8-0.2,3.2-0.6,4.1c-0.4,0.8-1.1,1.2-2,1.2
				c-0.9,0-1.6-0.4-2-1.2c-0.4-0.9-0.7-2.2-0.7-4.1c0-1.8,0.2-3.1,0.7-3.9c0.4-0.8,1.1-1.2,2-1.2C148,80.6,148.6,81,149.1,81.9
				 M163.8,85.8c0-2.4-0.5-4.2-1.4-5.4c-0.9-1.2-2.1-1.8-3.8-1.8s-3,0.6-3.9,1.9c-0.9,1.2-1.4,3-1.4,5.4c0,2.4,0.4,4.2,1.4,5.4
				c0.9,1.3,2.2,1.9,3.9,1.9s3-0.6,3.8-1.9C163.3,90,163.8,88.2,163.8,85.8 M160.6,81.9c0.4,0.8,0.6,2.1,0.6,3.9
				c0,1.8-0.2,3.2-0.6,4.1c-0.4,0.8-1.1,1.2-2,1.2c-0.9,0-1.6-0.4-2-1.2c-0.4-0.9-0.7-2.2-0.7-4.1c0-1.8,0.2-3.1,0.7-3.9
				c0.4-0.8,1.1-1.2,2-1.2C159.5,80.6,160.1,81,160.6,81.9 M172.1,82.9c0-1.4-0.3-2.5-1-3.2c-0.6-0.7-1.5-1.1-2.6-1.1
				c-1.1,0-2,0.4-2.6,1.1c-0.6,0.8-0.9,1.8-0.9,3.2c0,1.4,0.3,2.5,0.9,3.2c0.6,0.7,1.5,1.1,2.6,1.1c1.1,0,2-0.4,2.6-1.1
				C171.8,85.4,172.1,84.3,172.1,82.9 M169.6,80.8c0.2,0.4,0.4,1.1,0.4,2.1c0,1-0.1,1.7-0.4,2.1c-0.2,0.4-0.6,0.7-1.1,0.7
				c-0.5,0-0.9-0.2-1.1-0.7c-0.2-0.4-0.3-1.1-0.3-2.1c0-0.9,0.1-1.6,0.3-2.1c0.2-0.4,0.6-0.7,1.1-0.7S169.4,80.4,169.6,80.8
				 M178.6,84.4c-1.1,0-2,0.4-2.6,1.1c-0.6,0.7-0.9,1.8-0.9,3.2c0,1.4,0.3,2.5,0.9,3.3c0.6,0.7,1.5,1.1,2.6,1.1s2-0.4,2.7-1.1
				c0.6-0.8,0.9-1.9,0.9-3.2c0-1.4-0.3-2.5-0.9-3.2C180.7,84.8,179.8,84.4,178.6,84.4 M177.2,88.8c0-1,0.1-1.7,0.4-2.1
				c0.2-0.4,0.6-0.7,1.1-0.6c0.5,0,0.9,0.2,1.2,0.6c0.2,0.4,0.3,1.1,0.3,2.1c0,0.9-0.1,1.6-0.3,2.1c-0.2,0.4-0.6,0.6-1.2,0.6
				c-0.5,0-0.9-0.2-1.1-0.6C177.3,90.4,177.2,89.7,177.2,88.8 M178.8,78.7h-2.2l-8.2,14.2h2.2L178.8,78.7 M198.5,78.7h-9.3v14.2h2.6
				v-6.2h6.3v-2.1h-6.3v-3.9h6.8V78.7 M209.1,83.2c-0.7,0.5-1.3,1.1-1.8,1.9c-0.4,0.8-0.6,1.7-0.6,2.7c0,1.6,0.5,2.9,1.4,3.8
				c1,0.9,2.3,1.4,3.9,1.4c0.7,0,1.4-0.1,2.1-0.4c0.7-0.2,1.3-0.5,1.8-0.9l-0.7-1.8c-0.9,0.7-2,1.1-3.1,1.1c-0.9,0-1.6-0.3-2.1-0.8
				c-0.5-0.5-0.8-1.3-0.8-2.3h6.9v-0.4c0-1.6-0.4-2.8-1.2-3.7s-1.9-1.3-3.3-1.3C210.7,82.6,209.9,82.8,209.1,83.2 M211.7,84.4
				c0.7,0,1.2,0.2,1.6,0.6c0.4,0.4,0.6,1,0.6,1.8h-4.7c0.1-0.8,0.4-1.3,0.8-1.7C210.5,84.6,211,84.4,211.7,84.4 M202.3,84.6
				l-0.2-1.8h-2.3c0.1,0.8,0.1,1.8,0.1,2.8v7.2h2.5v-5.4c0-0.8,0.2-1.5,0.6-1.9c0.5-0.5,1.1-0.8,2-0.8c0.5,0,0.9,0.1,1.3,0.2v-2.3
				c-0.3-0.1-0.6-0.1-1-0.1c-0.7,0-1.3,0.2-1.8,0.5C203,83.5,202.6,84,202.3,84.6 M291.6,85.6l0.8-1.7c-0.5-0.4-1.1-0.7-1.8-1
				c-0.7-0.2-1.4-0.3-2.1-0.3c-0.8,0-1.6,0.1-2.2,0.4c-0.6,0.3-1.1,0.6-1.5,1.1c-0.3,0.5-0.5,1-0.5,1.6c0,1.5,0.9,2.4,2.8,2.8
				l1.7,0.4c0.5,0.1,0.9,0.3,1.1,0.4s0.4,0.4,0.4,0.8s-0.2,0.6-0.5,0.8c-0.3,0.2-0.8,0.3-1.4,0.3c-1.4,0-2.6-0.4-3.7-1.2l-0.7,1.8
				c1.1,0.8,2.5,1.2,4.4,1.2c1.3,0,2.3-0.3,3.1-0.8c0.8-0.6,1.1-1.3,1.1-2.2c0-0.7-0.2-1.4-0.7-1.9c-0.5-0.5-1.2-0.8-2.2-1.1
				l-1.7-0.3c-0.5-0.1-0.8-0.3-1-0.4s-0.3-0.4-0.3-0.7c0-0.4,0.2-0.7,0.5-0.9c0.3-0.2,0.7-0.3,1.3-0.3
				C289.6,84.4,290.6,84.8,291.6,85.6 M306.2,82.9h-2.5v10.1h2.5V82.9 M301.1,85.6l0.8-1.7c-0.5-0.4-1.1-0.7-1.8-1
				c-0.7-0.2-1.4-0.3-2.1-0.3c-0.8,0-1.6,0.1-2.2,0.4c-0.6,0.3-1.1,0.6-1.5,1.1c-0.3,0.5-0.5,1-0.5,1.6c0,1.5,0.9,2.4,2.8,2.8
				l1.7,0.4c0.5,0.1,0.9,0.3,1.1,0.4s0.4,0.4,0.4,0.8s-0.2,0.6-0.5,0.8c-0.3,0.2-0.8,0.3-1.4,0.3c-1.4,0-2.6-0.4-3.7-1.2l-0.7,1.8
				c1.1,0.8,2.5,1.2,4.4,1.2c1.3,0,2.3-0.3,3.1-0.8c0.8-0.6,1.1-1.3,1.1-2.2c0-0.7-0.2-1.4-0.7-1.9c-0.5-0.5-1.2-0.8-2.2-1.1
				l-1.7-0.3c-0.5-0.1-0.8-0.3-1-0.4s-0.3-0.4-0.3-0.7c0-0.4,0.2-0.7,0.5-0.9c0.3-0.2,0.7-0.3,1.3-0.3
				C299.1,84.4,300.1,84.8,301.1,85.6 M306.2,80.7v-2.4h-2.8v2.4H306.2 M313.4,84.6c0.6,0,1.1,0.2,1.4,0.6c0.3,0.4,0.4,0.9,0.4,1.8
				v6.1h2.5v-6.2c0-2.8-1.2-4.1-3.6-4.1c-0.8,0-1.4,0.2-2,0.5c-0.6,0.3-1.1,0.8-1.5,1.4l-0.1-1.6h-2.4c0.1,0.8,0.1,1.8,0.1,2.8v7.2
				h2.5v-5.7c0-0.8,0.2-1.4,0.7-1.9C312,84.8,312.6,84.6,313.4,84.6 M325.9,83.1c-0.6-0.3-1.2-0.4-2-0.4c-0.9,0-1.6,0.2-2.4,0.6
				c-0.7,0.4-1.2,1-1.6,1.8c-0.4,0.8-0.6,1.6-0.6,2.6c0,1,0.2,1.8,0.6,2.6c0.4,0.8,0.9,1.4,1.6,1.8c0.7,0.4,1.5,0.6,2.4,0.6
				c0.7,0,1.4-0.2,2-0.5c0.6-0.3,1-0.8,1.4-1.3v2c0,1.8-0.9,2.6-2.7,2.6c-1.2,0-2.4-0.3-3.6-0.9l-0.4,1.9c1.2,0.7,2.5,1,4.1,1
				c1.7,0,2.9-0.4,3.8-1.2c0.9-0.8,1.3-2,1.3-3.6v-9.8h-2.5v1.5C326.9,83.8,326.5,83.4,325.9,83.1 M324.6,84.6
				c0.8,0,1.5,0.3,1.9,0.8c0.5,0.6,0.7,1.3,0.7,2.3c0,0.9-0.2,1.7-0.7,2.2c-0.5,0.5-1.1,0.8-1.9,0.8c-0.8,0-1.5-0.3-2-0.8
				c-0.5-0.6-0.8-1.3-0.8-2.2c0-1,0.2-1.7,0.8-2.3C323.1,84.8,323.7,84.6,324.6,84.6z"/>
		</g>
	</g>
	<g>
		<path id="Layer0_0_1_STROKES" class="st8" d="M253.8,43.5c0-3.3,0.4-6.2,1.2-9c0.8-2.7,2-5,3.7-7c1.7-1.9,3.8-3.4,6.5-4.5
			s5.8-1.7,9.4-1.7c3.9,0,7,0.6,9.4,1.9c2.3,1.2,4.1,2.8,5.4,5c1.3,2.1,2.2,4.6,2.6,7.4c0.4,2.8,0.6,5.9,0.6,9.2h-31.1
			c0,1.9,0.2,3.9,0.5,5.8c0.4,2,1.1,3.8,2,5.4c0.9,1.7,2.2,3,4,4.1c1.8,1.1,4,1.6,6.7,1.6c2.6,0,5.1-0.4,7.6-1.3
			c2.5-0.8,5.3-2.4,8.3-4.6v5.7c-2.3,1.3-4.8,2.3-7.5,3c-2.8,0.7-5.6,1-8.3,1c-3.6,0-6.6-0.6-9.2-1.6c-2.6-1.1-4.7-2.6-6.4-4.5
			c-1.7-2-3-4.3-3.8-7C254.3,49.8,253.8,46.8,253.8,43.5z M213.3,43.5c0-3.3,0.4-6.2,1.2-9c0.8-2.7,2.1-5,3.9-7
			c1.7-1.9,3.9-3.4,6.5-4.5c2.6-1.1,5.7-1.7,9.3-1.7c2,0,4.3,0.2,6.7,0.7c2.4,0.4,4.9,1.2,7.4,2.2v5.6c-2.9-2-5.5-3.2-7.8-3.8
			c-2.3-0.6-4.4-0.8-6.4-0.8c-2.8,0-5.1,0.6-6.9,1.7c-1.7,1.1-3.1,2.6-4,4.4c-0.9,1.8-1.6,3.8-2,6c-0.3,2.1-0.5,4.2-0.5,6.3
			c0,2.1,0.2,4.2,0.5,6.3c0.4,2.2,1,4.2,2,6c1,1.7,2.3,3.2,4,4.3c1.8,1.1,4.1,1.7,6.9,1.7c2,0,4.3-0.4,6.9-1.3
			c2.6-0.8,5.2-2.4,7.8-4.6v5.7c-2.3,1.6-4.8,2.6-7.3,3.2c-2.5,0.6-5,0.8-7.4,0.8c-3.6,0-6.7-0.6-9.3-1.6c-2.6-1.1-4.7-2.6-6.5-4.5
			c-1.8-2-3.1-4.3-3.9-7C213.8,49.8,213.3,46.8,213.3,43.5z M285.1,41c0-2.1-0.1-4-0.4-6c-0.2-1.9-0.7-3.6-1.4-5
			c-0.7-1.5-1.8-2.7-3.2-3.5c-1.4-0.9-3.4-1.3-5.9-1.3c-2.3,0-4.2,0.5-5.8,1.3c-1.6,0.9-3,2.1-4,3.5c-1,1.5-1.8,3.2-2.3,5
			c-0.5,1.9-0.7,3.9-0.7,5.9H285.1z M198.6,21.9h7.6v43.2h-7.6V21.9z M198.6,4.7h7.6c0,4.1-2.5,6.7-7.6,7.7V4.7z M186.2,53.9
			c0,2.5,0.6,4.5,1.9,5.9c1.3,1.4,3.1,2.1,5.6,2.1v3.3h-3.6c-3.3,0-6-1-8.1-3.1c-2.2-2.1-3.3-4.9-3.3-8.6V4h7.6V53.9z M151.1,61.4
			c3.9,0,6.9-1,8.9-3.1c2-2,3.1-4.7,3.1-8c0-2-0.4-3.7-1.3-5.1c-0.8-1.4-1.9-2.6-3.2-3.6c-1.1-0.9-2.4-1.6-3.7-2.3L142.6,33
			c-1.9-1.1-3.7-2.4-5.2-3.8c-0.7-0.6-1.3-1.3-1.9-2.1c-0.8-0.8-1.5-1.6-2-2.5c-1-1.6-1.6-3.4-1.6-5.4c0-2,0.5-3.7,1.4-5.2
			c1-1.5,2.2-2.8,3.9-3.8c1.6-1,3.6-1.8,5.8-2.4c2.3-0.6,4.7-0.9,7.2-0.9c1.7,0,3.2,0.1,4.8,0.2c1.5,0.1,2.9,0.3,4.4,0.5
			c1.4,0.3,2.8,0.6,4.1,1c0.3,0.1,0.6,0.2,0.9,0.3c0.5,0.1,1,0.2,1.5,0.4V14c-0.5-0.3-1-0.5-1.5-0.8c-1.4-0.6-2.8-1.2-4.1-1.5
			c-2.6-0.8-5.3-1.2-8.1-1.2c-4.1,0-7.1,0.8-8.9,2.2c-1.9,1.5-2.9,3.5-2.9,5.8c0,1.3,0.3,2.4,0.8,3.3c0.4,0.6,0.9,1.2,1.4,1.7
			c1.5,1.3,3.2,2.4,4.9,3.2c0.3,0.1,0.7,0.2,1,0.4l6.2,3.2c1.4,0.6,2.8,1.3,4.2,2c2.2,1,4.3,2.2,6.1,3.7c1.8,1.4,3.3,3.1,4.6,5.2
			c1.2,2.1,1.8,4.7,1.8,7.8c0,2.5-0.5,4.8-1.6,6.8s-2.4,3.8-4.2,5.2c-1.8,1.5-4,2.6-6.5,3.3c-2.5,0.8-5.3,1.2-8.4,1.2
			c-3.9,0-7.3-0.4-10.4-1.3c-3.1-0.9-6.1-2.4-9.1-4.6v-6.6c3.5,3.2,6.8,5.3,9.9,6.5C144.4,60.8,147.7,61.4,151.1,61.4z"/>
	</g>
</g>
</svg>
