<?xml version="1.0" encoding="utf-8"?>
<!-- Generator: Adobe Illustrator 22.1.0, SVG Export Plug-In . SVG Version: 6.00 Build 0)  -->
<svg version="1.1" id="Слой_1" xmlns="http://www.w3.org/2000/svg" xmlns:xlink="http://www.w3.org/1999/xlink" x="0px" y="0px"
	 viewBox="0 0 168 168" style="enable-background:new 0 0 168 168;" xml:space="preserve">
<style type="text/css">
	.st0{fill:#D05533;}
	.st1{fill:url(#SVGID_1_);}
	.st2{fill:#FFFFFF;}
	.st3{fill:#66CCFF;}
	.st4{fill:#000066;}
	.st5{fill:#F0993C;}
	.st6{fill:url(#SVGID_2_);}
</style>
<g transform="matrix( 1, 0, 0, 1, 0,0) ">
	<g>
		<g id="Layer0_0_FILL">
			<path class="st0" d="M84.8,84.9v16.3l47.8,30.6L84.8,84.9z"/>
			
				<linearGradient id="SVGID_1_" gradientUnits="userSpaceOnUse" x1="38.7741" y1="-423.9862" x2="57.399" y2="-581.2113" gradientTransform="matrix(1 0 0 -1 0 -413.1)">
				<stop  offset="0" style="stop-color:#2FDFDD"/>
				<stop  offset="0.5765" style="stop-color:#2180DD"/>
				<stop  offset="1" style="stop-color:#001F78"/>
			</linearGradient>
			<path class="st1" d="M84.8,1.1c-23.5,0-43.3,8.1-59.5,24.3C11.4,39.3,3.5,55.8,1.5,75C1.2,78.2,1,81.5,1,84.9
				c0,3.3,0.2,6.5,0.5,9.6c2,18.8,9.9,35.1,23.8,49.1c16.2,16.2,36,24.3,59.5,24.3v-14.4v-52.3V84.9V1.1 M72.9,41.3
				c4.4,4.4,6.5,9.7,6.5,15.8c0,6-2.2,11.3-6.5,15.7c-4.4,4.4-9.6,6.6-15.7,6.6s-11.4-2.2-15.9-6.6c-4.2-4.4-6.3-9.7-6.3-15.7
				c0-0.5,0.1-1,0.1-1.4c0.2-4.7,1.7-8.9,4.7-12.6c0.4-0.6,0.9-1.2,1.4-1.8c4.5-4.3,9.8-6.5,15.9-6.5S68.5,37,72.9,41.3z"/>
			<path class="st2" d="M79.4,57.2c0-6.1-2.2-11.4-6.5-15.8c-4.4-4.3-9.6-6.5-15.7-6.5s-11.4,2.2-15.9,6.5c-0.5,0.6-1,1.2-1.4,1.8
				c-3,3.7-4.5,7.9-4.7,12.6c-0.1,0.4-0.1,0.9-0.1,1.4c0,6,2.1,11.3,6.3,15.7c4.5,4.4,9.8,6.6,15.9,6.6s11.3-2.2,15.7-6.6
				C77.2,68.4,79.4,63.2,79.4,57.2 M68.8,45.4c3.3,3.3,5,7.3,5,11.8s-1.7,8.4-5,11.6c-3.3,3.3-7.1,4.9-11.5,4.9
				c-4.6,0-8.6-1.6-11.9-4.9c-3.1-3.2-4.7-7.1-4.7-11.6c0-0.4,0-0.7,0.1-1.1c0.1-3.5,1.3-6.6,3.6-9.3c0.3-0.5,0.7-1,1.1-1.5
				c3.3-3.1,7.3-4.7,11.9-4.7C61.7,40.7,65.5,42.2,68.8,45.4z"/>
			<path class="st3" d="M73.8,57.2c0-4.5-1.7-8.5-5-11.8c-3.3-3.1-7.1-4.7-11.5-4.7c-4.6,0-8.6,1.6-11.9,4.7c-0.4,0.5-0.7,1-1.1,1.5
				c-2.3,2.7-3.4,5.8-3.6,9.3c-0.1,0.3-0.1,0.7-0.1,1.1c0,4.5,1.6,8.4,4.7,11.6c3.3,3.3,7.3,4.9,11.9,4.9c4.4,0,8.3-1.6,11.5-4.9
				C72.1,65.5,73.8,61.7,73.8,57.2 M64.9,49.2c2.3,2.2,3.4,4.8,3.4,7.9c0,3.1-1.1,5.7-3.4,7.9c-2.2,2.2-4.8,3.3-7.9,3.3
				c-3.1,0-5.7-1.1-7.9-3.3c-2.2-2.2-3.3-4.8-3.3-7.9c0-0.2,0-0.4,0-0.6c0.1-2.1,0.8-4.1,2.1-5.8c0.4-0.5,0.8-1.1,1.3-1.6
				c2.2-2.2,4.8-3.3,7.9-3.3C60.1,45.9,62.7,47,64.9,49.2z"/>
			<path class="st4" d="M49.1,49.2c-0.4,0.5-0.9,1-1.3,1.6c-1.2,1.7-1.9,3.6-2.1,5.8c0,0.2,0,0.4,0,0.6c0,3.1,1.1,5.7,3.3,7.9
				c2.2,2.2,4.8,3.3,7.9,3.3c3.1,0,5.7-1.1,7.9-3.3c2.3-2.3,3.5-5,3.5-8s-1.1-5.7-3.4-7.9c-2.2-2.2-4.8-3.3-7.9-3.3
				S51.3,47,49.1,49.2z"/>
			<path class="st5" d="M133.5,132.7l-1-0.9l-47.8-30.6v52.3C103.4,151.6,119.7,144.7,133.5,132.7z"/>
			
				<linearGradient id="SVGID_2_" gradientUnits="userSpaceOnUse" x1="83.7875" y1="-485" x2="166.7875" y2="-485" gradientTransform="matrix(1 0 0 -1 0 -413.1)">
				<stop  offset="0" style="stop-color:#FCEB43"/>
				<stop  offset="1" style="stop-color:#F18750"/>
			</linearGradient>
			<path class="st6" d="M132.5,131.8l1,0.9l10.9,10c15.6-16.3,23.4-35.5,23.4-57.8c0-23.4-8.1-43.3-24.3-59.5
				C127.2,9.2,107.6,1.1,84.8,1.1v83.8L132.5,131.8z"/>
		</g>
	</g>
</g>
</svg>
