<svg xmlns="http://www.w3.org/2000/svg" width="88" height="22"><g fill="none"><path fill="#63666A" d="M36.27 14.56a7.19 7.19 0 01-5.63 2.78c-3.76 0-6.75-2.69-6.75-6.23a6.32 6.32 0 016.61-6.24 7.19 7.19 0 015.63 2.78l-2.5 1.77a3.67 3.67 0 00-3.13-1.8A3.5 3.5 0 0027 11.1a3.6 3.6 0 003.65 3.48 3.93 3.93 0 003.18-1.69l2.44 1.67zM37.66 0h3.13v17.09h-3.13zM49.06 14.69a3.73 3.73 0 003.76-3.59 3.76 3.76 0 00-7.51 0 3.71 3.71 0 003.76 3.59m0-9.82a6.44 6.44 0 016.75 6.23 6.44 6.44 0 01-6.75 6.23c-3.76 0-6.78-2.72-6.78-6.23 0-3.51 3-6.23 6.78-6.23M55.31 5.12h3.67l2.97 6.39 3.21-6.39h3.4l-6.61 12.7zM77.46 9.44a3.1 3.1 0 00-2.91-1.93 3.39 3.39 0 00-3.1 1.93h6.01zm2 6.29a7.21 7.21 0 01-4.6 1.61c-3.76 0-6.78-2.72-6.78-6.23a6.23 6.23 0 016.5-6.23 6 6 0 016.2 6.23V12h-9.61a3.78 3.78 0 003.65 2.69 3.61 3.61 0 002.75-1.17l1.89 2.21zm2.83-5.36c0-2.86 2.18-5.25 5.71-5.25v2.8a2.5 2.5 0 00-2.61 2.83v6.34h-3.1v-6.72z"/><path fill="#43B02A" d="M9.7 5.58a4.85 4.85 0 10-4.85 4.82H9.7V5.58zm1.4 0a4.85 4.85 0 114.85 4.82H11.1V5.58zm0 11.05a4.85 4.85 0 104.85-4.82H11.1v4.82zm-6.25 3.46a3.48 3.48 0 003.49-3.46v-3.46H4.85a3.46 3.46 0 000 6.92zm4.85-3.46a4.85 4.85 0 11-4.85-4.82H9.7v4.82z"/></g></svg>