<svg xmlns="http://www.w3.org/2000/svg" viewBox="0 0 168 168"><g><path d="M84.8 84.9v16.3l47.8 30.6-47.8-46.9z" fill="#d05533"/><linearGradient id="a" gradientUnits="userSpaceOnUse" x1="38.774" y1="-423.986" x2="57.399" y2="-581.211" gradientTransform="matrix(1 0 0 -1 0 -413.1)"><stop offset="0" stop-color="#2fdfdd"/><stop offset=".577" stop-color="#2180dd"/><stop offset="1" stop-color="#001f78"/></linearGradient><path d="M84.8 1.1c-23.5 0-43.3 8.1-59.5 24.3C11.4 39.3 3.5 55.8 1.5 75c-.3 3.2-.5 6.5-.5 9.9 0 3.3.2 6.5.5 9.6 2 18.8 9.9 35.1 23.8 49.1 16.2 16.2 36 24.3 59.5 24.3V1.1M72.9 41.3c4.4 4.4 6.5 9.7 6.5 15.8 0 6-2.2 11.3-6.5 15.7-4.4 4.4-9.6 6.6-15.7 6.6s-11.4-2.2-15.9-6.6c-4.2-4.4-6.3-9.7-6.3-15.7 0-.5.1-1 .1-1.4.2-4.7 1.7-8.9 4.7-12.6.4-.6.9-1.2 1.4-1.8 4.5-4.3 9.8-6.5 15.9-6.5s11.4 2.2 15.8 6.5z" fill="url(#a)"/><path d="M79.4 57.2c0-6.1-2.2-11.4-6.5-15.8-4.4-4.3-9.6-6.5-15.7-6.5s-11.4 2.2-15.9 6.5c-.5.6-1 1.2-1.4 1.8-3 3.7-4.5 7.9-4.7 12.6-.1.4-.1.9-.1 1.4 0 6 2.1 11.3 6.3 15.7 4.5 4.4 9.8 6.6 15.9 6.6s11.3-2.2 15.7-6.6c4.2-4.5 6.4-9.7 6.4-15.7M68.8 45.4c3.3 3.3 5 7.3 5 11.8s-1.7 8.4-5 11.6c-3.3 3.3-7.1 4.9-11.5 4.9-4.6 0-8.6-1.6-11.9-4.9-3.1-3.2-4.7-7.1-4.7-11.6 0-.4 0-.7.1-1.1.1-3.5 1.3-6.6 3.6-9.3.3-.5.7-1 1.1-1.5 3.3-3.1 7.3-4.7 11.9-4.7 4.3.1 8.1 1.6 11.4 4.8z" fill="#fff"/><path d="M73.8 57.2c0-4.5-1.7-8.5-5-11.8-3.3-3.1-7.1-4.7-11.5-4.7-4.6 0-8.6 1.6-11.9 4.7-.4.5-.7 1-1.1 1.5-2.3 2.7-3.4 5.8-3.6 9.3-.1.3-.1.7-.1 1.1 0 4.5 1.6 8.4 4.7 11.6 3.3 3.3 7.3 4.9 11.9 4.9 4.4 0 8.3-1.6 11.5-4.9 3.4-3.4 5.1-7.2 5.1-11.7m-8.9-8c2.3 2.2 3.4 4.8 3.4 7.9 0 3.1-1.1 5.7-3.4 7.9-2.2 2.2-4.8 3.3-7.9 3.3-3.1 0-5.7-1.1-7.9-3.3-2.2-2.2-3.3-4.8-3.3-7.9v-.6c.1-2.1.8-4.1 2.1-5.8.4-.5.8-1.1 1.3-1.6 2.2-2.2 4.8-3.3 7.9-3.3 3 .1 5.6 1.2 7.8 3.4z" fill="#6cf"/><path d="M49.1 49.2c-.4.5-.9 1-1.3 1.6-1.2 1.7-1.9 3.6-2.1 5.8v.6c0 3.1 1.1 5.7 3.3 7.9 2.2 2.2 4.8 3.3 7.9 3.3 3.1 0 5.7-1.1 7.9-3.3 2.3-2.3 3.5-5 3.5-8s-1.1-5.7-3.4-7.9c-2.2-2.2-4.8-3.3-7.9-3.3s-5.7 1.1-7.9 3.3z" fill="#006"/><path d="M133.5 132.7l-1-.9-47.8-30.6v52.3c18.7-1.9 35-8.8 48.8-20.8z" fill="#f0993c"/><linearGradient id="b" gradientUnits="userSpaceOnUse" x1="83.787" y1="-485" x2="166.787" y2="-485" gradientTransform="matrix(1 0 0 -1 0 -413.1)"><stop offset="0" stop-color="#fceb43"/><stop offset="1" stop-color="#f18750"/></linearGradient><path d="M132.5 131.8l1 .9 10.9 10c15.6-16.3 23.4-35.5 23.4-57.8 0-23.4-8.1-43.3-24.3-59.5C127.2 9.2 107.6 1.1 84.8 1.1v83.8l47.7 46.9z" fill="url(#b)"/></g></svg>