<?xml version="1.0" encoding="utf-8"?>
<!-- Generator: Adobe Illustrator 22.1.0, SVG Export Plug-In . SVG Version: 6.00 Build 0)  -->
<svg version="1.1" id="Слой_1" xmlns="http://www.w3.org/2000/svg" xmlns:xlink="http://www.w3.org/1999/xlink" x="0px" y="0px"
	 viewBox="0 0 462 462" style="enable-background:new 0 0 462 462;" xml:space="preserve">
<path d="M336,34.4c-1.6-1.7-3.9-2.7-6.3-2.7H175.1c-19.4,0-35.6,15.9-35.6,35.3v26.2H96c-19.4,0-35.6,16.1-35.6,35.5v273.7
	c0,19.4,16.2,35.3,35.6,35.3h204.8c19.4,0,35.6-15.9,35.6-35.3v-26.2h43.5c19.4,0,35.6-16.1,35.6-35.5V119.3c-0.1-2.3-1-4.5-2.7-6.2
	L336,34.4z M338.1,62.2l47.3,48.5h-41.4c-3.2-0.1-5.8-2.5-6-5.7V62.2z M318.8,402.4c0,9.7-8.3,17.7-18,17.7H96c-9.7,0-18-8-18-17.7
	V128.7c0.2-9.9,8.1-17.8,18-17.9h43.5v229.9c0,19.4,16.2,35.5,35.6,35.5h143.7V402.4z M379.9,358.5H175.1c-9.9-0.1-17.8-8.1-18-17.9
	V66.9c0-9.7,8.3-17.7,18-17.7h145.5V105c0,12.7,10.8,23.3,23.5,23.3h53.8v212.3C397.7,350.5,389.7,358.4,379.9,358.5z"/>
<path d="M357.7,304.9H192.8c-4.9,0-8.8,3.9-8.8,8.8c0,4.9,3.9,8.8,8.8,8.8h164.9c4.9,0,8.8-3.9,8.8-8.8
	C366.5,308.9,362.5,304.9,357.7,304.9z"/>
<path d="M192.8,283.8h98.7c4.9,0,8.8-3.9,8.8-8.8s-3.9-8.8-8.8-8.8h-98.7c-4.9,0-8.8,3.9-8.8,8.8S188,283.8,192.8,283.8z"/>
<path d="M277.5,219.1c-8.5,0-15.4-6.9-15.4-15.4c0-4.9-3.9-8.8-8.8-8.8c-4.9,0-8.8,3.9-8.8,8.8c0,14.5,9.5,27.3,23.3,31.5v7.4
	c0,4.9,3.9,8.8,8.8,8.8c4.9,0,8.8-3.9,8.8-8.8v-6.9c16.2-4,26.8-19.4,24.8-36c-2-16.6-16.1-29-32.7-29c-8.5,0-15.4-6.9-15.4-15.4
	c0-8.5,6.9-15.4,15.4-15.4c8.5,0,15.4,6.9,15.4,15.4c0,4.9,3.9,8.8,8.8,8.8c4.9,0,8.8-3.9,8.8-8.8c0-15.2-10.4-28.4-25.1-32v-8.2
	c0-4.9-3.9-8.8-8.8-8.8c-4.9,0-8.8,3.9-8.8,8.8v8.6c-15.6,4.8-25.4,20.3-22.9,36.4c2.4,16.1,16.3,28.1,32.6,28.1
	c8.5-0.1,15.5,6.8,15.5,15.3c0.1,8.5-6.8,15.5-15.3,15.5C277.6,219.1,277.5,219.1,277.5,219.1L277.5,219.1z"/>
</svg>
