<?xml version="1.0" encoding="utf-8"?>
<!-- Generator: Adobe Illustrator 22.1.0, SVG Export Plug-In . SVG Version: 6.00 Build 0)  -->
<svg version="1.1" id="layer" xmlns="http://www.w3.org/2000/svg" xmlns:xlink="http://www.w3.org/1999/xlink" x="0px" y="0px"
	 viewBox="0 0 364.4 364.4" style="enable-background:new 0 0 364.4 364.4;" xml:space="preserve">
<style type="text/css">
	.st0{fill:#111111;}
</style>
<path class="st0" d="M71.8,282.9c-5-4.2-13.6-6.3-25.8-6.3H18.6v84.7h20.5v-26.6h9.2c11.1,0,19.3-2.5,24.5-7.4
	c5.9-5.5,8.8-12.8,8.8-22C81.6,295.9,78.3,288.4,71.8,282.9 M47.7,315.5H39v-19.8h7.8c9.5,0,14.2,3.3,14.2,10
	C61.1,312.2,56.6,315.5,47.7,315.5 M116.6,276.5H95.3v84.7h46.1V342h-24.8L116.6,276.5L116.6,276.5z M183.3,276.5l-33.6,84.7h23
	l4.4-12.3h29.2l4,12.3h23.3l-33.3-84.7H183.3z M183,331.8l8.8-29l8.7,29H183L183,331.8z"/>
<path class="st0" d="M277,31.1l-69-19.3l-24.3,24.1l-24-24.5L90.4,29.5L71.3,99.2l24,24.5L71,147.8l18,70l69,19.3l24.3-24.1
	l23.9,24.5l69.3-18.1l19.1-69.7l-23.9-24.5l24.3-24.1L277,31.1z M213.5,33.9l36.3,10.2l-29.7,29.5c0.1-0.1-22.8-23.6-22.8-23.6
	L213.5,33.9z M242.9,124.9L219.6,148c0,0.1-22.9-23.5-22.9-23.5l23.3-23.1L242.9,124.9z M206.3,87.4L183,110.5L160.1,87l23.3-23.1
	L206.3,87.4z M169.1,124.3l-23.3,23.1l-22.9-23.5l23.3-23.1L169.1,124.3z M153.7,33.3l16,16.4l-23.3,23.1l-29.2-29.9L153.7,33.3z
	 M93.2,93.5l10.1-36.7l29.2,29.9l-23.3,23.1L93.2,93.5z M92.8,153.9l16.2-16.1l22.9,23.5l-29.6,29.5
	C102.2,190.8,92.8,153.9,92.8,153.9z M152.2,214.9l-36.3-10.1l29.6-29.5l22.9,23.5L152.2,214.9z M159.5,161.5l23.3-23.1l22.9,23.5
	L182.4,185L159.5,161.5z M212.1,215.5l-16-16.4l23.3-23.1l29.2,29.9L212.1,215.5z M272.6,155.4l-10,36.7c-0.1,0-29.3-30-29.3-30
	l23.3-23.1L272.6,155.4z M256.9,111.1c-0.1,0-23-23.5-23-23.5l29.7-29.5l9.5,36.9L256.9,111.1z"/>
<rect x="244.3" y="276.5" class="st0" width="21.4" height="84.7"/>
<path class="st0" d="M345.4,349.5c7.2-7.8,10.8-18.1,10.8-31c0.1-10.2-2.5-18.9-7.6-26.1c-2.7-3.9-6.2-7.2-10.2-9.8
	c-6.5-4.1-15.3-6.1-26.4-6.1h-28.2v84.7h32.9C328.6,361.2,338.2,357.3,345.4,349.5z M314.4,342h-9.1v-46.3h9.3
	c6.5,0,11.6,2,15.1,6.1c3.5,4.1,5.3,9.9,5.3,17.4C334.9,334.4,328.1,342,314.4,342z"/>
</svg>
