<?xml version="1.0" encoding="utf-8"?>
<!-- Generator: Adobe Illustrator 22.1.0, SVG Export Plug-In . SVG Version: 6.00 Build 0)  -->
<svg version="1.1" viewBox="0 0 18 14" fill="none" xmlns="http://www.w3.org/2000/svg">
    <g>
        <path d="M14.8327 0.333496H3.16602C2.50297 0.333496 1.86709 0.596888 1.39825 1.06573C0.929408 1.53457 0.666016 2.17045 0.666016 2.8335V11.1668C0.666016 11.8299 0.929408 12.4658 1.39825 12.9346C1.86709 13.4034 2.50297 13.6668 3.16602 13.6668H14.8327C15.4957 13.6668 16.1316 13.4034 16.6004 12.9346C17.0693 12.4658 17.3327 11.8299 17.3327 11.1668V2.8335C17.3327 2.17045 17.0693 1.53457 16.6004 1.06573C16.1316 0.596888 15.4957 0.333496 14.8327 0.333496ZM15.666 11.1668C15.666 11.3878 15.5782 11.5998 15.4219 11.7561C15.2657 11.9124 15.0537 12.0002 14.8327 12.0002H3.16602C2.945 12.0002 2.73304 11.9124 2.57676 11.7561C2.42048 11.5998 2.33268 11.3878 2.33268 11.1668V4.7335L8.56602 8.54183C8.6927 8.61497 8.8364 8.65347 8.98268 8.65347C9.12896 8.65347 9.27267 8.61497 9.39935 8.54183L15.666 4.7335V11.1668Z" fill="#6D6E71"/>
    </g>
</svg>
