<?xml version="1.0" encoding="iso-8859-1"?>
<!-- Generator: Adobe Illustrator 19.0.0, SVG Export Plug-In . SVG Version: 6.00 Build 0)  -->
<svg version="1.1" id="Capa_1" xmlns="http://www.w3.org/2000/svg" xmlns:xlink="http://www.w3.org/1999/xlink" x="0px" y="0px"
	 viewBox="0 0 480 480" style="enable-background:new 0 0 480 480;" xml:space="preserve">
<g>
	<g>
		<path d="M442.4,148c-4-0.8-8.8,1.6-9.6,5.6c0,0,0,0,0,0.8l-8,41.6L259.2,32c-3.2-3.2-8-3.2-11.2,0s-3.2,8,0,11.2L412.8,208
			l-41.6,8c-4,0.8-7.2,4.8-6.4,9.6c0.8,4,4,6.4,8,6.4c0.8,0,0.8,0,1.6,0l56.8-11.2c0.8,0,0.8-0.8,1.6-0.8c1.6-0.8,3.2-2.4,4-4v-0.8
			v-0.8l11.2-56.8C448.8,153.6,446.4,148.8,442.4,148z"/>
	</g>
</g>
<g>
	<g>
		<path d="M472,440h-8V296c0-4.8-3.2-8-8-8h-96c-4.8,0-8,3.2-8,8v144h-56V168c0-4.8-3.2-8-8-8h-96c-4.8,0-8,3.2-8,8v272h-56V32
			c0-4.8-3.2-8-8-8H24c-4.8,0-8,3.2-8,8v408H8c-4.8,0-8,3.2-8,8s3.2,8,8,8h464c4.8,0,8-3.2,8-8S476.8,440,472,440z M112,440H32V40
			h80V440z M280,440h-80V176h80V440z M448,440h-80V304h80V440z"/>
	</g>
</g>
<g>
</g>
<g>
</g>
<g>
</g>
<g>
</g>
<g>
</g>
<g>
</g>
<g>
</g>
<g>
</g>
<g>
</g>
<g>
</g>
<g>
</g>
<g>
</g>
<g>
</g>
<g>
</g>
<g>
</g>
</svg>
