<?xml version="1.0" encoding="iso-8859-1"?>
<!-- Generator: Adobe Illustrator 16.0.0, SVG Export Plug-In . SVG Version: 6.00 Build 0)  -->
<!DOCTYPE svg PUBLIC "-//W3C//DTD SVG 1.1//EN" "http://www.w3.org/Graphics/SVG/1.1/DTD/svg11.dtd">
<svg version="1.1" id="Capa_1" xmlns="http://www.w3.org/2000/svg" xmlns:xlink="http://www.w3.org/1999/xlink" x="0px" y="0px"
	 width="485.211px" height="485.211px" viewBox="0 0 485.211 485.211" style="enable-background:new 0 0 485.211 485.211;"
	 xml:space="preserve">
<g>
	<path d="M318.423,257.771c0,41.873-33.943,75.812-75.816,75.812c-41.875,0-75.812-33.939-75.812-75.812
		c0-41.878,33.937-75.817,75.812-75.817C284.479,181.955,318.423,215.894,318.423,257.771z M485.211,136.467v242.606
		c0,16.76-13.563,30.322-30.322,30.322H30.327C13.562,409.396,0,395.833,0,379.073V136.467c0-16.762,13.564-30.326,30.327-30.326
		h30.324c0-16.762,13.579-30.325,30.327-30.325h30.327c16.746,0,30.324,13.562,30.324,30.325h303.26
		C471.647,106.141,485.211,119.705,485.211,136.467z M348.745,257.771c0-58.521-47.618-106.144-106.139-106.144
		s-106.141,47.623-106.141,106.144c0,58.516,47.621,106.134,106.141,106.134S348.745,316.287,348.745,257.771z M424.562,136.467
		h-60.653v30.327h60.653V136.467z"/>
</g>
<g>
</g>
<g>
</g>
<g>
</g>
<g>
</g>
<g>
</g>
<g>
</g>
<g>
</g>
<g>
</g>
<g>
</g>
<g>
</g>
<g>
</g>
<g>
</g>
<g>
</g>
<g>
</g>
<g>
</g>
</svg>
