<?xml version="1.0" encoding="utf-8"?>
<!-- Generator: Adobe Illustrator 22.1.0, SVG Export Plug-In . SVG Version: 6.00 Build 0)  -->
<svg version="1.1" id="Layer_1" xmlns="http://www.w3.org/2000/svg" xmlns:xlink="http://www.w3.org/1999/xlink" x="0px" y="0px"
	 viewBox="0 0 504.1 504.1" style="enable-background:new 0 0 504.1 504.1;" xml:space="preserve">
<style type="text/css">
	.st0{fill:#F3F3F3;}
	.st1{fill:#E7E7E7;}
	.st2{fill:#3FB286;}
	.st3{fill:#389B6E;}
	.st4{fill:#ECC45C;}
	.st5{fill:#F8D578;}
	.st6{fill:#BF9C4C;}
	.st7{fill:#E4E7E7;}
	.st8{fill:#324D5B;}
	.st9{fill:#EDEDED;}
</style>
<path class="st0" d="M456.9,78.8C457.3,78.8,257.2,2,252.1,0c-4,1.6-205.2,78.8-204.8,78.8v144.9c0,100.4,28.8,231.6,204.8,280.4
	c175.7-48.8,204.4-182.4,204.4-280.4C456.9,174.1,456.9,78.8,456.9,78.8z"/>
<path class="st1" d="M47.3,223.7c0,100.4,28.8,231.6,204.8,280.4V0C244.6,2.8,47.3,78.8,47.3,78.8V223.7z"/>
<path class="st2" d="M417.1,105.9c0.4,0-161.1-65-165.4-66.6c-3.5,1.2-165.8,63.8-165.4,63.4v121.7c0,84.3,16.5,199.3,165.4,240.2
	c148.5-41,165.4-157.9,165.4-240.2C417.5,182.7,417.5,105.9,417.1,105.9z"/>
<path class="st3" d="M252.1,39.4c-3.5,1.2-165.8,63.8-165.4,63.4v121.7c0,84.3,16.5,199.3,165.4,240.2V39.4z"/>
<path class="st4" d="M175.3,216.8h153.4c7.2,0,13.1,5.9,13.1,13.1v101.2c0,7.2-5.9,13.1-13.1,13.1H175.3c-7.2,0-13.1-5.9-13.1-13.1
	V229.9C162.3,222.7,168.2,216.8,175.3,216.8z"/>
<path class="st5" d="M175.3,210.3h153.4c7.2,0,13.1,5.9,13.1,13.1v6.5c0,7.2-5.9,13.1-13.1,13.1H175.3c-7.2,0-13.1-5.9-13.1-13.1
	v-6.5C162.3,216.2,168.2,210.3,175.3,210.3z"/>
<path class="st6" d="M194.9,220.1c-8.2,0-14.7,2.9-14.7,6.5s6.5,6.5,14.7,6.5s14.7-2.9,14.7-6.5C209.6,223,203.1,220.1,194.9,220.1z
	 M309.2,220.1c-8.2,0-14.7,2.9-14.7,6.5s6.5,6.5,14.7,6.5s14.7-2.9,14.7-6.5C323.9,223,317.4,220.1,309.2,220.1z M252.1,269
	c13.5,0,24.5,10.9,24.5,24.5s-11,24.5-24.5,24.5s-24.5-10.9-24.5-24.5S238.5,269,252.1,269z"/>
<path class="st7" d="M252.1,275.6c10,0,18,8,18,18s-8,18-18,18s-18-8-18-18S242.1,275.6,252.1,275.6z"/>
<path class="st8" d="M252.1,285.4c1.8,0,3.3,1.5,3.3,3.3v9.8c0,1.8-1.5,3.3-3.3,3.3s-3.3-1.5-3.3-3.3v-9.8
	C248.8,286.8,250.3,285.4,252.1,285.4z"/>
<path class="st9" d="M252.1,135.2c-18.9,0-36.1,7.7-48.5,20.1c-12.4,12.4-20.1,29.6-20.1,48.5v9.8v9.8c0,1.8,1.3,3.4,3.3,4.6
	c2.1,1.2,4.9,1.9,8.1,1.9c3.2,0,6-0.7,8.1-1.9c2.1-1.2,3.3-2.8,3.3-4.6v-9.8v-9.8c0-12.6,5.1-24.1,13.4-32.3
	c8.3-8.3,19.7-13.4,32.3-13.4s24.1,5.1,32.3,13.4c8.3,8.3,13.4,19.7,13.4,32.3v9.8v9.8c0,1.8,1.3,3.4,3.3,4.6
	c2.1,1.2,4.9,1.9,8.1,1.9s6-0.7,8.1-1.9c2.1-1.2,3.3-2.8,3.3-4.6v-9.8v-9.8c0.1-18.9-7.6-36.1-20-48.5
	C288.1,142.9,271,135.2,252.1,135.2z"/>
</svg>
