<?xml version="1.0"?>
<svg xmlns="http://www.w3.org/2000/svg" id="Outline" viewBox="0 0 64 64" width="512" height="512"><rect x="31" y="21" width="2" height="1"/><path d="M8,52H62V50H58.847L57,38.917V36.124l3.97-15.881A1,1,0,0,0,60,19H57a1,1,0,0,0-.955.7L51.265,35H49V26a1,1,0,0,0-1-1H35.974a4.953,4.953,0,0,0-.224-6.308,1,1,0,0,0-.75-.338H29a1,1,0,0,0-.75.338A4.953,4.953,0,0,0,28.026,25H16a.989.989,0,0,0-1,1h0v9H11.735L6.955,19.7A1,1,0,0,0,6,19H3a1,1,0,0,0-.97,1.243L6,36.124v2.793L4.153,50H2v2H8Zm7-12V50H9.281l2.5-10Zm25.227,3.554L39.153,50H23.846l-.983-5.86c2.224-1.443,5.178-3.4,9.114-6.045C35.415,40.405,38.106,42.183,40.227,43.554Zm-20.521.226a.91.91,0,0,0-.136.053L17,45.286V27.9c5.229,3.59,9.579,6.554,13.185,8.988C25.126,40.278,21.839,42.425,19.706,43.78ZM17,50V47.7c.411-.2.958-.495,1.7-.936L18.155,50Zm3.832-3.846.134-.8.067-.042L21.818,50ZM41.181,50l.878-5.273.413.261L41.219,50ZM43.6,48.707,43.82,50h-.539ZM45.847,50l-.538-3.228.894.448c.31.168.573.3.8.408V50Zm5.372-10,2.5,10H49V40Zm4.562,10-2.5-10h1.872l1.666,10Zm1.954-29h.984l-3.5,14H53.36ZM52,37h3v1H49V37ZM29.491,20.354h5.018A2.989,2.989,0,0,1,33,24.816V23H31v1.816a2.989,2.989,0,0,1-1.509-4.462ZM47,27V45.382l-.725-.363C41.428,42.069,28.707,33.491,19.225,27ZM15,38H8V37h7ZM5.265,21,9.64,35H7.781l-3.5-14ZM7.847,40H9.719l-2.5,10H6.181Z"/></svg>
