<?xml version="1.0" encoding="utf-8"?>
<!-- Generator: Adobe Illustrator 22.1.0, SVG Export Plug-In . SVG Version: 6.00 Build 0)  -->
<svg version="1.1" id="Слой_1" xmlns="http://www.w3.org/2000/svg" xmlns:xlink="http://www.w3.org/1999/xlink" x="0px" y="0px"
	 viewBox="0 0 436 302" style="enable-background:new 0 0 436 302;" xml:space="preserve">
<path d="M206.2,165.6v50.8h-16.1V91h42.7c10.3-0.2,20.2,3.7,27.7,10.9c7.5,6.7,11.7,16.4,11.5,26.4c0.2,10.1-4,19.8-11.5,26.6
	c-7.5,7.1-16.7,10.7-27.6,10.7H206.2L206.2,165.6z M206.2,106.4v43.8h27c6,0.2,11.8-2.2,15.9-6.5c8.5-8.2,8.6-21.7,0.4-30.2
	c-0.1-0.1-0.3-0.3-0.4-0.4c-4.1-4.4-9.9-6.8-15.9-6.6L206.2,106.4L206.2,106.4z"/>
<path d="M309.1,127.8c11.9,0,21.3,3.2,28.2,9.5c6.9,6.4,10.3,15.1,10.3,26.2v52.8h-15.4v-11.9h-0.7c-6.7,9.8-15.5,14.7-26.6,14.7
	c-9.4,0-17.4-2.8-23.7-8.4c-6.2-5.2-9.7-12.9-9.5-21c0-8.9,3.4-15.9,10.1-21.2s15.7-7.9,26.9-7.9c9.6,0,17.4,1.8,23.6,5.2v-3.7
	c0-5.5-2.4-10.7-6.6-14.2c-4.3-3.8-9.8-5.9-15.5-5.9c-9,0-16.1,3.8-21.4,11.4l-14.2-8.9C282.3,133.4,293.8,127.8,309.1,127.8z
	 M288.3,190.1c0,4.2,2,8.1,5.3,10.5c3.6,2.8,8,4.3,12.5,4.2c6.8,0,13.3-2.7,18.1-7.5c5.3-5,8-10.9,8-17.7c-5-4-12-6-21-6
	c-6.5,0-12,1.6-16.4,4.7C290.5,181.5,288.3,185.4,288.3,190.1L288.3,190.1z"/>
<path d="M436,130.6l-53.8,123.6h-16.6l20-43.2l-35.4-80.3h17.5l25.5,61.6h0.4l24.9-61.6L436,130.6L436,130.6z"/>
<path d="M141.1,154.6c0-4.9-0.4-9.8-1.2-14.6H72v27.7h38.9c-1.6,8.9-6.8,16.9-14.4,21.9v18h23.2
	C133.3,195.1,141.1,176.6,141.1,154.6z"/>
<path d="M72,225c19.4,0,35.8-6.4,47.7-17.4l-23.2-18c-6.5,4.4-14.8,6.9-24.5,6.9c-18.8,0-34.7-12.7-40.4-29.7H7.7v18.6
	C19.9,209.6,44.8,225,72,225z"/>
<path d="M31.6,166.8c-3-8.9-3-18.6,0-27.6v-18.5H7.7C-2.6,141-2.6,165,7.7,185.3L31.6,166.8z"/>
<path d="M72,109.5c10.3-0.2,20.2,3.7,27.6,10.8l0,0l20.5-20.5c-13-12.3-30.2-19-48.1-18.8c-27.2,0-52.1,15.4-64.3,39.7l23.9,18.6
	C37.3,122.2,53.2,109.5,72,109.5z"/>
</svg>
