<?xml version="1.0" encoding="utf-8"?>
<!-- Generator: Adobe Illustrator 22.1.0, SVG Export Plug-In . SVG Version: 6.00 Build 0)  -->
<svg version="1.1" id="Слой_1" xmlns="http://www.w3.org/2000/svg" xmlns:xlink="http://www.w3.org/1999/xlink" x="0px" y="0px"
	 viewBox="0 0 300 280" style="enable-background:new 0 0 300 280;" xml:space="preserve">
<style type="text/css">
	.st0{fill:#231F20;}
</style>
<g transform="matrix( 0.4176788330078125, 0, 0, 0.4176788330078125, -0.8,-30.25) ">
	<g>
		<g id="Layer0_0_MEMBER_0_MEMBER_0_FILL">
			<path class="st0" d="M476.2,227.5c-0.5-0.1-1.3-0.2-2.3-0.2c-2-0.1-4.3,0.2-6.9,0.9c-8.2,2.1-15.4,7.2-21.5,15.3
				c-1.9,2.5-3.6,5.2-5.1,8l-1.6,3.5v-16.5l-32.9,7.8l0.1,126.1l34.8-8.1v-69.6c0-16.1,6.1-26.5,18.2-31.3c4.1-1.6,8.2-2.7,12.3-3.3
				c2.1-0.3,3.7-0.4,5-0.3V227.5z"/>
		</g>
	</g>
</g>
<g transform="matrix( 0.4176788330078125, 0, 0, 0.4176788330078125, -0.8,-30.25) ">
	<g>
		<g id="Layer0_0_MEMBER_0_MEMBER_1_FILL">
			<path class="st0" d="M261.9,280v-28.2l-35,8.3v28.2l-17,4v25.9l16.9-4v62.8c0,11.8,0.9,21.5,2.7,28.9c0.9,3.7,1.7,6.2,2.6,7.5
				l37.4-8.9c-1.3-0.9-2.6-3.1-3.8-6.5c-2.6-6.7-3.9-16.1-3.9-28.2v-64l24.7-5.9v-25.9L261.9,280z"/>
		</g>
	</g>
</g>
<g transform="matrix( 0.4176788330078125, 0, 0, 0.4176788330078125, -0.8,-30.25) ">
	<g>
		<g id="Layer0_0_MEMBER_0_MEMBER_2_FILL">
			<path class="st0" d="M381.9,265.5c-8.9-9.1-22.4-11.6-40.4-7.5c-19.2,4.3-32.9,14-41.1,29c-3.4,6.3-6,13.6-7.6,22
				s-2.4,18.2-2.4,29.4c0,20.4,3.6,34.9,10.8,43.6c8.6,10.4,22.6,13.3,42.1,8.7c19.1-4.5,32.5-13.1,40.3-25.7
				c4.7-7.7,7.2-16.6,7.5-26.9v-5.5l-31.8,7.6l-0.2,5.1c-0.5,5.1-1.8,9-3.9,11.9c-2.6,3.5-6.6,5.8-12,7c-6.5,1.4-11.2-0.4-14-5.2
				c-2.6-4.5-3.9-12.3-3.9-23.3v-1.1l67.7-15.9c0-3.6,0-9,0.1-16.2C393.4,285.8,389.7,273.5,381.9,265.5 M342.8,281.4
				c6-1.3,10.3-0.4,13,2.9c2.4,3,3.7,8.1,3.7,15.3l-0.1,5.5l-34,8.1c0.1-9.1,1.6-16.4,4.5-21.8C333,286,337.2,282.7,342.8,281.4z"/>
		</g>
	</g>
</g>
<g transform="matrix( 0.4176788330078125, 0, 0, 0.4176788330078125, -0.8,-30.25) ">
	<g>
		<g id="Layer0_0_MEMBER_0_MEMBER_3_FILL">
			<path class="st0" d="M689.2,193.6c-3.3-4.3-7.7-7.2-13.2-8.8c-7.6-2.1-17.5-1.8-29.8,1c-20,4.5-34.1,14.1-42.3,28.5
				c-6.9,12.2-9.9,28.9-9.2,50.1c0.8,22.2,4.4,37.4,10.8,45.7c8.1,10.4,22.2,13.3,42.4,8.6c15.8-3.7,27.8-10.5,36-20.5
				c8.3-10,12.4-23,12.4-38.8l-0.1-5.2l-33.5,7.9l-0.1,6.4c-0.1,6.2-1,11-2.6,14.5c-2.3,4.9-6.3,7.9-12,9c-7,1.5-11.8-0.5-14.5-5.9
				c-2.3-4.8-3.5-13.6-3.5-26.5l0-11.2c0-12.1,1.4-21.2,4.1-27.3c2.8-6.3,7.4-10.2,13.7-11.8c5.3-1.3,9.1-0.6,11.4,2.3
				c2.2,2.8,3.4,7.9,3.4,15.3v4.6l33.5-7.9v-2.3c0-6.3-0.5-11.7-1.6-16C693.5,200.8,691.7,196.9,689.2,193.6z"/>
		</g>
	</g>
</g>
<g transform="matrix( 0.4176788330078125, 0, 0, 0.4176788330078125, -0.8,-30.25) ">
	<g>
		<g id="Layer0_0_MEMBER_0_MEMBER_4_FILL">
			<path class="st0" d="M484.2,261c-0.2,2.4-0.2,4.5-0.1,6.1l32.5-7.7c-0.1-2.1,0-4.3,0.2-6.5c0.8-8.9,5.5-14.4,14-16.5
				c5.3-1.4,9.2-0.9,11.7,1.3c2.1,1.9,3,4.8,3,8.8c-0.1,4.9-1.1,8.5-3.2,10.8c-3.1,3.5-9.9,7.4-20.5,11.8
				c-15.1,6.2-25.5,12.1-31.1,17.6c-7.9,7.6-11.8,18.1-11.8,31.6c0,11.4,3.3,20,9.9,25.9c7.1,6.4,16.7,8.2,28.9,5.3
				c10-2.4,18.2-6.9,24.5-13.7c3.2-3.4,5.3-6.6,6.5-9.5c0.9,3.5,2.3,7.4,4.3,11.5l31.9-7.5c-0.8-0.7-1.7-2.5-2.5-5.4
				c-1.7-5.8-2.5-14.4-2.5-25.6v-55.8c0-12.8-3.4-21.9-10.2-27.2c-7.7-6.1-19.7-7.3-36-3.6c-26.3,6.1-42,17.8-47.2,35.3
				C485.2,251.7,484.5,256.1,484.2,261 M545.2,278.4V296c0,6.6-1.6,12.2-4.8,16.9c-3.2,4.5-7.4,7.5-12.6,8.8
				c-4.6,1.2-8.3,0.6-11-1.8c-2.6-2.2-3.9-5.5-3.9-10c0-4.9,1.2-9.1,3.8-12.5c2.4-3.4,6.3-6.4,11.7-9
				C535.1,285,540.8,281.7,545.2,278.4z"/>
		</g>
	</g>
</g>
<g transform="matrix( 0.4176788330078125, 0, 0, 0.4176788330078125, -0.8,-30.25) ">
	<g>
		<g id="Layer0_0_MEMBER_0_MEMBER_5_FILL">
			<path class="st0" d="M32.8,470.2l-0.4,0l-0.2,0.3c-2.2,3.3-3.2,7-3.2,11.1c0,5.6,2,10.3,5.9,14.3c4,4,8.7,5.9,14.3,5.9
				c1.5,0,2.8-0.2,4.1-0.5c4.6-0.9,13.4-3,26.4-6.1l0.8-0.2v-36.1L32.8,470.2z"/>
		</g>
	</g>
</g>
<g transform="matrix( 0.4176788330078125, 0, 0, 0.4176788330078125, -0.8,-30.25) ">
	<g>
		<g id="Layer0_0_MEMBER_0_MEMBER_6_FILL">
			<path class="st0" d="M79.7,541.6l0.8-0.2v-36.1l-47.6,11.3l-0.4,0l-0.2,0.4c-2.2,3.3-3.2,6.9-3.2,11c0,5.6,2,10.3,5.9,14.3
				c4,3.9,8.7,5.9,14.3,5.9c1.6,0,3-0.1,4.1-0.4C56.4,547.1,65.2,545.1,79.7,541.6z"/>
		</g>
	</g>
</g>
<g transform="matrix( 0.4176788330078125, 0, 0, 0.4176788330078125, -0.8,-30.25) ">
	<g>
		<g id="Layer0_0_MEMBER_0_MEMBER_7_FILL">
			<path class="st0" d="M32.4,562.9l-0.2,0.3c-2.2,3.3-3.2,6.9-3.2,11c0,5.6,2,10.3,5.9,14.3c4,3.9,8.7,5.9,14.3,5.9
				c1.4,0,2.7-0.1,4.1-0.4c7.5-1.6,16.3-3.7,26.4-6.1l0.8-0.2v-36.2L32.4,562.9z"/>
		</g>
	</g>
</g>
<g transform="matrix( 0.4176788330078125, 0, 0, 0.4176788330078125, -0.8,-30.25) ">
	<g>
		<g id="Layer0_0_MEMBER_0_MEMBER_8_FILL">
			<path class="st0" d="M80.4,246.4l-36.9,8.7v202.4l36.9-8.8V246.4z"/>
		</g>
	</g>
</g>
<g transform="matrix( 0.4176788330078125, 0, 0, 0.4176788330078125, -0.8,-30.25) ">
	<g>
		<g id="Layer0_0_MEMBER_0_MEMBER_9_FILL">
			<path class="st0" d="M212.5,510c-2.3-4.4-5.6-8-9.7-10.8l-57.4-39v88.6c0,1.4-0.5,2.5-1.5,3.5c-1,1-2.1,1.5-3.4,1.5
				c-1.3,0-2.5-0.5-3.4-1.5c-1-1-1.4-2.1-1.4-3.5l-0.1-108.5c0-6.3-2.2-11.6-6.6-16.1c-4.5-4.5-9.8-6.7-16.1-6.7
				c-6.3,0-11.7,2.2-16.1,6.7c-4.5,4.5-6.7,9.8-6.7,16.1l0,189.1c0,17,6,31.5,18,43.5c12.1,12.1,26.6,18.1,43.5,18.1L216,691
				l0.1-166.9C216,519.1,214.9,514.4,212.5,510z"/>
		</g>
	</g>
</g>
<g transform="matrix( 0.4176788330078125, 0, 0, 0.4176788330078125, -0.8,-30.25) ">
	<g>
		<g id="Layer0_0_MEMBER_0_MEMBER_10_FILL">
			<path class="st0" d="M152.1,329c4.2-0.9,7.4-0.4,9.7,1.6c2.7,2.3,4.1,6.6,4.1,12.8V429l35-8.2v-90.5c0-12-2.5-20.7-7.5-26.1
				c-5.8-6.2-14.9-7.9-27.2-5c-9.9,2.3-18.3,7.2-25.3,14.8c-3.5,3.8-6,7.4-7.5,10.6v-14.2l-33.2,7.9l0,90.8c4-1.6,8.2-2.4,12.5-2.4
				c4.2,0,8.3,0.8,12.2,2.2c3.8,1.5,7.2,3.5,10.2,6.2v-58.7c0-7,1.6-13,4.8-18.1S147.1,330.1,152.1,329z"/>
		</g>
	</g>
</g>
<g transform="matrix( 0.4176788330078125, 0, 0, 0.4176788330078125, -0.8,-30.25) ">
	<g>
		<g id="Layer0_0_MEMBER_0_MEMBER_11_FILL">
			<path class="st0" d="M696.3,148c0-6-2.1-11.1-6.3-15.3c-4.2-4.2-9.3-6.4-15.2-6.4s-11.1,2.1-15.3,6.4c-4.2,4.2-6.4,9.3-6.4,15.3
				s2.1,11.1,6.4,15.2c4.2,4.2,9.3,6.4,15.3,6.4s11-2.1,15.2-6.4C694.2,159,696.3,154,696.3,148 M674.7,129c5.2,0,9.7,1.9,13.3,5.5
				c3.7,3.7,5.5,8.2,5.5,13.4c0,5.2-1.8,9.7-5.5,13.4c-3.7,3.7-8.1,5.5-13.3,5.5c-5.2,0-9.7-1.8-13.4-5.5c-3.7-3.7-5.5-8.1-5.5-13.4
				s1.9-9.7,5.5-13.4C665,130.9,669.5,129,674.7,129z"/>
		</g>
	</g>
</g>
<g transform="matrix( 0.4176788330078125, 0, 0, 0.4176788330078125, -0.8,-30.25) ">
	<g>
		<g id="Layer0_0_MEMBER_0_MEMBER_12_FILL">
			<path class="st0" d="M678.4,148.4L678.4,148.4c1.4-0.3,2.5-1,3.2-2.2c0.8-1.2,1.1-2.6,1.1-4.4c0-2.3-0.6-4-1.9-5.2
				c-1.2-1-2.8-1.5-4.8-1.5h-9.4v26.4h4.2V150h3.5c1.4,0,2.4,0.3,3,1c0.5,0.6,0.8,1.6,0.8,3.1c0.1,2.6,0.1,4.3,0.2,4.9
				c0.1,1.1,0.3,1.9,0.7,2.4h4.8c-0.8-0.5-1.2-1.2-1.2-2.2l-0.2-5.4c-0.1-1.8-0.4-3.1-1.1-4C680.8,149,679.8,148.6,678.4,148.4
				 M674.4,146.8H671v-8.6h3.6c2.7,0,4,1.4,4,4.2c0,1.4-0.4,2.4-1.1,3.1C676.8,146.5,675.7,146.8,674.4,146.8z"/>
		</g>
	</g>
</g>
</svg>
