<?xml version="1.0" encoding="utf-8"?>
<!-- Generator: Adobe Illustrator 22.1.0, SVG Export Plug-In . SVG Version: 6.00 Build 0)  -->
<svg version="1.1" id="Capa_1" xmlns="http://www.w3.org/2000/svg" xmlns:xlink="http://www.w3.org/1999/xlink" x="0px" y="0px"
	 viewBox="0 0 305.3 55.9" style="enable-background:new 0 0 305.3 55.9;" xml:space="preserve">
<path d="M55.8,21.6c-0.1-0.4-0.4-0.6-0.8-0.7l-18.1-2.6L28.8,1.9c-0.2-0.3-0.5-0.6-0.9-0.6S27.2,1.5,27,1.9l-8.1,16.4L0.9,20.9
	C0.5,21,0.2,21.2,0,21.6c-0.1,0.4,0,0.8,0.3,1l13.1,12.8l-3.1,18c-0.1,0.4,0.1,0.8,0.4,1c0.3,0.2,0.7,0.3,1.1,0.1l16.2-8.5l16.2,8.5
	c0.1,0.1,0.3,0.1,0.5,0.1c0.2,0,0.4-0.1,0.6-0.2c0.3-0.2,0.5-0.6,0.4-1l-3.1-18l13.1-12.8C55.8,22.3,55.9,21.9,55.8,21.6z"/>
<path d="M305.2,21.3c-0.1-0.4-0.4-0.6-0.8-0.7l-18.1-2.6l-8.1-16.4c-0.2-0.3-0.5-0.6-0.9-0.6s-0.7,0.2-0.9,0.6L268.4,18l-18.1,2.6
	c-0.4,0.1-0.7,0.3-0.8,0.7c-0.1,0.4,0,0.8,0.3,1L262.8,35l-3.1,18c-0.1,0.4,0.1,0.8,0.4,1c0.3,0.2,0.7,0.3,1.1,0.1l16.2-8.5
	l16.2,8.5c0.1,0.1,0.3,0.1,0.5,0.1c0.2,0,0.4-0.1,0.6-0.2c0.3-0.2,0.5-0.6,0.4-1l-3.1-18L305,22.3C305.3,22,305.4,21.6,305.2,21.3z"
	/>
<path d="M241.5,21.6c-0.1-0.4-0.4-0.6-0.8-0.7l-18.1-2.6l-8.1-16.4c-0.2-0.3-0.5-0.6-0.9-0.6c-0.4,0-0.7,0.2-0.9,0.6l-8.1,16.4
	l-18.1,2.6c-0.4,0.1-0.7,0.3-0.8,0.7c-0.1,0.4,0,0.8,0.3,1l13.1,12.8l-3.1,18c-0.1,0.4,0.1,0.8,0.4,1c0.3,0.2,0.7,0.3,1.1,0.1
	l16.2-8.5l16.2,8.5c0.1,0.1,0.3,0.1,0.5,0.1c0.2,0,0.4-0.1,0.6-0.2c0.3-0.2,0.5-0.6,0.4-1l-3.1-18l13.1-12.8
	C241.6,22.3,241.7,21.9,241.5,21.6z"/>
<path d="M179.5,21.6c-0.1-0.4-0.4-0.6-0.8-0.7l-18.1-2.6l-8.1-16.4c-0.2-0.3-0.5-0.6-0.9-0.6s-0.7,0.2-0.9,0.6l-8.1,16.4l-18.1,2.6
	c-0.4,0.1-0.7,0.3-0.8,0.7c-0.1,0.4,0,0.8,0.3,1l13.1,12.8l-3.1,18c-0.1,0.4,0.1,0.8,0.4,1c0.3,0.2,0.7,0.3,1.1,0.1l16.2-8.5
	l16.2,8.5c0.1,0.1,0.3,0.1,0.5,0.1c0.2,0,0.4-0.1,0.6-0.2c0.3-0.2,0.5-0.6,0.4-1l-3.1-18l13.1-12.8
	C179.5,22.3,179.6,21.9,179.5,21.6z"/>
<path d="M117.4,21.6c-0.1-0.4-0.4-0.6-0.8-0.7l-18.1-2.6L90.4,1.9c-0.2-0.3-0.5-0.6-0.9-0.6s-0.7,0.2-0.9,0.6l-8.1,16.4l-18.1,2.6
	c-0.4,0.1-0.7,0.3-0.8,0.7c-0.1,0.4,0,0.8,0.3,1L75,35.4l-3.1,18c-0.1,0.4,0.1,0.8,0.4,1c0.3,0.2,0.7,0.3,1.1,0.1l16.2-8.5l16.2,8.5
	c0.1,0.1,0.3,0.1,0.5,0.1c0.2,0,0.4-0.1,0.6-0.2c0.3-0.2,0.5-0.6,0.4-1l-3.1-18l13.1-12.8C117.4,22.3,117.5,21.9,117.4,21.6z"/>
</svg>
