<?xml version="1.0" encoding="utf-8"?>
<!-- Generator: Adobe Illustrator 22.1.0, SVG Export Plug-In . SVG Version: 6.00 Build 0)  -->
<svg version="1.1" id="Слой_1" xmlns="http://www.w3.org/2000/svg" xmlns:xlink="http://www.w3.org/1999/xlink" x="0px" y="0px"
	 viewBox="0 0 329.7 101.6" style="enable-background:new 0 0 329.7 101.6;" xml:space="preserve">
<style type="text/css">
	.st0{fill:#CCCCCC;}
	.st1{fill:#FFFFFF;}
	.st2{fill:#F0993C;}
	.st3{fill:url(#SVGID_1_);}
	.st4{fill:#66CCFF;}
	.st5{fill:#000066;}
	.st6{fill:#D05533;}
	.st7{fill:url(#SVGID_2_);}
</style>
<g transform="matrix( 1, 0, 0, 1, 0,0) ">
	<g>
		<g id="Layer0_0_FILL">
			<path class="st0" d="M225.4,83.9c-0.8-0.9-1.9-1.3-3.3-1.3c-0.9,0-1.8,0.2-2.5,0.6c-0.7,0.5-1.3,1.1-1.8,1.9
				c-0.4,0.8-0.6,1.7-0.6,2.7c0,1.6,0.5,2.9,1.4,3.8c1,0.9,2.3,1.4,3.9,1.4c0.7,0,1.5-0.1,2.2-0.4c0.7-0.2,1.3-0.5,1.8-0.9l-0.7-1.8
				c-0.9,0.7-2,1.1-3.1,1.1c-0.9,0-1.6-0.3-2.1-0.8c-0.5-0.5-0.8-1.3-0.8-2.3h6.9v-0.4C226.6,86.1,226.2,84.8,225.4,83.9
				 M222.1,84.4c0.7,0,1.2,0.2,1.6,0.6c0.4,0.4,0.6,1,0.7,1.8h-4.7c0.1-0.8,0.4-1.3,0.9-1.7C220.9,84.6,221.5,84.4,222.1,84.4
				 M243.2,85.9c0.9-0.8,1.3-1.8,1.3-3c0-1.3-0.4-2.3-1.3-3.1c-0.9-0.7-2.1-1.1-3.6-1.1h-6.1v14.2h2.5V87h3.6
				C241.1,87,242.3,86.6,243.2,85.9 M242,82.9c0,0.7-0.2,1.2-0.7,1.6c-0.5,0.4-1.2,0.5-2.1,0.6h-3.3v-4.3h3.3c0.9,0,1.6,0.2,2.1,0.6
				C241.8,81.6,242,82.1,242,82.9 M252.4,82.8c-0.3-0.1-0.6-0.1-1-0.1c-0.7,0-1.3,0.2-1.9,0.5c-0.6,0.3-1,0.8-1.2,1.5l-0.2-1.8h-2.4
				c0.1,0.8,0.1,1.8,0.1,2.8v7.2h2.5v-5.4c0-0.8,0.2-1.5,0.7-1.9c0.5-0.5,1.1-0.8,1.9-0.8c0.5,0,0.9,0.1,1.4,0.2V82.8 M262.4,85.1
				c-0.4-0.8-1-1.4-1.8-1.8c-0.8-0.4-1.6-0.6-2.6-0.6c-1,0-1.9,0.2-2.7,0.6c-0.8,0.4-1.4,1-1.8,1.8c-0.4,0.8-0.6,1.7-0.6,2.8
				s0.2,2,0.6,2.8c0.4,0.8,1,1.4,1.8,1.8c0.8,0.4,1.7,0.7,2.7,0.7c1,0,1.9-0.2,2.6-0.7c0.8-0.4,1.4-1,1.8-1.8
				c0.4-0.8,0.6-1.7,0.6-2.8S262.8,85.8,262.4,85.1 M256,85.4c0.5-0.6,1.1-0.8,2-0.8s1.5,0.3,1.9,0.8c0.5,0.6,0.7,1.4,0.7,2.5
				c0,1.1-0.2,1.9-0.7,2.4c-0.4,0.6-1.1,0.8-1.9,0.8c-0.8,0-1.5-0.3-1.9-0.8c-0.5-0.5-0.7-1.4-0.7-2.4C255.3,86.8,255.5,86,256,85.4
				 M278.6,82.6c-0.9,0-1.8,0.2-2.6,0.6c-0.7,0.5-1.3,1.1-1.8,1.9c-0.4,0.8-0.6,1.7-0.6,2.7c0,1.6,0.5,2.9,1.4,3.8
				c1,0.9,2.3,1.4,3.9,1.4c0.7,0,1.4-0.1,2.1-0.4c0.7-0.2,1.3-0.5,1.8-0.9l-0.7-1.8c-0.9,0.7-2,1.1-3.1,1.1c-0.9,0-1.6-0.3-2.1-0.8
				c-0.5-0.5-0.8-1.3-0.8-2.3h7v-0.4c0-1.6-0.4-2.8-1.2-3.7S280,82.6,278.6,82.6 M278.6,84.4c0.7,0,1.2,0.2,1.6,0.6
				c0.4,0.4,0.6,1,0.6,1.8h-4.7c0.1-0.8,0.4-1.3,0.8-1.7C277.4,84.6,277.9,84.4,278.6,84.4 M273.1,83.9c-0.4-0.4-0.9-0.7-1.6-0.9
				c-0.7-0.2-1.4-0.3-2.1-0.3c-1,0-2,0.2-2.8,0.6c-0.8,0.5-1.4,1.1-1.9,1.9c-0.4,0.8-0.6,1.7-0.6,2.8c0,1.1,0.2,2,0.6,2.8
				c0.4,0.8,1,1.4,1.8,1.8c0.8,0.4,1.7,0.7,2.8,0.7c0.7,0,1.5-0.1,2.2-0.4c0.7-0.2,1.2-0.5,1.6-0.9l-0.7-1.8
				c-0.4,0.4-0.9,0.6-1.4,0.8c-0.5,0.2-1,0.3-1.4,0.3c-0.9,0-1.6-0.3-2.1-0.8c-0.5-0.6-0.8-1.4-0.8-2.4s0.2-1.9,0.8-2.5
				s1.2-0.8,2.1-0.8c0.5,0,0.9,0.1,1.4,0.3c0.5,0.2,0.9,0.4,1.4,0.8L273.1,83.9 M132,83.4l2.9-1.8v9.2h-3.1v2.1h8.8v-2.1h-3.1V78.7
				h-1.5l-3.9,2.4V83.4 M152.2,85.8c0-2.4-0.5-4.2-1.4-5.4c-0.9-1.2-2.1-1.8-3.8-1.8s-3,0.6-3.9,1.9c-0.9,1.2-1.4,3-1.4,5.4
				c0,2.4,0.4,4.2,1.4,5.4c0.9,1.3,2.2,1.9,3.9,1.9s3-0.6,3.8-1.9C151.8,90,152.2,88.2,152.2,85.8 M149.1,81.9
				c0.4,0.8,0.6,2.1,0.6,3.9c0,1.8-0.2,3.2-0.6,4.1c-0.4,0.8-1.1,1.2-2,1.2c-0.9,0-1.6-0.4-2-1.2c-0.4-0.9-0.7-2.2-0.7-4.1
				c0-1.8,0.2-3.1,0.7-3.9c0.4-0.8,1.1-1.2,2-1.2C148,80.6,148.6,81,149.1,81.9 M163.8,85.8c0-2.4-0.5-4.2-1.4-5.4
				c-0.9-1.2-2.1-1.8-3.8-1.8s-3,0.6-3.9,1.9c-0.9,1.2-1.4,3-1.4,5.4c0,2.4,0.4,4.2,1.4,5.4c0.9,1.3,2.2,1.9,3.9,1.9s3-0.6,3.8-1.9
				C163.3,90,163.8,88.2,163.8,85.8 M160.6,81.9c0.4,0.8,0.6,2.1,0.6,3.9c0,1.8-0.2,3.2-0.6,4.1c-0.4,0.8-1.1,1.2-2,1.2
				c-0.9,0-1.6-0.4-2-1.2c-0.4-0.9-0.7-2.2-0.7-4.1c0-1.8,0.2-3.1,0.7-3.9c0.4-0.8,1.1-1.2,2-1.2C159.5,80.6,160.1,81,160.6,81.9
				 M178.6,84.4c-1.1,0-2,0.4-2.6,1.1c-0.6,0.7-0.9,1.8-0.9,3.2c0,1.4,0.3,2.5,0.9,3.3c0.6,0.7,1.5,1.1,2.6,1.1s2-0.4,2.7-1.1
				c0.6-0.8,0.9-1.9,0.9-3.2c0-1.4-0.3-2.5-0.9-3.2C180.7,84.8,179.8,84.4,178.6,84.4 M178.6,91.4c-0.5,0-0.9-0.2-1.1-0.6
				c-0.2-0.4-0.4-1.1-0.4-2.1c0-1,0.1-1.7,0.4-2.1c0.2-0.4,0.6-0.7,1.1-0.6c0.5,0,0.9,0.2,1.2,0.6c0.2,0.4,0.3,1.1,0.3,2.1
				c0,0.9-0.1,1.6-0.3,2.1C179.6,91.2,179.2,91.4,178.6,91.4 M171.1,86.1c0.7-0.7,1-1.8,1-3.2c0-1.4-0.3-2.5-1-3.2
				c-0.6-0.7-1.5-1.1-2.6-1.1c-1.1,0-2,0.4-2.6,1.1c-0.6,0.8-0.9,1.8-0.9,3.2c0,1.4,0.3,2.5,0.9,3.2c0.6,0.7,1.5,1.1,2.6,1.1
				C169.6,87.2,170.5,86.8,171.1,86.1 M170,82.9c0,1-0.1,1.7-0.4,2.1c-0.2,0.4-0.6,0.7-1.1,0.7c-0.5,0-0.9-0.2-1.1-0.7
				c-0.2-0.4-0.3-1.1-0.3-2.1c0-0.9,0.1-1.6,0.3-2.1c0.2-0.4,0.6-0.7,1.1-0.7s0.9,0.2,1.1,0.7C169.9,81.2,170,81.9,170,82.9
				 M178.8,78.7h-2.2l-8.2,14.2h2.2L178.8,78.7 M191.8,84.6v-3.9h6.8v-2.1h-9.3v14.2h2.6v-6.2h6.3v-2.1H191.8 M209.1,83.2
				c-0.7,0.5-1.3,1.1-1.8,1.9c-0.4,0.8-0.6,1.7-0.6,2.7c0,1.6,0.5,2.9,1.4,3.8c1,0.9,2.3,1.4,3.9,1.4c0.7,0,1.4-0.1,2.1-0.4
				c0.7-0.2,1.3-0.5,1.8-0.9l-0.7-1.8c-0.9,0.7-2,1.1-3.1,1.1c-0.9,0-1.6-0.3-2.1-0.8c-0.5-0.5-0.8-1.3-0.8-2.3h6.9v-0.4
				c0-1.6-0.4-2.8-1.2-3.7s-1.9-1.3-3.3-1.3C210.7,82.6,209.9,82.8,209.1,83.2 M210.1,85c0.4-0.4,0.9-0.6,1.6-0.6s1.2,0.2,1.6,0.6
				c0.4,0.4,0.6,1,0.6,1.8h-4.7C209.4,85.9,209.7,85.4,210.1,85 M199.8,82.9c0.1,0.8,0.1,1.8,0.1,2.8v7.2h2.5v-5.4
				c0-0.8,0.2-1.5,0.6-1.9c0.5-0.5,1.1-0.8,2-0.8c0.5,0,0.9,0.1,1.3,0.2v-2.3c-0.3-0.1-0.6-0.1-1-0.1c-0.7,0-1.3,0.2-1.8,0.5
				c-0.6,0.3-1,0.8-1.2,1.5l-0.2-1.8H199.8 M292.4,83.9c-0.5-0.4-1.1-0.7-1.8-1c-0.7-0.2-1.4-0.3-2.1-0.3c-0.8,0-1.6,0.1-2.2,0.4
				c-0.6,0.3-1.1,0.6-1.5,1.1c-0.3,0.5-0.5,1-0.5,1.6c0,1.5,0.9,2.4,2.8,2.8l1.7,0.4c0.5,0.1,0.9,0.3,1.1,0.4s0.4,0.4,0.4,0.8
				s-0.2,0.6-0.5,0.8c-0.3,0.2-0.8,0.3-1.4,0.3c-1.4,0-2.6-0.4-3.7-1.2l-0.7,1.8c1.1,0.8,2.5,1.2,4.4,1.2c1.3,0,2.3-0.3,3.1-0.8
				c0.8-0.6,1.1-1.3,1.1-2.2c0-0.7-0.2-1.4-0.7-1.9c-0.5-0.5-1.2-0.8-2.2-1.1l-1.7-0.3c-0.5-0.1-0.8-0.3-1-0.4s-0.3-0.4-0.3-0.7
				c0-0.4,0.2-0.7,0.5-0.9c0.3-0.2,0.7-0.3,1.3-0.3c1.1,0,2.1,0.4,3.1,1.1L292.4,83.9 M306.2,82.9h-2.5v10.1h2.5V82.9 M303.5,80.7
				h2.8v-2.4h-2.8V80.7 M301.1,85.6l0.8-1.7c-0.5-0.4-1.1-0.7-1.8-1c-0.7-0.2-1.4-0.3-2.1-0.3c-0.8,0-1.6,0.1-2.2,0.4
				c-0.6,0.3-1.1,0.6-1.5,1.1c-0.3,0.5-0.5,1-0.5,1.6c0,1.5,0.9,2.4,2.8,2.8l1.7,0.4c0.5,0.1,0.9,0.3,1.1,0.4s0.4,0.4,0.4,0.8
				s-0.2,0.6-0.5,0.8c-0.3,0.2-0.8,0.3-1.4,0.3c-1.4,0-2.6-0.4-3.7-1.2l-0.7,1.8c1.1,0.8,2.5,1.2,4.4,1.2c1.3,0,2.3-0.3,3.1-0.8
				c0.8-0.6,1.1-1.3,1.1-2.2c0-0.7-0.2-1.4-0.7-1.9c-0.5-0.5-1.2-0.8-2.2-1.1l-1.7-0.3c-0.5-0.1-0.8-0.3-1-0.4s-0.3-0.4-0.3-0.7
				c0-0.4,0.2-0.7,0.5-0.9c0.3-0.2,0.7-0.3,1.3-0.3C299.1,84.4,300.1,84.8,301.1,85.6 M313.4,84.6c0.6,0,1.1,0.2,1.4,0.6
				c0.3,0.4,0.4,0.9,0.4,1.8v6.1h2.5v-6.2c0-2.8-1.2-4.1-3.6-4.1c-0.8,0-1.4,0.2-2,0.5c-0.6,0.3-1.1,0.8-1.5,1.4l-0.1-1.6h-2.4
				c0.1,0.8,0.1,1.8,0.1,2.8v7.2h2.5v-5.7c0-0.8,0.2-1.4,0.7-1.9C312,84.8,312.6,84.6,313.4,84.6 M323.9,82.6
				c-0.9,0-1.6,0.2-2.4,0.6c-0.7,0.4-1.2,1-1.6,1.8c-0.4,0.8-0.6,1.6-0.6,2.6c0,1,0.2,1.8,0.6,2.6c0.4,0.8,0.9,1.4,1.6,1.8
				c0.7,0.4,1.5,0.6,2.4,0.6c0.7,0,1.4-0.2,2-0.5c0.6-0.3,1-0.8,1.4-1.3v2c0,1.8-0.9,2.6-2.7,2.6c-1.2,0-2.4-0.3-3.6-0.9l-0.4,1.9
				c1.2,0.7,2.5,1,4.1,1c1.7,0,2.9-0.4,3.8-1.2c0.9-0.8,1.3-2,1.3-3.6v-9.8h-2.5v1.5c-0.3-0.5-0.8-1-1.4-1.3
				C325.3,82.8,324.6,82.6,323.9,82.6 M322.6,85.4c0.5-0.5,1.1-0.8,2-0.8c0.8,0,1.5,0.3,1.9,0.8c0.5,0.6,0.7,1.3,0.7,2.3
				c0,0.9-0.2,1.7-0.7,2.2c-0.5,0.5-1.1,0.8-1.9,0.8c-0.8,0-1.5-0.3-2-0.8c-0.5-0.6-0.8-1.3-0.8-2.2
				C321.9,86.7,322.1,85.9,322.6,85.4z"/>
			<path class="st1" d="M142.8,7L142.8,7c-2.3,0.6-4.3,1.4-6,2.5c-1.7,1.1-3.1,2.5-4.2,4.1c-1,1.6-1.5,3.5-1.5,5.7
				c0,2.2,0.6,4.2,1.7,5.8h0c0.6,1,1.4,1.9,2.2,2.7l-0.1-0.1c0.6,0.8,1.2,1.5,1.9,2.2c1.6,1.5,3.4,2.8,5.4,3.9h0.1l12.1,6.3l0,0
				c1.3,0.6,2.5,1.4,3.6,2.2l0.1,0c1.2,0.9,2.2,2,3,3.3v0.1c0.8,1.2,1.2,2.8,1.2,4.6c0,3.1-0.9,5.6-2.8,7.4
				c-1.9,1.9-4.6,2.8-8.2,2.8c-3.4,0-6.6-0.5-9.7-1.6h0.1c-3-1.1-6.3-3.3-9.7-6.4c-0.2-0.1-0.4-0.2-0.6-0.2c-0.2,0-0.4,0.1-0.6,0.2
				c-0.2,0.2-0.2,0.4-0.2,0.6v6.6c0,0.1,0,0.2,0.1,0.3c0.1,0.1,0.1,0.3,0.2,0.3c3.1,2.3,6.3,3.8,9.4,4.7l0,0
				c3.1,0.9,6.6,1.4,10.6,1.4c3.2,0,6.1-0.4,8.6-1.3l0,0c2.6-0.7,4.9-1.9,6.8-3.5l0,0c1.9-1.5,3.4-3.4,4.5-5.5
				c1.1-2.1,1.6-4.5,1.6-7.2c0-3.3-0.6-6.1-1.8-8.3h-0.1c-1.2-2.1-2.8-4-4.8-5.4l0,0c-1.9-1.4-4-2.7-6.3-3.8
				c-1.4-0.6-2.8-1.3-4.2-1.9l-6.2-3.2l0,0c-0.3-0.2-0.6-0.3-1-0.4c0,0,0,0-0.1,0c0,0,0,0-0.1-0.1c-1.6-0.8-3.2-1.8-4.6-3
				c0,0,0,0-0.1,0c-0.5-0.5-0.9-1-1.2-1.5l0.1,0c-0.5-0.8-0.7-1.7-0.7-2.8c0-2.1,0.8-3.8,2.5-5.2l0,0c1.8-1.4,4.6-2,8.4-2
				c2.7,0,5.3,0.4,7.8,1.2l0,0c1.3,0.4,2.7,0.9,4,1.5c0.5,0.2,1,0.5,1.5,0.8c0.2,0.1,0.4,0.1,0.5,0c0.2,0,0.4-0.1,0.5-0.2
				c0.1-0.2,0.2-0.3,0.2-0.5V9.2c0-0.2-0.1-0.4-0.2-0.5c-0.1-0.1-0.2-0.2-0.4-0.3c-0.5-0.1-0.9-0.2-1.4-0.3
				c-0.3-0.1-0.5-0.2-0.8-0.3c0,0-0.1,0-0.1,0c-1.4-0.4-2.8-0.7-4.2-1c0,0,0,0,0,0c-1.4-0.2-2.9-0.4-4.4-0.5
				c-1.5-0.1-3.1-0.2-4.8-0.2C147.7,6.1,145.2,6.4,142.8,7 M198.1,21.3c-0.2,0.2-0.2,0.4-0.2,0.6v43.2c0,0.2,0.1,0.4,0.2,0.6
				c0.2,0.2,0.4,0.2,0.6,0.2h7.6c0.2,0,0.4-0.1,0.6-0.2c0.2-0.2,0.2-0.4,0.2-0.6V21.9c0-0.2-0.1-0.4-0.2-0.6
				c-0.2-0.2-0.4-0.2-0.6-0.2h-7.6C198.4,21.1,198.2,21.1,198.1,21.3 M206.8,4.1c-0.2-0.2-0.4-0.2-0.6-0.2h-7.6
				c-0.2,0-0.4,0.1-0.6,0.2c-0.2,0.2-0.2,0.4-0.2,0.6v7.7c0,0.2,0.1,0.3,0.1,0.5c0.1,0.2,0.2,0.3,0.4,0.3c0.2,0.1,0.3,0.1,0.5,0.1
				c5.6-1.1,8.3-3.9,8.2-8.5C207,4.5,207,4.3,206.8,4.1 M186.8,3.4c-0.2-0.2-0.4-0.2-0.6-0.2h-7.6c-0.2,0-0.4,0.1-0.6,0.2
				c-0.2,0.2-0.2,0.4-0.2,0.6v49.5c0,3.9,1.2,6.9,3.6,9.2l0,0c2.3,2.2,5.2,3.3,8.7,3.4h3.6c0.2,0,0.4-0.1,0.6-0.2
				c0.2-0.2,0.2-0.4,0.2-0.6v-3.3c0-0.2-0.1-0.4-0.2-0.6c-0.2-0.2-0.4-0.2-0.6-0.2c-2.1,0-3.8-0.6-4.9-1.8c-1.1-1.3-1.7-3-1.7-5.3V4
				C187.1,3.8,187,3.6,186.8,3.4 M249.1,23.8c-0.1-0.1-0.2-0.2-0.4-0.3c-2.6-1.1-5.1-1.8-7.6-2.3c-2.5-0.4-4.8-0.6-6.9-0.7
				c-3.7,0-6.9,0.6-9.6,1.7c-2.7,1.2-4.9,2.7-6.8,4.8c-1.8,2.1-3.2,4.6-4.1,7.3h0.1c-0.9,2.8-1.3,5.8-1.3,9.2c0,3.3,0.4,6.4,1.3,9.2
				h-0.1c0.9,2.8,2.2,5.3,4.1,7.3c1.8,2,4.1,3.6,6.8,4.8c2.7,1.2,6,1.7,9.6,1.8c2.5,0,5-0.3,7.5-0.9c2.7-0.6,5.2-1.7,7.6-3.3
				c0.1-0.1,0.2-0.2,0.3-0.3c0.1-0.1,0.1-0.3,0.1-0.4V56c0-0.2-0.1-0.4-0.2-0.6c-0.1-0.2-0.3-0.2-0.5-0.2c-0.2,0-0.4,0.1-0.6,0.2
				c-2.5,2.2-5,3.6-7.5,4.4h0c-2.5,0.8-4.7,1.2-6.6,1.2c-2.6,0-4.7-0.5-6.4-1.6v0.1c-1.6-1.1-2.8-2.4-3.8-4.1v0.1
				c-0.9-1.7-1.5-3.6-1.9-5.7c-0.3-2.1-0.5-4.1-0.5-6.2c0-2.1,0.2-4.1,0.5-6.2c0.3-2.1,1-4,1.9-5.7c0.9-1.6,2.2-3,3.8-4l0,0
				c1.7-1,3.8-1.5,6.4-1.5c1.9,0,3.9,0.3,6.1,0.8c2.2,0.6,4.8,1.9,7.5,3.8c0.2,0.1,0.4,0.2,0.6,0.2c0.2,0,0.4-0.1,0.5-0.3
				c0.2-0.2,0.2-0.3,0.2-0.6v-5.6C249.2,24.1,249.1,24,249.1,23.8 M293.4,44.9c0-3.3-0.2-6.5-0.7-9.4c-0.5-2.9-1.4-5.5-2.8-7.8
				c-1.3-2.2-3.2-4-5.6-5.2c-2.4-1.3-5.7-1.9-9.8-2c-3.8,0-7,0.6-9.8,1.7c-2.8,1.2-5,2.8-6.8,4.8c-1.7,2.1-3,4.5-3.9,7.3
				c-0.8,2.8-1.2,5.8-1.2,9.2c0,3.3,0.4,6.4,1.3,9.2h-0.1c0.9,2.8,2.2,5.3,4,7.3l0,0c1.8,2,4.1,3.6,6.8,4.8c2.7,1.2,5.9,1.7,9.6,1.8
				c2.8,0,5.6-0.4,8.5-1.1c2.8-0.7,5.4-1.7,7.8-3.1c0.2-0.1,0.3-0.2,0.4-0.3c0.1-0.1,0.1-0.2,0.1-0.4V56c0-0.2-0.1-0.4-0.2-0.6
				c-0.1-0.1-0.3-0.2-0.6-0.2c-0.2,0-0.4,0-0.5,0.1c-3,2.2-5.7,3.7-8.1,4.5c-2.4,0.8-4.8,1.3-7.2,1.2c-2.5,0-4.6-0.5-6.2-1.5
				c-1.6-1-2.8-2.2-3.6-3.8c-0.9-1.5-1.5-3.3-2-5.2l0.1,0.1c-0.3-1.6-0.4-3.2-0.5-4.8h30.2c0.2,0,0.4-0.1,0.6-0.2
				C293.3,45.3,293.4,45.1,293.4,44.9 M282.6,30.4c0.7,1.4,1.1,3,1.3,4.8c0.2,1.6,0.3,3.3,0.3,5h-21.9c0.1-1.7,0.3-3.3,0.6-4.9
				c0.5-1.8,1.2-3.4,2.2-4.8v0c0.9-1.3,2.1-2.4,3.6-3.2c1.5-0.8,3.3-1.2,5.4-1.2c2.3,0,4.1,0.4,5.4,1.2v0
				C281,28,281.9,29.1,282.6,30.4L282.6,30.4 M34.2,47.7c3.7,0,6.9-1.3,9.6-4c2.7-2.7,4-5.9,4-9.6c0-3.7-1.3-7-4-9.6
				c-2.7-2.6-5.8-4-9.6-4c-3.7,0-7,1.3-9.7,4c-0.3,0.3-0.6,0.7-0.9,1.1c-1.8,2.3-2.8,4.8-2.9,7.7c-0.1,0.3-0.1,0.6-0.1,0.9
				c0,3.7,1.3,6.9,3.8,9.6C27.2,46.4,30.5,47.7,34.2,47.7 M41.3,27c2,2,3,4.4,3,7.2c0,2.7-1,5.1-3,7.1c-2,2-4.3,3-7,3
				c-2.8,0-5.2-1-7.2-3c-1.9-2-2.8-4.3-2.8-7.1c0-0.2,0-0.5,0-0.6c0.1-2.1,0.8-4,2.2-5.7c0.2-0.3,0.4-0.6,0.6-0.9
				c2-1.9,4.4-2.9,7.2-2.9C37,24.1,39.3,25,41.3,27z"/>
			<path class="st2" d="M80.7,80.1l-0.6-0.5L51,61v31.8C62.4,91.7,72.3,87.5,80.7,80.1z"/>
			
				<linearGradient id="SVGID_1_" gradientUnits="userSpaceOnUse" x1="22.987" y1="95.6135" x2="34.337" y2="-0.1365" gradientTransform="matrix(1 0 0 -1 0 101.6)">
				<stop  offset="0" style="stop-color:#2FDFDD"/>
				<stop  offset="0.5765" style="stop-color:#2180DD"/>
				<stop  offset="1" style="stop-color:#001F78"/>
			</linearGradient>
			<path class="st3" d="M51,61V51V0C36.8,0,24.7,4.9,14.8,14.8C4.9,24.7,0,36.8,0,51c0,13.9,4.9,25.8,14.8,35.7
				c9.9,9.9,22,14.8,36.2,14.8v-8.8V61 M43.8,43.7c-2.7,2.7-5.8,4-9.6,4c-3.7,0-7-1.3-9.7-4c-2.6-2.7-3.8-5.9-3.8-9.6
				c0-0.3,0-0.6,0.1-0.9c0.1-2.8,1.1-5.4,2.9-7.7c0.3-0.4,0.6-0.8,0.9-1.1c2.7-2.6,6-4,9.7-4c3.7,0,6.9,1.3,9.6,4
				c2.7,2.7,4,5.9,4,9.6C47.8,37.8,46.4,41,43.8,43.7z"/>
			<path class="st4" d="M44.3,34.1c0-2.8-1-5.2-3-7.2c-2-1.9-4.3-2.9-7-2.9c-2.8,0-5.2,1-7.2,2.9c-0.2,0.3-0.5,0.6-0.6,0.9
				c-1.4,1.7-2.1,3.6-2.2,5.7c0,0.2,0,0.4,0,0.6c0,2.7,1,5.1,2.8,7.1c2,2,4.4,3,7.2,3c2.7,0,5-1,7-3C43.3,39.2,44.3,36.9,44.3,34.1
				 M38.9,29.3c1.4,1.3,2.1,2.9,2.1,4.8c0,1.9-0.7,3.5-2.1,4.8c-1.3,1.3-2.9,2-4.8,2c-1.9,0-3.5-0.7-4.8-2c-1.3-1.3-2-2.9-2-4.8
				c0-0.1,0-0.2,0-0.3c0.1-1.3,0.5-2.5,1.2-3.5c0.2-0.3,0.5-0.7,0.8-1c1.3-1.3,2.9-2,4.8-2C36,27.3,37.6,28,38.9,29.3z"/>
			<path class="st5" d="M41,34.1c0-1.9-0.7-3.5-2.1-4.8c-1.3-1.3-2.9-2-4.8-2c-1.9,0-3.5,0.7-4.8,2c-0.3,0.3-0.5,0.6-0.8,1
				c-0.8,1-1.2,2.2-1.2,3.5c0,0.1,0,0.2,0,0.3c0,1.9,0.7,3.5,2,4.8c1.3,1.3,2.9,2,4.8,2c1.9,0,3.5-0.7,4.8-2
				C40.3,37.6,41,36,41,34.1z"/>
			<path class="st6" d="M51,51V61l29.1,18.7L51,51z"/>
			
				<linearGradient id="SVGID_2_" gradientUnits="userSpaceOnUse" x1="50.45" y1="58.5" x2="101" y2="58.5" gradientTransform="matrix(1 0 0 -1 0 101.6)">
				<stop  offset="0" style="stop-color:#FCEB43"/>
				<stop  offset="1" style="stop-color:#F18750"/>
			</linearGradient>
			<path class="st7" d="M86.8,14.8C76.9,4.9,64.9,0,51,0v51l29.1,28.6l0.6,0.5l6.6,6.1c9.5-9.9,14.2-21.6,14.2-35.1
				C101.6,36.8,96.6,24.7,86.8,14.8z"/>
		</g>
	</g>
</g>
</svg>
