<?xml version="1.0" encoding="utf-8"?><svg xmlns="http://www.w3.org/2000/svg" xmlns:xlink="http://www.w3.org/1999/xlink"><symbol viewBox="0 0 512 512" id="24-hours" xmlns="http://www.w3.org/2000/svg"><path d="M63.26 340.44c-7.81 7.81-7.81 20.48 0 28.29 3.9 3.9 9.02 5.85 14.14 5.85s10.24-1.95 14.14-5.85c7.81-7.81 7.81-20.47 0-28.29-7.81-7.81-20.47-7.81-28.28 0zm-36.05-67.89c-10.2 4.23-15.04 15.93-10.81 26.14 3.19 7.69 10.64 12.34 18.48 12.34 2.55 0 5.15-.49 7.65-1.53 10.21-4.23 15.05-15.93 10.82-26.13-4.24-10.21-15.94-15.05-26.14-10.82zm-9.453-36.686c.099.011.197.026.296.035A18 18 0 0020 236c.642 0 1.294-.03 1.946-.098.1-.01.199-.024.299-.036a19.855 19.855 0 007.716-2.54 19.665 19.665 0 001.475-.931c.382-.265.754-.542 1.111-.83.119-.096.236-.194.353-.292a18.479 18.479 0 001.342-1.238 20.055 20.055 0 002.516-3.135c.199-.307.389-.621.57-.939a19.83 19.83 0 002.538-7.714c.011-.1.026-.198.036-.299.068-.654.098-1.306.098-1.948 0-97.047 78.953-176 176-176s176 78.953 176 176v53.773l-39.977-39.978c-7.811-7.811-20.474-7.812-28.284 0-7.811 7.81-7.811 20.474 0 28.284l43.174 43.175c12.477 12.477 28.866 18.715 45.255 18.715 16.389 0 32.778-6.238 45.255-18.715l41.719-41.719c7.811-7.811 7.811-20.474 0-28.284-7.811-7.81-20.474-7.811-28.284 0L432 270.109V216c0-57.696-22.468-111.938-63.265-152.735C327.938 22.468 273.696 0 216 0 158.304 0 104.062 22.468 63.265 63.265S0 158.304 0 216c0 .642.03 1.294.098 1.947.01.099.024.196.035.295a19.836 19.836 0 002.538 7.714c.182.32.373.635.573.943.454.697.947 1.364 1.482 1.997a18.298 18.298 0 001.232 1.336c.366.362.752.713 1.15 1.045a18.812 18.812 0 001.458 1.117 19.447 19.447 0 001.475.931 19.838 19.838 0 007.716 2.539zM148.61 378.64c-10.2-4.23-21.9.61-26.14 10.81-4.23 10.2.61 21.91 10.81 26.14 2.51 1.04 5.11 1.53 7.66 1.53 7.85 0 15.29-4.64 18.48-12.34 4.23-10.2-.61-21.91-10.81-26.14zm87 29.45a20.157 20.157 0 00-1.14-3.74c-.25-.6-.53-1.2-.83-1.77-.31-.58-.65-1.14-1.01-1.68-.36-.55-.75-1.08-1.16-1.58-.42-.51-.86-1-1.32-1.46-.46-.46-.96-.91-1.46-1.32-.51-.41-1.04-.81-1.58-1.17-.55-.36-1.11-.7-1.69-1-.57-.31-1.17-.59-1.77-.84a20.157 20.157 0 00-3.74-1.14 19.85 19.85 0 00-9.71.48c-.62.19-1.24.41-1.85.66-.6.25-1.19.53-1.77.84-.57.3-1.14.64-1.68 1s-1.07.76-1.58 1.17c-.51.41-1 .86-1.46 1.32s-.91.95-1.32 1.46c-.41.5-.8 1.03-1.17 1.58-.35.54-.69 1.1-1 1.68-.3.57-.59 1.17-.83 1.77-.25.6-.48 1.22-.66 1.84-.19.63-.36 1.27-.48 1.9-.13.64-.23 1.3-.3 1.94-.06.66-.1 1.32-.1 1.97 0 .65.04 1.31.1 1.97.07.64.17 1.3.3 1.94.12.64.29 1.27.48 1.9.18.62.41 1.24.66 1.84.24.6.53 1.2.83 1.77.31.58.65 1.14 1 1.68.37.55.76 1.08 1.17 1.58.41.51.86 1 1.32 1.46.46.46.95.91 1.46 1.32.51.41 1.04.81 1.58 1.17.54.36 1.11.7 1.68 1 .58.31 1.17.59 1.77.84.61.25 1.23.47 1.85.66s1.26.35 1.9.48c.64.13 1.29.23 1.94.29.65.07 1.31.1 1.96.1.66 0 1.32-.03 1.97-.1.65-.06 1.3-.16 1.94-.29a20.308 20.308 0 003.74-1.14c.6-.25 1.2-.53 1.77-.84.58-.3 1.14-.64 1.69-1 .54-.36 1.07-.76 1.58-1.17.5-.41 1-.86 1.46-1.32s.9-.95 1.32-1.46c.41-.5.8-1.03 1.16-1.58.36-.54.7-1.1 1.01-1.68.3-.57.58-1.17.83-1.77a20.157 20.157 0 001.14-3.74c.13-.64.23-1.3.29-1.94.07-.66.1-1.32.1-1.97 0-.65-.03-1.31-.1-1.97-.06-.64-.16-1.3-.29-1.94zM354 472h-14.325c29.215-33.117 33.036-49.442 33.036-60 0-27.57-22.43-50-50-50-.12 0-.236.016-.355.018-.12-.002-.236-.018-.356-.018-27.57 0-50 22.43-50 50 0 11.046 8.954 20 20 20s20-8.954 20-20c0-5.42 4.58-10 10-10 .12 0 .236-.016.355-.018.12.002.235.018.355.018 5.351 0 9.881 4.462 9.998 9.79-.195 1.029-2.658 11.331-26.191 37.282-13.94 15.374-27.811 27.984-27.945 28.106A20.001 20.001 0 00292 512h62c11.046 0 20-8.954 20-20s-8.954-20-20-20zm138-110c-11.046 0-20 8.954-20 20v24.5c0 7.995-6.505 14.5-14.5 14.5s-14.5-6.505-14.5-14.5V382c0-11.046-8.954-20-20-20s-20 8.954-20 20v24.5c0 30.051 24.449 54.5 54.5 54.5 5.021 0 9.88-.697 14.5-1.974V492c0 11.046 8.954 20 20 20s20-8.954 20-20V382c0-11.046-8.954-20-20-20z"/><path d="M216 80c-11.046 0-20 8.954-20 20v107.716l-50.142 50.142c-7.811 7.81-7.811 20.473 0 28.284C149.763 290.047 154.881 292 160 292s10.237-1.953 14.142-5.858l56-56A19.998 19.998 0 00236 216V100c0-11.046-8.954-20-20-20z"/></symbol><symbol viewBox="0 0 511.999 511.999" id="analytics" xmlns="http://www.w3.org/2000/svg"><path d="M45.33 283.02L5.634 323.94c-7.675 7.913-7.484 20.55.429 28.226A19.889 19.889 0 0019.96 357.8c5.21 0 10.416-2.028 14.329-6.062l39.696-40.92c7.675-7.913 7.484-20.55-.429-28.226-7.913-7.677-20.55-7.485-28.226.428zm92.401 12.9c-11.023 0-19.961 8.937-19.961 19.961v175.658c0 11.023 8.937 19.961 19.961 19.961h.001c11.023 0 19.961-8.937 19.961-19.961l-.002-175.659c0-11.023-8.936-19.96-19.96-19.96zm77.848-43.913c-11.023 0-19.961 8.937-19.961 19.961v219.571c0 11.023 8.937 19.961 19.961 19.961s19.961-8.937 19.961-19.961V271.967c-.001-11.023-8.937-19.96-19.961-19.96zM452.116.498h-59.883c-11.024 0-19.961 8.937-19.961 19.961s8.937 19.961 19.961 19.961h52.61l-146.57 146.539c-3.932 3.933-9.078 6.17-14.167 6.17-.107 0-.216-.001-.323-.003-4.901-.092-9.91-2.339-13.738-6.168l-23.468-23.468c-11.489-11.489-26.741-18.149-41.848-18.273l-.439-.001c-15.636 0-31.25 6.835-42.919 18.799l-42.776 42.969c-7.778 7.813-7.75 20.451.063 28.229a19.896 19.896 0 0014.082 5.815 19.899 19.899 0 0014.146-5.879l42.854-43.046c.059-.058.116-.117.174-.176 4.168-4.293 9.6-6.839 14.488-6.79 4.651.038 9.865 2.498 13.948 6.581l23.468 23.468c11.226 11.227 25.866 17.568 41.223 17.854 15.969.3 31.822-6.209 43.463-17.852L472.077 69.644v49.622c0 11.024 8.937 19.961 19.961 19.961s19.961-8.937 19.961-19.961V60.381c0-33.019-26.863-59.883-59.883-59.883zM58.952 385.746c-11.05-.038-20.029 8.91-20.029 19.961v85.832c0 11.023 8.937 19.961 19.961 19.961h.001c11.024 0 19.961-8.937 19.961-19.961v-85.832c-.001-10.998-8.895-19.924-19.894-19.961zm392.166-214.581c-11.024 0-19.961 8.937-19.961 19.961V491.54c0 11.023 8.937 19.961 19.961 19.961h.001c11.023 0 19.961-8.937 19.961-19.961V191.126c-.001-11.025-8.937-19.961-19.962-19.961zM293.426 276.958c-11.024 0-19.961 8.937-19.961 19.961v194.62c0 11.023 8.937 19.961 19.961 19.961h.001c11.023 0 19.961-8.937 19.961-19.961v-194.62c-.001-11.024-8.937-19.961-19.962-19.961zm78.774-37.926c-10.996.04-19.888 8.966-19.888 19.961V491.54c0 11.023 8.937 19.961 19.961 19.961h.001c11.023 0 19.961-8.937 19.961-19.961V258.993c-.002-11.053-8.983-20.002-20.035-19.961z"/></symbol><symbol viewBox="0 0 200 200" id="arrow-top" xmlns="http://www.w3.org/2000/svg"><path d="M101 44l80.6 80.6c2.7 2.7 4 6.2 4 9.7s-1.3 7-4 9.7c-5.4 5.4-14.1 5.4-19.5 0L101 82.9 39.9 144c-5.4 5.4-14.1 5.4-19.5 0s-5.4-14.1 0-19.5L101 44z"/></symbol><symbol viewBox="0 0 512 512" id="bank" xmlns="http://www.w3.org/2000/svg"><circle cx="256" cy="108" r="20"/><path d="M492 470H20c-11.046 0-20 8.954-20 20s8.954 20 20 20h472c11.046 0 20-8.954 20-20s-8.954-20-20-20zm20-343a20 20 0 00-11.885-18.28l-236.5-105a19.997 19.997 0 00-16.26.013l-235.5 105A20.002 20.002 0 000 127v53c0 .169.021.332.025.5-.004.168-.025.331-.025.5 0 11.046 8.954 20 20 20 11.743 0 17 10.045 17 20v186.516c0 .419.038.829.063 1.242-.026.413-.063.823-.063 1.242 0 11.046 8.954 20 20 20h400c11.046 0 20-8.954 20-20s-8.954-20-20-20h-60V221c0-11.028 8.972-20 20-20s20 8.972 20 20v88.517c0 11.046 8.954 20 20 20s20-8.954 20-20V221c0-4.692 1.082-20 15-20 11.046 0 20-8.954 20-20 0-.169-.021-.332-.025-.5.004-.168.025-.331.025-.5v-53zM117 390H77V221c0-11.028 8.972-20 20-20s20 8.972 20 20v169zm80 0h-40V221c0-11.028 8.972-20 20-20s20 8.972 20 20v169zm80 0h-40V221c0-11.028 8.972-20 20-20s20 8.972 20 20v169zm80 0h-40V221c0-11.028 8.972-20 20-20s20 8.972 20 20v169zm115-230H40v-20.019L255.518 43.89 472 140.003V160z"/></symbol><symbol viewBox="0 0 512 512" id="book" xmlns="http://www.w3.org/2000/svg"><path d="M492 222c11.046 0 20-8.954 20-20V50a20.002 20.002 0 00-25.522-19.223c-23.165 6.653-52.691 4.776-90.074 2.398C372.997 31.687 346.467 30 316 30c-23.877 0-45.329 10.528-60 27.169C241.329 40.528 219.877 30 196 30c-30.467 0-56.997 1.687-80.404 3.176-37.381 2.377-66.909 4.254-90.074-2.398A20 20 0 000 50v331.796c-.055 21.407 8.241 41.543 23.358 56.7C38.477 453.653 58.592 462 80 462h156c0 11.046 8.954 20 20 20s20-8.954 20-20h156c44.112 0 80-35.888 80-80v-80c0-11.046-8.954-20-20-20s-20 8.954-20 20c0 22.056-17.944 40-40 40H286c-3.424 0-6.768.347-10 1.006V110c0-22.056 17.944-40 40-40 29.196 0 55.053 1.645 77.865 3.095 29.834 1.897 55.131 3.505 78.135 1.009V202c0 11.046 8.954 20 20 20zM236 422H80c-10.704 0-20.762-4.174-28.321-11.752C44.12 402.67 39.973 392.602 40 381.847v-10.61A79.475 79.475 0 0080 382h146c5.514 0 10 4.486 10 10v30zm0-78.994A50.011 50.011 0 00226 342H80c-22.056 0-40-17.944-40-40V74.105c23.003 2.495 48.302.887 78.135-1.01C140.948 71.645 166.804 70 196 70c22.056 0 40 17.944 40 40v233.006zM286 382h146a79.475 79.475 0 0040-10.763V382c0 22.056-17.944 40-40 40H276v-30c0-5.514 4.487-10 10-10z"/></symbol><symbol viewBox="0 0 512 512" id="brain" xmlns="http://www.w3.org/2000/svg"><path d="M460.973 440.671c-3.492-10.479-14.818-16.14-25.298-12.649-10.479 3.493-16.142 14.819-12.649 25.298 9.854 29.565 24.156 49.549 24.76 50.385 3.91 5.414 10.026 8.292 16.23 8.292 4.057 0 8.152-1.231 11.693-3.788 8.954-6.468 10.97-18.969 4.503-27.924-.112-.155-11.426-16.174-19.239-39.614z"/><path d="M511.997 222.998c0-20.749-8.642-39.9-23.355-53.218a72.504 72.504 0 003.035-20.793c0-35.871-26.37-65.691-60.74-71.113C424.71 44.422 395.164 19 359.738 19a70.712 70.712 0 00-41.313 13.295C304.007 12.559 280.808 0 255.375 0c-25.622 0-48.405 12.465-62.677 31.685C181.012 23.561 167.001 19 152.262 19c-35.426 0-64.971 25.422-71.198 58.874-34.371 5.421-60.741 35.243-60.741 71.113 0 8.556 2.011 18.736 5.291 27.893C9.185 193.07.003 212.921.003 232.998c0 39.701 32.299 71.999 71.999 71.999 13.625 0 24.095-1.482 33.332-2.79 10.12-1.433 19.189-2.706 32.145-2.223 10.18 27.42 36.604 47.013 67.522 47.013 15.939 0 33.589-.373 51.909-1.906.61.701 1.255 1.381 1.976 2.007 37.974 32.975 77.239 67.071 116.947 153.266 3.373 7.322 10.612 11.637 18.178 11.637 2.8 0 5.646-.591 8.355-1.84 10.032-4.621 14.418-16.501 9.797-26.533-18.339-39.81-36.89-69.686-55.164-93.496 22.823 5.639 45.861 8.865 66.499 8.865 38.874 0 70.499-31.626 70.499-70.499 0-16.824-5.965-32.291-15.907-44.424 20.349-12.737 33.907-35.351 33.907-61.076zm-71.999 31.999c-1.165 0-2.328.102-3.476.305l-17 3c-10.212 1.802-17.353 11.109-16.448 21.439.905 10.33 9.554 18.256 19.924 18.256 17.093 0 31 13.683 31 30.5s-13.682 30.5-30.5 30.5c-32.38 0-72.806-9.638-105.513-24.128 11.279-3.052 22.39-6.847 33.097-11.578 10.103-4.465 14.674-16.273 10.21-26.377-4.465-10.104-16.273-14.676-26.377-10.211-40.707 17.987-90.811 20.294-129.915 20.294-17.645 0-32-14.355-32-32s14.355-32 32-32c28.001 0 49.221-4.393 64.874-13.43C288.012 219.097 298 202.204 298 181.998c0-33.084-26.916-59.999-59.999-59.999-11.046 0-20 8.954-20 20s8.954 20 20 20c11.028 0 20 8.972 20 20 0 18.271-33.206 21-52.999 21-34.528 0-63.444 24.435-70.397 56.917-14.412-.198-25.118 1.306-34.877 2.688-8.7 1.231-16.917 2.395-27.725 2.395-17.645 0-32-14.355-32-32 0-16.506 14.747-29.234 21.087-33.94a20 20 0 008.048-17.165l-.166-3a19.993 19.993 0 00-2.891-9.302c-3.067-5.034-5.758-14.662-5.758-20.604 0-15.021 10.405-27.65 24.385-31.077 10.49 26.93 36.807 46.087 67.555 46.087 11.046 0 20-8.954 20-20s-8.954-20-20-20c-17.88 0-32.427-14.355-32.427-32 0-.169-.021-.332-.025-.5.004-.168.025-.331.025-.5 0-17.645 14.546-32 32.427-32 10.173 0 19.29 4.782 25.21 12.992a79.797 79.797 0 00-.305 6.717c0 11.046 8.954 20 20 20s20-8.954 20-20c0-21.344 17.14-38.709 38.208-38.709 18.015 0 33.758 13.032 37.432 30.987a19.998 19.998 0 0019.339 15.988l1.766.022c7.555.05 14.515-4.071 18-10.772 5.608-10.786 16.011-17.225 27.828-17.225 17.88 0 32.427 14.355 32.427 32s-14.355 32-32 32c-11.046 0-20 8.954-20 20s8.954 20 20 20c30.218 0 56.129-18.721 66.792-45.167 14.148 3.306 24.72 16.015 24.72 31.155 0 5.933-1.588 11.674-4.592 16.604a19.992 19.992 0 00-2.921 10.407v1a19.999 19.999 0 0010.929 17.824c10.585 5.388 16.905 15.921 16.905 28.176-.003 17.646-14.358 32-32.003 32z"/></symbol><symbol viewBox="0 0 512 512" id="cash" xmlns="http://www.w3.org/2000/svg"><path d="M492.002 216.492c11.045 0 19.998-8.953 19.998-19.998V80.505C512 36.397 476.116.513 432.008.513H80.043C35.935.513.051 36.397.051 80.505v196.923c-.012 4.151-.112 40.697.006 45.542.599 24.413 16.936 46.459 40.704 54.995l327.892 129.818.732.273c6.519 2.292 13.246 3.43 19.945 3.43 9.057 0 18.068-2.082 26.451-6.21 9.908-4.88 13.985-16.867 9.105-26.775-4.88-9.908-16.869-13.984-26.775-9.104-4.765 2.346-10.138 2.71-15.159 1.033l-147.41-58.363 181.171 31.349.181.031c3.295.539 6.585.804 9.85.804 15.141 0 29.678-5.712 40.964-16.327 8.045-7.567 8.432-20.223.866-28.268-7.566-8.046-20.223-8.433-28.268-.866-4.567 4.294-10.72 6.187-16.884 5.197l-158.988-27.51h167.575c44.108 0 79.992-35.884 79.992-79.992 0-11.045-8.953-19.998-19.998-19.998-11.045 0-19.998 8.953-19.998 19.998 0 22.054-17.942 39.996-39.996 39.996H80.043c-22.054 0-39.996-17.942-39.996-39.996V80.505c0-22.054 17.942-39.996 39.996-39.996h351.965c22.054 0 39.996 17.942 39.996 39.996v115.988c0 11.045 8.953 19.999 19.998 19.999z"/><circle cx="415.01" cy="187.495" r="19.998"/><path d="M155.035 188.373c0 59.545 45.305 107.989 100.99 107.989 55.685 0 100.99-48.444 100.99-107.989S311.71 80.384 256.025 80.384c-55.685-.001-100.99 48.444-100.99 107.989zm161.984 0c0 37.491-27.361 67.993-60.994 67.993-33.633 0-60.994-30.502-60.994-67.993s27.361-67.993 60.994-67.993c33.633-.001 60.994 30.501 60.994 67.993z"/><circle cx="97.041" cy="187.495" r="19.998"/></symbol><symbol viewBox="0 0 501.007 501.007" id="colored-chart" xmlns="http://www.w3.org/2000/svg"><path d="M451.72 246.4c10.667 92.8-36.267 186.667-123.733 230.4-112 56.533-248.533 10.667-304-102.4S13.319 124.8 125.32 68.267c42.667-21.333 88.533-27.733 133.333-21.333l-22.4 221.867L451.72 246.4z" fill="#e0e0df"/><path d="M284.253 221.867L306.653 0c71.467 10.667 136.533 54.4 171.733 123.733 11.733 24.533 19.2 50.133 22.4 75.733l-216.533 22.401z" fill="#53c2ef"/></symbol><symbol viewBox="0 0 512 512" id="colored-money" xmlns="http://www.w3.org/2000/svg"><path d="M488.533 404.267H144c-11.733 0-21.333-9.6-21.333-21.333v-166.4c0-11.733 9.6-21.333 21.333-21.333h344.533c11.733 0 21.333 9.6 21.333 21.333v166.4c.001 11.733-9.599 21.333-21.333 21.333z" fill="#4cdbc4"/><path d="M440.533 225.067H192c0 21.333-18.133 39.467-39.467 39.467v70.4c21.333 0 39.467 18.133 39.467 39.467h248.533c0-21.333 18.133-39.467 39.467-39.467v-70.4c-21.333-.001-39.467-18.134-39.467-39.467z" fill="#f2f2f2"/><ellipse cx="316.8" cy="299.733" rx="38.4" ry="56.533" fill="#4cdbc4"/><path d="M312.533 331.733c-9.6-1.067-17.067-4.267-21.333-9.6l7.467-10.667c3.2 3.2 8.533 6.4 14.933 7.467v-13.867c-9.6-2.133-19.2-5.333-19.2-18.133 0-9.6 7.467-17.067 19.2-18.133v-8.533h8.533v8.533c7.467 1.067 13.867 3.2 19.2 8.533l-7.467 9.6c-3.2-3.2-7.467-5.333-11.733-6.4v12.8c9.6 2.133 20.267 6.4 20.267 18.133 0 10.667-6.4 18.133-20.267 19.2v8.533H313.6v-7.467h-1.067zm0-40.533v-10.667c-4.267 1.067-6.4 3.2-6.4 5.333 1.067 3.201 3.2 4.267 6.4 5.334zm9.6 16V320c4.267-1.067 6.4-3.2 6.4-6.4s-3.2-5.333-6.4-6.4z" fill="#f2f2f2"/><g fill="#4cdbc4"><circle cx="244.267" cy="299.733" r="13.867"/><circle cx="389.333" cy="299.733" r="13.867"/></g><path d="M491.733 238.933L473.6 195.2h-11.733l19.2 48c4.267 10.667-1.067 23.467-11.733 27.733l-317.867 131.2c-7.467 3.2-16 1.067-22.4-3.2 4.267 3.2 8.533 5.333 14.933 5.333h30.933l299.733-123.733c7.467-3.2 13.867-9.6 17.067-17.067 3.2-8.533 3.2-17.066 0-24.533z" fill="#3dc9ae"/><path d="M470.4 270.933l-317.867 131.2c-10.667 4.267-23.467-1.067-27.733-11.733l-64-153.6c-4.267-10.667 1.067-23.467 11.733-27.733L390.4 77.867c10.667-4.267 23.467 1.067 27.733 11.733l64 153.6c4.267 10.667-1.066 22.4-11.733 27.733z" fill="#4cdbc4"/><path d="M357.333 122.667l-229.333 96c8.533 20.267-1.067 43.733-21.333 51.2l26.667 65.067c20.267-8.533 43.733 1.067 51.2 21.333l229.333-94.933c-8.533-20.267 1.067-43.733 21.333-51.2l-26.667-65.067c-20.266 7.466-42.666-2.134-51.2-22.4z" fill="#f2f2f2"/><ellipse transform="rotate(-112.5 271.033 240.051)" cx="271.038" cy="240.055" rx="56.535" ry="38.401" fill="#4cdbc4"/><path d="M279.467 269.867c-9.6 3.2-17.067 2.133-23.467 0l3.2-11.733c4.267 2.133 10.667 3.2 16 2.133l-5.333-12.8c-9.6 1.067-20.267 2.133-25.6-9.6-3.2-8.533 0-18.133 10.667-24.533l-3.2-7.467 7.467-3.2 3.2 8.533c7.467-2.133 13.867-2.133 20.267 0l-3.2 11.733c-4.267-1.067-8.533-2.133-12.8-1.067L272 233.6c9.6-1.067 21.333-2.133 25.6 9.6 4.267 9.6 1.067 19.2-10.667 25.6l3.2 7.467-7.467 1.067-3.199-7.467zM264.533 233.6l-4.267-10.667c-3.2 2.133-4.267 5.333-3.2 7.467 1.067 3.2 3.201 3.2 7.467 3.2zm13.867 11.733l4.267 11.733c4.267-2.133 5.333-6.4 4.267-8.533-1.067-4.266-4.267-4.266-8.534-3.2z" fill="#f2f2f2"/><g fill="#4cdbc4"><circle cx="203.733" cy="267.733" r="13.867"/><circle cx="338.133" cy="212.267" r="13.867"/></g><path d="M407.467 116.267L374.4 83.2l-10.667 4.267 35.2 35.2c8.533 8.533 8.533 21.333 0 29.867l-243.2 245.333c-4.267 4.267-9.6 6.4-14.933 6.4 3.2 0 7.467 0 10.667-1.067L176 393.6l230.4-230.4c12.8-13.867 12.8-34.133 1.067-46.933z" fill="#3dc9ae"/><path d="M400 153.6L155.733 397.867c-8.533 8.533-21.333 8.533-29.867 0L8.533 280.533C0 272 0 259.2 8.533 250.667L251.733 6.4c8.533-8.533 21.333-8.533 29.867 0l117.333 117.333c8.534 8.534 8.534 22.4 1.067 29.867z" fill="#4cdbc4"/><path d="M238.933 60.8l-176 176c14.933 14.933 14.933 40.533 0 55.467l50.133 50.133c14.933-14.933 40.533-14.933 55.467 0l176-176c-14.933-14.933-14.933-40.533 0-55.467L294.4 60.8c-14.933 16-40.533 16-55.467 0z" fill="#f2f2f2"/><ellipse transform="rotate(-134.999 203.625 201.8)" cx="203.625" cy="201.798" rx="56.533" ry="38.4" fill="#4cdbc4"/><path d="M224 226.133c-7.467 6.4-14.933 8.533-22.4 8.533l-2.133-11.733c5.333 0 10.667-1.067 16-4.267l-9.6-9.6c-8.533 5.333-18.133 9.6-26.667 1.067-6.4-6.4-7.467-17.067 1.067-26.667l-6.4-6.4 6.4-6.4 6.4 6.4c5.333-4.267 11.733-7.467 19.2-7.467L208 181.333c-4.267 0-8.533 2.133-12.8 4.267l8.533 8.533c8.533-5.333 18.133-9.6 27.733-1.067 7.467 7.467 8.533 17.067 0 27.733l5.333 5.333-6.4 6.4-6.399-6.399zM195.2 198.4l-7.467-7.467c-2.133 3.2-2.133 6.4 0 8.533 1.067 1.067 4.267 1.067 7.467-1.066zm18.133 5.333l8.533 8.533c2.133-4.267 2.133-7.467 0-9.6s-5.333-1.066-8.533 1.067z" fill="#f2f2f2"/><g fill="#4cdbc4"><circle cx="152.533" cy="252.8" r="13.867"/><circle cx="254.933" cy="150.4" r="13.867"/></g><path d="M200.533 467.2c0 24.533-44.8 44.8-99.2 44.8s-99.2-20.267-99.2-44.8v-23.467h198.4V467.2z" fill="#f8b64c"/><ellipse cx="101.333" cy="443.733" rx="99.2" ry="44.8" fill="#ffd15c"/><ellipse cx="101.333" cy="443.733" rx="78.933" ry="34.133" fill="#f8b64c"/><path d="M97.067 461.867c-11.733 0-21.333-2.133-27.733-5.333l9.6-6.4C83.2 452.267 89.6 454.4 97.067 454.4v-8.533c-11.733-1.067-24.533-3.2-24.533-10.667 0-5.333 9.6-9.6 24.533-10.667V419.2h10.667v5.333c9.6 0 17.067 2.133 23.467 4.267l-9.6 5.333c-4.267-2.133-9.6-3.2-14.933-3.2v7.467c11.733 1.067 25.6 3.2 25.6 10.667 0 6.4-8.533 10.667-25.6 11.733v4.267H96v-3.2h1.067zm0-23.467V432c-5.333 0-8.533 1.067-8.533 3.2-.001 2.133 3.199 3.2 8.533 3.2zm10.666 9.6v7.467c6.4 0 8.533-2.133 8.533-4.267.001-1.067-3.199-2.133-8.533-3.2z" fill="#ffd15c"/><path d="M200.533 432c0 24.533-44.8 44.8-99.2 44.8s-99.2-20.267-99.2-44.8v-23.467h198.4V432z" fill="#f8b64c"/><ellipse cx="101.333" cy="409.6" rx="99.2" ry="44.8" fill="#ffd15c"/><ellipse cx="101.333" cy="409.6" rx="78.933" ry="34.133" fill="#f8b64c"/><path d="M97.067 427.733c-11.733 0-21.333-2.133-27.733-5.333l9.6-6.4c4.267 2.133 10.667 4.267 18.133 4.267v-8.533c-11.733-1.067-24.533-3.2-24.533-10.667 0-5.333 9.6-9.6 24.533-10.667v-5.333h10.667v5.333c9.6 0 17.067 2.133 23.467 4.267L121.6 400c-4.267-2.133-9.6-3.2-14.933-3.2v8.533c11.733 1.067 25.6 3.2 25.6 10.667 0 6.4-8.533 10.667-25.6 11.733V432H96v-4.267h1.067zm0-23.466v-6.4c-5.333 0-8.533 1.067-8.533 3.2-.001 1.066 3.199 2.133 8.533 3.2zm10.666 9.6v7.467c6.4 0 8.533-2.133 8.533-4.267.001-2.134-3.199-3.2-8.533-3.2z" fill="#ffd15c"/><path d="M200.533 397.867c0 24.533-44.8 44.8-99.2 44.8s-99.2-20.267-99.2-44.8V374.4h198.4v23.467z" fill="#f8b64c"/><ellipse cx="101.333" cy="374.4" rx="99.2" ry="44.8" fill="#ffd15c"/><ellipse cx="101.333" cy="374.4" rx="78.933" ry="34.133" fill="#f8b64c"/><path d="M97.067 392.533c-11.733 0-21.333-2.133-27.733-5.333l9.6-6.4c4.267 2.133 10.667 4.267 18.133 4.267v-8.533c-11.733-1.067-24.533-3.2-24.533-10.667 0-5.333 9.6-9.6 24.533-10.667V352h10.667v5.333c9.6 0 17.067 2.133 23.467 4.267l-9.6 5.333c-4.267-2.133-9.6-3.2-14.933-3.2v7.467c11.733 1.067 25.6 3.2 25.6 10.667 0 6.4-8.533 10.667-25.6 11.733v4.267H96v-5.333h1.067zm0-23.466v-6.4c-5.333 0-8.533 1.067-8.533 3.2s3.199 3.2 8.533 3.2zm10.666 9.6v7.467c6.4 0 8.533-2.133 8.533-4.267.001-1.067-3.199-2.134-8.533-3.2z" fill="#ffd15c"/><path d="M200.533 362.667c0 24.533-44.8 44.8-99.2 44.8s-99.2-19.2-99.2-44.8V339.2h198.4v23.467z" fill="#f8b64c"/><ellipse cx="101.333" cy="340.267" rx="99.2" ry="44.8" fill="#ffd15c"/><ellipse cx="101.333" cy="340.267" rx="78.933" ry="34.133" fill="#f8b64c"/><path d="M97.067 358.4c-11.733 0-21.333-2.133-27.733-5.333l9.6-6.4c4.267 2.133 10.667 4.267 18.133 4.267V342.4c-11.733-1.067-24.533-3.2-24.533-10.667 0-5.333 9.6-9.6 24.533-10.667v-5.333h10.667v5.333c9.6 0 17.067 2.133 23.467 4.267l-9.6 5.333c-4.267-2.133-9.6-3.2-14.933-3.2v7.467c11.733 1.067 25.6 3.2 25.6 10.667 0 6.4-8.533 10.667-25.6 11.733v5.333H96V358.4h1.067zm0-23.467v-6.4c-5.333 0-8.533 1.067-8.533 3.2s3.199 2.134 8.533 3.2zm10.666 9.6V352c6.4 0 8.533-2.133 8.533-4.267.001-2.133-3.199-2.133-8.533-3.2z" fill="#ffd15c"/><path d="M200.533 328.533c0 24.533-44.8 44.8-99.2 44.8s-99.2-20.267-99.2-44.8v-23.467h198.4v23.467z" fill="#f8b64c"/><ellipse cx="101.333" cy="305.067" rx="99.2" ry="44.8" fill="#ffd15c"/><ellipse cx="101.333" cy="305.067" rx="78.933" ry="34.133" fill="#f8b64c"/><path d="M97.067 323.2c-11.733 0-21.333-2.133-27.733-5.333l9.6-6.4c4.267 2.133 10.667 4.267 18.133 4.267V307.2c-11.733-1.067-24.533-3.2-24.533-10.667 0-5.333 9.6-9.6 24.533-10.667v-5.333h10.667v5.333c9.6 0 17.067 2.133 23.467 4.267l-9.6 5.333c-4.267-2.133-9.6-3.2-14.933-3.2v7.467c11.733 1.067 25.6 3.2 25.6 10.667 0 6.4-8.533 10.667-25.6 11.733v4.267H96v-3.2h1.067zm0-22.4v-6.4c-5.333 0-8.533 1.067-8.533 3.2-.001 1.067 3.199 2.133 8.533 3.2zm10.666 8.533v7.467c6.4 0 8.533-2.133 8.533-4.267.001-1.066-3.199-2.133-8.533-3.2z" fill="#ffd15c"/></symbol><symbol viewBox="0 0 468.293 468.293" id="colored-payment" xmlns="http://www.w3.org/2000/svg"><path d="M351.505 77.569v373.736c0 9.344-7.587 16.988-16.988 16.988H133.776c-9.343 0-16.988-7.644-16.988-16.988V77.569c0-9.4 7.645-16.988 16.988-16.988h200.741c9.401 0 16.988 7.588 16.988 16.988z" fill="#27a2db"/><path d="M330.833 161.15v19.231c0-6.119-4.995-11.176-11.176-11.176H148.636c-.874 0-1.623.124-2.435.312-4.995 1.124-8.742 5.558-8.742 10.864V161.15c0-5.307 3.747-9.74 8.742-10.864.812-.187 1.561-.312 2.435-.312h171.021c6.181 0 11.176 5.057 11.176 11.176z" fill="#e1e6e9"/><path d="M330.833 180.381v65.124c0 6.119-4.995 11.177-11.176 11.177H148.636c-6.181 0-11.177-5.058-11.177-11.177v-65.124c0-5.306 3.747-9.74 8.742-10.864.812-.188 1.561-.312 2.435-.312h171.021c6.181 0 11.176 5.057 11.176 11.176z" fill="#ebf0f3"/><g fill="#1c75a1"><circle cx="165.526" cy="306.576" r="19.556"/><circle cx="234.146" cy="306.576" r="19.556"/><circle cx="302.798" cy="306.576" r="19.556"/><circle cx="165.526" cy="362.459" r="19.556"/><circle cx="234.146" cy="362.459" r="19.556"/><circle cx="302.798" cy="362.459" r="19.556"/><circle cx="165.526" cy="418.341" r="19.556"/><circle cx="234.146" cy="418.341" r="19.556"/><circle cx="302.798" cy="418.341" r="19.556"/></g><path d="M351.505 77.569v42.074H116.788V77.569c0-9.4 7.645-16.988 16.988-16.988h200.741c9.401 0 16.988 7.588 16.988 16.988z" fill="#2d93ba"/><path fill="#64798a" d="M160.531 84.48h147.231v11.326H160.531z"/><path fill="#ebf0f3" d="M285.11 95.775H183.182V0l12.741 6.244L208.664 0l12.741 6.244L234.146 0l12.741 6.244L259.628 0l12.741 6.244L285.11 0z"/></symbol><symbol viewBox="0 0 501.551 501.551" id="colored-piggy-bank" xmlns="http://www.w3.org/2000/svg"><path d="M485.616 269.584v10.449c0 6.269-4.18 10.449-10.449 10.449h-37.616v15.673h42.841c11.494 0 20.898-9.404 20.898-20.898v-15.673c0-4.18-3.135-8.359-8.359-8.359-4.18-.001-7.315 3.134-7.315 8.359zM206.629 463.935c-2.09 20.898-19.853 37.616-41.796 37.616h-1.045c-22.988 0-41.796-18.808-41.796-41.796v-24.033c25.077 13.584 54.335 22.988 84.637 28.213z" fill="#f1543f"/><path d="M71.837 199.576c26.122-14.629 54.335-24.033 80.457-27.167L94.825 114.94c-17.763 17.763-26.122 39.706-26.122 62.694 1.044 6.268 2.089 14.627 3.134 21.942z" fill="#40596b"/><path d="M11.233 254.955c-14.629 14.629-14.629 71.053 0 85.682 7.314 7.314 41.796 0 41.796 0v-85.682c-1.045 0-34.482-7.314-41.796 0zm363.624 180.767v24.033c0 22.988-18.808 41.796-41.796 41.796h-1.045c-21.943 0-39.706-16.718-41.796-37.616 31.347-5.225 59.56-14.629 84.637-28.213z" fill="#f1543f"/><ellipse cx="248.424" cy="297.796" rx="219.429" ry="169.273" fill="#ff7058"/><circle cx="95.869" cy="250.776" r="12.539" fill="#40596b"/><path d="M317.388 171.363H180.506c-4.18 0-8.359 3.135-8.359 8.359 0 4.18 3.135 8.359 8.359 8.359h136.882c4.18 0 7.314-3.135 7.314-8.359 0-4.179-3.135-8.359-7.314-8.359z" fill="#f1543f"/><circle cx="248.424" cy="89.861" r="89.861" fill="#ffd15c"/><circle cx="248.424" cy="89.861" r="67.918" fill="#f8b64c"/><path d="M237.975 117.029c-2.09-2.09-3.135-5.224-4.18-9.404l-17.763 2.09c1.045 8.359 4.18 15.673 9.404 19.853 5.224 5.224 11.494 7.314 18.808 8.359v8.359h9.404v-9.404c8.359-1.045 15.673-4.18 19.853-10.449 5.224-5.224 7.314-12.539 7.314-19.853s-2.09-13.584-6.269-17.763c-4.18-4.18-11.494-8.359-21.943-11.494V53.29c4.18 2.09 7.314 5.224 8.359 10.449l16.718-2.09c-1.045-6.269-4.18-11.494-8.359-15.673-4.18-4.18-9.404-6.269-16.718-7.314v-7.314H243.2v6.269c-7.314 1.045-13.584 3.135-18.808 8.359-4.18 5.224-7.314 11.494-7.314 18.808s2.09 13.584 6.269 18.808c4.18 5.224 10.449 8.359 18.808 11.494v28.212c-1.045-1.045-3.135-3.135-4.18-6.269zm15.674-18.809c4.18 1.045 7.314 3.135 8.359 5.224 1.045 2.09 3.135 5.224 3.135 7.314 0 3.135-1.045 6.269-3.135 8.359s-5.224 4.18-8.359 4.18V98.22zm-15.674-27.167c-1.045-2.09-2.09-4.18-2.09-6.269 0-2.09 1.045-5.224 2.09-7.314s3.135-3.135 6.269-4.18v22.988c-3.134-1.045-5.224-3.135-6.269-5.225z" fill="#ffd15c"/></symbol><symbol viewBox="0 0 512 512" id="colored-presentation" xmlns="http://www.w3.org/2000/svg"><path d="M381.867 23.467v268.8c0 12.8-10.667 23.467-23.467 23.467H23.467C10.667 315.733 0 305.067 0 292.267v-268.8C0 10.667 10.667 0 23.467 0h333.867c13.866 0 24.533 10.667 24.533 23.467z" fill="#e8eae9"/><path d="M179.2 70.4c-55.467 0-99.2 44.8-99.2 99.2 0 55.467 44.8 99.2 99.2 99.2 55.467 0 99.2-44.8 99.2-99.2h-99.2V70.4z" fill="#f3705a"/><path d="M202.667 46.933v99.2h99.2c1.066-54.4-43.734-99.2-99.2-99.2z" fill="#66c6b9"/><path d="M199.467 341.333v-33.067h-18.133v33.067c-12.8 4.267-22.4 16-22.4 30.933 0 17.067 13.867 32 32 32 17.067 0 32-13.867 32-32-.001-14.933-9.601-27.733-23.467-30.933zm-8.534 43.734c-7.467 0-13.867-6.4-13.867-13.867s6.4-13.867 13.867-13.867c7.467 0 13.867 6.4 13.867 13.867 0 8.533-6.4 13.867-13.867 13.867z" fill="#e8eae9"/><path d="M121.6 180.267s-1.067 3.2 0 4.267c0 1.067 3.2 7.467 5.333 8.533s4.267 0 3.2-4.267c-1.066-3.2-5.333-11.733-8.533-8.533z" fill="#f7b64c"/><path d="M166.4 205.867l-23.467 5.333s-3.2-6.4-5.333-8.533c-2.133-3.2-7.467-9.6-9.6-14.933l-4.267-8.533s-2.133 2.133-2.133 4.267c0 0-3.2-5.333-1.067-7.467 2.133-3.2 7.467-1.067 8.533-2.133 1.067-1.067 1.067-2.133 2.133-2.133 1.067 0 2.133-2.133 4.267-3.2 2.133-1.067 4.267-1.067 5.333-2.133 2.133-1.067 2.133-2.133 3.2-1.067 1.067 0 0-5.333-1.067-8.533-1.067-4.267-3.2-8.533-1.067-10.667s4.267 0 5.333 3.2c1.067 3.2 3.2 7.467 4.267 9.6s1.067 2.133 1.067 4.267c0 1.067 2.133 6.4 3.2 9.6 1.067 2.133 4.267 18.133 6.4 23.467 2.135 3.198 4.268 9.598 4.268 9.598z" fill="#ffd15c"/><path d="M309.333 308.267l-22.4-21.333s-6.4-4.267-18.133-4.267-22.4 0-26.667-3.2c-4.267-3.2-10.667-10.667-17.067-11.733-6.4-1.067-7.467-4.267-19.2-11.733-11.733-7.467-14.933-26.667-19.2-30.933s-11.733-12.8-11.733-12.8l-9.6-13.867s-21.333-9.6-32 17.067c0 0 4.267 9.6 7.467 14.933 2.133 5.333 7.467 13.867 9.6 22.4 2.133 8.533 5.333 19.2 11.733 27.733 6.4 8.533 23.467 32 34.133 39.467 10.667 7.467 69.333 49.067 69.333 49.067l43.734-60.801zM451.2 512H512c-1.067-13.867-6.4-29.867-6.4-38.4-1.067-13.867-5.333-44.8-4.267-59.733 1.067-16-7.467-38.4-7.467-38.4l-41.6-19.2-14.933 64s1.067 1.067 2.133 22.4C440.533 460.8 450.133 504.533 451.2 512z" fill="#344a5e"/><path d="M423.467 512c0-7.467 1.067-19.2 4.267-27.733 3.2-9.6 25.6-43.733 29.867-53.333 5.333-9.6 34.133-40.533 36.267-52.267 2.133-11.733-24.533-32-35.2-38.4-9.6-6.4-19.2-18.133-28.8-23.467-10.667-6.4-14.933-11.733-14.933-11.733-52.267-25.6-66.133-12.8-72.533-9.6-7.467 3.2-13.867 1.067-28.8-5.333-16-6.4-26.667-3.2-26.667-3.2 6.4 23.467-21.333 83.2-21.333 83.2s-1.067 21.333-4.267 45.867c-2.133 19.2-3.2 71.467-4.267 96h166.399z" fill="#415a6b"/><path d="M364.8 182.4s-6.4 8.533-10.667 13.867c-4.267 4.267-8.533 7.467-8.533 11.733-1.067 4.267 2.133 9.6 1.067 11.733-2.133 2.133-12.8 6.4-8.533 13.867 0 0-5.333 7.467-2.133 11.733 0 0-3.2 1.067-1.067 5.333 0 0 1.067 4.267-1.067 8.533-2.133 5.333-3.2 13.867 4.267 17.067 7.467 2.133 12.8 2.133 12.8 2.133v11.733L412.8 291.2l5.333-9.6c-5.333-48-16-87.467-53.333-99.2z" fill="#ffd15c"/><path d="M352 229.333l4.267 5.333s12.8-9.6 20.267-3.2c7.467 5.333 6.4 35.2 2.133 44.8 0 0 29.867 7.467 38.4 4.267 8.533-3.2 36.267-30.933 40.533-59.733 4.267-28.8-17.067-52.267-40.533-55.467-37.333-4.267-51.2 2.133-55.467 7.467-4.267 5.333-1.067 13.867 6.4 14.933 0 0-11.733 8.533-11.733 20.267 1.066 12.8 0 17.067-4.267 21.333z" fill="#415a6b"/><ellipse transform="rotate(-61.471 371.46 239.895)" cx="371.459" cy="239.904" rx="16" ry="8.533" fill="#ffd15c"/><path d="M350.933 286.933c9.6-5.333 17.067-13.867 17.067-13.867-6.4 4.267-16 5.333-16 5.333l-1.067 8.534z" fill="#f7b64c"/><path d="M342.4 295.467s10.667-3.2 25.6-1.067c14.933 2.133 46.933 10.667 46.933 10.667s-1.067-5.333-1.067-10.667c-1.067-4.267-1.067-5.333-5.333-7.467C403.2 285.867 368 276.267 355.2 281.6s-12.8 13.867-12.8 13.867z" fill="#e8eae9"/><path d="M141.867 154.667c0 1.067 0 1.067 1.067 2.133 1.067 3.2 2.133 9.6 1.067 8.533 2.133 1.067 3.2 4.267 3.2 1.067-1.068-2.133-3.201-8.533-5.334-11.733z" fill="#f7b64c"/></symbol><symbol viewBox="0 0 501.551 501.551" id="colored-support-speak" xmlns="http://www.w3.org/2000/svg"><path fill="#f8b64c" d="M188.054 218.384l64.783 64.783 64.784-64.783z"/><path fill="#40596b" d="M132.674 143.151h239.282v267.494H132.674z"/><path d="M329.115 392.882c-51.2 6.269-101.355 6.269-152.555 0 7.314-44.931 7.314-89.861 0-135.837 51.2-6.269 101.355-6.269 152.555 0-7.315 45.975-7.315 90.906 0 135.837z" fill="#f8b64c"/><path d="M146.258 117.029v101.355c0 58.514 48.065 106.58 106.58 106.58s106.58-48.065 106.58-106.58V117.029h-213.16z" fill="#ffd15c"/><path d="M252.837 24.033c-65.829 0-120.163 53.29-120.163 119.118H373c0-65.829-54.334-119.118-120.163-119.118z" fill="#40596b"/><path d="M394.943 148.376h-14.629c0-74.188-57.469-134.792-127.478-134.792S125.36 74.188 125.36 148.376h-14.629C110.731 65.829 174.47 0 252.837 0s142.106 66.873 142.106 148.376z" fill="#cdd6e0"/><path d="M341.654 290.482H272.69v-13.584h68.963c12.539 0 22.988-10.449 22.988-22.988v-26.122h14.629v26.122c0 19.853-16.719 36.572-37.616 36.572z" fill="#f2f2f2"/><path d="M268.511 266.449h-31.347c-8.359 0-14.629 7.314-14.629 14.629v3.135c0 8.359 7.314 14.629 14.629 14.629h31.347c8.359 0 14.629-7.314 14.629-14.629v-3.135c-.001-7.315-6.27-14.629-14.629-14.629z" fill="#acb3ba"/><path d="M412.707 159.869h-8.359v53.29h8.359c6.269 0 10.449-4.18 10.449-10.449v-32.392c0-6.269-5.225-10.449-10.449-10.449zm-330.188 9.404v32.392c0 6.269 4.18 10.449 10.449 10.449h8.359v-53.29h-8.359c-5.225 1.045-10.449 5.225-10.449 10.449z" fill="#cdd6e0"/><path d="M383.449 143.151h-24.033v84.637h24.033c11.494 0 20.898-9.404 20.898-20.898v-42.841c0-11.494-9.404-20.898-20.898-20.898zm-282.122 20.898v42.841c0 11.494 9.404 20.898 20.898 20.898h24.033v-84.637h-24.033c-11.494 0-20.898 9.404-20.898 20.898z" fill="#ff7058"/><path d="M312.396 143.151v-32.392l-11.494 32.392zm-81.502 0v-24.033l-13.583 24.033z" fill="#ffd15c"/><path fill="#f8b64c" d="M180.739 355.265l72.098 72.098 72.098-72.098z"/><path d="M334.339 355.265H323.89l-72.098 72.098-72.098-72.098h-10.449c-70.008 0-126.433 56.424-126.433 126.433v19.853h415.869v-19.853c2.091-70.008-54.334-126.433-124.342-126.433z" fill="#ff7058"/></symbol><symbol viewBox="0 0 512.002 512.002" id="credit-card-check" xmlns="http://www.w3.org/2000/svg"><path d="M432 33.468H80c-44.112 0-80 35.888-80 80v216c0 44.112 35.888 80 80 80h123c11.046 0 20-8.954 20-20s-8.954-20-20-20H80c-22.056 0-40-17.944-40-40V179.589h432v49c0 11.045 8.954 20 20 20s20-8.955 20-20V113.468c0-44.113-35.888-80-80-80zm40 106.121H40v-26.122c0-22.056 17.944-40 40-40h352c22.056 0 40 17.944 40 40v26.122z"/><path d="M503.642 292.273c-8.982-6.43-21.475-4.362-27.904 4.62l-98.581 137.7c-2.692 3.122-6.066 3.796-7.874 3.916-1.86.13-5.472-.114-8.571-3.063l-63.82-61.281c-7.969-7.652-20.631-7.393-28.278.574-7.651 7.967-7.394 20.628.573 28.278l63.884 61.341c9.568 9.108 22.339 14.175 35.479 14.175 1.129 0 2.261-.037 3.393-.113 14.314-.954 27.679-7.915 36.666-19.097.233-.29.456-.585.673-.887l98.981-138.26c6.429-8.982 4.361-21.475-4.621-27.903z"/></symbol><symbol viewBox="0 0 32 32" id="email" xmlns="http://www.w3.org/2000/svg"><path d="M28.3 27.7c.7 0 1.3-.2 1.7-.7l-8.5-8.5c-.2.1-.4.3-.6.4-.6.5-1.1.8-1.5 1.1-.4.3-.9.5-1.6.8-.7.3-1.3.4-1.8.4-.6 0-1.2-.1-1.8-.4-.7-.3-1.2-.5-1.6-.8-.4-.3-.9-.6-1.5-1.1-.2-.1-.4-.3-.6-.4L2 27.1c.5.4 1.1.7 1.7.7h24.6zM2.8 13.3c-.6-.4-1.2-.9-1.7-1.4v12.9l7.5-7.5c-1.6-1.1-3.5-2.4-5.8-4zm26.5 0c-2.3 1.5-4.2 2.9-5.8 4l7.5 7.5v-13c-.5.6-1.1 1.1-1.7 1.5z"/><path d="M28.3 4.3H3.7c-.9 0-1.5.3-2 .9-.4.5-.6 1.2-.6 2.1 0 .7.3 1.5.9 2.3.6.8 1.3 1.5 1.9 1.9.4.3 1.5 1.1 3.4 2.4 1 .7 1.9 1.3 2.7 1.9.7.5 1.2.8 1.7 1.2.1 0 .1.1.2.2s.3.2.5.3c.4.3.7.5.9.6.2.2.5.3.9.5.3.2.7.3 1 .4.3.1.6.1.8.1.3 0 .5-.1.8-.1.3-.1.6-.2 1-.4.3-.2.6-.4.9-.5.2-.2.5-.4.9-.6.2-.1.3-.2.5-.3.1-.1.2-.1.2-.2.4-.3.9-.6 1.7-1.2 1.4-1 3.4-2.4 6.1-4.2.8-.6 1.5-1.2 2-2s.8-1.6.8-2.5c0-.7-.3-1.4-.8-1.9-.5-.7-1.1-.9-1.8-.9z"/></symbol><symbol viewBox="0 0 512 512" id="email-action" xmlns="http://www.w3.org/2000/svg"><path d="M501.182 176.53a19.956 19.956 0 00-3.275-6.536 20.02 20.02 0 00-3.856-3.869 79.172 79.172 0 00-13.161-12.9L299.907 13.311a20.007 20.007 0 00-1.671-1.162c-26.053-16.199-58.422-16.199-84.474 0-.576.358-1.134.746-1.671 1.162L31.109 153.225C11.657 168.263.044 191.919.044 216.506v215.509C.045 476.119 35.926 512 80.031 512h245.957c11.044 0 19.997-8.952 19.997-19.997s-8.952-19.997-19.997-19.997H80.031c-22.052 0-39.993-17.941-39.993-39.993V216.506c0-12.293 5.807-24.121 15.532-31.641l180.097-139.23c12.624-7.465 28.042-7.465 40.666 0l174.496 134.899-174.415 131.945c-12.679 7.537-28.194 7.529-40.868-.023L117.01 223.705c-8.84-6.62-21.373-4.818-27.992 4.022s-4.818 21.372 4.022 27.992l119.295 89.318c.461.345.937.67 1.425.975 13.027 8.101 27.632 12.15 42.238 12.15 14.605 0 29.211-4.05 42.238-12.15a20.349 20.349 0 001.505-1.034L471.92 214.725c.027.592.041 1.185.041 1.78v41.539c0 11.044 8.952 19.997 19.997 19.997s19.996-8.952 19.996-19.997v-41.539c.001-14.117-3.829-27.927-10.772-39.975z"/><path d="M506.087 383.182l-59.047-58.94c-11.617-11.617-30.522-11.617-42.129-.012l-59.057 58.952c-7.816 7.803-7.828 20.463-.025 28.279 7.803 7.817 20.463 7.828 28.279.025l31.865-31.808v112.326c0 11.044 8.952 19.997 19.997 19.997s19.997-8.952 19.997-19.997V379.678l31.865 31.808a19.934 19.934 0 0014.127 5.844 19.94 19.94 0 0014.153-5.87c7.802-7.815 7.79-20.476-.025-28.278z"/></symbol><symbol viewBox="0 0 512 512" id="email-line" xmlns="http://www.w3.org/2000/svg"><path d="M492 291.5c11.046 0 20-8.954 20-20v-131c0-44.112-35.888-80-80-80H80c-44.112 0-80 35.888-80 80v231c0 44.112 35.888 80 80 80h352c44.112 0 80-35.888 80-80 0-11.046-8.954-20-20-20s-20 8.954-20 20c0 22.056-17.944 40-40 40H80c-22.056 0-40-17.944-40-40V144.738l173.755 108.045c13.029 8.101 27.637 12.152 42.245 12.152 14.608 0 29.216-4.051 42.245-12.152L472 144.738V271.5c0 11.046 8.954 20 20 20zm-214.878-72.686c-13.028 8.101-29.216 8.102-42.244 0L56.689 108.012A39.783 39.783 0 0180 100.5h352a39.784 39.784 0 0123.311 7.513L277.122 218.814z"/></symbol><symbol viewBox="0 0 60.734 60.733" id="facebook" xmlns="http://www.w3.org/2000/svg"><path d="M57.378.001H3.352A3.352 3.352 0 000 3.353v54.026a3.353 3.353 0 003.352 3.354h29.086V37.214h-7.914v-9.167h7.914v-6.76c0-7.843 4.789-12.116 11.787-12.116 3.355 0 6.232.251 7.071.36v8.198l-4.854.002c-3.805 0-4.539 1.809-4.539 4.462v5.851h9.078l-1.187 9.166h-7.892v23.52h15.475a3.355 3.355 0 003.355-3.351V3.351a3.352 3.352 0 00-3.354-3.35z"/></symbol><symbol viewBox="0 0 512 512" id="financing" xmlns="http://www.w3.org/2000/svg"><path d="M53.196 133.658a19.837 19.837 0 0011.737 3.823c6.168 0 12.246-2.844 16.148-8.214 6.487-8.913 4.521-21.398-4.391-27.885-8.913-6.487-21.398-4.521-27.885 4.391-6.488 8.913-4.522 21.398 4.391 27.885zm-27.915 68.457a19.81 19.81 0 006.168.988c8.414 0 16.238-5.359 18.983-13.793 3.403-10.49-2.325-21.747-12.815-25.161-10.479-3.403-21.747 2.335-25.151 12.815-3.414 10.489 2.325 21.747 12.815 25.151zm91.79-116.732a19.95 19.95 0 0011.737-3.823h-.01c8.923-6.487 10.889-18.973 4.401-27.885-6.487-8.913-18.973-10.879-27.885-4.391-8.913 6.487-10.879 18.963-4.391 27.885 3.902 5.369 9.98 8.214 16.148 8.214zM.389 259.902a19.966 19.966 0 001.976 5.499c.299.569.639 1.138.998 1.677.359.549.749 1.078 1.168 1.577.409.509.858.998 1.317 1.457s.948.908 1.457 1.317a18.58 18.58 0 001.577 1.168c.539.359 1.108.699 1.677.998a19.02 19.02 0 001.767.838 20.18 20.18 0 003.732 1.138c.639.13 1.297.23 1.936.289.659.07 1.317.1 1.966.1s1.307-.03 1.966-.1c.639-.06 1.297-.16 1.936-.289s1.268-.289 1.896-.479a19.966 19.966 0 003.603-1.497 17.64 17.64 0 001.677-.998 18.368 18.368 0 001.577-1.168c.509-.409.998-.858 1.457-1.317s.908-.948 1.317-1.457a18.58 18.58 0 001.168-1.577c.359-.539.699-1.108.998-1.677.309-.569.589-1.168.838-1.767s.469-1.218.659-1.836c.19-.629.349-1.258.479-1.896.13-.639.23-1.288.289-1.936.07-.649.1-1.317.1-1.966s-.03-1.307-.1-1.966c-.06-.639-.16-1.297-.289-1.936a19.966 19.966 0 00-1.976-5.499 18.987 18.987 0 00-.998-1.677 18.368 18.368 0 00-1.168-1.577c-.409-.509-.858-.998-1.317-1.457s-.948-.908-1.457-1.317a16.65 16.65 0 00-1.577-1.168 17.64 17.64 0 00-1.677-.998 19.02 19.02 0 00-1.767-.838 20.18 20.18 0 00-3.732-1.138 19.87 19.87 0 00-11.536 1.138 19.28 19.28 0 00-1.767.838c-.569.299-1.138.639-1.677.998-.549.359-1.078.749-1.577 1.168-.509.409-.998.858-1.457 1.317s-.908.948-1.317 1.457a16.65 16.65 0 00-1.168 1.577 18.987 18.987 0 00-.998 1.677c-.309.569-.589 1.168-.838 1.767s-.469 1.218-.659 1.836c-.19.629-.349 1.268-.479 1.896-.13.639-.23 1.297-.289 1.936-.07.659-.1 1.317-.1 1.966s.03 1.317.1 1.966c.06.648.16 1.297.289 1.936zM182.693 51.888c2.046 0 4.122-.309 6.168-.978 10.49-3.403 16.228-14.661 12.825-25.151-3.413-10.479-14.671-16.218-25.151-12.815-10.489 3.403-16.228 14.661-12.825 25.151 2.745 8.434 10.569 13.793 18.983 13.793zm-6.038 147.279v3.707c0 38.648 31.264 70.092 69.693 70.092h25.14c16.5 0 29.923 13.381 29.923 29.828v13.032c0 16.542-13.424 29.998-29.923 29.998H230.63c-11.405 0-21.04-10.055-21.04-21.957 0-11.024-8.937-19.961-19.961-19.961s-19.961 8.937-19.961 19.961c0 34.12 27.348 61.879 60.962 61.879h4.909v20.959c0 11.024 8.937 19.961 19.961 19.961s19.961-8.937 19.961-19.961v-21.08c36.67-2.07 65.871-32.581 65.871-69.799v-13.032c0-38.46-31.333-69.75-69.845-69.75h-25.14c-16.416 0-29.771-13.534-29.771-30.169v-3.707c0-16.542 13.355-29.998 29.771-29.998h23.774c11.75 0 21.309 9.402 21.309 20.959 0 11.024 8.937 19.961 19.961 19.961s19.961-8.937 19.961-19.961c0-31.78-24.621-57.934-55.891-60.635v-23.202c0-11.024-8.937-19.961-19.961-19.961s-19.961 8.937-19.961 19.961v23.799c-33.313 5.226-58.884 34.21-58.884 69.076zm310.063 110.707c-10.479-3.403-21.747 2.335-25.151 12.815-3.403 10.49 2.325 21.747 12.815 25.161 2.046.659 4.132.978 6.178.978 8.414 0 16.238-5.36 18.973-13.793 3.414-10.49-2.325-21.748-12.815-25.161zM276.362 489.615c-.011-.112-.026-.222-.039-.333a19.798 19.798 0 00-2.541-7.697 19.601 19.601 0 00-2.051-2.93c-.321-.383-.66-.756-1.008-1.11-.076-.077-.152-.154-.23-.23a18.514 18.514 0 00-1.106-1.005 18.173 18.173 0 00-1.461-1.123 18.835 18.835 0 00-1.48-.936 19.792 19.792 0 00-7.704-2.538 20.03 20.03 0 00-2.244-.134c-75.491 0-145.537-40.049-184.326-103.728l45.627-.069c11.024-.017 19.947-8.967 19.931-19.991-.017-11.014-8.951-19.931-19.961-19.931h-.031l-58.39.089h-.195c-15.793 0-30.584 6.097-41.671 17.184-11.341 11.34-17.55 26.565-17.483 42.786v57.71c0 11.024 8.937 19.961 19.961 19.961s19.961-8.937 19.961-19.961V391.63c19.75 31.508 46.2 58.429 77.692 78.859 41.347 26.824 89.361 41.004 138.853 41.011l.032.001c.647 0 1.303-.03 1.96-.1.09-.009.178-.023.267-.033a19.78 19.78 0 007.708-2.534 19.027 19.027 0 001.48-.935 18.831 18.831 0 001.458-1.117 18.45 18.45 0 001.342-1.239c.355-.36.7-.739 1.026-1.13.099-.118.198-.235.294-.356.284-.352.559-.72.82-1.097a18.238 18.238 0 00.95-1.505 19.81 19.81 0 002.519-7.665c.012-.109.027-.216.038-.325.066-.63.096-1.279.096-1.908l.001-.018-.001-.019a18.254 18.254 0 00-.094-1.905zM492.038 46.409c-11.024 0-19.961 8.937-19.961 19.961v53.999c-19.75-31.509-46.2-58.429-77.692-78.86C353.029 14.68 305.004.499 255.5.499c-.757 0-1.5.051-2.236.133a19.798 19.798 0 00-7.694 2.53 18.99 18.99 0 00-2.934 2.049c-.402.335-.792.69-1.161 1.055l-.17.17c-.365.369-.72.758-1.055 1.161a19.493 19.493 0 00-2.048 2.934 19.822 19.822 0 00-2.288 6.114 20.654 20.654 0 00-.237 1.553c-.011.101-.028.199-.038.299-.071.66-.101 1.317-.101 1.964s.03 1.304.099 1.961c.01.102.027.202.038.303a19.808 19.808 0 002.526 7.667 18.916 18.916 0 00.93 1.475 19.446 19.446 0 001.123 1.466c.33.396.68.779 1.04 1.144l.189.189c.366.362.752.713 1.15 1.045.111.093.221.186.333.276.359.291.736.571 1.122.838a19.104 19.104 0 001.474.93 19.803 19.803 0 007.698 2.534c.099.011.197.026.295.035.652.068 1.302.098 1.944.098 75.491 0 145.536 40.049 184.325 103.728l-45.626.069c-11.023.017-19.947 8.966-19.931 19.991.017 11.014 8.951 19.931 19.961 19.931h.031l58.39-.088h.194c15.794 0 30.586-6.098 41.673-17.184 11.341-11.341 17.55-26.566 17.483-42.787V66.37c0-11.024-8.936-19.961-19.961-19.961zM458.803 378.34c-8.913-6.487-21.398-4.521-27.885 4.391-6.487 8.913-4.521 21.398 4.391 27.885a19.964 19.964 0 0027.885-4.391c6.488-8.912 4.522-21.398-4.391-27.885zm52.807-126.243a19.966 19.966 0 00-1.976-5.499 17.64 17.64 0 00-.998-1.677 18.368 18.368 0 00-1.168-1.577c-.409-.509-.858-.998-1.317-1.457s-.948-.908-1.457-1.317a16.65 16.65 0 00-1.577-1.168 18.987 18.987 0 00-1.677-.998c-.569-.309-1.168-.589-1.767-.838s-1.218-.469-1.836-.659a22.016 22.016 0 00-1.896-.479 19.87 19.87 0 00-11.536 1.138c-.598.25-1.198.529-1.767.838-.569.299-1.138.639-1.677.998-.549.359-1.078.749-1.577 1.168-.509.409-.998.858-1.457 1.317s-.908.948-1.317 1.457a18.58 18.58 0 00-1.168 1.577 17.64 17.64 0 00-.998 1.677c-.309.569-.589 1.168-.838 1.767s-.469 1.218-.659 1.836c-.19.629-.349 1.268-.479 1.896-.13.639-.23 1.297-.289 1.936-.07.659-.1 1.317-.1 1.966s.03 1.307.1 1.966c.06.639.16 1.297.289 1.936a19.966 19.966 0 001.976 5.499c.299.569.639 1.138.998 1.677.359.549.759 1.078 1.168 1.577.409.509.858.998 1.317 1.457s.948.908 1.457 1.317a18.58 18.58 0 001.577 1.168c.539.359 1.108.699 1.677.998.569.309 1.168.589 1.767.838s1.218.469 1.836.659c.629.19 1.268.349 1.896.479.639.13 1.297.23 1.936.289.659.07 1.317.1 1.966.1s1.307-.03 1.966-.1c.639-.06 1.297-.16 1.936-.289a19.966 19.966 0 005.499-1.976 18.987 18.987 0 001.677-.998 18.368 18.368 0 001.577-1.168c.509-.409.998-.858 1.457-1.317s.908-.948 1.317-1.457a18.58 18.58 0 001.168-1.577c.359-.539.699-1.108.998-1.677.309-.569.589-1.168.838-1.767s.469-1.218.659-1.836c.19-.629.349-1.268.479-1.896.13-.639.23-1.297.289-1.936.07-.659.1-1.317.1-1.966s-.03-1.307-.1-1.966a18.46 18.46 0 00-.289-1.936zM383.201 430.438c-8.923 6.487-10.889 18.973-4.401 27.885 3.912 5.37 9.99 8.214 16.158 8.214a19.83 19.83 0 0011.727-3.823c8.913-6.487 10.879-18.973 4.401-27.885-6.487-8.912-18.973-10.878-27.885-4.391zm-60.063 30.65c-10.49 3.403-16.228 14.661-12.825 25.151 2.745 8.434 10.569 13.793 18.983 13.803a19.81 19.81 0 006.168-.988c10.49-3.403 16.228-14.661 12.825-25.151-3.403-10.479-14.671-16.218-25.151-12.815z"/></symbol><symbol viewBox="0 0 512.002 512.002" id="food" xmlns="http://www.w3.org/2000/svg"><path d="M428.208 223.004a19.9 19.9 0 0010.866-3.224c9.267-6.012 11.905-18.397 5.894-27.663-2.32-3.576-7.147-11.018-6.965-13.655.143-2.061 3.478-7.343 5.685-10.839.82-1.299 1.638-2.596 2.43-3.894 4.525-7.422 10.664-18.838 11.728-32.228 1.196-15.069-4.496-29.429-15.617-39.395-8.227-7.372-20.871-6.679-28.242 1.547-7.371 8.227-6.679 20.87 1.547 28.242 1.827 1.637 2.647 3.804 2.438 6.439-.29 3.652-2.254 8.418-6.004 14.568-.684 1.121-1.393 2.242-2.102 3.365-4.867 7.71-10.925 17.304-11.766 29.424-1.107 15.968 7.227 28.813 13.313 38.193 3.828 5.907 10.245 9.12 16.795 9.12zm-99-87a19.9 19.9 0 0010.866-3.224c9.267-6.012 11.905-18.397 5.894-27.663-2.32-3.576-7.147-11.018-6.965-13.655.143-2.061 3.478-7.343 5.685-10.839.82-1.299 1.638-2.596 2.43-3.894 4.525-7.422 10.664-18.838 11.728-32.228 1.196-15.069-4.496-29.429-15.617-39.395-8.227-7.372-20.87-6.678-28.242 1.547-7.371 8.227-6.679 20.87 1.547 28.242 1.827 1.637 2.647 3.804 2.438 6.439-.29 3.652-2.254 8.418-6.004 14.568-.684 1.121-1.393 2.242-2.102 3.365-4.867 7.71-10.925 17.304-11.766 29.424-1.107 15.968 7.227 28.813 13.313 38.193 3.828 5.907 10.245 9.12 16.795 9.12zm-127 0a19.9 19.9 0 0010.866-3.224c9.267-6.012 11.905-18.397 5.894-27.663-2.32-3.576-7.147-11.018-6.965-13.655.143-2.061 3.478-7.343 5.685-10.839.82-1.299 1.638-2.596 2.43-3.894 4.525-7.422 10.664-18.838 11.728-32.228 1.196-15.069-4.496-29.429-15.617-39.395-8.227-7.372-20.87-6.678-28.242 1.547-7.371 8.227-6.679 20.87 1.547 28.242 1.827 1.637 2.647 3.804 2.438 6.439-.29 3.652-2.254 8.418-6.004 14.568-.684 1.121-1.393 2.242-2.102 3.365-4.867 7.71-10.925 17.304-11.766 29.424-1.107 15.968 7.227 28.813 13.313 38.193 3.828 5.907 10.245 9.12 16.795 9.12zm289.793 335.998h-20v-19c0-15.975-1.755-31.912-5.215-47.37-2.412-10.779-13.103-17.561-23.886-15.147-10.778 2.412-17.56 13.107-15.147 23.886a177.19 177.19 0 014.248 38.631v19h-352v-19c0-7.106.435-14.112 1.258-21h275.742c11.046 0 20-8.954 20-20s-8.954-20-20-20H90.907c24.861-67.07 89.483-115 165.094-115 52.12 0 101.262 22.913 134.825 62.866 7.104 8.457 19.721 9.553 28.179 2.448 8.457-7.106 9.552-19.721 2.448-28.179-36.641-43.615-88.425-70.661-144.452-76.099v-22.32c9.064-6.325 15-16.825 15-28.716 0-19.33-15.67-35-35-35s-35 15.67-35 35c0 11.892 5.936 22.391 15 28.716v22.119c-50.526 4.375-97.45 26.145-133.735 62.43-40.797 40.797-63.265 95.039-63.265 152.735v19h-20c-11.046 0-20 8.954-20 20s8.954 20 20 20h472c11.046 0 20-8.954 20-20s-8.954-20-20-20zM85.208 222.004a19.9 19.9 0 0010.866-3.224c9.267-6.012 11.905-18.397 5.894-27.663-2.32-3.576-7.147-11.018-6.965-13.655.143-2.061 3.478-7.343 5.685-10.839.82-1.299 1.638-2.596 2.43-3.894 4.525-7.422 10.664-18.838 11.728-32.228 1.196-15.069-4.496-29.429-15.617-39.395-8.227-7.373-20.87-6.677-28.242 1.547-7.371 8.227-6.679 20.87 1.547 28.242 1.827 1.637 2.647 3.804 2.438 6.439-.29 3.652-2.254 8.418-6.004 14.568-.684 1.121-1.393 2.242-2.102 3.365-4.867 7.71-10.925 17.304-11.766 29.424-1.107 15.968 7.227 28.813 13.313 38.193 3.828 5.907 10.245 9.12 16.795 9.12z"/></symbol><symbol viewBox="0 0 512 512" id="gift-card" xmlns="http://www.w3.org/2000/svg"><path d="M492 284.122c11.046 0 20-8.955 20-20V148c0-44.112-35.888-80-80-80H80c-44.112 0-80 35.888-80 80v216c0 44.112 35.888 80 80 80h352c44.112 0 80-35.888 80-80 0-11.046-8.954-20-20-20s-20 8.954-20 20c0 22.056-17.944 40-40 40H80c-22.056 0-40-17.944-40-40V233.122h52.44c8.256 23.278 30.487 40 56.56 40 7.731 0 15.318-1.803 22.529-4.709-7.34 15.861-18.356 31.872-34.866 43.232-9.1 6.261-11.401 18.714-5.14 27.813 3.879 5.637 10.132 8.665 16.495 8.665 3.907 0 7.856-1.143 11.319-3.525 23.095-15.891 38.206-37.573 48.089-58.709 9.968 21.134 25.145 42.82 48.237 58.709a19.905 19.905 0 0011.319 3.525c6.361 0 12.616-3.028 16.495-8.665 6.261-9.1 3.96-21.552-5.14-27.813-16.423-11.3-27.48-27.338-34.91-43.25 7.224 2.916 14.826 4.727 22.573 4.727 26.073 0 48.303-16.722 56.56-40H472v31c0 11.045 8.954 20 20 20zm-343-51c-11.028 0-20-8.973-20-20 0-11.028 8.972-20 20-20 9.204 0 22.492 9.7 33.058 19.975-10.248 9.937-23.657 20.025-33.058 20.025zm117 0c-9.204 0-22.492-9.7-33.058-19.975 10.248-9.937 23.657-20.025 33.058-20.025 11.028 0 20 8.972 20 20s-8.972 20-20 20zm56.56-40c-8.256-23.278-30.487-40-56.56-40-22.71 0-44.181 15.541-58.5 28.973-14.319-13.433-35.79-28.973-58.5-28.973-26.073 0-48.303 16.722-56.56 40H40V148c0-22.056 17.944-40 40-40h352c22.056 0 40 17.944 40 40v45.122H322.56z"/></symbol><symbol viewBox="0 0 512.001 512.001" id="grow" xmlns="http://www.w3.org/2000/svg"><path d="M471.268 40.658c-2.12 30.113-10.922 87.499-46.458 123.035-9.789 9.788-19.747 16.661-29.601 20.43-10.313 3.944-15.477 15.502-11.533 25.815 3.046 7.964 10.631 12.858 18.679 12.858 2.374 0 4.788-.426 7.138-1.325 15.138-5.789 29.804-15.716 43.592-29.504 58.674-58.674 59.083-156.572 58.808-171.001l.01-.255c.362-11.004-8.241-20.23-19.245-20.637-4.482-.171-110.543-3.343-172.651 58.766-23.903 23.903-35.935 49.916-35.76 77.315.143 22.582 8.769 40.626 14.372 51.363-18.455 21.022-33.17 44.786-43.808 70.832a254.092 254.092 0 00-6.221 16.927c-8.59-14.408-19.815-31.254-34.218-49.57 5.574-10.902 13.25-28.16 13.384-49.45.174-27.4-11.857-53.413-35.76-77.316C129.887 36.832 23.828 40.013 19.343 40.176 8.409 40.58-.13 49.692.118 60.605c-.285 12.647-.546 112.119 58.799 171.464 23.729 23.729 49.699 35.761 77.188 35.761.351 0 28.044-.165 51.443-11.323 7.184 9.437 13.245 18.142 18.268 25.845 21.231 32.561 29.149 54.842 29.286 55.234.368 1.067.82 2.079 1.342 3.039a255.25 255.25 0 00-.338 12.994v25.114a67.705 67.705 0 00-28.938-6.484c-34.802 0-63.571 26.328-67.435 60.113-30.097 3.183-53.625 28.718-53.625 59.646 0 11.042 8.951 19.993 19.993 19.993s19.993-8.951 19.993-19.993c0-11.024 8.969-19.993 19.993-19.993 2.717 0 5.344.531 7.808 1.578a19.993 19.993 0 1026.8-24.688 27.861 27.861 0 01-1.418-8.779c0-15.379 12.512-27.89 27.89-27.89 14.388 0 26.59 11.215 27.779 25.533a19.994 19.994 0 0037.284 8.265c4.936-8.64 14.164-14.006 24.081-14.006 14.004 0 25.827 10.464 27.501 24.343a19.995 19.995 0 0026.023 16.621 19.979 19.979 0 016.181-.978c11.024 0 19.993 8.969 19.993 19.993 0 11.042 8.951 19.993 19.993 19.993s19.993-8.951 19.993-19.993c0-32.374-25.781-58.84-57.891-59.944-10.651-23.773-34.531-40.022-61.793-40.022-5.795 0-11.49.755-16.97 2.182 15.226-25.541 49.525-57.164 66.82-63.072 10.449-3.57 16.026-14.934 12.456-25.383-3.57-10.448-14.934-16.025-25.383-12.456-16.458 5.623-37.605 21.466-56.207 40.324 4.503-48.333 25.29-93.343 59.676-128.417L420.251 120c7.73-7.885 7.604-20.543-.28-28.273-7.885-7.73-20.544-7.604-28.273.28l-63.32 64.587c-2.312-6.133-4.097-13.12-4.145-20.692-.104-16.542 7.762-32.5 24.05-48.788 35.522-35.523 92.874-44.331 122.985-46.456zm-285.98 151.129c-18.536-19.891-40.638-40.685-66.878-61.381-8.669-6.839-21.241-5.354-28.079 3.316s-5.353 21.242 3.316 28.079c26.895 21.213 48.971 42.495 66.86 62.225-8.882 2.537-18.608 3.817-24.402 3.817-16.731 0-32.731-7.866-48.913-24.049-35.542-35.542-44.34-92.935-46.459-123.033 30.125 2.126 87.47 10.937 122.988 46.455 16.287 16.287 24.155 32.246 24.05 48.786-.037 5.621-1.03 10.918-2.483 15.785z"/></symbol><symbol viewBox="0 0 512 512" id="like" xmlns="http://www.w3.org/2000/svg"><path d="M452 188h-30a59.77 59.77 0 00-18.663 2.971l-98.74-153.753-12.888-18.104L290.616 18C279.239 6.392 264.022 0 247.769 0c-33.084 0-60 26.916-60 60a59.91 59.91 0 003.244 19.495l.409 1.192.557 1.132c3.142 6.395 6.5 13.081 10.055 20.158 8.963 17.845 23.761 47.306 25.978 56.162C226.569 168.62 212.556 175 202.574 175H71c-31.43 0-57 25.57-57 57a56.827 56.827 0 007.982 29.021C8.429 271.569 0 287.974 0 306a57.875 57.875 0 0014.563 38.398 56.659 56.659 0 008.038 7.487c-4.851 8.455-7.535 18.124-7.535 28.115 0 21.677 12.255 40.567 30.247 50.204C41.87 437.408 40 445.313 40 453.429 40 487.367 64.062 512 97.214 512H293c11.046 0 20-8.954 20-20s-8.954-20-20-20H97.214C81.678 472 80 459.013 80 453.429c0-8.252 6.97-12.739 9.105-13.917 11.22-6.189 12.895-15.081 12.895-19.83C102 406.963 91.019 397 77 397h-4.511c-9.607 0-17.423-7.626-17.423-17 0-5.966 3.324-11.587 8.674-14.668.339-.195.654-.363.94-.517 8.839-4.774 13.32-11.634 13.32-20.39 0-7.547-5.038-20.593-23.92-21.612C46.448 322.4 40 314.701 40 306c0-7.672 5.422-14.609 12.892-16.493C64.919 286.473 73 277.026 73 266c0-5.459-2.013-13.362-11.6-20.014-4.633-3.215-7.4-8.443-7.4-13.986 0-9.374 7.626-17 17-17h131.574c30.471 0 64.185-21.643 65.519-56.607l.015-.763c0-12.025-8.777-30.697-30.33-73.606-3.267-6.504-6.365-12.672-9.246-18.519a20.031 20.031 0 01-.763-5.505c0-11.028 8.972-20 20-20 4.982 0 9.673 1.802 13.345 5.101l10.091 14.143 100.364 156.281A59.642 59.642 0 00362 248v204c0 33.084 26.916 60 60 60h30c33.084 0 60-26.916 60-60V248c0-33.084-26.916-60-60-60zm20 264c0 11.028-8.972 20-20 20h-30c-11.028 0-20-8.972-20-20V248c0-11.028 8.972-20 20-20h30c11.028 0 20 8.972 20 20v204z"/></symbol><symbol viewBox="0 0 430.117 430.118" id="linkedin" xmlns="http://www.w3.org/2000/svg"><path d="M398.355 0H31.782C14.229 0 .002 13.793.002 30.817v368.471c0 17.025 14.232 30.83 31.78 30.83h366.573c17.549 0 31.76-13.814 31.76-30.83V30.817C430.115 13.798 415.904 0 398.355 0zM130.4 360.038H65.413V165.845H130.4v194.193zM97.913 139.315h-.437c-21.793 0-35.92-14.904-35.92-33.563 0-19.035 14.542-33.535 36.767-33.535 22.227 0 35.899 14.496 36.331 33.535 0 18.663-14.099 33.563-36.741 33.563zm266.746 220.723h-64.966v-103.9c0-26.107-9.413-43.921-32.907-43.921-17.973 0-28.642 12.018-33.327 23.621-1.736 4.144-2.166 9.94-2.166 15.728v108.468h-64.954s.85-175.979 0-194.192h64.964v27.531c8.624-13.229 24.035-32.1 58.534-32.1 42.76 0 74.822 27.739 74.822 87.414v111.351zM230.883 193.99c.111-.182.266-.401.42-.614v.614h-.42z"/></symbol><symbol viewBox="0 0 32 32" id="location" xmlns="http://www.w3.org/2000/svg"><path d="M16 0C10.477 0 6 4.477 6 10c0 10 10 22 10 22s10-12 10-22c0-5.523-4.477-10-10-10zm0 16a6 6 0 110-12 6 6 0 010 12z"/></symbol><symbol viewBox="-25 0 510 510.257" id="paperclip" xmlns="http://www.w3.org/2000/svg"><path d="M427.828 314.484l-37.738-37.738-169.817-169.809c-31.296-31.062-81.816-30.968-112.996.211-31.18 31.18-31.273 81.7-.21 112.997l169.808 169.859c6.945 6.95 18.21 6.95 25.16 0 6.945-6.95 6.945-18.211 0-25.16l-169.808-169.86c-17.368-17.367-17.368-45.52 0-62.886 17.367-17.368 45.52-17.368 62.886 0l169.86 169.808 37.738 37.735c31.266 31.277 31.254 81.976-.02 113.238-31.277 31.262-81.972 31.254-113.238-.024l-31.441-31.453L81.91 245.301l-12.582-12.578C25.352 187.37 25.91 115.12 70.578 70.449 115.25 25.781 187.5 25.223 232.852 69.2l188.68 188.684a17.797 17.797 0 0029.765-7.977 17.796 17.796 0 00-4.606-17.183l-188.68-188.68c-59.09-58.82-154.64-58.711-213.593.246-58.957 58.953-59.066 154.504-.246 213.594l188.68 188.68 31.488 31.453c45.41 43.617 117.375 42.89 161.89-1.641 44.52-44.527 45.227-116.492 1.598-161.89zm0 0"/></symbol><symbol viewBox="0 0 32 32" id="phone" xmlns="http://www.w3.org/2000/svg"><path d="M23 19c-2 2-2 4-4 4s-4-2-6-4-4-4-4-6 2-2 4-4-4-8-6-8-6 6-6 6c0 4 4.1 12.1 8 16s12 8 16 8c0 0 6-4 6-6s-6-8-8-6z"/></symbol><symbol viewBox="0 0 511.999 511.999" id="phone-line" xmlns="http://www.w3.org/2000/svg"><path d="M267.998 61.092l1-.002c48.74 0 94.412 18.844 128.686 53.118 34.557 34.557 53.459 80.618 53.225 129.697-.052 11.045 8.859 20.042 19.905 20.095h.097c10.999 0 19.944-8.892 19.997-19.905.285-59.837-22.778-116.009-64.94-158.172C384.134 44.088 328.43 21.09 269.004 21.09l-1.099.002c-11.046.053-19.957 9.05-19.905 20.095.053 11.013 8.997 19.905 19.998 19.905zm243.951 351.461c-.714-19.805-8.964-38.287-23.229-52.042-27.931-26.933-51.332-42.481-73.646-48.929-30.75-8.887-59.226-.805-84.641 24.016l-.115.113-27.066 26.865c-16.811-9.444-49.491-30.227-85.234-65.971l-2.632-2.63c-35.508-35.507-56.423-68.373-65.939-85.253l26.839-27.041.113-.115c24.821-25.414 32.902-53.892 24.016-84.64-6.448-22.313-21.995-45.715-48.929-73.646C137.731 9.015 119.249.765 99.446.051 79.647-.662 60.614 6.232 45.865 19.472l-.574.516c-.267.239-.527.486-.78.739C15.151 50.085-.239 91.187.003 139.588c.41 82.22 45.599 176.249 120.879 251.528l.188.186c14.152 14.132 30.22 28.116 47.762 41.567 8.765 6.721 21.319 5.063 28.041-3.702 6.721-8.766 5.064-21.32-3.702-28.041-16.236-12.448-31.041-25.333-44.004-38.296a16.31 16.31 0 00-.187-.185C81.095 294.683 40.361 211.239 40.002 139.387c-.186-37.276 11.027-68.389 32.431-90.014l.153-.138a35.978 35.978 0 0150.108 1.808c51.781 53.698 48.031 79.049 25.151 102.511l-37.074 37.353a20 20 0 00-4.075 22.226c.941 2.114 23.709 52.427 80.414 109.132l2.632 2.629c56.698 56.699 107.011 79.466 109.125 80.408a19.999 19.999 0 0022.226-4.075l37.346-37.068c23.466-22.883 48.818-26.638 102.518 25.145a35.977 35.977 0 011.81 50.105l-.141.157c-21.45 21.229-52.231 32.433-89.102 32.433-.303 0-.608 0-.912-.002-29.471-.147-63.598-8.226-98.689-23.362-10.142-4.376-21.911.3-26.286 10.443-4.375 10.142.301 21.911 10.443 26.286 40.562 17.496 79.029 26.456 114.332 26.633l1.122.002c47.914-.001 88.608-15.379 117.738-44.51.254-.254.5-.513.739-.78l.519-.577c13.236-14.747 20.133-33.775 19.419-53.579z"/><path d="M369.457 142.549c-21.453-21.454-42.043-27.147-51.939-29.884-10.649-2.945-21.663 3.299-24.607 13.946-2.944 10.646 3.299 21.663 13.946 24.607 8.092 2.238 20.32 5.62 34.316 19.615 13.473 13.473 17.052 25.636 19.421 33.685l.289.979c2.574 8.697 10.538 14.329 19.169 14.329 1.88.001 3.792-.267 5.686-.828 10.591-3.135 16.636-14.263 13.5-24.854l-.271-.918c-3.085-10.482-8.827-29.994-29.51-50.677z"/></symbol><symbol viewBox="0 0 512 512" id="piggy-bank" xmlns="http://www.w3.org/2000/svg"><circle cx="133.186" cy="256.612" r="19.97"/><path d="M497.278 186.256c-7.424-8.156-20.053-8.751-28.21-1.327-8.157 7.424-8.751 20.054-1.328 28.21 2.648 2.909 3.935 7.221 3.935 13.185 0 10.379-3.976 13.972-7.865 16.119-4.443 2.451-9.818 3.126-11.612 3.185h-13.534c-8.045-37.764-27.95-69.206-58.728-92.247-13.995-10.476-30.005-19.049-47.719-25.629 7.543-12.897 11.651-27.705 11.651-42.881C343.867 38.073 305.794 0 258.996 0s-84.872 38.073-84.872 84.872c0 4.99.441 9.943 1.303 14.805-22.649-19.203-50.673-29.731-82.529-30.769a19.98 19.98 0 00-17.704 9.569 19.972 19.972 0 00-.384 20.122c.157.28 14.144 25.61 19.443 55.791-20.16 18.697-29.679 39.774-36.868 55.69-2.687 5.951-6.288 13.925-8.606 16.579H20.356c-11.029 0-19.97 8.94-19.97 19.97v79.879c0 11.029 8.94 19.97 19.97 19.97h20.857c11.082 25.85 28.568 48.533 51.422 66.718l-6.622 16.061c-6.099 14.795-6.073 31.079.076 45.853 6.149 14.775 17.682 26.27 32.476 32.369a59.583 59.583 0 0022.757 4.523c23.555-.002 45.944-13.982 55.464-37.075l7.161-17.37a263.308 263.308 0 0030.402 1.75h1.365c16.12 0 31.765-1.131 46.707-3.372l7.829 18.991c12.591 30.539 47.679 45.144 78.221 32.553 14.794-6.099 26.328-17.594 32.476-32.369 6.149-14.774 6.176-31.057.076-45.853l-14.501-35.172c-4.204-10.198-15.875-15.055-26.075-10.851-10.196 4.204-15.054 15.877-10.851 26.074l14.501 35.172a19.844 19.844 0 01-.025 15.285 19.84 19.84 0 01-10.826 10.79c-10.181 4.195-21.876-.671-26.074-10.851l-13.973-33.892c-3.675-8.916-13.197-13.93-22.627-11.92-17.039 3.635-35.498 5.476-54.862 5.476h-1.365c-13.39 0-26.618-1.178-39.32-3.502-9.269-1.692-18.464 3.32-22.056 12.033l-13.112 31.806c-4.198 10.178-15.894 15.046-26.074 10.85a19.84 19.84 0 01-10.826-10.79 19.835 19.835 0 01-.025-15.285l12.605-30.573a19.97 19.97 0 00-7.433-24.259c-26.23-17.378-44.95-41.365-54.136-69.365a19.962 19.962 0 00-18.971-13.744H40.326v-39.94h9.309c26.047 0 36.083-22.223 44.148-40.079 7.168-15.871 15.292-33.859 33.902-48.139a19.969 19.969 0 007.713-17.834c-1.641-16.362-5.687-31.94-10.1-45.009 15.931 6.324 29.458 17.055 40.42 32.11a19.962 19.962 0 0019.553 7.922c14.538-2.519 31.05-3.797 49.076-3.797h1.365c39.191 0 167.063 9.648 167.063 133.798 0 11.168-1.074 21.857-3.194 31.771-2.306 10.786 4.569 21.398 15.354 23.703 10.778 2.297 21.397-4.569 23.703-15.355 2.705-12.653 4.077-26.151 4.077-40.12h9.652c2.427 0 15.209-.339 28.568-7.017 19.782-9.89 30.677-28.438 30.677-52.226.002-15.91-4.956-29.765-14.334-40.071zm-206.432-69.69c-17.336-3.137-35.779-4.735-55.131-4.735h-1.365c-3.782 0-7.512.052-11.187.154a44.96 44.96 0 01-9.099-27.113c0-24.776 20.156-44.932 44.932-44.932s44.932 20.156 44.932 44.932c0 12.047-4.631 23.225-13.082 31.694z"/></symbol><symbol viewBox="0 0 475.082 475.081" id="right-quotates" xmlns="http://www.w3.org/2000/svg"><path d="M164.454 36.547H54.818c-15.229 0-28.171 5.33-38.832 15.987C5.33 63.193 0 76.135 0 91.365v109.632c0 15.229 5.327 28.169 15.986 38.826 10.66 10.656 23.606 15.988 38.832 15.988h63.953c7.611 0 14.084 2.666 19.414 7.994 5.33 5.325 7.994 11.8 7.994 19.417v9.131c0 20.177-7.139 37.397-21.413 51.675-14.275 14.271-31.499 21.409-51.678 21.409h-18.27c-4.952 0-9.233 1.813-12.851 5.427-3.615 3.614-5.424 7.898-5.424 12.847v36.549c0 4.941 1.809 9.233 5.424 12.848 3.621 3.613 7.898 5.427 12.851 5.427h18.271c19.797 0 38.688-3.86 56.676-11.566 17.987-7.707 33.546-18.131 46.68-31.265 13.131-13.135 23.553-28.691 31.261-46.679 7.707-17.987 11.562-36.877 11.562-56.671V91.361c0-15.23-5.33-28.171-15.987-38.828s-23.602-15.986-38.827-15.986zm294.635 15.987c-10.656-10.657-23.599-15.987-38.828-15.987H310.629c-15.229 0-28.171 5.33-38.828 15.987-10.656 10.66-15.984 23.601-15.984 38.831v109.632c0 15.229 5.328 28.169 15.984 38.826 10.657 10.656 23.6 15.988 38.828 15.988h63.953c7.611 0 14.089 2.666 19.418 7.994 5.324 5.328 7.994 11.8 7.994 19.417v9.131c0 20.177-7.139 37.397-21.416 51.675-14.274 14.271-31.494 21.409-51.675 21.409h-18.274c-4.948 0-9.233 1.813-12.847 5.427-3.617 3.614-5.428 7.898-5.428 12.847v36.549c0 4.941 1.811 9.233 5.428 12.848 3.613 3.613 7.898 5.427 12.847 5.427h18.274c19.794 0 38.684-3.86 56.674-11.566 17.984-7.707 33.541-18.131 46.676-31.265 13.134-13.135 23.562-28.695 31.265-46.679 7.706-17.983 11.563-36.877 11.563-56.671V91.361c-.003-15.23-5.328-28.171-15.992-38.827z"/></symbol><symbol viewBox="0 0 511.999 511.999" id="safe-box" xmlns="http://www.w3.org/2000/svg"><path d="M431.423 0H80.576C36.146 0 0 36.146 0 80.576v350.848C0 475.854 36.146 512 80.576 512h350.848C475.853 512 512 475.853 512 431.424V80.576C512 36.146 475.854 0 431.423 0zM30.597 223.591h33.037v64.817H30.597v-64.817zm400.827 257.811H80.577c-27.559.001-49.979-22.42-49.979-49.978V319.005h33.037v85.258c0 24.319 19.784 44.103 44.103 44.103h296.527c24.319 0 44.103-19.784 44.103-44.103V107.737c0-24.319-19.784-44.103-44.103-44.103H107.737c-24.319 0-44.103 19.784-44.103 44.103v85.258H30.597V80.576c0-27.558 22.421-49.978 49.978-49.978h350.848c27.559 0 49.978 22.421 49.978 49.978v350.848h.001c.001 27.558-22.42 49.978-49.978 49.978zM94.231 107.737c0-7.447 6.058-13.506 13.506-13.506h296.527c7.447 0 13.506 6.058 13.506 13.506v296.527c0 7.447-6.058 13.506-13.506 13.506H107.737c-7.447 0-13.506-6.058-13.506-13.506V107.737z"/><path d="M256.004 147.889c-59.612 0-108.11 48.498-108.11 108.11s48.498 108.11 108.11 108.11 108.11-48.498 108.11-108.11-48.498-108.11-108.11-108.11zm0 88.732c10.686 0 19.378 8.693 19.378 19.378s-8.693 19.378-19.378 19.378-19.378-8.693-19.378-19.378 8.692-19.378 19.378-19.378zm-64.528 62.267C183.28 286.597 178.49 271.849 178.49 256c.001-37.504 26.777-68.866 62.215-75.989v28.419c-20.094 6.478-34.677 25.35-34.677 47.57a49.644 49.644 0 005.53 22.806l-20.082 20.082zm64.528 34.626c-15.851-.002-30.6-4.793-42.892-12.991l20.081-20.081a49.645 49.645 0 0022.811 5.533 49.644 49.644 0 0022.806-5.53l20.082 20.082c-12.291 8.197-27.039 12.987-42.888 12.987zm64.524-34.622l-20.081-20.081A49.645 49.645 0 00305.98 256c0-22.221-14.583-41.093-34.677-47.57v-28.42c35.437 7.123 62.213 38.485 62.213 75.989 0 15.852-4.791 30.601-12.988 42.893z"/></symbol><symbol viewBox="0 0 512 512" id="settings" xmlns="http://www.w3.org/2000/svg"><path d="M256 140c-63.963 0-116 52.038-116 116s52.037 116 116 116c11.947 0 23.735-1.813 35.036-5.39 10.531-3.333 16.365-14.572 13.032-25.103-3.332-10.531-14.574-16.366-25.103-13.033A75.99 75.99 0 01256 332c-41.906 0-76-34.093-76-76s34.094-76 76-76 76 34.093 76 76a76.118 76.118 0 01-3.045 21.386c-3.101 10.602 2.98 21.709 13.582 24.81 10.604 3.101 21.709-2.98 24.811-13.582A116.145 116.145 0 00372 256c0-63.962-52.037-116-116-116z"/><path d="M452 186.001h-10.071c-2.65 0-5.052-1.669-6.092-4.187l-.178-.432c-1.077-2.594-.562-5.481 1.311-7.355l7.123-7.122c23.394-23.394 23.394-61.459 0-84.853L429.951 67.91c-11.333-11.333-26.401-17.574-42.427-17.574-16.028 0-31.095 6.241-42.427 17.574l-7.121 7.121c-1.875 1.875-4.765 2.389-7.347 1.316l-.377-.156c-2.583-1.067-4.251-3.468-4.251-6.117V60c0-33.084-26.916-60-60-60h-20c-33.084 0-60 26.916-60 60v10.074c0 2.649-1.668 5.05-4.229 6.107l-.391.162c-2.591 1.078-5.481.563-7.354-1.311l-7.122-7.122c-11.332-11.333-26.4-17.574-42.427-17.574S93.384 56.577 82.051 67.91L67.909 82.05c-23.394 23.395-23.394 61.459.001 84.854l7.121 7.121c1.874 1.875 2.388 4.762 1.281 7.43l-.121.292c-1.066 2.583-3.469 4.252-6.118 4.252H60c-33.084 0-60 26.916-60 60v20c0 33.084 26.916 60 60 60h10.072c2.65 0 5.051 1.669 6.092 4.187l.178.432c1.077 2.594.562 5.481-1.312 7.355l-7.121 7.122c-11.333 11.333-17.574 26.4-17.574 42.427 0 16.026 6.241 31.093 17.573 42.426L82.05 444.09c11.333 11.333 26.401 17.574 42.427 17.574 16.028 0 31.095-6.241 42.427-17.574l7.121-7.121c1.873-1.875 4.764-2.389 7.347-1.316l.377.156c2.583 1.067 4.251 3.468 4.251 6.117V452c0 33.084 26.916 60 60 60h20c33.084 0 60-26.916 60-60v-10.074c0-2.649 1.668-5.05 4.229-6.107l.391-.162c2.593-1.076 5.481-.562 7.354 1.311l7.122 7.122c11.332 11.333 26.4 17.574 42.427 17.574s31.094-6.241 42.427-17.574l14.142-14.142c11.332-11.332 17.573-26.4 17.573-42.426 0-16.027-6.241-31.094-17.573-42.426l-7.122-7.122c-1.875-1.874-2.389-4.761-1.312-7.355l.151-.366c1.067-2.583 3.469-4.252 6.118-4.252H452c33.084 0 60-26.916 60-60v-20c0-33.084-26.916-60-60-60zM472 266c0 11.028-8.972 20-20 20h-10.073c-18.905 0-35.818 11.376-43.089 28.983l-.13.314c-7.298 17.599-3.384 37.6 9.976 50.961l7.123 7.122a19.87 19.87 0 015.857 14.142c0 5.342-2.08 10.364-5.858 14.142l-14.141 14.142a19.876 19.876 0 01-14.143 5.858 19.865 19.865 0 01-14.142-5.858l-7.123-7.123c-13.368-13.365-33.381-17.276-50.991-9.962l-.282.117C297.377 406.108 286 423.021 286 441.926V452c0 11.028-8.972 20-20 20h-20c-11.028 0-20-8.972-20-20v-10.074c0-18.905-11.377-35.818-29.005-43.097l-.27-.112a47.223 47.223 0 00-18.137-3.636 46.36 46.36 0 00-32.846 13.603l-7.122 7.123a19.87 19.87 0 01-14.142 5.857 19.87 19.87 0 01-14.142-5.858l-14.142-14.142a19.868 19.868 0 01-5.858-14.142c0-5.342 2.08-10.365 5.858-14.142l7.122-7.122c13.361-13.361 17.275-33.362 9.976-50.961l-.13-.314C105.89 297.376 88.977 286 70.073 286H60c-11.028 0-20-8.972-20-20v-20c0-11.028 8.972-20 20-20h10.073c18.905 0 35.818-11.376 43.116-29.047l.093-.227c7.312-17.604 3.4-37.616-9.967-50.984l-7.121-7.121c-7.799-7.799-7.799-20.487 0-28.285l14.141-14.142a19.876 19.876 0 0114.143-5.858c5.343 0 10.365 2.08 14.142 5.858l7.123 7.123c13.369 13.366 33.382 17.278 50.991 9.962l.282-.117C214.623 105.892 226 88.979 226 70.074V60c0-11.028 8.972-20 20-20h20c11.028 0 20 8.972 20 20v10.074c0 18.905 11.377 35.818 29.005 43.096l.27.112c17.601 7.31 37.614 3.399 50.983-9.967l7.122-7.123a19.87 19.87 0 0114.142-5.857 19.87 19.87 0 0114.142 5.858l14.142 14.142c7.799 7.798 7.799 20.486.001 28.284l-7.123 7.123c-13.366 13.368-17.278 33.379-9.996 50.91l.15.365C406.11 214.624 423.023 226 441.927 226H452c11.028 0 20 8.972 20 20v20z"/></symbol><symbol viewBox="0 0 512 512" id="shield" xmlns="http://www.w3.org/2000/svg"><path d="M467.7 92.539L263.1 1.716a19.957 19.957 0 00-16.263.03L44.232 92.569a19.963 19.963 0 00-11.796 18.214v157.692c0 59.596 23.551 120.517 64.615 167.142 20.655 23.452 44.466 42.01 70.774 55.158C196.004 504.859 225.67 512 256 512c42.469 0 83.803-13.746 119.536-39.751 8.914-6.487 10.881-18.972 4.393-27.886-6.487-8.913-18.972-10.88-27.885-4.393-28.862 21.005-62.073 32.108-96.043 32.108-96.111 0-183.641-97.044-183.641-203.602V123.71l182.683-81.892 184.599 81.944v144.713c0 36.757-10.559 73.956-30.537 107.572-5.632 9.477-2.515 21.726 6.962 27.358 9.479 5.633 21.726 2.515 27.358-6.962 23.643-39.785 36.139-84.035 36.139-127.967V110.783A19.963 19.963 0 00467.7 92.539z"/><path d="M344.565 168.972l-98.389 137.432c-2.687 3.116-6.053 3.789-7.858 3.908-1.855.124-5.411-.112-8.548-3.051l-63.588-62.054c-7.89-7.7-20.528-7.546-28.227.345-7.699 7.89-7.545 20.527.345 28.227l63.697 62.16.179.172c9.55 9.091 22.296 14.147 35.411 14.147a49.821 49.821 0 003.387-.112c14.286-.952 27.623-7.9 36.591-19.061.232-.288.456-.583.671-.884l98.789-137.99c6.417-8.964 4.352-21.433-4.611-27.85-8.963-6.418-21.433-4.354-27.849 4.611z"/></symbol><symbol viewBox="0 0 512 512" id="shop" xmlns="http://www.w3.org/2000/svg"><path d="M510.395 152.744L465.95 48.599A79.891 79.891 0 00392.37 0H119.63a79.892 79.892 0 00-73.58 48.599L1.605 152.744A20.002 20.002 0 000 160.594v26c0 27.34 16.469 50.893 40 61.298V432c0 44.112 35.888 80 80 80h272c44.112 0 80-35.888 80-80 0-11.046-8.954-20-20-20s-20 8.954-20 20c0 22.056-17.944 40-40 40H120c-22.056 0-40-17.944-40-40V252.318c13.101-2.587 24.839-9.002 34-18.032a67.515 67.515 0 006 5.243V369c0 11.046 8.954 20 20 20h232c11.046 0 20-8.954 20-20V239.529a67.515 67.515 0 006-5.243c9.161 9.03 20.899 15.445 34 18.032V332c0 11.046 8.954 20 20 20s20-8.954 20-20v-84.107c23.531-10.406 40-33.958 40-61.298v-26c0-2.699-.546-5.369-1.605-7.851zM94 186.594c0 14.888-12.112 27-27 27s-27-12.112-27-27V180h54v6.594zm40 0V180h54v6.594c0 14.888-12.112 27-27 27s-27-12.112-27-27zM352 349H160v-95.431c.334.005.665.025 1 .025 18.445 0 35.173-7.494 47.3-19.595 12.284 12.106 29.131 19.595 47.7 19.595 18.569 0 35.416-7.489 47.7-19.595 12.128 12.101 28.855 19.595 47.3 19.595.335 0 .666-.021 1-.025V349zM228 185.594V180h56v5.594c0 15.439-12.561 28-28 28s-28-12.561-28-28zm150 1c0 14.888-12.112 27-27 27s-27-12.112-27-27V180h54v6.594zM50.534 140L82.84 64.299A39.947 39.947 0 01119.63 40h272.74a39.947 39.947 0 0136.79 24.299L461.466 140H50.534zM472 186.594c0 14.888-12.112 27-27 27s-27-12.112-27-27V180h54v6.594z"/></symbol><symbol viewBox="0 0 318.4 55.9" id="star-five" xmlns="http://www.w3.org/2000/svg"><path d="M55.8 21.6c-.1-.4-.4-.6-.8-.7l-18.1-2.6-8.1-16.4c-.2-.3-.5-.6-.9-.6s-.7.2-.9.6l-8.1 16.4-18 2.6c-.4.1-.7.3-.9.7-.1.4 0 .8.3 1l13.1 12.8-3.1 18c-.1.4.1.8.4 1 .3.2.7.3 1.1.1L28 46l16.2 8.5c.1.1.3.1.5.1s.4-.1.6-.2c.3-.2.5-.6.4-1l-3.1-18 13.1-12.8c.1-.3.2-.7.1-1zm66 0c-.1-.4-.4-.6-.8-.7l-18.1-2.6-8.1-16.4c-.2-.3-.5-.6-.9-.6s-.7.2-.9.6l-8.1 16.4-18.1 2.6c-.4.1-.7.3-.8.7-.1.4 0 .8.3 1l13.1 12.8-3.1 18c-.1.4.1.8.4 1 .3.2.7.3 1.1.1L94 46l16.2 8.5c.1.1.3.1.5.1s.4-.1.6-.2c.3-.2.5-.6.4-1l-3.1-18 13.1-12.8c.1-.3.2-.7.1-1zm65 0c-.1-.4-.4-.6-.8-.7l-18.1-2.6-8.1-16.4c-.2-.3-.5-.6-.9-.6s-.7.2-.9.6l-8.1 16.4-18.1 2.6c-.4.1-.7.3-.8.7-.1.4 0 .8.3 1l13.1 12.8-3.1 18c-.1.4.1.8.4 1 .3.2.7.3 1.1.1L159 46l16.2 8.5c.1.1.3.1.5.1s.4-.1.6-.2c.3-.2.5-.6.4-1l-3.1-18 13.1-12.8c.1-.3.2-.7.1-1zm65 0c-.1-.4-.4-.6-.8-.7l-18.1-2.6-8.1-16.4c-.2-.3-.5-.6-.9-.6s-.7.2-.9.6l-8.1 16.4-18.1 2.6c-.4.1-.7.3-.8.7-.1.4 0 .8.3 1l13.1 12.8-3.1 18c-.1.4.1.8.4 1 .3.2.7.3 1.1.1L224 46l16.2 8.5c.1.1.3.1.5.1s.4-.1.6-.2c.3-.2.5-.6.4-1l-3.1-18 13.1-12.8c.1-.3.2-.7.1-1zm66 0c-.1-.4-.4-.6-.8-.7l-18.1-2.6-8.1-16.4c-.2-.3-.5-.6-.9-.6s-.7.2-.9.6l-8.1 16.4-18.1 2.6c-.4.1-.7.3-.8.7-.1.4 0 .8.3 1l13.1 12.8-3.1 18c-.1.4.1.8.4 1 .3.2.7.3 1.1.1L290 46l16.2 8.5c.1.1.3.1.5.1s.4-.1.6-.2c.3-.2.5-.6.4-1l-3.1-18 13.1-12.8c.1-.3.2-.7.1-1z"/></symbol><symbol viewBox="0 0 512 512" id="tax" xmlns="http://www.w3.org/2000/svg"><circle cx="96.96" cy="200.523" r="19.992"/><path d="M255.895 133.43c28.641 0 53.729 22.64 59.654 53.832 2.06 10.848 12.521 17.972 23.371 15.909 10.848-2.06 17.971-12.524 15.909-23.371-9.504-50.036-51.113-86.353-98.935-86.353-55.668 0-100.958 48.429-100.958 107.955 0 24.568 7.92 48.612 22.302 67.702 14.443 19.173 34.738 32.596 57.145 37.795 1.52.353 3.04.522 4.536.522 9.09 0 17.314-6.242 19.457-15.478 2.496-10.756-4.2-21.497-14.956-23.993-28.103-6.52-48.501-34.509-48.501-66.549.001-37.479 27.354-67.971 60.976-67.971z"/><path d="M255.895 349.462H79.967c-22.047 0-39.984-17.937-39.984-39.984V93.567c0-22.047 17.937-39.984 39.984-39.984h351.855c22.047 0 39.984 17.937 39.984 39.984v88.963c0 11.041 8.95 19.992 19.992 19.992 11.041 0 19.992-8.95 19.992-19.992V93.567c0-44.094-35.873-79.967-79.967-79.967H79.967C35.873 13.6 0 49.473 0 93.567v215.911c0 44.094 35.873 79.967 79.967 79.967h175.927c11.041 0 19.992-8.95 19.992-19.992 0-11.04-8.95-19.991-19.991-19.991zm238.703-104.104c-8.913-6.516-21.421-4.571-27.937 4.343L308.727 465.778c-6.515 8.913-4.571 21.421 4.343 27.937a19.899 19.899 0 0011.781 3.853c6.161 0 12.242-2.841 16.156-8.197l157.935-216.076c6.515-8.913 4.571-21.421-4.344-27.937zm-32.577 153.083c-27.559 0-49.979 22.421-49.979 49.979s22.421 49.979 49.979 49.979c27.559 0 49.979-22.421 49.979-49.979s-22.421-49.979-49.979-49.979zm0 59.976c-5.512 0-9.996-4.484-9.996-9.996s4.484-9.996 9.996-9.996c5.512 0 9.996 4.484 9.996 9.996-.001 5.512-4.485 9.996-9.996 9.996z"/><path d="M344.858 338.466c27.559 0 49.979-22.421 49.979-49.979s-22.421-49.979-49.979-49.979-49.979 22.421-49.979 49.979c-.001 27.559 22.42 49.979 49.979 49.979zm0-59.975c5.512 0 9.996 4.484 9.996 9.996 0 5.512-4.484 9.996-9.996 9.996-5.512 0-9.996-4.484-9.996-9.996 0-5.512 4.484-9.996 9.996-9.996z"/></symbol><symbol viewBox="0 0 512 512" id="time" xmlns="http://www.w3.org/2000/svg"><path d="M458.406 380.681c-8.863-6.593-21.391-4.752-27.984 4.109A217.989 217.989 0 01418.889 399c-7.315 8.275-6.538 20.915 1.737 28.231a19.923 19.923 0 0013.239 5.016c5.532 0 11.04-2.283 14.992-6.754a257.803 257.803 0 0013.658-16.829c6.593-8.861 4.754-21.391-4.109-27.983zm33.448-93.795c-10.786-2.349-21.447 4.496-23.796 15.288a215.372 215.372 0 01-4.646 17.681c-3.261 10.554 2.651 21.752 13.204 25.013 1.967.607 3.955.896 5.911.896 8.54 0 16.448-5.514 19.102-14.102a255.373 255.373 0 005.514-20.98c2.349-10.792-4.496-21.446-15.289-23.796zM362.139 444.734a216.715 216.715 0 01-16.34 8.233c-10.067 4.546-14.542 16.392-9.996 26.459 3.34 7.396 10.619 11.773 18.239 11.773 2.752 0 5.549-.571 8.22-1.777a256.456 256.456 0 0019.377-9.764c9.645-5.384 13.098-17.568 7.712-27.212-5.383-9.643-17.567-13.096-27.212-7.712zM236 96v151.716l-73.339 73.338c-7.81 7.811-7.81 20.474 0 28.284a19.935 19.935 0 0014.143 5.858 19.943 19.943 0 0014.143-5.858l79.196-79.196A20.001 20.001 0 00276 256V96c0-11.046-8.954-20-20-20s-20 8.954-20 20z"/><path d="M492 43c-11.046 0-20 8.954-20 20v55.536C425.448 45.528 344.151 0 256 0 187.62 0 123.333 26.629 74.98 74.98 26.629 123.333 0 187.62 0 256s26.629 132.667 74.98 181.02C123.333 485.371 187.62 512 256 512c.169 0 .332-.021.5-.025.168.004.331.025.5.025 7.208 0 14.487-.304 21.637-.902 11.007-.922 19.183-10.592 18.262-21.599-.923-11.007-10.58-19.187-21.6-18.261-6.044.505-12.2.762-18.299.762-.169 0-.332.021-.5.025-.168-.004-.331-.025-.5-.025-119.103 0-216-96.897-216-216S136.897 40 256 40c76.758 0 147.357 40.913 185.936 106h-54.993c-11.046 0-20 8.954-20 20s8.954 20 20 20H448a63.612 63.612 0 0033.277-9.353 19.968 19.968 0 001.796-1.152C500.479 164.044 512 144.347 512 122V63c0-11.046-8.954-20-20-20z"/></symbol><symbol viewBox="0 0 512 512" id="twitter" xmlns="http://www.w3.org/2000/svg"><path d="M512 97.248c-19.04 8.352-39.328 13.888-60.48 16.576 21.76-12.992 38.368-33.408 46.176-58.016-20.288 12.096-42.688 20.64-66.56 25.408C411.872 60.704 384.416 48 354.464 48c-58.112 0-104.896 47.168-104.896 104.992 0 8.32.704 16.32 2.432 23.936-87.264-4.256-164.48-46.08-216.352-109.792-9.056 15.712-14.368 33.696-14.368 53.056 0 36.352 18.72 68.576 46.624 87.232-16.864-.32-33.408-5.216-47.424-12.928v1.152c0 51.008 36.384 93.376 84.096 103.136-8.544 2.336-17.856 3.456-27.52 3.456-6.72 0-13.504-.384-19.872-1.792 13.6 41.568 52.192 72.128 98.08 73.12-35.712 27.936-81.056 44.768-130.144 44.768-8.608 0-16.864-.384-25.12-1.44C46.496 446.88 101.6 464 161.024 464c193.152 0 298.752-160 298.752-298.688 0-4.64-.16-9.12-.384-13.568 20.832-14.784 38.336-33.248 52.608-54.496z"/></symbol><symbol viewBox="0 0 512 512" id="user" xmlns="http://www.w3.org/2000/svg"><path d="M510.702 438.722c-2.251-10.813-12.84-17.754-23.657-15.503-10.814 2.251-17.755 12.843-15.503 23.656 1.297 6.229-.248 12.613-4.236 17.519-2.31 2.841-7.461 7.606-15.999 7.606H60.693c-8.538 0-13.689-4.766-15.999-7.606-3.989-4.905-5.533-11.29-4.236-17.519 20.756-99.695 108.691-172.521 210.24-174.977a137.229 137.229 0 0010.624-.001c71.532 1.716 137.648 37.947 177.687 97.66 6.151 9.175 18.574 11.625 27.75 5.474 9.174-6.151 11.625-18.575 5.473-27.749-32.817-48.944-80.47-84.534-134.804-102.417C370.538 220.036 392 180.477 392 136 392 61.01 330.991 0 256 0S120 61.01 120 136c0 44.504 21.488 84.084 54.633 108.911-30.368 9.998-58.863 25.555-83.803 46.069-45.732 37.617-77.529 90.086-89.532 147.742-3.762 18.067.745 36.623 12.363 50.909C25.222 503.847 42.365 512 60.693 512h390.613c18.329 0 35.472-8.153 47.032-22.369 11.62-14.286 16.126-32.842 12.364-50.909zM160 136c0-52.935 43.065-96 96-96s96 43.065 96 96c0 51.305-40.455 93.339-91.141 95.878a261.967 261.967 0 00-9.699.001C200.465 229.35 160 187.312 160 136z"/></symbol></svg>